M48
; DRILL file {KiCad 9.0.2+dfsg-1} date 2026-07-05T03:24:01-0700
; FORMAT={-:-/ absolute / metric / decimal}
; #@! TF.CreationDate,2026-07-05T03:24:01-07:00
; #@! TF.GenerationSoftware,Kicad,Pcbnew,9.0.2+dfsg-1
; #@! TF.FileFunction,MixedPlating,1,4
FMAT,2
METRIC
; #@! TA.AperFunction,Plated,PTH,ViaDrill
T1C0.300
; #@! TA.AperFunction,Plated,PTH,ComponentDrill
T2C0.500
; #@! TA.AperFunction,Plated,PTH,ComponentDrill
T3C0.600
; #@! TA.AperFunction,Plated,PTH,ComponentDrill
T4C0.800
; #@! TA.AperFunction,Plated,PTH,ComponentDrill
T5C1.000
; #@! TA.AperFunction,Plated,PTH,ComponentDrill
T6C2.300
; #@! TA.AperFunction,Plated,PTH,ComponentDrill
T7C2.700
; #@! TA.AperFunction,NonPlated,NPTH,ComponentDrill
T8C0.650
; #@! TA.AperFunction,NonPlated,NPTH,ComponentDrill
T9C0.900
; #@! TA.AperFunction,NonPlated,NPTH,ComponentDrill
T10C1.500
%
G90
G05
T1
X168.666Y-103.759
X168.776Y-74.062
X171.29Y-78.026
X172.268Y-74.002
X172.732Y-73.207
X172.866Y-71.555
X174.379Y-95.752
X175.207Y-97.739
X177.064Y-78.219
X177.085Y-79.332
X177.172Y-70.444
X177.325Y-94.914
X177.65Y-80.067
X179.542Y-96.811
X179.687Y-101.792
X180.445Y-74.915
X181.391Y-96.697
X182.109Y-95.032
X183.086Y-83.736
X183.124Y-71.994
X183.221Y-97.992
X183.466Y-70.157
X183.644Y-81.382
X184.301Y-82.102
X185.798Y-80.472
X185.966Y-73.072
X186.272Y-87.066
X186.508Y-84.684
X186.717Y-81.428
X187.309Y-101.89
X187.333Y-84.589
X187.831Y-99.518
X188.051Y-98.027
X188.136Y-72.816
X188.277Y-96.979
X188.717Y-70.306
X188.725Y-83.47
X189.12Y-88.05
X189.367Y-84.108
X190.045Y-84.678
X190.234Y-100.052
X190.593Y-98.352
X190.812Y-86.774
X190.831Y-73.011
X191.303Y-74.658
X191.916Y-72.224
X192.118Y-88.819
X192.385Y-70.914
X193.038Y-86.351
X193.189Y-89.412
X193.416Y-97.714
X193.903Y-52.442
X194.954Y-84.901
X195.687Y-73.079
X196.246Y-79.764
X196.869Y-99.89
X196.914Y-74.269
X197.146Y-83.276
X197.503Y-81.137
X198.016Y-85.828
X199.041Y-106.661
X199.059Y-77.964
X199.229Y-81.189
X199.852Y-70.942
X201.656Y-99.814
X201.868Y-84.054
X201.977Y-68.351
X202.617Y-86.951
X202.657Y-92.686
X202.987Y-77.767
X203.081Y-96.049
X204.143Y-97.41
X204.746Y-69.011
X205.0Y-74.061
X205.536Y-64.172
X209.774Y-99.32
X210.96Y-82.968
X211.852Y-65.459
X212.482Y-73.768
X213.024Y-63.168
X213.024Y-65.061
X213.1Y-59.501
X214.053Y-71.094
X216.836Y-76.948
X216.919Y-85.938
X217.467Y-87.928
X220.249Y-82.968
X220.285Y-74.92
X220.339Y-64.051
X220.694Y-62.511
X220.907Y-66.331
X222.481Y-66.331
X222.694Y-62.188
X223.302Y-64.773
X223.522Y-103.747
X224.387Y-73.911
X225.409Y-58.543
X226.351Y-70.335
X226.866Y-73.987
X228.537Y-74.93
X228.837Y-71.889
X228.885Y-64.051
X229.063Y-91.873
X230.455Y-93.18
X231.052Y-64.773
X231.63Y-77.746
X232.066Y-65.157
X232.956Y-78.165
X233.672Y-76.003
X235.343Y-74.941
X235.401Y-67.751
X235.548Y-64.051
X235.774Y-71.889
X236.96Y-89.792
X237.782Y-75.005
X238.244Y-71.094
X243.356Y-86.173
X243.512Y-58.957
X247.537Y-82.589
X247.537Y-85.173
T2
X162.975Y-55.0
X162.975Y-105.0
X163.568Y-53.568
X163.568Y-56.432
X163.568Y-103.568
X163.568Y-106.432
X165.0Y-52.975
X165.0Y-57.025
X165.0Y-102.975
X165.0Y-107.025
X166.432Y-53.568
X166.432Y-56.432
X166.432Y-103.568
X166.432Y-106.432
X167.025Y-55.0
X167.025Y-105.0
X242.975Y-55.0
X242.975Y-105.0
X243.568Y-53.568
X243.568Y-56.432
X243.568Y-103.568
X243.568Y-106.432
X245.0Y-52.975
X245.0Y-57.025
X245.0Y-102.975
X245.0Y-107.025
X246.432Y-53.568
X246.432Y-56.432
X246.432Y-103.568
X246.432Y-106.432
X247.025Y-55.0
X247.025Y-105.0
T4
X230.775Y-96.855
X230.775Y-104.475
X233.315Y-96.855
X233.315Y-104.475
X235.855Y-96.855
X235.855Y-104.475
X238.395Y-96.855
X238.395Y-104.475
T5
X173.785Y-53.825
X173.785Y-56.365
X175.725Y-78.925
X175.725Y-81.465
X175.89Y-87.91
X175.89Y-90.45
X175.89Y-92.99
X175.89Y-95.53
X176.325Y-53.825
X176.325Y-56.365
X176.525Y-62.235
X176.525Y-64.775
X178.865Y-53.825
X178.865Y-56.365
X179.065Y-62.235
X179.065Y-64.775
X181.405Y-53.825
X181.405Y-56.365
X181.605Y-62.235
X181.605Y-64.775
X183.945Y-53.825
X183.945Y-56.365
X184.145Y-62.235
X184.145Y-64.775
X186.485Y-53.825
X186.485Y-56.365
X186.685Y-62.235
X186.685Y-64.775
X189.025Y-53.825
X189.025Y-56.365
X189.225Y-62.235
X189.225Y-64.775
X191.765Y-62.235
X191.765Y-64.775
X193.585Y-53.825
X193.585Y-56.365
X194.305Y-62.235
X194.305Y-64.775
X196.125Y-53.825
X196.125Y-56.365
X198.665Y-53.825
X198.665Y-56.365
X200.01Y-90.59
X201.025Y-60.475
X201.205Y-53.825
X201.205Y-56.365
X202.55Y-90.59
X203.565Y-60.475
X203.745Y-53.825
X203.745Y-56.365
X205.09Y-90.59
X206.285Y-53.825
X206.285Y-56.365
X207.63Y-90.59
X208.825Y-53.825
X208.825Y-56.365
X212.57Y-96.45
X215.11Y-96.45
X217.65Y-96.45
X246.17Y-93.57
X246.17Y-96.11
X246.17Y-98.65
T6
X168.4Y-85.53
X168.4Y-98.67
T7
X165.0Y-55.0
X165.0Y-105.0
X245.0Y-55.0
X245.0Y-105.0
T8
X176.252Y-101.267
X182.032Y-101.267
T9
X211.7Y-105.9
X218.5Y-105.9
T10
X205.03Y-99.495
X205.03Y-106.495
T3
X174.822Y-100.188G85X174.822Y-101.287
G05
X174.822Y-104.617G85X174.822Y-105.218
G05
X183.463Y-100.188G85X183.463Y-101.287
G05
X183.463Y-104.617G85X183.463Y-105.218
G05
T4
X191.44Y-93.9G85X194.04Y-93.9
G05
X191.64Y-99.7G85X193.84Y-99.7
G05
X197.54Y-98.0G85X197.54Y-95.8
G05
M30
