%TF.GenerationSoftware,KiCad,Pcbnew,9.0.2+dfsg-1*%
%TF.CreationDate,2026-07-05T03:24:00-07:00*%
%TF.ProjectId,teacup-t41,74656163-7570-42d7-9434-312e6b696361,[C]3.3*%
%TF.SameCoordinates,Original*%
%TF.FileFunction,Other,User*%
%FSLAX46Y46*%
G04 Gerber Fmt 4.6, Leading zero omitted, Abs format (unit mm)*
G04 Created by KiCad (PCBNEW 9.0.2+dfsg-1) date 2026-07-05 03:24:00*
%MOMM*%
%LPD*%
G01*
G04 APERTURE LIST*
%ADD10C,0.050000*%
%ADD11C,0.100000*%
G04 APERTURE END LIST*
D10*
%TO.C,C49*%
X182120000Y-100020000D02*
X182120000Y-101980000D01*
X182120000Y-101980000D02*
X185880000Y-101980000D01*
X185880000Y-100020000D02*
X182120000Y-100020000D01*
X185880000Y-101980000D02*
X185880000Y-100020000D01*
%TO.C,L2*%
X201720000Y-96420000D02*
X201720000Y-99580000D01*
X201720000Y-99580000D02*
X206280000Y-99580000D01*
X206280000Y-96420000D02*
X201720000Y-96420000D01*
X206280000Y-99580000D02*
X206280000Y-96420000D01*
%TO.C,R29*%
X179070000Y-100530000D02*
X179070000Y-101470000D01*
X179070000Y-101470000D02*
X180930000Y-101470000D01*
X180930000Y-100530000D02*
X179070000Y-100530000D01*
X180930000Y-101470000D02*
X180930000Y-100530000D01*
%TO.C,R28*%
X208350000Y-97270000D02*
X208350000Y-98730000D01*
X208350000Y-98730000D02*
X211650000Y-98730000D01*
X211650000Y-97270000D02*
X208350000Y-97270000D01*
X211650000Y-98730000D02*
X211650000Y-97270000D01*
%TO.C,C47*%
X213090000Y-97540000D02*
X213090000Y-98460000D01*
X213090000Y-98460000D02*
X214910000Y-98460000D01*
X214910000Y-97540000D02*
X213090000Y-97540000D01*
X214910000Y-98460000D02*
X214910000Y-97540000D01*
%TO.C,C48*%
X178120000Y-97020000D02*
X178120000Y-98980000D01*
X178120000Y-98980000D02*
X181880000Y-98980000D01*
X181880000Y-97020000D02*
X178120000Y-97020000D01*
X181880000Y-98980000D02*
X181880000Y-97020000D01*
D11*
%TO.C,J13*%
X163790000Y-58840000D02*
X163790000Y-81640000D01*
X163790000Y-81640000D02*
X172790000Y-81640000D01*
X172790000Y-58840000D02*
X163790000Y-58840000D01*
X172790000Y-81640000D02*
X172790000Y-58840000D01*
D10*
%TO.C,U7*%
X197950000Y-96500000D02*
X197950000Y-99500000D01*
X197950000Y-99500000D02*
X198950000Y-99500000D01*
X198950000Y-96300000D02*
X198950000Y-96500000D01*
X198950000Y-96500000D02*
X197950000Y-96500000D01*
X198950000Y-99500000D02*
X198950000Y-99700000D01*
X198950000Y-99700000D02*
X201050000Y-99700000D01*
X201050000Y-96300000D02*
X198950000Y-96300000D01*
X201050000Y-96500000D02*
X201050000Y-96300000D01*
X201050000Y-99500000D02*
X202050000Y-99500000D01*
X201050000Y-99700000D02*
X201050000Y-99500000D01*
X202050000Y-96500000D02*
X201050000Y-96500000D01*
X202050000Y-99500000D02*
X202050000Y-96500000D01*
%TO.C,C54*%
X203090000Y-100540000D02*
X203090000Y-101460000D01*
X203090000Y-101460000D02*
X204910000Y-101460000D01*
X204910000Y-100540000D02*
X203090000Y-100540000D01*
X204910000Y-101460000D02*
X204910000Y-100540000D01*
%TO.C,C53*%
X198120000Y-100020000D02*
X198120000Y-101980000D01*
X198120000Y-101980000D02*
X201880000Y-101980000D01*
X201880000Y-100020000D02*
X198120000Y-100020000D01*
X201880000Y-101980000D02*
X201880000Y-100020000D01*
%TO.C,R26*%
X208350000Y-100270000D02*
X208350000Y-101730000D01*
X208350000Y-101730000D02*
X211650000Y-101730000D01*
X211650000Y-100270000D02*
X208350000Y-100270000D01*
X211650000Y-101730000D02*
X211650000Y-100270000D01*
%TO.C,R32*%
X191070000Y-100530000D02*
X191070000Y-101470000D01*
X191070000Y-101470000D02*
X192930000Y-101470000D01*
X192930000Y-100530000D02*
X191070000Y-100530000D01*
X192930000Y-101470000D02*
X192930000Y-100530000D01*
%TO.C,C55*%
X207090000Y-97540000D02*
X207090000Y-98460000D01*
X207090000Y-98460000D02*
X208910000Y-98460000D01*
X208910000Y-97540000D02*
X207090000Y-97540000D01*
X208910000Y-98460000D02*
X208910000Y-97540000D01*
%TO.C,C51*%
X191090000Y-97540000D02*
X191090000Y-98460000D01*
X191090000Y-98460000D02*
X192910000Y-98460000D01*
X192910000Y-97540000D02*
X191090000Y-97540000D01*
X192910000Y-98460000D02*
X192910000Y-97540000D01*
%TO.C,R27*%
X212350000Y-100270000D02*
X212350000Y-101730000D01*
X212350000Y-101730000D02*
X215650000Y-101730000D01*
X215650000Y-100270000D02*
X212350000Y-100270000D01*
X215650000Y-101730000D02*
X215650000Y-100270000D01*
%TO.C,C52*%
X194120000Y-97020000D02*
X194120000Y-98980000D01*
X194120000Y-98980000D02*
X197880000Y-98980000D01*
X197880000Y-97020000D02*
X194120000Y-97020000D01*
X197880000Y-98980000D02*
X197880000Y-97020000D01*
%TO.C,U6*%
X181950000Y-96500000D02*
X181950000Y-99500000D01*
X181950000Y-99500000D02*
X182950000Y-99500000D01*
X182950000Y-96300000D02*
X182950000Y-96500000D01*
X182950000Y-96500000D02*
X181950000Y-96500000D01*
X182950000Y-99500000D02*
X182950000Y-99700000D01*
X182950000Y-99700000D02*
X185050000Y-99700000D01*
X185050000Y-96300000D02*
X182950000Y-96300000D01*
X185050000Y-96500000D02*
X185050000Y-96300000D01*
X185050000Y-99500000D02*
X186050000Y-99500000D01*
X185050000Y-99700000D02*
X185050000Y-99500000D01*
X186050000Y-96500000D02*
X185050000Y-96500000D01*
X186050000Y-99500000D02*
X186050000Y-96500000D01*
%TO.C,R30*%
X175070000Y-100530000D02*
X175070000Y-101470000D01*
X175070000Y-101470000D02*
X176930000Y-101470000D01*
X176930000Y-100530000D02*
X175070000Y-100530000D01*
X176930000Y-101470000D02*
X176930000Y-100530000D01*
%TO.C,C50*%
X187090000Y-100540000D02*
X187090000Y-101460000D01*
X187090000Y-101460000D02*
X188910000Y-101460000D01*
X188910000Y-100540000D02*
X187090000Y-100540000D01*
X188910000Y-101460000D02*
X188910000Y-100540000D01*
%TO.C,L1*%
X185720000Y-96420000D02*
X185720000Y-99580000D01*
X185720000Y-99580000D02*
X190280000Y-99580000D01*
X190280000Y-96420000D02*
X185720000Y-96420000D01*
X190280000Y-99580000D02*
X190280000Y-96420000D01*
%TO.C,R31*%
X195070000Y-100530000D02*
X195070000Y-101470000D01*
X195070000Y-101470000D02*
X196930000Y-101470000D01*
X196930000Y-100530000D02*
X195070000Y-100530000D01*
X196930000Y-101470000D02*
X196930000Y-100530000D01*
%TD*%
M02*
