%TF.GenerationSoftware,KiCad,Pcbnew,9.0.2+dfsg-1*%
%TF.CreationDate,2026-07-05T03:24:00-07:00*%
%TF.ProjectId,teacup-t41,74656163-7570-42d7-9434-312e6b696361,[C]3.3*%
%TF.SameCoordinates,Original*%
%TF.FileFunction,Soldermask,Bot*%
%TF.FilePolarity,Negative*%
%FSLAX46Y46*%
G04 Gerber Fmt 4.6, Leading zero omitted, Abs format (unit mm)*
G04 Created by KiCad (PCBNEW 9.0.2+dfsg-1) date 2026-07-05 03:24:00*
%MOMM*%
%LPD*%
G01*
G04 APERTURE LIST*
G04 Aperture macros list*
%AMRoundRect*
0 Rectangle with rounded corners*
0 $1 Rounding radius*
0 $2 $3 $4 $5 $6 $7 $8 $9 X,Y pos of 4 corners*
0 Add a 4 corners polygon primitive as box body*
4,1,4,$2,$3,$4,$5,$6,$7,$8,$9,$2,$3,0*
0 Add four circle primitives for the rounded corners*
1,1,$1+$1,$2,$3*
1,1,$1+$1,$4,$5*
1,1,$1+$1,$6,$7*
1,1,$1+$1,$8,$9*
0 Add four rect primitives between the rounded corners*
20,1,$1+$1,$2,$3,$4,$5,0*
20,1,$1+$1,$4,$5,$6,$7,0*
20,1,$1+$1,$6,$7,$8,$9,0*
20,1,$1+$1,$8,$9,$2,$3,0*%
G04 Aperture macros list end*
%ADD10C,0.900000*%
%ADD11C,0.800000*%
%ADD12C,5.400000*%
%ADD13R,1.700000X1.700000*%
%ADD14O,1.700000X1.700000*%
%ADD15C,0.650000*%
%ADD16O,1.000000X2.100000*%
%ADD17O,1.000000X1.600000*%
%ADD18C,1.500000*%
%ADD19C,3.000000*%
%ADD20R,1.600000X2.400000*%
%ADD21O,1.600000X2.400000*%
%ADD22R,4.400000X1.800000*%
%ADD23O,4.000000X1.800000*%
%ADD24O,1.800000X4.000000*%
%ADD25RoundRect,0.250000X0.337500X0.475000X-0.337500X0.475000X-0.337500X-0.475000X0.337500X-0.475000X0*%
%ADD26RoundRect,0.250000X0.375000X1.075000X-0.375000X1.075000X-0.375000X-1.075000X0.375000X-1.075000X0*%
%ADD27RoundRect,0.135000X0.135000X0.185000X-0.135000X0.185000X-0.135000X-0.185000X0.135000X-0.185000X0*%
%ADD28RoundRect,0.237500X0.250000X0.237500X-0.250000X0.237500X-0.250000X-0.237500X0.250000X-0.237500X0*%
%ADD29RoundRect,0.140000X0.140000X0.170000X-0.140000X0.170000X-0.140000X-0.170000X0.140000X-0.170000X0*%
%ADD30R,2.000000X0.600000*%
%ADD31R,4.200000X0.700000*%
%ADD32RoundRect,0.150000X0.512500X0.150000X-0.512500X0.150000X-0.512500X-0.150000X0.512500X-0.150000X0*%
G04 APERTURE END LIST*
D10*
%TO.C,SW2*%
X211700000Y-105900000D03*
X218500000Y-105900000D03*
%TD*%
D11*
%TO.C,H4*%
X242975000Y-55000000D03*
X243568109Y-53568109D03*
X243568109Y-56431891D03*
X245000000Y-52975000D03*
D12*
X245000000Y-55000000D03*
D11*
X245000000Y-57025000D03*
X246431891Y-53568109D03*
X246431891Y-56431891D03*
X247025000Y-55000000D03*
%TD*%
%TO.C,H3*%
X242975000Y-105000000D03*
X243568109Y-103568109D03*
X243568109Y-106431891D03*
X245000000Y-102975000D03*
D12*
X245000000Y-105000000D03*
D11*
X245000000Y-107025000D03*
X246431891Y-103568109D03*
X246431891Y-106431891D03*
X247025000Y-105000000D03*
%TD*%
D13*
%TO.C,J12*%
X200010000Y-90590000D03*
D14*
X202550000Y-90590000D03*
X205090000Y-90590000D03*
X207630000Y-90590000D03*
%TD*%
D13*
%TO.C,J7*%
X208825000Y-53825000D03*
D14*
X208825000Y-56365000D03*
X206285000Y-53825000D03*
X206285000Y-56365000D03*
X203745000Y-53825000D03*
X203745000Y-56365000D03*
X201205000Y-53825000D03*
X201205000Y-56365000D03*
X198665000Y-53825000D03*
X198665000Y-56365000D03*
X196125000Y-53825000D03*
X196125000Y-56365000D03*
X193585000Y-53825000D03*
X193585000Y-56365000D03*
%TD*%
D15*
%TO.C,J1*%
X176252500Y-101267500D03*
X182032500Y-101267500D03*
D16*
X174822500Y-100737500D03*
D17*
X174822500Y-104917500D03*
D16*
X183462500Y-100737500D03*
D17*
X183462500Y-104917500D03*
%TD*%
D18*
%TO.C,J10*%
X205030000Y-106495000D03*
X205030000Y-99495000D03*
%TD*%
D13*
%TO.C,J6*%
X189025000Y-53825000D03*
D14*
X189025000Y-56365000D03*
X186485000Y-53825000D03*
X186485000Y-56365000D03*
X183945000Y-53825000D03*
X183945000Y-56365000D03*
X181405000Y-53825000D03*
X181405000Y-56365000D03*
X178865000Y-53825000D03*
X178865000Y-56365000D03*
X176325000Y-53825000D03*
X176325000Y-56365000D03*
X173785000Y-53825000D03*
X173785000Y-56365000D03*
%TD*%
D11*
%TO.C,H1*%
X162975000Y-105000000D03*
X163568109Y-103568109D03*
X163568109Y-106431891D03*
X165000000Y-102975000D03*
D12*
X165000000Y-105000000D03*
D11*
X165000000Y-107025000D03*
X166431891Y-103568109D03*
X166431891Y-106431891D03*
X167025000Y-105000000D03*
%TD*%
D13*
%TO.C,J5*%
X246170000Y-93570000D03*
D14*
X246170000Y-96110000D03*
X246170000Y-98650000D03*
%TD*%
D13*
%TO.C,J4*%
X176525000Y-64775000D03*
D14*
X176525000Y-62235000D03*
X179065000Y-64775000D03*
X179065000Y-62235000D03*
X181605000Y-64775000D03*
X181605000Y-62235000D03*
X184145000Y-64775000D03*
X184145000Y-62235000D03*
X186685000Y-64775000D03*
X186685000Y-62235000D03*
X189225000Y-64775000D03*
X189225000Y-62235000D03*
X191765000Y-64775000D03*
X191765000Y-62235000D03*
X194305000Y-64775000D03*
X194305000Y-62235000D03*
%TD*%
D13*
%TO.C,J11*%
X175890000Y-87910000D03*
D14*
X175890000Y-90450000D03*
X175890000Y-92990000D03*
X175890000Y-95530000D03*
%TD*%
D19*
%TO.C,J3*%
X168400000Y-85530000D03*
X168400000Y-98670000D03*
%TD*%
D11*
%TO.C,H2*%
X162975000Y-55000000D03*
X163568109Y-53568109D03*
X163568109Y-56431891D03*
X165000000Y-52975000D03*
D12*
X165000000Y-55000000D03*
D11*
X165000000Y-57025000D03*
X166431891Y-53568109D03*
X166431891Y-56431891D03*
X167025000Y-55000000D03*
%TD*%
D13*
%TO.C,J9*%
X201025000Y-60475000D03*
D14*
X203565000Y-60475000D03*
%TD*%
D13*
%TO.C,J14*%
X175725000Y-81465000D03*
D14*
X175725000Y-78925000D03*
%TD*%
D20*
%TO.C,U5*%
X230775000Y-104475000D03*
D21*
X233315000Y-104475000D03*
X235855000Y-104475000D03*
X238395000Y-104475000D03*
X238395000Y-96855000D03*
X235855000Y-96855000D03*
X233315000Y-96855000D03*
X230775000Y-96855000D03*
%TD*%
D22*
%TO.C,J8*%
X192740000Y-93900000D03*
D23*
X192740000Y-99700000D03*
D24*
X197540000Y-96900000D03*
%TD*%
D13*
%TO.C,J16*%
X212570000Y-96450000D03*
D14*
X215110000Y-96450000D03*
X217650000Y-96450000D03*
%TD*%
D25*
%TO.C,C49*%
X185037500Y-101000000D03*
X182962500Y-101000000D03*
%TD*%
D26*
%TO.C,L2*%
X205400000Y-98000000D03*
X202600000Y-98000000D03*
%TD*%
D27*
%TO.C,R29*%
X180510000Y-101000000D03*
X179490000Y-101000000D03*
%TD*%
D28*
%TO.C,R28*%
X210912500Y-98000000D03*
X209087500Y-98000000D03*
%TD*%
D29*
%TO.C,C47*%
X214480000Y-98000000D03*
X213520000Y-98000000D03*
%TD*%
D25*
%TO.C,C48*%
X181037500Y-98000000D03*
X178962500Y-98000000D03*
%TD*%
D30*
%TO.C,J13*%
X170790000Y-77240000D03*
X170790000Y-76240000D03*
X170790000Y-75240000D03*
X170790000Y-74240000D03*
X170790000Y-73240000D03*
X170790000Y-72240000D03*
X170790000Y-71240000D03*
X170790000Y-70240000D03*
X170790000Y-69240000D03*
X170790000Y-68240000D03*
X170790000Y-67240000D03*
X170790000Y-66240000D03*
X170790000Y-65240000D03*
X170790000Y-64240000D03*
X170790000Y-63240000D03*
D31*
X168690000Y-78240000D03*
X168690000Y-62240000D03*
%TD*%
D32*
%TO.C,U7*%
X201137500Y-97050000D03*
X201137500Y-98000000D03*
X201137500Y-98950000D03*
X198862500Y-98950000D03*
X198862500Y-97050000D03*
%TD*%
D29*
%TO.C,C54*%
X204480000Y-101000000D03*
X203520000Y-101000000D03*
%TD*%
D25*
%TO.C,C53*%
X201037500Y-101000000D03*
X198962500Y-101000000D03*
%TD*%
D28*
%TO.C,R26*%
X210912500Y-101000000D03*
X209087500Y-101000000D03*
%TD*%
D27*
%TO.C,R32*%
X192510000Y-101000000D03*
X191490000Y-101000000D03*
%TD*%
D29*
%TO.C,C55*%
X208480000Y-98000000D03*
X207520000Y-98000000D03*
%TD*%
%TO.C,C51*%
X192480000Y-98000000D03*
X191520000Y-98000000D03*
%TD*%
D28*
%TO.C,R27*%
X214912500Y-101000000D03*
X213087500Y-101000000D03*
%TD*%
D25*
%TO.C,C52*%
X197037500Y-98000000D03*
X194962500Y-98000000D03*
%TD*%
D32*
%TO.C,U6*%
X185137500Y-97050000D03*
X185137500Y-98000000D03*
X185137500Y-98950000D03*
X182862500Y-98950000D03*
X182862500Y-97050000D03*
%TD*%
D27*
%TO.C,R30*%
X176510000Y-101000000D03*
X175490000Y-101000000D03*
%TD*%
D29*
%TO.C,C50*%
X188480000Y-101000000D03*
X187520000Y-101000000D03*
%TD*%
D26*
%TO.C,L1*%
X189400000Y-98000000D03*
X186600000Y-98000000D03*
%TD*%
D27*
%TO.C,R31*%
X196510000Y-101000000D03*
X195490000Y-101000000D03*
%TD*%
M02*
