%TF.GenerationSoftware,KiCad,Pcbnew,9.0.2+dfsg-1*%
%TF.CreationDate,2026-07-05T03:24:00-07:00*%
%TF.ProjectId,teacup-t41,74656163-7570-42d7-9434-312e6b696361,[C]3.3*%
%TF.SameCoordinates,Original*%
%TF.FileFunction,Copper,L2,Inr*%
%TF.FilePolarity,Positive*%
%FSLAX46Y46*%
G04 Gerber Fmt 4.6, Leading zero omitted, Abs format (unit mm)*
G04 Created by KiCad (PCBNEW 9.0.2+dfsg-1) date 2026-07-05 03:24:00*
%MOMM*%
%LPD*%
G01*
G04 APERTURE LIST*
%TA.AperFunction,ComponentPad*%
%ADD10C,0.800000*%
%TD*%
%TA.AperFunction,ComponentPad*%
%ADD11C,5.400000*%
%TD*%
%TA.AperFunction,ComponentPad*%
%ADD12R,1.700000X1.700000*%
%TD*%
%TA.AperFunction,ComponentPad*%
%ADD13O,1.700000X1.700000*%
%TD*%
%TA.AperFunction,ComponentPad*%
%ADD14O,1.000000X2.100000*%
%TD*%
%TA.AperFunction,ComponentPad*%
%ADD15O,1.000000X1.600000*%
%TD*%
%TA.AperFunction,ComponentPad*%
%ADD16C,3.000000*%
%TD*%
%TA.AperFunction,ComponentPad*%
%ADD17R,1.600000X2.400000*%
%TD*%
%TA.AperFunction,ComponentPad*%
%ADD18O,1.600000X2.400000*%
%TD*%
%TA.AperFunction,ComponentPad*%
%ADD19R,4.400000X1.800000*%
%TD*%
%TA.AperFunction,ComponentPad*%
%ADD20O,4.000000X1.800000*%
%TD*%
%TA.AperFunction,ComponentPad*%
%ADD21O,1.800000X4.000000*%
%TD*%
%TA.AperFunction,ViaPad*%
%ADD22C,0.600000*%
%TD*%
%TA.AperFunction,Conductor*%
%ADD23C,0.200000*%
%TD*%
G04 APERTURE END LIST*
D10*
%TO.N,GND*%
%TO.C,H4*%
X242975000Y-55000000D03*
X243568109Y-53568109D03*
X243568109Y-56431891D03*
X245000000Y-52975000D03*
D11*
X245000000Y-55000000D03*
D10*
X245000000Y-57025000D03*
X246431891Y-53568109D03*
X246431891Y-56431891D03*
X247025000Y-55000000D03*
%TD*%
%TO.N,GND*%
%TO.C,H3*%
X242975000Y-105000000D03*
X243568109Y-103568109D03*
X243568109Y-106431891D03*
X245000000Y-102975000D03*
D11*
X245000000Y-105000000D03*
D10*
X245000000Y-107025000D03*
X246431891Y-103568109D03*
X246431891Y-106431891D03*
X247025000Y-105000000D03*
%TD*%
D12*
%TO.N,GND*%
%TO.C,J12*%
X200010000Y-90590000D03*
D13*
%TO.N,/HPOUTL*%
X202550000Y-90590000D03*
%TO.N,/MICLP*%
X205090000Y-90590000D03*
%TO.N,GND*%
X207630000Y-90590000D03*
%TD*%
D12*
%TO.N,/MDCK*%
%TO.C,J7*%
X208825000Y-53825000D03*
D13*
%TO.N,/MDIO*%
X208825000Y-56365000D03*
%TO.N,/RXD0*%
X206285000Y-53825000D03*
%TO.N,/RXDV*%
X206285000Y-56365000D03*
%TO.N,/TXCLK*%
X203745000Y-53825000D03*
%TO.N,/RXD1*%
X203745000Y-56365000D03*
%TO.N,/TXD0*%
X201205000Y-53825000D03*
%TO.N,/PHYCLK*%
X201205000Y-56365000D03*
%TO.N,/TXEN*%
X198665000Y-53825000D03*
%TO.N,/TXD1*%
X198665000Y-56365000D03*
%TO.N,GND*%
X196125000Y-53825000D03*
X196125000Y-56365000D03*
%TO.N,+3V3*%
X193585000Y-53825000D03*
%TO.N,+5V*%
X193585000Y-56365000D03*
%TD*%
D14*
%TO.N,Net-(J1-SHIELD)*%
%TO.C,J1*%
X174822500Y-100737500D03*
D15*
X174822500Y-104917500D03*
D14*
X183462500Y-100737500D03*
D15*
X183462500Y-104917500D03*
%TD*%
D12*
%TO.N,/UART0_RTS*%
%TO.C,J6*%
X189025000Y-53825000D03*
D13*
%TO.N,/UART0_CTS*%
X189025000Y-56365000D03*
%TO.N,/UART0_TXD*%
X186485000Y-53825000D03*
%TO.N,/UART0_RXD*%
X186485000Y-56365000D03*
%TO.N,/PB30*%
X183945000Y-53825000D03*
%TO.N,/PB31*%
X183945000Y-56365000D03*
%TO.N,/PB27*%
X181405000Y-53825000D03*
%TO.N,/PB28*%
X181405000Y-56365000D03*
%TO.N,/PB25*%
X178865000Y-53825000D03*
%TO.N,/PB26*%
X178865000Y-56365000D03*
%TO.N,/AUX0*%
X176325000Y-53825000D03*
%TO.N,GND*%
X176325000Y-56365000D03*
%TO.N,+3V3*%
X173785000Y-53825000D03*
%TO.N,+5V*%
X173785000Y-56365000D03*
%TD*%
D10*
%TO.N,GND*%
%TO.C,H1*%
X162975000Y-105000000D03*
X163568109Y-103568109D03*
X163568109Y-106431891D03*
X165000000Y-102975000D03*
D11*
X165000000Y-105000000D03*
D10*
X165000000Y-107025000D03*
X166431891Y-103568109D03*
X166431891Y-106431891D03*
X167025000Y-105000000D03*
%TD*%
D12*
%TO.N,unconnected-(J5-Pin_1-Pad1)*%
%TO.C,J5*%
X246170000Y-93570000D03*
D13*
%TO.N,unconnected-(J5-Pin_2-Pad2)*%
X246170000Y-96110000D03*
%TO.N,GND*%
X246170000Y-98650000D03*
%TD*%
D12*
%TO.N,/PA15*%
%TO.C,J4*%
X176525000Y-64775000D03*
D13*
%TO.N,+3V3*%
X176525000Y-62235000D03*
%TO.N,/PA18*%
X179065000Y-64775000D03*
%TO.N,+5V*%
X179065000Y-62235000D03*
%TO.N,/PA06*%
X181605000Y-64775000D03*
%TO.N,/PA07*%
X181605000Y-62235000D03*
%TO.N,/PA09*%
X184145000Y-64775000D03*
%TO.N,/PA08*%
X184145000Y-62235000D03*
%TO.N,/PA11*%
X186685000Y-64775000D03*
%TO.N,/PA10*%
X186685000Y-62235000D03*
%TO.N,/PA16*%
X189225000Y-64775000D03*
%TO.N,/PA14*%
X189225000Y-62235000D03*
%TO.N,/PA17*%
X191765000Y-64775000D03*
%TO.N,/PB29*%
X191765000Y-62235000D03*
%TO.N,/PB17*%
X194305000Y-64775000D03*
%TO.N,/PB18*%
X194305000Y-62235000D03*
%TD*%
D12*
%TO.N,+5V*%
%TO.C,J11*%
X175890000Y-87910000D03*
D13*
%TO.N,/USB_D-*%
X175890000Y-90450000D03*
%TO.N,/USB_D+*%
X175890000Y-92990000D03*
%TO.N,GND*%
X175890000Y-95530000D03*
%TD*%
D16*
%TO.N,Net-(J3-Shield)*%
%TO.C,J3*%
X168400000Y-85530000D03*
X168400000Y-98670000D03*
%TD*%
D10*
%TO.N,GND*%
%TO.C,H2*%
X162975000Y-55000000D03*
X163568109Y-53568109D03*
X163568109Y-56431891D03*
X165000000Y-52975000D03*
D11*
X165000000Y-55000000D03*
D10*
X165000000Y-57025000D03*
X166431891Y-53568109D03*
X166431891Y-56431891D03*
X167025000Y-55000000D03*
%TD*%
D12*
%TO.N,Net-(J9-Pin_1)*%
%TO.C,J9*%
X201025000Y-60475000D03*
D13*
%TO.N,/BOOT_SEL0*%
X203565000Y-60475000D03*
%TD*%
D12*
%TO.N,/I2C0_SDA*%
%TO.C,J14*%
X175725000Y-81465000D03*
D13*
%TO.N,/I2C0_SCK*%
X175725000Y-78925000D03*
%TD*%
D17*
%TO.N,/NOR_CE1*%
%TO.C,U5*%
X230775000Y-104475000D03*
D18*
%TO.N,/NOR_DR*%
X233315000Y-104475000D03*
%TO.N,/NOR_WP*%
X235855000Y-104475000D03*
%TO.N,GND*%
X238395000Y-104475000D03*
%TO.N,/NOR_DT*%
X238395000Y-96855000D03*
%TO.N,/NOR_CK*%
X235855000Y-96855000D03*
%TO.N,/NOR_HOLD*%
X233315000Y-96855000D03*
%TO.N,+3V3*%
X230775000Y-96855000D03*
%TD*%
D19*
%TO.N,+5V*%
%TO.C,J8*%
X192740000Y-93900000D03*
D20*
%TO.N,GND*%
X192740000Y-99700000D03*
D21*
%TO.N,N/C*%
X197540000Y-96900000D03*
%TD*%
D12*
%TO.N,/NOR_CE1*%
%TO.C,J16*%
X212570000Y-96450000D03*
D13*
%TO.N,/NOR_CE*%
X215110000Y-96450000D03*
%TO.N,/NOR_CE2*%
X217650000Y-96450000D03*
%TD*%
D22*
%TO.N,GND*%
X222693600Y-62188200D03*
X183124000Y-71994200D03*
X177324800Y-94914000D03*
X192117700Y-88819300D03*
X226866200Y-73987500D03*
X229062800Y-91873200D03*
X211852300Y-65459100D03*
X220694500Y-62511200D03*
X188716800Y-70306200D03*
X213024500Y-65060600D03*
X235547700Y-64050600D03*
X236960000Y-89792000D03*
X232065800Y-65156700D03*
X193188700Y-89412000D03*
X247537500Y-85173500D03*
X199851800Y-70941600D03*
X220907000Y-66331100D03*
X220339500Y-64050600D03*
X205536200Y-64172100D03*
X191303200Y-74658200D03*
X174378800Y-95751900D03*
X213024500Y-63168100D03*
X195687200Y-73079400D03*
X183466400Y-70156900D03*
X243511700Y-58957500D03*
X228885200Y-64050600D03*
X235401000Y-67751200D03*
X213099900Y-59501100D03*
X186507800Y-84684500D03*
X188276800Y-96979100D03*
X222481000Y-66331100D03*
X175207300Y-97738700D03*
X168666500Y-103758700D03*
X185965900Y-73072200D03*
X205000200Y-74061100D03*
X183086400Y-83736400D03*
X196913800Y-74269200D03*
X199041400Y-106660700D03*
X186272000Y-87066200D03*
X194953900Y-84901400D03*
X186716800Y-81428100D03*
X225408700Y-58542700D03*
X220249300Y-82967700D03*
X223302200Y-64773200D03*
X231052100Y-64773200D03*
%TO.N,+3V3*%
X223521700Y-103747200D03*
X216835800Y-76947600D03*
X193903200Y-52442500D03*
X230454900Y-93179700D03*
X231629900Y-77746000D03*
X197146400Y-83276000D03*
X188725300Y-83470100D03*
X216918900Y-85937800D03*
X209774500Y-99320300D03*
X224386900Y-73910700D03*
X247537500Y-82589200D03*
X212481600Y-73768000D03*
X187332800Y-84588900D03*
X192385100Y-70914100D03*
X204745800Y-69011000D03*
X220285000Y-74920500D03*
X217467300Y-87928400D03*
X228537500Y-74930300D03*
X233671800Y-76003300D03*
X172268300Y-74002500D03*
X171290000Y-78025900D03*
X235343000Y-74941300D03*
X168776000Y-74062200D03*
X228836500Y-71889400D03*
X214052900Y-71093700D03*
X235774400Y-71889400D03*
%TO.N,/USB_D-*%
X179541600Y-96811200D03*
%TO.N,+1V8*%
X226350700Y-70335400D03*
%TO.N,+0V8*%
X190233600Y-100051800D03*
X190593500Y-98352500D03*
X189120400Y-88050500D03*
X193415900Y-97714400D03*
X187309200Y-101889900D03*
X238243800Y-71093700D03*
%TO.N,/PA06*%
X188135800Y-72815500D03*
%TO.N,/MIPI_0_P*%
X177064000Y-78219100D03*
X177171600Y-70443800D03*
%TO.N,/MIPI_CLK_P*%
X177085300Y-79332000D03*
X172866200Y-71555000D03*
%TO.N,/MIPI_1_N*%
X183643900Y-81382000D03*
%TO.N,/MIPI_1_P*%
X177649700Y-80067400D03*
%TO.N,/NOR_CK*%
X189367400Y-84108200D03*
%TO.N,/MMC0_D1*%
X243356200Y-86172900D03*
X237781700Y-75004900D03*
%TO.N,/MMC0_CMD*%
X199229000Y-81189500D03*
X232956100Y-78165500D03*
%TO.N,/MICLP*%
X184301300Y-82102400D03*
%TO.N,/PB29*%
X199059300Y-77964300D03*
%TO.N,+5V*%
X196868800Y-99890300D03*
X201976800Y-68350900D03*
%TO.N,/PB25*%
X180444800Y-74915400D03*
X196245900Y-79763800D03*
%TO.N,/MDIO*%
X190812300Y-86773900D03*
X202657300Y-92686500D03*
%TO.N,/MDCK*%
X202617100Y-86950700D03*
%TO.N,/RXD0*%
X201868400Y-84054000D03*
%TO.N,/TXD0*%
X198016500Y-85828100D03*
%TO.N,/UART0_RTS*%
X190830800Y-73011300D03*
%TO.N,/UART0_TXD*%
X181391000Y-96697200D03*
%TO.N,/UART0_RXD*%
X183220900Y-97992300D03*
X191916200Y-72224200D03*
%TO.N,/PB17*%
X197503100Y-81137300D03*
%TO.N,Net-(J15-Pin_2)*%
X172732300Y-73207100D03*
%TO.N,/SW_08*%
X187831000Y-99517900D03*
X188050900Y-98026800D03*
%TO.N,/NOR_HOLD*%
X193038000Y-86351100D03*
X190044900Y-84677900D03*
%TO.N,/SW_135*%
X201656000Y-99813700D03*
X204142800Y-97410500D03*
%TO.N,/FB_08*%
X182108600Y-95032300D03*
X179687300Y-101791700D03*
%TO.N,/MICNL*%
X185797700Y-80472000D03*
X210960100Y-82967700D03*
%TO.N,+1V35*%
X203080800Y-96048900D03*
X202986700Y-77767000D03*
%TD*%
D23*
%TO.N,+3V3*%
X216918900Y-87928400D02*
X217467300Y-87928400D01*
X197146400Y-83276000D02*
X197960700Y-83276000D01*
X216835800Y-76947600D02*
X216835800Y-85854700D01*
X176525000Y-62235000D02*
X176525000Y-61684100D01*
X200317600Y-73439200D02*
X204745800Y-69011000D01*
X230775000Y-96855000D02*
X230775000Y-98306700D01*
X190832900Y-83276000D02*
X190638800Y-83470100D01*
X193622400Y-52723300D02*
X193585000Y-52723300D01*
X216918900Y-87928400D02*
X216918900Y-85937800D01*
X172679200Y-55894800D02*
X172679200Y-57287500D01*
X188725300Y-83470100D02*
X187606500Y-84588900D01*
X231629900Y-92004700D02*
X231629900Y-77746000D01*
X193903200Y-52442500D02*
X193622400Y-52723300D01*
X230775000Y-98306700D02*
X228962200Y-98306700D01*
X216918900Y-87928400D02*
X209774500Y-95072800D01*
X230454900Y-93179700D02*
X230775000Y-93499800D01*
X200317600Y-80919100D02*
X200317600Y-73439200D01*
X230775000Y-93499800D02*
X230775000Y-96855000D01*
X172171900Y-73906100D02*
X172268300Y-74002500D01*
X173785000Y-54926700D02*
X173647300Y-54926700D01*
X172171900Y-66037200D02*
X172171900Y-73906100D01*
X173785000Y-53825000D02*
X173785000Y-54926700D01*
X190638800Y-83470100D02*
X188725300Y-83470100D01*
X176525000Y-61684100D02*
X176525000Y-61133300D01*
X209774500Y-95072800D02*
X209774500Y-99320300D01*
X197146400Y-83276000D02*
X190832900Y-83276000D01*
X197960700Y-83276000D02*
X200317600Y-80919100D01*
X230454900Y-93179700D02*
X231629900Y-92004700D01*
X173647300Y-54926700D02*
X172679200Y-55894800D01*
X172679200Y-57287500D02*
X176525000Y-61133300D01*
X193585000Y-53825000D02*
X193585000Y-52723300D01*
X216835800Y-85854700D02*
X216918900Y-85937800D01*
X187606500Y-84588900D02*
X187332800Y-84588900D01*
X171290000Y-76576200D02*
X171290000Y-78025900D01*
X168776000Y-74062200D02*
X171290000Y-76576200D01*
X176525000Y-61684100D02*
X172171900Y-66037200D01*
X228962200Y-98306700D02*
X223521700Y-103747200D01*
%TO.N,/USB_D-*%
X179541600Y-95065600D02*
X179541600Y-96811200D01*
X176027700Y-91551700D02*
X179541600Y-95065600D01*
X175890000Y-90450000D02*
X175890000Y-91551700D01*
X175890000Y-91551700D02*
X176027700Y-91551700D01*
%TO.N,+0V8*%
X190593500Y-98352500D02*
X190233600Y-98712400D01*
X190593500Y-98352500D02*
X189120500Y-96879500D01*
X189120500Y-88050500D02*
X189120400Y-88050500D01*
X187309200Y-101889900D02*
X188395500Y-101889900D01*
X189120500Y-96879500D02*
X189120500Y-88050500D01*
X188395500Y-101889900D02*
X190233600Y-100051800D01*
X190233600Y-98712400D02*
X190233600Y-100051800D01*
%TO.N,/MIPI_0_P*%
X177064000Y-70551400D02*
X177171600Y-70443800D01*
X177064000Y-78219100D02*
X177064000Y-70551400D01*
%TO.N,/MIPI_CLK_P*%
X175286700Y-80098600D02*
X176318700Y-80098600D01*
X173385400Y-72074200D02*
X173385400Y-78197300D01*
X172866200Y-71555000D02*
X173385400Y-72074200D01*
X173385400Y-78197300D02*
X175286700Y-80098600D01*
X176318700Y-80098600D02*
X177085300Y-79332000D01*
%TO.N,/MMC0_D1*%
X237781700Y-75004900D02*
X237781700Y-80598400D01*
X237781700Y-80598400D02*
X243356200Y-86172900D01*
%TO.N,/PB29*%
X199128700Y-65429600D02*
X199128700Y-77894900D01*
X191765000Y-62235000D02*
X192866700Y-62235000D01*
X192866700Y-62006700D02*
X193745900Y-61127500D01*
X193745900Y-61127500D02*
X194826600Y-61127500D01*
X199128700Y-77894900D02*
X199059300Y-77964300D01*
X192866700Y-62235000D02*
X192866700Y-62006700D01*
X194826600Y-61127500D02*
X199128700Y-65429600D01*
%TO.N,+5V*%
X193585000Y-56365000D02*
X193585000Y-57466700D01*
X179065000Y-62235000D02*
X179065000Y-63336700D01*
X175890000Y-87910000D02*
X175890000Y-86808300D01*
X178207700Y-65570500D02*
X177957700Y-65320500D01*
X174886700Y-56955000D02*
X179065000Y-61133300D01*
X175890000Y-86808300D02*
X178207700Y-84490600D01*
X179065000Y-61684100D02*
X179065000Y-62235000D01*
X178927300Y-63336700D02*
X179065000Y-63336700D01*
X174886700Y-56365000D02*
X174886700Y-56955000D01*
X196868800Y-99890300D02*
X192740000Y-95761500D01*
X193585000Y-57466700D02*
X201976800Y-65858500D01*
X177957700Y-65320500D02*
X177957700Y-64306300D01*
X177957700Y-64306300D02*
X178927300Y-63336700D01*
X173785000Y-56365000D02*
X174886700Y-56365000D01*
X192740000Y-95761500D02*
X192740000Y-93900000D01*
X201976800Y-65858500D02*
X201976800Y-68350900D01*
X178207700Y-84490600D02*
X178207700Y-65570500D01*
X179065000Y-61684100D02*
X179065000Y-61133300D01*
%TO.N,/PB25*%
X180135000Y-61746900D02*
X180135000Y-55968400D01*
X180444800Y-62056700D02*
X180135000Y-61746900D01*
X180135000Y-55968400D02*
X179093300Y-54926700D01*
X180444800Y-74915400D02*
X180444800Y-62056700D01*
X178865000Y-53825000D02*
X178865000Y-54926700D01*
X179093300Y-54926700D02*
X178865000Y-54926700D01*
%TO.N,/MDIO*%
X208825000Y-83123700D02*
X208825000Y-56365000D01*
X203820000Y-91523800D02*
X203820000Y-88128700D01*
X203820000Y-88128700D02*
X208825000Y-83123700D01*
X202657300Y-92686500D02*
X203820000Y-91523800D01*
%TO.N,/MDCK*%
X207723300Y-55890600D02*
X207723300Y-81844500D01*
X208687200Y-54926700D02*
X207723300Y-55890600D01*
X208825000Y-54926700D02*
X208687200Y-54926700D01*
X208825000Y-53825000D02*
X208825000Y-54926700D01*
X207723300Y-81844500D02*
X202617100Y-86950700D01*
%TO.N,/RXD0*%
X206285000Y-53825000D02*
X206285000Y-54926700D01*
X205139600Y-62174000D02*
X206091200Y-63125600D01*
X206285000Y-54926700D02*
X206147300Y-54926700D01*
X205139600Y-55934400D02*
X205139600Y-62174000D01*
X206091200Y-79831200D02*
X201868400Y-84054000D01*
X206091200Y-63125600D02*
X206091200Y-79831200D01*
X206147300Y-54926700D02*
X205139600Y-55934400D01*
%TO.N,/UART0_RTS*%
X189025000Y-53825000D02*
X189025000Y-54926700D01*
X189025000Y-54926700D02*
X189162700Y-54926700D01*
X191950800Y-73011300D02*
X190830800Y-73011300D01*
X192937400Y-69798800D02*
X192937400Y-72024700D01*
X189162700Y-54926700D02*
X190495000Y-56259000D01*
X192937400Y-72024700D02*
X191950800Y-73011300D01*
X190495000Y-56259000D02*
X190495000Y-67356400D01*
X190495000Y-67356400D02*
X192937400Y-69798800D01*
%TO.N,/UART0_TXD*%
X181391000Y-96697200D02*
X181391000Y-67783400D01*
X185215000Y-56074700D02*
X186485000Y-54804700D01*
X183041400Y-60415000D02*
X185215000Y-58241400D01*
X185215000Y-58241400D02*
X185215000Y-56074700D01*
X183041400Y-66133000D02*
X183041400Y-60415000D01*
X181391000Y-67783400D02*
X183041400Y-66133000D01*
X186485000Y-53825000D02*
X186485000Y-54804700D01*
%TO.N,/UART0_RXD*%
X185246000Y-76226700D02*
X185260100Y-76212600D01*
X185260100Y-76212600D02*
X185260100Y-72500300D01*
X186485000Y-57468700D02*
X186485000Y-57466700D01*
X186485000Y-56365000D02*
X186485000Y-57466700D01*
X185566300Y-72194100D02*
X191886100Y-72194100D01*
X185566300Y-58387400D02*
X186485000Y-57468700D01*
X185260100Y-72500300D02*
X185566300Y-72194100D01*
X185566300Y-72194100D02*
X185566300Y-58387400D01*
X185246000Y-95967200D02*
X185246000Y-76226700D01*
X183220900Y-97992300D02*
X185246000Y-95967200D01*
X191886100Y-72194100D02*
X191916200Y-72224200D01*
%TO.N,Net-(J3-Shield)*%
X168400000Y-85530000D02*
X168400000Y-98670000D01*
%TO.N,Net-(J1-SHIELD)*%
X183462500Y-104917500D02*
X183462500Y-100737500D01*
X174822500Y-104917500D02*
X174822500Y-100737500D01*
%TO.N,/PB17*%
X197503100Y-79139500D02*
X197247200Y-79395400D01*
X197247200Y-80881400D02*
X197503100Y-81137300D01*
X197503100Y-69074800D02*
X197503100Y-79139500D01*
X194305000Y-64775000D02*
X194305000Y-65876700D01*
X197247200Y-79395400D02*
X197247200Y-80881400D01*
X194305000Y-65876700D02*
X197503100Y-69074800D01*
%TO.N,/SW_08*%
X188050900Y-99298000D02*
X187831000Y-99517900D01*
X188050900Y-98026800D02*
X188050900Y-99298000D01*
%TO.N,/SW_135*%
X204059200Y-97410500D02*
X204142800Y-97410500D01*
X201656000Y-99813700D02*
X204059200Y-97410500D01*
%TO.N,/FB_08*%
X182108600Y-95032300D02*
X182108600Y-99370400D01*
X182108600Y-99370400D02*
X179687300Y-101791700D01*
%TO.N,+1V35*%
X201316700Y-94284800D02*
X203080800Y-96048900D01*
X202986700Y-77767000D02*
X201316700Y-79437000D01*
X201316700Y-79437000D02*
X201316700Y-94284800D01*
%TD*%
%TA.AperFunction,Conductor*%
%TO.N,GND*%
G36*
X185111745Y-65532051D02*
G01*
X185155010Y-65575316D01*
X185165800Y-65620261D01*
X185165800Y-71987199D01*
X185146893Y-72045390D01*
X185136804Y-72057202D01*
X184939620Y-72254386D01*
X184939616Y-72254391D01*
X184886894Y-72345708D01*
X184886892Y-72345712D01*
X184873771Y-72394677D01*
X184873772Y-72394678D01*
X184859600Y-72447570D01*
X184859600Y-76108315D01*
X184856227Y-76133936D01*
X184845500Y-76173970D01*
X184845500Y-81558357D01*
X184826593Y-81616548D01*
X184777093Y-81652512D01*
X184715907Y-81652512D01*
X184676498Y-81628362D01*
X184670016Y-81621880D01*
X184533084Y-81542823D01*
X184380357Y-81501900D01*
X184380355Y-81501900D01*
X184343400Y-81501900D01*
X184285209Y-81482993D01*
X184249245Y-81433493D01*
X184244400Y-81402900D01*
X184244400Y-81302944D01*
X184235186Y-81268557D01*
X184203477Y-81150216D01*
X184124420Y-81013284D01*
X184012616Y-80901480D01*
X183875684Y-80822423D01*
X183722957Y-80781500D01*
X183564843Y-80781500D01*
X183412116Y-80822423D01*
X183275184Y-80901480D01*
X183163380Y-81013284D01*
X183084323Y-81150216D01*
X183043400Y-81302943D01*
X183043400Y-81461057D01*
X183084323Y-81613784D01*
X183163380Y-81750716D01*
X183275184Y-81862520D01*
X183412116Y-81941577D01*
X183564843Y-81982500D01*
X183601800Y-81982500D01*
X183659991Y-82001407D01*
X183695955Y-82050907D01*
X183700800Y-82081500D01*
X183700800Y-82181457D01*
X183741723Y-82334184D01*
X183820780Y-82471116D01*
X183932584Y-82582920D01*
X184069516Y-82661977D01*
X184222243Y-82702900D01*
X184222245Y-82702900D01*
X184380355Y-82702900D01*
X184380357Y-82702900D01*
X184533084Y-82661977D01*
X184670016Y-82582920D01*
X184676498Y-82576437D01*
X184731013Y-82548662D01*
X184791445Y-82558233D01*
X184834710Y-82601498D01*
X184845500Y-82646443D01*
X184845500Y-95760299D01*
X184826593Y-95818490D01*
X184816504Y-95830303D01*
X183284003Y-97362804D01*
X183229486Y-97390581D01*
X183213999Y-97391800D01*
X183141843Y-97391800D01*
X183013087Y-97426300D01*
X182989116Y-97432723D01*
X182852184Y-97511780D01*
X182740378Y-97623586D01*
X182693836Y-97704200D01*
X182648367Y-97745141D01*
X182587517Y-97751537D01*
X182534529Y-97720944D01*
X182509642Y-97665048D01*
X182509100Y-97654700D01*
X182509100Y-95522043D01*
X182528007Y-95463852D01*
X182538090Y-95452045D01*
X182589120Y-95401016D01*
X182668177Y-95264084D01*
X182709100Y-95111357D01*
X182709100Y-94953243D01*
X182668177Y-94800516D01*
X182589120Y-94663584D01*
X182477316Y-94551780D01*
X182340384Y-94472723D01*
X182187657Y-94431800D01*
X182029543Y-94431800D01*
X181916122Y-94462190D01*
X181855021Y-94458988D01*
X181807471Y-94420483D01*
X181791500Y-94366564D01*
X181791500Y-67990300D01*
X181810407Y-67932109D01*
X181820490Y-67920302D01*
X183361880Y-66378913D01*
X183414607Y-66287588D01*
X183441900Y-66185727D01*
X183441900Y-66080273D01*
X183441900Y-65869543D01*
X183460807Y-65811352D01*
X183510307Y-65775388D01*
X183571493Y-65775388D01*
X183585845Y-65781334D01*
X183703353Y-65841208D01*
X183703359Y-65841210D01*
X183703361Y-65841211D01*
X183875591Y-65897171D01*
X183947136Y-65908502D01*
X184054451Y-65925500D01*
X184054454Y-65925500D01*
X184235549Y-65925500D01*
X184324977Y-65911335D01*
X184414409Y-65897171D01*
X184586639Y-65841211D01*
X184747994Y-65758996D01*
X184894501Y-65652553D01*
X184996798Y-65550255D01*
X185051313Y-65522480D01*
X185111745Y-65532051D01*
G37*
%TD.AperFunction*%
%TA.AperFunction,Conductor*%
G36*
X193415148Y-51919407D02*
G01*
X193451112Y-51968907D01*
X193451112Y-52030093D01*
X193426962Y-52069501D01*
X193422680Y-52073784D01*
X193343623Y-52210716D01*
X193302700Y-52363444D01*
X193302700Y-52398199D01*
X193283793Y-52456390D01*
X193273706Y-52468200D01*
X193264520Y-52477386D01*
X193211794Y-52568709D01*
X193211794Y-52568710D01*
X193211793Y-52568712D01*
X193211793Y-52568713D01*
X193206853Y-52587152D01*
X193184500Y-52670574D01*
X193184500Y-52677160D01*
X193165593Y-52735351D01*
X193130445Y-52765370D01*
X192982008Y-52841002D01*
X192957242Y-52858996D01*
X192835499Y-52947447D01*
X192707447Y-53075499D01*
X192676970Y-53117447D01*
X192601002Y-53222008D01*
X192518788Y-53383362D01*
X192462828Y-53555593D01*
X192434500Y-53734450D01*
X192434500Y-53915549D01*
X192462828Y-54094406D01*
X192518788Y-54266637D01*
X192557806Y-54343215D01*
X192601004Y-54427994D01*
X192707447Y-54574501D01*
X192835499Y-54702553D01*
X192982006Y-54808996D01*
X193143361Y-54891211D01*
X193315591Y-54947171D01*
X193387136Y-54958502D01*
X193494451Y-54975500D01*
X193494454Y-54975500D01*
X193675549Y-54975500D01*
X193777905Y-54959288D01*
X193854409Y-54947171D01*
X194026639Y-54891211D01*
X194187994Y-54808996D01*
X194334501Y-54702553D01*
X194462553Y-54574501D01*
X194568996Y-54427994D01*
X194651211Y-54266639D01*
X194655962Y-54252018D01*
X194691924Y-54202517D01*
X194750115Y-54183608D01*
X194808306Y-54202514D01*
X194844271Y-54252013D01*
X194844272Y-54252015D01*
X194873904Y-54343215D01*
X194970375Y-54532552D01*
X195095277Y-54704464D01*
X195245535Y-54854722D01*
X195417448Y-54979624D01*
X195470764Y-55006790D01*
X195514029Y-55050055D01*
X195523600Y-55110487D01*
X195495822Y-55165004D01*
X195470764Y-55183210D01*
X195417448Y-55210375D01*
X195245535Y-55335277D01*
X195095277Y-55485535D01*
X194970375Y-55657447D01*
X194873904Y-55846784D01*
X194844272Y-55937984D01*
X194808308Y-55987484D01*
X194750117Y-56006391D01*
X194691926Y-55987484D01*
X194655962Y-55937984D01*
X194655962Y-55937983D01*
X194653753Y-55931186D01*
X194651211Y-55923361D01*
X194568996Y-55762006D01*
X194462553Y-55615499D01*
X194334501Y-55487447D01*
X194187994Y-55381004D01*
X194187993Y-55381003D01*
X194187991Y-55381002D01*
X194026637Y-55298788D01*
X193854406Y-55242828D01*
X193675549Y-55214500D01*
X193675546Y-55214500D01*
X193494454Y-55214500D01*
X193494451Y-55214500D01*
X193315593Y-55242828D01*
X193143362Y-55298788D01*
X192982008Y-55381002D01*
X192908752Y-55434225D01*
X192835499Y-55487447D01*
X192707447Y-55615499D01*
X192674147Y-55661333D01*
X192601002Y-55762008D01*
X192518788Y-55923362D01*
X192462828Y-56095593D01*
X192434500Y-56274450D01*
X192434500Y-56455549D01*
X192462828Y-56634406D01*
X192518788Y-56806637D01*
X192590899Y-56948163D01*
X192601004Y-56967994D01*
X192707447Y-57114501D01*
X192835499Y-57242553D01*
X192982006Y-57348996D01*
X193130446Y-57424630D01*
X193173710Y-57467894D01*
X193184500Y-57512839D01*
X193184500Y-57519427D01*
X193208570Y-57609259D01*
X193211794Y-57621292D01*
X193264516Y-57712608D01*
X193264518Y-57712610D01*
X193264520Y-57712613D01*
X201547305Y-65995398D01*
X201575081Y-66049913D01*
X201576300Y-66065400D01*
X201576300Y-67861156D01*
X201557393Y-67919347D01*
X201547304Y-67931159D01*
X201496282Y-67982181D01*
X201496280Y-67982183D01*
X201496280Y-67982184D01*
X201417223Y-68119116D01*
X201376300Y-68271843D01*
X201376300Y-68429957D01*
X201417223Y-68582684D01*
X201496280Y-68719616D01*
X201608084Y-68831420D01*
X201745016Y-68910477D01*
X201897743Y-68951400D01*
X201897745Y-68951400D01*
X202055855Y-68951400D01*
X202055857Y-68951400D01*
X202208584Y-68910477D01*
X202345516Y-68831420D01*
X202457320Y-68719616D01*
X202536377Y-68582684D01*
X202577300Y-68429957D01*
X202577300Y-68271843D01*
X202536377Y-68119116D01*
X202457320Y-67982184D01*
X202457317Y-67982181D01*
X202406296Y-67931159D01*
X202378519Y-67876642D01*
X202377300Y-67861156D01*
X202377300Y-65805774D01*
X202373713Y-65792387D01*
X202350007Y-65703913D01*
X202348599Y-65701475D01*
X202297280Y-65612587D01*
X202222713Y-65538019D01*
X202222713Y-65538020D01*
X196264823Y-59580130D01*
X199874500Y-59580130D01*
X199874500Y-61369860D01*
X199874501Y-61369863D01*
X199877414Y-61394990D01*
X199881763Y-61404839D01*
X199922794Y-61497765D01*
X200002235Y-61577206D01*
X200105009Y-61622585D01*
X200130135Y-61625500D01*
X201919864Y-61625499D01*
X201944991Y-61622585D01*
X202047765Y-61577206D01*
X202127206Y-61497765D01*
X202172585Y-61394991D01*
X202175500Y-61369865D01*
X202175499Y-59580136D01*
X202172585Y-59555009D01*
X202127206Y-59452235D01*
X202047765Y-59372794D01*
X201944991Y-59327415D01*
X201944990Y-59327414D01*
X201944988Y-59327414D01*
X201919868Y-59324500D01*
X200130139Y-59324500D01*
X200130136Y-59324501D01*
X200105009Y-59327414D01*
X200002235Y-59372794D01*
X199922794Y-59452235D01*
X199877414Y-59555011D01*
X199874500Y-59580130D01*
X196264823Y-59580130D01*
X194180585Y-57495892D01*
X194152808Y-57441375D01*
X194162379Y-57380943D01*
X194192395Y-57345798D01*
X194334501Y-57242553D01*
X194462553Y-57114501D01*
X194568996Y-56967994D01*
X194651211Y-56806639D01*
X194655962Y-56792018D01*
X194691924Y-56742517D01*
X194750115Y-56723608D01*
X194808306Y-56742514D01*
X194844271Y-56792013D01*
X194844272Y-56792015D01*
X194873904Y-56883215D01*
X194970375Y-57072552D01*
X195095277Y-57244464D01*
X195245535Y-57394722D01*
X195417447Y-57519624D01*
X195606784Y-57616095D01*
X195808877Y-57681758D01*
X195874999Y-57692231D01*
X195875000Y-57692230D01*
X195875000Y-56798012D01*
X195932007Y-56830925D01*
X196059174Y-56865000D01*
X196190826Y-56865000D01*
X196317993Y-56830925D01*
X196375000Y-56798012D01*
X196375000Y-57692231D01*
X196441122Y-57681758D01*
X196643215Y-57616095D01*
X196832552Y-57519624D01*
X197004464Y-57394722D01*
X197154722Y-57244464D01*
X197279624Y-57072552D01*
X197376096Y-56883213D01*
X197405727Y-56792016D01*
X197441690Y-56742516D01*
X197499881Y-56723608D01*
X197558072Y-56742515D01*
X197594036Y-56792013D01*
X197598788Y-56806637D01*
X197670899Y-56948163D01*
X197681004Y-56967994D01*
X197787447Y-57114501D01*
X197915499Y-57242553D01*
X198062006Y-57348996D01*
X198223361Y-57431211D01*
X198395591Y-57487171D01*
X198467136Y-57498502D01*
X198574451Y-57515500D01*
X198574454Y-57515500D01*
X198755549Y-57515500D01*
X198844977Y-57501335D01*
X198934409Y-57487171D01*
X199106639Y-57431211D01*
X199267994Y-57348996D01*
X199414501Y-57242553D01*
X199542553Y-57114501D01*
X199648996Y-56967994D01*
X199731211Y-56806639D01*
X199787171Y-56634409D01*
X199815500Y-56455546D01*
X199815500Y-56274454D01*
X199815500Y-56274450D01*
X200054500Y-56274450D01*
X200054500Y-56455549D01*
X200082828Y-56634406D01*
X200138788Y-56806637D01*
X200210899Y-56948163D01*
X200221004Y-56967994D01*
X200327447Y-57114501D01*
X200455499Y-57242553D01*
X200602006Y-57348996D01*
X200763361Y-57431211D01*
X200935591Y-57487171D01*
X201007136Y-57498502D01*
X201114451Y-57515500D01*
X201114454Y-57515500D01*
X201295549Y-57515500D01*
X201384977Y-57501335D01*
X201474409Y-57487171D01*
X201646639Y-57431211D01*
X201807994Y-57348996D01*
X201954501Y-57242553D01*
X202082553Y-57114501D01*
X202188996Y-56967994D01*
X202271211Y-56806639D01*
X202327171Y-56634409D01*
X202355500Y-56455546D01*
X202355500Y-56274454D01*
X202355500Y-56274450D01*
X202327171Y-56095593D01*
X202327171Y-56095591D01*
X202271211Y-55923361D01*
X202188996Y-55762006D01*
X202082553Y-55615499D01*
X201954501Y-55487447D01*
X201807994Y-55381004D01*
X201807993Y-55381003D01*
X201807991Y-55381002D01*
X201646637Y-55298788D01*
X201474406Y-55242828D01*
X201295549Y-55214500D01*
X201295546Y-55214500D01*
X201114454Y-55214500D01*
X201114451Y-55214500D01*
X200935593Y-55242828D01*
X200763362Y-55298788D01*
X200602008Y-55381002D01*
X200528752Y-55434225D01*
X200455499Y-55487447D01*
X200327447Y-55615499D01*
X200294147Y-55661333D01*
X200221002Y-55762008D01*
X200138788Y-55923362D01*
X200082828Y-56095593D01*
X200054500Y-56274450D01*
X199815500Y-56274450D01*
X199787171Y-56095593D01*
X199787171Y-56095591D01*
X199731211Y-55923361D01*
X199648996Y-55762006D01*
X199542553Y-55615499D01*
X199414501Y-55487447D01*
X199267994Y-55381004D01*
X199267993Y-55381003D01*
X199267991Y-55381002D01*
X199106637Y-55298788D01*
X198934406Y-55242828D01*
X198755549Y-55214500D01*
X198755546Y-55214500D01*
X198574454Y-55214500D01*
X198574451Y-55214500D01*
X198395593Y-55242828D01*
X198223362Y-55298788D01*
X198062008Y-55381002D01*
X197988752Y-55434225D01*
X197915499Y-55487447D01*
X197787447Y-55615499D01*
X197754147Y-55661333D01*
X197681002Y-55762008D01*
X197598787Y-55923364D01*
X197598786Y-55923366D01*
X197594035Y-55937988D01*
X197558069Y-55987486D01*
X197499878Y-56006391D01*
X197441688Y-55987481D01*
X197405727Y-55937983D01*
X197376096Y-55846786D01*
X197279624Y-55657447D01*
X197154722Y-55485535D01*
X197004464Y-55335277D01*
X196832552Y-55210376D01*
X196779235Y-55183210D01*
X196735971Y-55139946D01*
X196726399Y-55079514D01*
X196754176Y-55024997D01*
X196779235Y-55006790D01*
X196832552Y-54979623D01*
X197004464Y-54854722D01*
X197154722Y-54704464D01*
X197279624Y-54532552D01*
X197376096Y-54343213D01*
X197405727Y-54252016D01*
X197441690Y-54202516D01*
X197499881Y-54183608D01*
X197558072Y-54202515D01*
X197594036Y-54252013D01*
X197598788Y-54266637D01*
X197637806Y-54343215D01*
X197681004Y-54427994D01*
X197787447Y-54574501D01*
X197915499Y-54702553D01*
X198062006Y-54808996D01*
X198223361Y-54891211D01*
X198395591Y-54947171D01*
X198467136Y-54958502D01*
X198574451Y-54975500D01*
X198574454Y-54975500D01*
X198755549Y-54975500D01*
X198857905Y-54959288D01*
X198934409Y-54947171D01*
X199106639Y-54891211D01*
X199267994Y-54808996D01*
X199414501Y-54702553D01*
X199542553Y-54574501D01*
X199648996Y-54427994D01*
X199731211Y-54266639D01*
X199787171Y-54094409D01*
X199815500Y-53915546D01*
X199815500Y-53734454D01*
X199815500Y-53734450D01*
X200054500Y-53734450D01*
X200054500Y-53915549D01*
X200082828Y-54094406D01*
X200138788Y-54266637D01*
X200177806Y-54343215D01*
X200221004Y-54427994D01*
X200327447Y-54574501D01*
X200455499Y-54702553D01*
X200602006Y-54808996D01*
X200763361Y-54891211D01*
X200935591Y-54947171D01*
X201007136Y-54958502D01*
X201114451Y-54975500D01*
X201114454Y-54975500D01*
X201295549Y-54975500D01*
X201397905Y-54959288D01*
X201474409Y-54947171D01*
X201646639Y-54891211D01*
X201807994Y-54808996D01*
X201954501Y-54702553D01*
X202082553Y-54574501D01*
X202188996Y-54427994D01*
X202271211Y-54266639D01*
X202327171Y-54094409D01*
X202355500Y-53915546D01*
X202355500Y-53734454D01*
X202355500Y-53734450D01*
X202594500Y-53734450D01*
X202594500Y-53915549D01*
X202622828Y-54094406D01*
X202678788Y-54266637D01*
X202717806Y-54343215D01*
X202761004Y-54427994D01*
X202867447Y-54574501D01*
X202995499Y-54702553D01*
X203142006Y-54808996D01*
X203303361Y-54891211D01*
X203475591Y-54947171D01*
X203547136Y-54958502D01*
X203654451Y-54975500D01*
X203654454Y-54975500D01*
X203835549Y-54975500D01*
X203937905Y-54959288D01*
X204014409Y-54947171D01*
X204186639Y-54891211D01*
X204347994Y-54808996D01*
X204494501Y-54702553D01*
X204622553Y-54574501D01*
X204728996Y-54427994D01*
X204811211Y-54266639D01*
X204867171Y-54094409D01*
X204895500Y-53915546D01*
X204895500Y-53734454D01*
X204895500Y-53734450D01*
X204867171Y-53555593D01*
X204867171Y-53555591D01*
X204811211Y-53383361D01*
X204728996Y-53222006D01*
X204622553Y-53075499D01*
X204494501Y-52947447D01*
X204347994Y-52841004D01*
X204347993Y-52841003D01*
X204347991Y-52841002D01*
X204186637Y-52758788D01*
X204014406Y-52702828D01*
X203835549Y-52674500D01*
X203835546Y-52674500D01*
X203654454Y-52674500D01*
X203654451Y-52674500D01*
X203475593Y-52702828D01*
X203303362Y-52758788D01*
X203142008Y-52841002D01*
X203117242Y-52858996D01*
X202995499Y-52947447D01*
X202867447Y-53075499D01*
X202836970Y-53117447D01*
X202761002Y-53222008D01*
X202678788Y-53383362D01*
X202622828Y-53555593D01*
X202594500Y-53734450D01*
X202355500Y-53734450D01*
X202327171Y-53555593D01*
X202327171Y-53555591D01*
X202271211Y-53383361D01*
X202188996Y-53222006D01*
X202082553Y-53075499D01*
X201954501Y-52947447D01*
X201807994Y-52841004D01*
X201807993Y-52841003D01*
X201807991Y-52841002D01*
X201646637Y-52758788D01*
X201474406Y-52702828D01*
X201295549Y-52674500D01*
X201295546Y-52674500D01*
X201114454Y-52674500D01*
X201114451Y-52674500D01*
X200935593Y-52702828D01*
X200763362Y-52758788D01*
X200602008Y-52841002D01*
X200577242Y-52858996D01*
X200455499Y-52947447D01*
X200327447Y-53075499D01*
X200296970Y-53117447D01*
X200221002Y-53222008D01*
X200138788Y-53383362D01*
X200082828Y-53555593D01*
X200054500Y-53734450D01*
X199815500Y-53734450D01*
X199787171Y-53555593D01*
X199787171Y-53555591D01*
X199731211Y-53383361D01*
X199648996Y-53222006D01*
X199542553Y-53075499D01*
X199414501Y-52947447D01*
X199267994Y-52841004D01*
X199267993Y-52841003D01*
X199267991Y-52841002D01*
X199106637Y-52758788D01*
X198934406Y-52702828D01*
X198755549Y-52674500D01*
X198755546Y-52674500D01*
X198574454Y-52674500D01*
X198574451Y-52674500D01*
X198395593Y-52702828D01*
X198223362Y-52758788D01*
X198062008Y-52841002D01*
X198037242Y-52858996D01*
X197915499Y-52947447D01*
X197787447Y-53075499D01*
X197756970Y-53117447D01*
X197681002Y-53222008D01*
X197598787Y-53383364D01*
X197598786Y-53383366D01*
X197594035Y-53397988D01*
X197558069Y-53447486D01*
X197499878Y-53466391D01*
X197441688Y-53447481D01*
X197405727Y-53397983D01*
X197376096Y-53306786D01*
X197279624Y-53117447D01*
X197154722Y-52945535D01*
X197004464Y-52795277D01*
X196832552Y-52670375D01*
X196643215Y-52573904D01*
X196441120Y-52508240D01*
X196375000Y-52497767D01*
X196375000Y-53391988D01*
X196317993Y-53359075D01*
X196190826Y-53325000D01*
X196059174Y-53325000D01*
X195932007Y-53359075D01*
X195875000Y-53391988D01*
X195875000Y-52497768D01*
X195874999Y-52497767D01*
X195808880Y-52508240D01*
X195808878Y-52508240D01*
X195606784Y-52573904D01*
X195417447Y-52670375D01*
X195245535Y-52795277D01*
X195095277Y-52945535D01*
X194970375Y-53117447D01*
X194873904Y-53306784D01*
X194844272Y-53397984D01*
X194808308Y-53447484D01*
X194750117Y-53466391D01*
X194691926Y-53447484D01*
X194655962Y-53397984D01*
X194655962Y-53397983D01*
X194654824Y-53394483D01*
X194651211Y-53383361D01*
X194568996Y-53222006D01*
X194462553Y-53075499D01*
X194360996Y-52973942D01*
X194333221Y-52919428D01*
X194342792Y-52858996D01*
X194361000Y-52833936D01*
X194383716Y-52811220D01*
X194383716Y-52811219D01*
X194383720Y-52811216D01*
X194462777Y-52674284D01*
X194503700Y-52521557D01*
X194503700Y-52363443D01*
X194462777Y-52210716D01*
X194383720Y-52073784D01*
X194379437Y-52069501D01*
X194351662Y-52014987D01*
X194361233Y-51954555D01*
X194404498Y-51911290D01*
X194449443Y-51900500D01*
X244997414Y-51900500D01*
X245002595Y-51900636D01*
X245290113Y-51915703D01*
X245295973Y-51916186D01*
X245362600Y-51923693D01*
X245366916Y-51924278D01*
X245617777Y-51964011D01*
X245624292Y-51965269D01*
X245683736Y-51978837D01*
X245687287Y-51979717D01*
X245939266Y-52047234D01*
X245946318Y-52049410D01*
X245992632Y-52065615D01*
X245995239Y-52066572D01*
X246250619Y-52164604D01*
X246258078Y-52167824D01*
X246281586Y-52179145D01*
X246283528Y-52180108D01*
X246545140Y-52313405D01*
X246554100Y-52318579D01*
X246817492Y-52489628D01*
X246825864Y-52495711D01*
X247046652Y-52674501D01*
X247069932Y-52693353D01*
X247077633Y-52700286D01*
X247299713Y-52922366D01*
X247306646Y-52930067D01*
X247504284Y-53174129D01*
X247510373Y-53182511D01*
X247602907Y-53325000D01*
X247681416Y-53445892D01*
X247686598Y-53454866D01*
X247819878Y-53716445D01*
X247820864Y-53718435D01*
X247832170Y-53741912D01*
X247835398Y-53749388D01*
X247933393Y-54004670D01*
X247934414Y-54007453D01*
X247950585Y-54053670D01*
X247952767Y-54060743D01*
X248020277Y-54312697D01*
X248021168Y-54316290D01*
X248034725Y-54375687D01*
X248035988Y-54382230D01*
X248075714Y-54633042D01*
X248076311Y-54637445D01*
X248083810Y-54704004D01*
X248084296Y-54709906D01*
X248099364Y-54997403D01*
X248099500Y-55002585D01*
X248099500Y-82062957D01*
X248080593Y-82121148D01*
X248031093Y-82157112D01*
X247969907Y-82157112D01*
X247930498Y-82132962D01*
X247906216Y-82108680D01*
X247769284Y-82029623D01*
X247616557Y-81988700D01*
X247458443Y-81988700D01*
X247305716Y-82029623D01*
X247168784Y-82108680D01*
X247056980Y-82220484D01*
X246977923Y-82357416D01*
X246937000Y-82510143D01*
X246937000Y-82668257D01*
X246977923Y-82820984D01*
X247056980Y-82957916D01*
X247168784Y-83069720D01*
X247305716Y-83148777D01*
X247458443Y-83189700D01*
X247458445Y-83189700D01*
X247616555Y-83189700D01*
X247616557Y-83189700D01*
X247769284Y-83148777D01*
X247906216Y-83069720D01*
X247930498Y-83045437D01*
X247985013Y-83017662D01*
X248045445Y-83027233D01*
X248088710Y-83070498D01*
X248099500Y-83115443D01*
X248099500Y-104997413D01*
X248099364Y-105002595D01*
X248084296Y-105290092D01*
X248083810Y-105295994D01*
X248076311Y-105362553D01*
X248075714Y-105366956D01*
X248035988Y-105617768D01*
X248034725Y-105624311D01*
X248021168Y-105683708D01*
X248020277Y-105687301D01*
X247952767Y-105939255D01*
X247950585Y-105946328D01*
X247934414Y-105992545D01*
X247933393Y-105995328D01*
X247835398Y-106250610D01*
X247832170Y-106258086D01*
X247820864Y-106281563D01*
X247819878Y-106283553D01*
X247686598Y-106545133D01*
X247681416Y-106554107D01*
X247510375Y-106817486D01*
X247504284Y-106825870D01*
X247306646Y-107069932D01*
X247299713Y-107077633D01*
X247077633Y-107299713D01*
X247069932Y-107306646D01*
X246825870Y-107504284D01*
X246817486Y-107510375D01*
X246554107Y-107681416D01*
X246545133Y-107686598D01*
X246283553Y-107819878D01*
X246281563Y-107820864D01*
X246258086Y-107832170D01*
X246250610Y-107835398D01*
X245995328Y-107933393D01*
X245992545Y-107934414D01*
X245946328Y-107950585D01*
X245939255Y-107952767D01*
X245687301Y-108020277D01*
X245683708Y-108021168D01*
X245624311Y-108034725D01*
X245617768Y-108035988D01*
X245366956Y-108075714D01*
X245362553Y-108076311D01*
X245295994Y-108083810D01*
X245290092Y-108084296D01*
X245012969Y-108098820D01*
X245002594Y-108099364D01*
X244997414Y-108099500D01*
X165002586Y-108099500D01*
X164997405Y-108099364D01*
X164986132Y-108098773D01*
X164709906Y-108084296D01*
X164704004Y-108083810D01*
X164637445Y-108076311D01*
X164633042Y-108075714D01*
X164382230Y-108035988D01*
X164375687Y-108034725D01*
X164316290Y-108021168D01*
X164312697Y-108020277D01*
X164060743Y-107952767D01*
X164053670Y-107950585D01*
X164014919Y-107937026D01*
X164007442Y-107934410D01*
X164004684Y-107933398D01*
X163913871Y-107898538D01*
X163749388Y-107835398D01*
X163741912Y-107832170D01*
X163718435Y-107820864D01*
X163716445Y-107819878D01*
X163454866Y-107686598D01*
X163445892Y-107681416D01*
X163326477Y-107603867D01*
X163182511Y-107510373D01*
X163174129Y-107504284D01*
X163163280Y-107495499D01*
X162930067Y-107306646D01*
X162922366Y-107299713D01*
X162700286Y-107077633D01*
X162693353Y-107069932D01*
X162495715Y-106825870D01*
X162489624Y-106817486D01*
X162469719Y-106786835D01*
X162318579Y-106554100D01*
X162313405Y-106545140D01*
X162237647Y-106396456D01*
X204029500Y-106396456D01*
X204029500Y-106593543D01*
X204067949Y-106786834D01*
X204067949Y-106786836D01*
X204143367Y-106968913D01*
X204143368Y-106968914D01*
X204252861Y-107132782D01*
X204392218Y-107272139D01*
X204556086Y-107381632D01*
X204738165Y-107457051D01*
X204931459Y-107495500D01*
X204931460Y-107495500D01*
X205128540Y-107495500D01*
X205128541Y-107495500D01*
X205321835Y-107457051D01*
X205503914Y-107381632D01*
X205667782Y-107272139D01*
X205807139Y-107132782D01*
X205916632Y-106968914D01*
X205992051Y-106786835D01*
X206030500Y-106593541D01*
X206030500Y-106396459D01*
X205992051Y-106203165D01*
X205916632Y-106021086D01*
X205807139Y-105857218D01*
X205780925Y-105831004D01*
X210999500Y-105831004D01*
X210999500Y-105968995D01*
X211026420Y-106104327D01*
X211026420Y-106104329D01*
X211079222Y-106231806D01*
X211079228Y-106231817D01*
X211155885Y-106346541D01*
X211253458Y-106444114D01*
X211368182Y-106520771D01*
X211368193Y-106520777D01*
X211415283Y-106540282D01*
X211495672Y-106573580D01*
X211631007Y-106600500D01*
X211631008Y-106600500D01*
X211768992Y-106600500D01*
X211768993Y-106600500D01*
X211904328Y-106573580D01*
X212031811Y-106520775D01*
X212146542Y-106444114D01*
X212244114Y-106346542D01*
X212320775Y-106231811D01*
X212373580Y-106104328D01*
X212400500Y-105968993D01*
X212400500Y-105831007D01*
X212400499Y-105831004D01*
X217799500Y-105831004D01*
X217799500Y-105968995D01*
X217826420Y-106104327D01*
X217826420Y-106104329D01*
X217879222Y-106231806D01*
X217879228Y-106231817D01*
X217955885Y-106346541D01*
X218053458Y-106444114D01*
X218168182Y-106520771D01*
X218168193Y-106520777D01*
X218215283Y-106540282D01*
X218295672Y-106573580D01*
X218431007Y-106600500D01*
X218431008Y-106600500D01*
X218568992Y-106600500D01*
X218568993Y-106600500D01*
X218704328Y-106573580D01*
X218831811Y-106520775D01*
X218946542Y-106444114D01*
X219044114Y-106346542D01*
X219120775Y-106231811D01*
X219173580Y-106104328D01*
X219200500Y-105968993D01*
X219200500Y-105831007D01*
X219173580Y-105695672D01*
X219152352Y-105644422D01*
X219120777Y-105568193D01*
X219120771Y-105568182D01*
X219044114Y-105453458D01*
X218946541Y-105355885D01*
X218831817Y-105279228D01*
X218831806Y-105279222D01*
X218704328Y-105226420D01*
X218568995Y-105199500D01*
X218568993Y-105199500D01*
X218431007Y-105199500D01*
X218431004Y-105199500D01*
X218295672Y-105226420D01*
X218295670Y-105226420D01*
X218168193Y-105279222D01*
X218168182Y-105279228D01*
X218053458Y-105355885D01*
X217955885Y-105453458D01*
X217879228Y-105568182D01*
X217879222Y-105568193D01*
X217826420Y-105695670D01*
X217826420Y-105695672D01*
X217799500Y-105831004D01*
X212400499Y-105831004D01*
X212373580Y-105695672D01*
X212352352Y-105644422D01*
X212320777Y-105568193D01*
X212320771Y-105568182D01*
X212244114Y-105453458D01*
X212146541Y-105355885D01*
X212031817Y-105279228D01*
X212031806Y-105279222D01*
X211904328Y-105226420D01*
X211768995Y-105199500D01*
X211768993Y-105199500D01*
X211631007Y-105199500D01*
X211631004Y-105199500D01*
X211495672Y-105226420D01*
X211495670Y-105226420D01*
X211368193Y-105279222D01*
X211368182Y-105279228D01*
X211253458Y-105355885D01*
X211155885Y-105453458D01*
X211079228Y-105568182D01*
X211079222Y-105568193D01*
X211026420Y-105695670D01*
X211026420Y-105695672D01*
X210999500Y-105831004D01*
X205780925Y-105831004D01*
X205667782Y-105717861D01*
X205557873Y-105644422D01*
X205503913Y-105608367D01*
X205321835Y-105532949D01*
X205128543Y-105494500D01*
X205128541Y-105494500D01*
X204931459Y-105494500D01*
X204931456Y-105494500D01*
X204738165Y-105532949D01*
X204738163Y-105532949D01*
X204556086Y-105608367D01*
X204392218Y-105717861D01*
X204392214Y-105717864D01*
X204252864Y-105857214D01*
X204252861Y-105857218D01*
X204143367Y-106021086D01*
X204067949Y-106203163D01*
X204067949Y-106203165D01*
X204029500Y-106396456D01*
X162237647Y-106396456D01*
X162180108Y-106283529D01*
X162179134Y-106281563D01*
X162167828Y-106258086D01*
X162164600Y-106250610D01*
X162157382Y-106231806D01*
X162066572Y-105995239D01*
X162065615Y-105992632D01*
X162049410Y-105946318D01*
X162047231Y-105939255D01*
X162044002Y-105927205D01*
X161979717Y-105687287D01*
X161978837Y-105683736D01*
X161965269Y-105624292D01*
X161964010Y-105617768D01*
X161924278Y-105366916D01*
X161923693Y-105362600D01*
X161916186Y-105295973D01*
X161915703Y-105290113D01*
X161900636Y-105002595D01*
X161900500Y-104997414D01*
X161900500Y-85411987D01*
X166599500Y-85411987D01*
X166599500Y-85648012D01*
X166630306Y-85882006D01*
X166630306Y-85882011D01*
X166691393Y-86109992D01*
X166781713Y-86328044D01*
X166781716Y-86328049D01*
X166863775Y-86470180D01*
X166899729Y-86532453D01*
X167043402Y-86719692D01*
X167043404Y-86719694D01*
X167043408Y-86719699D01*
X167210301Y-86886592D01*
X167210305Y-86886595D01*
X167210307Y-86886597D01*
X167397546Y-87030270D01*
X167397550Y-87030273D01*
X167601951Y-87148284D01*
X167601952Y-87148284D01*
X167601955Y-87148286D01*
X167796575Y-87228900D01*
X167820007Y-87238606D01*
X167926124Y-87267040D01*
X167977437Y-87300363D01*
X167999364Y-87357484D01*
X167999500Y-87362666D01*
X167999500Y-96837332D01*
X167980593Y-96895523D01*
X167931093Y-96931487D01*
X167926124Y-96932958D01*
X167820012Y-96961391D01*
X167601955Y-97051713D01*
X167397546Y-97169729D01*
X167210307Y-97313402D01*
X167043402Y-97480307D01*
X166899729Y-97667546D01*
X166781713Y-97871955D01*
X166691393Y-98090007D01*
X166630306Y-98317988D01*
X166630306Y-98317993D01*
X166599500Y-98551987D01*
X166599500Y-98788012D01*
X166612762Y-98888747D01*
X166622964Y-98966242D01*
X166630306Y-99022006D01*
X166630306Y-99022011D01*
X166691393Y-99249992D01*
X166781713Y-99468044D01*
X166781716Y-99468049D01*
X166867313Y-99616308D01*
X166899729Y-99672453D01*
X167043402Y-99859692D01*
X167043404Y-99859694D01*
X167043408Y-99859699D01*
X167210301Y-100026592D01*
X167210305Y-100026595D01*
X167210307Y-100026597D01*
X167397546Y-100170270D01*
X167397550Y-100170273D01*
X167601951Y-100288284D01*
X167601952Y-100288284D01*
X167601955Y-100288286D01*
X167801210Y-100370820D01*
X167820007Y-100378606D01*
X168047986Y-100439693D01*
X168281989Y-100470500D01*
X168281990Y-100470500D01*
X168518010Y-100470500D01*
X168518011Y-100470500D01*
X168752014Y-100439693D01*
X168979993Y-100378606D01*
X169198049Y-100288284D01*
X169402450Y-100170273D01*
X169482752Y-100108655D01*
X174022000Y-100108655D01*
X174022000Y-100108658D01*
X174022000Y-101366342D01*
X174049425Y-101504218D01*
X174052763Y-101520996D01*
X174052763Y-101520998D01*
X174113103Y-101666674D01*
X174113109Y-101666685D01*
X174162371Y-101740409D01*
X174200711Y-101797789D01*
X174200714Y-101797792D01*
X174200718Y-101797797D01*
X174312211Y-101909289D01*
X174378001Y-101953248D01*
X174415881Y-102001298D01*
X174422000Y-102035564D01*
X174422000Y-103869435D01*
X174403093Y-103927626D01*
X174378003Y-103951749D01*
X174323170Y-103988389D01*
X174312207Y-103995714D01*
X174200714Y-104107207D01*
X174200711Y-104107211D01*
X174113109Y-104238314D01*
X174113103Y-104238325D01*
X174052763Y-104384001D01*
X174052763Y-104384003D01*
X174022000Y-104538655D01*
X174022000Y-105296344D01*
X174052763Y-105450996D01*
X174052763Y-105450998D01*
X174113103Y-105596674D01*
X174113109Y-105596685D01*
X174165812Y-105675559D01*
X174200711Y-105727789D01*
X174312211Y-105839289D01*
X174374853Y-105881145D01*
X174443314Y-105926890D01*
X174443325Y-105926896D01*
X174473163Y-105939255D01*
X174589003Y-105987237D01*
X174743658Y-106018000D01*
X174743659Y-106018000D01*
X174901341Y-106018000D01*
X174901342Y-106018000D01*
X175055997Y-105987237D01*
X175201679Y-105926894D01*
X175332789Y-105839289D01*
X175444289Y-105727789D01*
X175531894Y-105596679D01*
X175592237Y-105450997D01*
X175623000Y-105296342D01*
X175623000Y-104538658D01*
X175592237Y-104384003D01*
X175531894Y-104238321D01*
X175531893Y-104238319D01*
X175531890Y-104238314D01*
X175476167Y-104154920D01*
X175444289Y-104107211D01*
X175332789Y-103995711D01*
X175266996Y-103951749D01*
X175229119Y-103903699D01*
X175223000Y-103869435D01*
X175223000Y-102035564D01*
X175241907Y-101977373D01*
X175266999Y-101953248D01*
X175332789Y-101909289D01*
X175444289Y-101797789D01*
X175531894Y-101666679D01*
X175574768Y-101563168D01*
X175614504Y-101516644D01*
X175673998Y-101502360D01*
X175730527Y-101525774D01*
X175751968Y-101551555D01*
X175791981Y-101620860D01*
X175791983Y-101620862D01*
X175791985Y-101620865D01*
X175899135Y-101728015D01*
X175899137Y-101728016D01*
X175899139Y-101728018D01*
X176030361Y-101803779D01*
X176030359Y-101803779D01*
X176030363Y-101803780D01*
X176030365Y-101803781D01*
X176176734Y-101843000D01*
X176176736Y-101843000D01*
X176328264Y-101843000D01*
X176328266Y-101843000D01*
X176474635Y-101803781D01*
X176474637Y-101803779D01*
X176474639Y-101803779D01*
X176605860Y-101728018D01*
X176605860Y-101728017D01*
X176605865Y-101728015D01*
X176713015Y-101620865D01*
X176713018Y-101620860D01*
X176788779Y-101489639D01*
X176788779Y-101489637D01*
X176788781Y-101489635D01*
X176828000Y-101343266D01*
X176828000Y-101191734D01*
X176788781Y-101045365D01*
X176788779Y-101045362D01*
X176788779Y-101045360D01*
X176713018Y-100914139D01*
X176713016Y-100914137D01*
X176713015Y-100914135D01*
X176605865Y-100806985D01*
X176605862Y-100806983D01*
X176605860Y-100806981D01*
X176474638Y-100731220D01*
X176474640Y-100731220D01*
X176417847Y-100716003D01*
X176328266Y-100692000D01*
X176176734Y-100692000D01*
X176087152Y-100716003D01*
X176030360Y-100731220D01*
X175899139Y-100806981D01*
X175899138Y-100806982D01*
X175899135Y-100806984D01*
X175899135Y-100806985D01*
X175792001Y-100914118D01*
X175737487Y-100941894D01*
X175677055Y-100932323D01*
X175633790Y-100889058D01*
X175623000Y-100844113D01*
X175623000Y-100108659D01*
X175622999Y-100108655D01*
X175621892Y-100103090D01*
X175592237Y-99954003D01*
X175553175Y-99859699D01*
X175531896Y-99808325D01*
X175531890Y-99808314D01*
X175492713Y-99749683D01*
X175444289Y-99677211D01*
X175332789Y-99565711D01*
X175271843Y-99524988D01*
X175201685Y-99478109D01*
X175201674Y-99478103D01*
X175055997Y-99417763D01*
X174901344Y-99387000D01*
X174901342Y-99387000D01*
X174743658Y-99387000D01*
X174743655Y-99387000D01*
X174589003Y-99417763D01*
X174589001Y-99417763D01*
X174443325Y-99478103D01*
X174443314Y-99478109D01*
X174312211Y-99565711D01*
X174312207Y-99565714D01*
X174200714Y-99677207D01*
X174200711Y-99677211D01*
X174113109Y-99808314D01*
X174113103Y-99808325D01*
X174052763Y-99954001D01*
X174052763Y-99954003D01*
X174022000Y-100108655D01*
X169482752Y-100108655D01*
X169589699Y-100026592D01*
X169756592Y-99859699D01*
X169900273Y-99672450D01*
X170018284Y-99468049D01*
X170108606Y-99249993D01*
X170169693Y-99022014D01*
X170200500Y-98788011D01*
X170200500Y-98551989D01*
X170169693Y-98317986D01*
X170108606Y-98090007D01*
X170072497Y-98002832D01*
X170018286Y-97871955D01*
X170018284Y-97871951D01*
X169900273Y-97667550D01*
X169898353Y-97665048D01*
X169756597Y-97480307D01*
X169756595Y-97480305D01*
X169756592Y-97480301D01*
X169589699Y-97313408D01*
X169589694Y-97313404D01*
X169589692Y-97313402D01*
X169402453Y-97169729D01*
X169376635Y-97154823D01*
X169258770Y-97086773D01*
X169198044Y-97051713D01*
X168979986Y-96961391D01*
X168979987Y-96961391D01*
X168873876Y-96932958D01*
X168822562Y-96899634D01*
X168800636Y-96842512D01*
X168800500Y-96837332D01*
X168800500Y-95279999D01*
X174562768Y-95279999D01*
X174562769Y-95280000D01*
X175456988Y-95280000D01*
X175424075Y-95337007D01*
X175390000Y-95464174D01*
X175390000Y-95595826D01*
X175424075Y-95722993D01*
X175456988Y-95780000D01*
X174562769Y-95780000D01*
X174573241Y-95846122D01*
X174638904Y-96048215D01*
X174735375Y-96237552D01*
X174860277Y-96409464D01*
X175010535Y-96559722D01*
X175182447Y-96684624D01*
X175371784Y-96781095D01*
X175573877Y-96846758D01*
X175639999Y-96857231D01*
X175640000Y-96857230D01*
X175640000Y-95963012D01*
X175697007Y-95995925D01*
X175824174Y-96030000D01*
X175955826Y-96030000D01*
X176082993Y-95995925D01*
X176140000Y-95963012D01*
X176140000Y-96857231D01*
X176206122Y-96846758D01*
X176408215Y-96781095D01*
X176597552Y-96684624D01*
X176769464Y-96559722D01*
X176919722Y-96409464D01*
X177044624Y-96237552D01*
X177141095Y-96048215D01*
X177206758Y-95846122D01*
X177217231Y-95780000D01*
X176323012Y-95780000D01*
X176355925Y-95722993D01*
X176390000Y-95595826D01*
X176390000Y-95464174D01*
X176355925Y-95337007D01*
X176323012Y-95280000D01*
X177217231Y-95280000D01*
X177217231Y-95279999D01*
X177206758Y-95213877D01*
X177141095Y-95011784D01*
X177044624Y-94822447D01*
X176919722Y-94650535D01*
X176769464Y-94500277D01*
X176597552Y-94375375D01*
X176408215Y-94278904D01*
X176317015Y-94249272D01*
X176267515Y-94213308D01*
X176248608Y-94155117D01*
X176267515Y-94096926D01*
X176317013Y-94060962D01*
X176317017Y-94060962D01*
X176317018Y-94060962D01*
X176331633Y-94056213D01*
X176331633Y-94056212D01*
X176331639Y-94056211D01*
X176492994Y-93973996D01*
X176639501Y-93867553D01*
X176767553Y-93739501D01*
X176873996Y-93592994D01*
X176956211Y-93431639D01*
X177000712Y-93294675D01*
X177036676Y-93245176D01*
X177094866Y-93226268D01*
X177153057Y-93245175D01*
X177164871Y-93255264D01*
X179112104Y-95202497D01*
X179139881Y-95257014D01*
X179141100Y-95272501D01*
X179141100Y-96321456D01*
X179122193Y-96379647D01*
X179112104Y-96391459D01*
X179061082Y-96442481D01*
X179061080Y-96442483D01*
X179061080Y-96442484D01*
X178982023Y-96579416D01*
X178941100Y-96732143D01*
X178941100Y-96890257D01*
X178982023Y-97042984D01*
X179061080Y-97179916D01*
X179172884Y-97291720D01*
X179309816Y-97370777D01*
X179462543Y-97411700D01*
X179462545Y-97411700D01*
X179620655Y-97411700D01*
X179620657Y-97411700D01*
X179773384Y-97370777D01*
X179910316Y-97291720D01*
X180022120Y-97179916D01*
X180101177Y-97042984D01*
X180142100Y-96890257D01*
X180142100Y-96732143D01*
X180101177Y-96579416D01*
X180022120Y-96442484D01*
X179997251Y-96417615D01*
X179971096Y-96391459D01*
X179943319Y-96336942D01*
X179942100Y-96321456D01*
X179942100Y-95012874D01*
X179942100Y-95012873D01*
X179927799Y-94959500D01*
X179927799Y-94959499D01*
X179927799Y-94959498D01*
X179914806Y-94911010D01*
X179914805Y-94911008D01*
X179862083Y-94819691D01*
X179862082Y-94819690D01*
X179862081Y-94819689D01*
X179862080Y-94819687D01*
X176565340Y-91522947D01*
X176537563Y-91468430D01*
X176547134Y-91407998D01*
X176577150Y-91372853D01*
X176639501Y-91327553D01*
X176767553Y-91199501D01*
X176873996Y-91052994D01*
X176956211Y-90891639D01*
X177012171Y-90719409D01*
X177040500Y-90540546D01*
X177040500Y-90359454D01*
X177040500Y-90359450D01*
X177017222Y-90212484D01*
X177012171Y-90180591D01*
X176956211Y-90008361D01*
X176873996Y-89847006D01*
X176767553Y-89700499D01*
X176639501Y-89572447D01*
X176492994Y-89466004D01*
X176492993Y-89466003D01*
X176492991Y-89466002D01*
X176331637Y-89383788D01*
X176159406Y-89327828D01*
X175980549Y-89299500D01*
X175980546Y-89299500D01*
X175799454Y-89299500D01*
X175799451Y-89299500D01*
X175620593Y-89327828D01*
X175448362Y-89383788D01*
X175287008Y-89466002D01*
X175213752Y-89519225D01*
X175140499Y-89572447D01*
X175012447Y-89700499D01*
X175003765Y-89712449D01*
X174906002Y-89847008D01*
X174823788Y-90008362D01*
X174767828Y-90180593D01*
X174739500Y-90359450D01*
X174739500Y-90540549D01*
X174767828Y-90719406D01*
X174823788Y-90891637D01*
X174887671Y-91017015D01*
X174906004Y-91052994D01*
X175012447Y-91199501D01*
X175140499Y-91327553D01*
X175287006Y-91433996D01*
X175435446Y-91509630D01*
X175478710Y-91552894D01*
X175489500Y-91597839D01*
X175489500Y-91604427D01*
X175516793Y-91706287D01*
X175550595Y-91764834D01*
X175563316Y-91824682D01*
X175538429Y-91880577D01*
X175495452Y-91908487D01*
X175448364Y-91923787D01*
X175287008Y-92006002D01*
X175216231Y-92057425D01*
X175140499Y-92112447D01*
X175012447Y-92240499D01*
X175005102Y-92250609D01*
X174906002Y-92387008D01*
X174823788Y-92548362D01*
X174767828Y-92720593D01*
X174739500Y-92899450D01*
X174739500Y-93080549D01*
X174767828Y-93259405D01*
X174767829Y-93259409D01*
X174776794Y-93287000D01*
X174823788Y-93431637D01*
X174883289Y-93548415D01*
X174906004Y-93592994D01*
X175012447Y-93739501D01*
X175140499Y-93867553D01*
X175287006Y-93973996D01*
X175448361Y-94056211D01*
X175459483Y-94059824D01*
X175462983Y-94060962D01*
X175512483Y-94096926D01*
X175531391Y-94155116D01*
X175512484Y-94213307D01*
X175462985Y-94249271D01*
X175462984Y-94249272D01*
X175371784Y-94278904D01*
X175182447Y-94375375D01*
X175010535Y-94500277D01*
X174860277Y-94650535D01*
X174735375Y-94822447D01*
X174638904Y-95011784D01*
X174573241Y-95213877D01*
X174562768Y-95279999D01*
X168800500Y-95279999D01*
X168800500Y-87362666D01*
X168819407Y-87304475D01*
X168868907Y-87268511D01*
X168873852Y-87267046D01*
X168979993Y-87238606D01*
X169198049Y-87148284D01*
X169402450Y-87030273D01*
X169589699Y-86886592D01*
X169756592Y-86719699D01*
X169900273Y-86532450D01*
X170018284Y-86328049D01*
X170108606Y-86109993D01*
X170169693Y-85882014D01*
X170200500Y-85648011D01*
X170200500Y-85411989D01*
X170169693Y-85177986D01*
X170108606Y-84950007D01*
X170051061Y-84811081D01*
X170018286Y-84731955D01*
X170004860Y-84708700D01*
X169900273Y-84527550D01*
X169861420Y-84476916D01*
X169756597Y-84340307D01*
X169756595Y-84340305D01*
X169756592Y-84340301D01*
X169589699Y-84173408D01*
X169589694Y-84173404D01*
X169589692Y-84173402D01*
X169402453Y-84029729D01*
X169388974Y-84021947D01*
X169198049Y-83911716D01*
X169198044Y-83911713D01*
X168979992Y-83821393D01*
X168824277Y-83779670D01*
X168752014Y-83760307D01*
X168752011Y-83760306D01*
X168752009Y-83760306D01*
X168518012Y-83729500D01*
X168518011Y-83729500D01*
X168281989Y-83729500D01*
X168281987Y-83729500D01*
X168047993Y-83760306D01*
X168047988Y-83760306D01*
X167820007Y-83821393D01*
X167601955Y-83911713D01*
X167397546Y-84029729D01*
X167210307Y-84173402D01*
X167043402Y-84340307D01*
X166899729Y-84527546D01*
X166781713Y-84731955D01*
X166691393Y-84950007D01*
X166630306Y-85177988D01*
X166630306Y-85177993D01*
X166599500Y-85411987D01*
X161900500Y-85411987D01*
X161900500Y-73983143D01*
X168175500Y-73983143D01*
X168175500Y-74141257D01*
X168216423Y-74293984D01*
X168295480Y-74430916D01*
X168407284Y-74542720D01*
X168544216Y-74621777D01*
X168696943Y-74662700D01*
X168769099Y-74662700D01*
X168827290Y-74681607D01*
X168839103Y-74691696D01*
X170860504Y-76713097D01*
X170888281Y-76767614D01*
X170889500Y-76783101D01*
X170889500Y-77536156D01*
X170870593Y-77594347D01*
X170860504Y-77606159D01*
X170809482Y-77657181D01*
X170809480Y-77657183D01*
X170809480Y-77657184D01*
X170730423Y-77794116D01*
X170689500Y-77946843D01*
X170689500Y-78104957D01*
X170730423Y-78257684D01*
X170809480Y-78394616D01*
X170921284Y-78506420D01*
X171058216Y-78585477D01*
X171210943Y-78626400D01*
X171210945Y-78626400D01*
X171369055Y-78626400D01*
X171369057Y-78626400D01*
X171521784Y-78585477D01*
X171658716Y-78506420D01*
X171770520Y-78394616D01*
X171849577Y-78257684D01*
X171890500Y-78104957D01*
X171890500Y-77946843D01*
X171849577Y-77794116D01*
X171770520Y-77657184D01*
X171770517Y-77657181D01*
X171719496Y-77606159D01*
X171691719Y-77551642D01*
X171690500Y-77536156D01*
X171690500Y-76523474D01*
X171679875Y-76483819D01*
X171663207Y-76421612D01*
X171663205Y-76421609D01*
X171663205Y-76421607D01*
X171610483Y-76330291D01*
X171610482Y-76330290D01*
X171610481Y-76330289D01*
X171610480Y-76330287D01*
X169405496Y-74125303D01*
X169404218Y-74122796D01*
X169401788Y-74121386D01*
X169396623Y-74107889D01*
X169377719Y-74070786D01*
X169377021Y-74065438D01*
X169376500Y-74060377D01*
X169376500Y-73983143D01*
X169360503Y-73923443D01*
X171667800Y-73923443D01*
X171667800Y-74081557D01*
X171708723Y-74234284D01*
X171787780Y-74371216D01*
X171899584Y-74483020D01*
X172036516Y-74562077D01*
X172189243Y-74603000D01*
X172189245Y-74603000D01*
X172347355Y-74603000D01*
X172347357Y-74603000D01*
X172500084Y-74562077D01*
X172637016Y-74483020D01*
X172748820Y-74371216D01*
X172800164Y-74282283D01*
X172845633Y-74241344D01*
X172906483Y-74234948D01*
X172959471Y-74265541D01*
X172984358Y-74321436D01*
X172984900Y-74331785D01*
X172984900Y-78144573D01*
X172984900Y-78250027D01*
X172986952Y-78257684D01*
X173012194Y-78351892D01*
X173064916Y-78443208D01*
X173064917Y-78443209D01*
X173064918Y-78443210D01*
X173064920Y-78443213D01*
X173934947Y-79313240D01*
X174795850Y-80174143D01*
X174823627Y-80228660D01*
X174814056Y-80289092D01*
X174770791Y-80332357D01*
X174765835Y-80334711D01*
X174702236Y-80362793D01*
X174622794Y-80442235D01*
X174577414Y-80545011D01*
X174574500Y-80570130D01*
X174574500Y-82359860D01*
X174574501Y-82359863D01*
X174577414Y-82384990D01*
X174602756Y-82442385D01*
X174622794Y-82487765D01*
X174702235Y-82567206D01*
X174805009Y-82612585D01*
X174830135Y-82615500D01*
X176619864Y-82615499D01*
X176644991Y-82612585D01*
X176747765Y-82567206D01*
X176827206Y-82487765D01*
X176872585Y-82384991D01*
X176875500Y-82359865D01*
X176875499Y-80570136D01*
X176872585Y-80545009D01*
X176827206Y-80442235D01*
X176754332Y-80369361D01*
X176747215Y-80355392D01*
X176736128Y-80344305D01*
X176733675Y-80328817D01*
X176726557Y-80314847D01*
X176729009Y-80299360D01*
X176726557Y-80283873D01*
X176733675Y-80269902D01*
X176736128Y-80254415D01*
X176754328Y-80229364D01*
X176883161Y-80100531D01*
X176937673Y-80072757D01*
X176998105Y-80082328D01*
X177041370Y-80125593D01*
X177048787Y-80144915D01*
X177049200Y-80146456D01*
X177049200Y-80146457D01*
X177090123Y-80299184D01*
X177169180Y-80436116D01*
X177280984Y-80547920D01*
X177417916Y-80626977D01*
X177570643Y-80667900D01*
X177570645Y-80667900D01*
X177708200Y-80667900D01*
X177766391Y-80686807D01*
X177802355Y-80736307D01*
X177807200Y-80766900D01*
X177807200Y-84283699D01*
X177788293Y-84341890D01*
X177778204Y-84353703D01*
X175569516Y-86562391D01*
X175516793Y-86653711D01*
X175516792Y-86653715D01*
X175508107Y-86686125D01*
X175474782Y-86737439D01*
X175417660Y-86759364D01*
X175412481Y-86759500D01*
X174995139Y-86759500D01*
X174995136Y-86759501D01*
X174970009Y-86762414D01*
X174867235Y-86807794D01*
X174787794Y-86887235D01*
X174742414Y-86990011D01*
X174739500Y-87015130D01*
X174739500Y-88804860D01*
X174739501Y-88804863D01*
X174742414Y-88829990D01*
X174767756Y-88887385D01*
X174787794Y-88932765D01*
X174867235Y-89012206D01*
X174970009Y-89057585D01*
X174995135Y-89060500D01*
X176784864Y-89060499D01*
X176809991Y-89057585D01*
X176912765Y-89012206D01*
X176992206Y-88932765D01*
X177037585Y-88829991D01*
X177040500Y-88804865D01*
X177040499Y-87015136D01*
X177037585Y-86990009D01*
X176992206Y-86887235D01*
X176912765Y-86807794D01*
X176809991Y-86762415D01*
X176809990Y-86762414D01*
X176809988Y-86762414D01*
X176784869Y-86759500D01*
X176784865Y-86759500D01*
X176744200Y-86759500D01*
X176686009Y-86740593D01*
X176650045Y-86691093D01*
X176650045Y-86629907D01*
X176674196Y-86590496D01*
X177100379Y-86164313D01*
X178453610Y-84811081D01*
X178453613Y-84811080D01*
X178528180Y-84736513D01*
X178567865Y-84667777D01*
X178580907Y-84645188D01*
X178608200Y-84543327D01*
X178608200Y-84437873D01*
X178608200Y-65972546D01*
X178627107Y-65914355D01*
X178676607Y-65878391D01*
X178737791Y-65878391D01*
X178795591Y-65897171D01*
X178795592Y-65897171D01*
X178795595Y-65897172D01*
X178974451Y-65925500D01*
X178974454Y-65925500D01*
X179155549Y-65925500D01*
X179244977Y-65911335D01*
X179334409Y-65897171D01*
X179506639Y-65841211D01*
X179667994Y-65758996D01*
X179814501Y-65652553D01*
X179875298Y-65591755D01*
X179929813Y-65563980D01*
X179990245Y-65573551D01*
X180033510Y-65616816D01*
X180044300Y-65661761D01*
X180044300Y-74425656D01*
X180025393Y-74483847D01*
X180015304Y-74495659D01*
X179964282Y-74546681D01*
X179964280Y-74546683D01*
X179964280Y-74546684D01*
X179885223Y-74683616D01*
X179844300Y-74836343D01*
X179844300Y-74994457D01*
X179885223Y-75147184D01*
X179964280Y-75284116D01*
X180076084Y-75395920D01*
X180213016Y-75474977D01*
X180365743Y-75515900D01*
X180365745Y-75515900D01*
X180523855Y-75515900D01*
X180523857Y-75515900D01*
X180676584Y-75474977D01*
X180813516Y-75395920D01*
X180821498Y-75387937D01*
X180876013Y-75360162D01*
X180936445Y-75369733D01*
X180979710Y-75412998D01*
X180990500Y-75457943D01*
X180990500Y-96207456D01*
X180971593Y-96265647D01*
X180961504Y-96277459D01*
X180910482Y-96328481D01*
X180910480Y-96328483D01*
X180910480Y-96328484D01*
X180831423Y-96465416D01*
X180790500Y-96618143D01*
X180790500Y-96776257D01*
X180831423Y-96928984D01*
X180910480Y-97065916D01*
X181022284Y-97177720D01*
X181159216Y-97256777D01*
X181311943Y-97297700D01*
X181311945Y-97297700D01*
X181470054Y-97297700D01*
X181470057Y-97297700D01*
X181583480Y-97267308D01*
X181644578Y-97270510D01*
X181692128Y-97309015D01*
X181708100Y-97362935D01*
X181708100Y-99163499D01*
X181689193Y-99221690D01*
X181679104Y-99233503D01*
X179750403Y-101162204D01*
X179695886Y-101189981D01*
X179680399Y-101191200D01*
X179608243Y-101191200D01*
X179455516Y-101232123D01*
X179318584Y-101311180D01*
X179206780Y-101422984D01*
X179127723Y-101559916D01*
X179086800Y-101712643D01*
X179086800Y-101870757D01*
X179127723Y-102023484D01*
X179206780Y-102160416D01*
X179318584Y-102272220D01*
X179455516Y-102351277D01*
X179608243Y-102392200D01*
X179608245Y-102392200D01*
X179766355Y-102392200D01*
X179766357Y-102392200D01*
X179919084Y-102351277D01*
X180056016Y-102272220D01*
X180167820Y-102160416D01*
X180246877Y-102023484D01*
X180287800Y-101870757D01*
X180287800Y-101798600D01*
X180306707Y-101740409D01*
X180316790Y-101728602D01*
X180853658Y-101191734D01*
X181457000Y-101191734D01*
X181457000Y-101343266D01*
X181463184Y-101366344D01*
X181496220Y-101489639D01*
X181571981Y-101620860D01*
X181571983Y-101620862D01*
X181571985Y-101620865D01*
X181679135Y-101728015D01*
X181679137Y-101728016D01*
X181679139Y-101728018D01*
X181810361Y-101803779D01*
X181810359Y-101803779D01*
X181810363Y-101803780D01*
X181810365Y-101803781D01*
X181956734Y-101843000D01*
X181956736Y-101843000D01*
X182108264Y-101843000D01*
X182108266Y-101843000D01*
X182254635Y-101803781D01*
X182254637Y-101803779D01*
X182254639Y-101803779D01*
X182385860Y-101728018D01*
X182385860Y-101728017D01*
X182385865Y-101728015D01*
X182493015Y-101620865D01*
X182533031Y-101551554D01*
X182578499Y-101510614D01*
X182639349Y-101504218D01*
X182692338Y-101534810D01*
X182710231Y-101563170D01*
X182753103Y-101666674D01*
X182753109Y-101666685D01*
X182802371Y-101740409D01*
X182840711Y-101797789D01*
X182840714Y-101797792D01*
X182840718Y-101797797D01*
X182952211Y-101909289D01*
X183018001Y-101953248D01*
X183055881Y-102001298D01*
X183062000Y-102035564D01*
X183062000Y-103869435D01*
X183043093Y-103927626D01*
X183018003Y-103951749D01*
X182963170Y-103988389D01*
X182952207Y-103995714D01*
X182840714Y-104107207D01*
X182840711Y-104107211D01*
X182753109Y-104238314D01*
X182753103Y-104238325D01*
X182692763Y-104384001D01*
X182692763Y-104384003D01*
X182662000Y-104538655D01*
X182662000Y-105296344D01*
X182692763Y-105450996D01*
X182692763Y-105450998D01*
X182753103Y-105596674D01*
X182753109Y-105596685D01*
X182805812Y-105675559D01*
X182840711Y-105727789D01*
X182952211Y-105839289D01*
X183014853Y-105881145D01*
X183083314Y-105926890D01*
X183083325Y-105926896D01*
X183113163Y-105939255D01*
X183229003Y-105987237D01*
X183383658Y-106018000D01*
X183383659Y-106018000D01*
X183541341Y-106018000D01*
X183541342Y-106018000D01*
X183695997Y-105987237D01*
X183841679Y-105926894D01*
X183972789Y-105839289D01*
X184084289Y-105727789D01*
X184171894Y-105596679D01*
X184232237Y-105450997D01*
X184263000Y-105296342D01*
X184263000Y-104538658D01*
X184232237Y-104384003D01*
X184171894Y-104238321D01*
X184171893Y-104238319D01*
X184171890Y-104238314D01*
X184116167Y-104154920D01*
X184084289Y-104107211D01*
X183972789Y-103995711D01*
X183906996Y-103951749D01*
X183869119Y-103903699D01*
X183863000Y-103869435D01*
X183863000Y-103668143D01*
X222921200Y-103668143D01*
X222921200Y-103826257D01*
X222962123Y-103978984D01*
X223041180Y-104115916D01*
X223152984Y-104227720D01*
X223289916Y-104306777D01*
X223442643Y-104347700D01*
X223442645Y-104347700D01*
X223600755Y-104347700D01*
X223600757Y-104347700D01*
X223753484Y-104306777D01*
X223890416Y-104227720D01*
X224002220Y-104115916D01*
X224081277Y-103978984D01*
X224122200Y-103826257D01*
X224122200Y-103754101D01*
X224141107Y-103695910D01*
X224151196Y-103684097D01*
X224605163Y-103230130D01*
X229674500Y-103230130D01*
X229674500Y-105719860D01*
X229674501Y-105719863D01*
X229677414Y-105744990D01*
X229702756Y-105802385D01*
X229722794Y-105847765D01*
X229802235Y-105927206D01*
X229905009Y-105972585D01*
X229930135Y-105975500D01*
X231619864Y-105975499D01*
X231644991Y-105972585D01*
X231747765Y-105927206D01*
X231827206Y-105847765D01*
X231872585Y-105744991D01*
X231875500Y-105719865D01*
X231875499Y-103988385D01*
X232214500Y-103988385D01*
X232214500Y-104961614D01*
X232241597Y-105132702D01*
X232241598Y-105132706D01*
X232295123Y-105297438D01*
X232295125Y-105297441D01*
X232295126Y-105297444D01*
X232295127Y-105297445D01*
X232373768Y-105451788D01*
X232475586Y-105591928D01*
X232598072Y-105714414D01*
X232738212Y-105816232D01*
X232892555Y-105894873D01*
X232892557Y-105894873D01*
X232892558Y-105894874D01*
X232892561Y-105894876D01*
X233057293Y-105948401D01*
X233057297Y-105948402D01*
X233228386Y-105975500D01*
X233228389Y-105975500D01*
X233401614Y-105975500D01*
X233572702Y-105948402D01*
X233572706Y-105948401D01*
X233737438Y-105894876D01*
X233737440Y-105894874D01*
X233737445Y-105894873D01*
X233891788Y-105816232D01*
X234031928Y-105714414D01*
X234154414Y-105591928D01*
X234256232Y-105451788D01*
X234334873Y-105297445D01*
X234334874Y-105297440D01*
X234334876Y-105297438D01*
X234388401Y-105132706D01*
X234388402Y-105132702D01*
X234415500Y-104961614D01*
X234415500Y-103988385D01*
X234754500Y-103988385D01*
X234754500Y-104961614D01*
X234781597Y-105132702D01*
X234781598Y-105132706D01*
X234835123Y-105297438D01*
X234835125Y-105297441D01*
X234835126Y-105297444D01*
X234835127Y-105297445D01*
X234913768Y-105451788D01*
X235015586Y-105591928D01*
X235138072Y-105714414D01*
X235278212Y-105816232D01*
X235432555Y-105894873D01*
X235432557Y-105894873D01*
X235432558Y-105894874D01*
X235432561Y-105894876D01*
X235597293Y-105948401D01*
X235597297Y-105948402D01*
X235768386Y-105975500D01*
X235768389Y-105975500D01*
X235941614Y-105975500D01*
X236112702Y-105948402D01*
X236112706Y-105948401D01*
X236277438Y-105894876D01*
X236277440Y-105894874D01*
X236277445Y-105894873D01*
X236431788Y-105816232D01*
X236571928Y-105714414D01*
X236694414Y-105591928D01*
X236796232Y-105451788D01*
X236874873Y-105297445D01*
X236928402Y-105132701D01*
X236928402Y-105132698D01*
X236929521Y-105129256D01*
X236965485Y-105079756D01*
X237023676Y-105060849D01*
X237081867Y-105079756D01*
X237117831Y-105129256D01*
X237121457Y-105144361D01*
X237127009Y-105179413D01*
X237190243Y-105374027D01*
X237283138Y-105556346D01*
X237403414Y-105721891D01*
X237548108Y-105866585D01*
X237713653Y-105986861D01*
X237895972Y-106079756D01*
X238090589Y-106142991D01*
X238090585Y-106142991D01*
X238144999Y-106151608D01*
X238145000Y-106151607D01*
X238145000Y-104790686D01*
X238149394Y-104795080D01*
X238240606Y-104847741D01*
X238342339Y-104875000D01*
X238447661Y-104875000D01*
X238549394Y-104847741D01*
X238640606Y-104795080D01*
X238645000Y-104790686D01*
X238645000Y-106151608D01*
X238699412Y-106142991D01*
X238894027Y-106079756D01*
X239076346Y-105986861D01*
X239241891Y-105866585D01*
X239386585Y-105721891D01*
X239506861Y-105556346D01*
X239599756Y-105374027D01*
X239662991Y-105179412D01*
X239695000Y-104977315D01*
X239695000Y-104725001D01*
X239694999Y-104725000D01*
X238710686Y-104725000D01*
X238715080Y-104720606D01*
X238767741Y-104629394D01*
X238795000Y-104527661D01*
X238795000Y-104422339D01*
X238767741Y-104320606D01*
X238715080Y-104229394D01*
X238710686Y-104225000D01*
X239694999Y-104225000D01*
X239695000Y-104224999D01*
X239695000Y-103972684D01*
X239662991Y-103770587D01*
X239599756Y-103575972D01*
X239506861Y-103393653D01*
X239386585Y-103228108D01*
X239241891Y-103083414D01*
X239076346Y-102963138D01*
X238894027Y-102870243D01*
X238699414Y-102807009D01*
X238645000Y-102798390D01*
X238645000Y-104159314D01*
X238640606Y-104154920D01*
X238549394Y-104102259D01*
X238447661Y-104075000D01*
X238342339Y-104075000D01*
X238240606Y-104102259D01*
X238149394Y-104154920D01*
X238145000Y-104159314D01*
X238145000Y-102798391D01*
X238144999Y-102798390D01*
X238090585Y-102807009D01*
X237895972Y-102870243D01*
X237713653Y-102963138D01*
X237548108Y-103083414D01*
X237403414Y-103228108D01*
X237283138Y-103393653D01*
X237190243Y-103575972D01*
X237127009Y-103770586D01*
X237121457Y-103805638D01*
X237093679Y-103860154D01*
X237039162Y-103887931D01*
X236978730Y-103878359D01*
X236935466Y-103835094D01*
X236929521Y-103820743D01*
X236913224Y-103770586D01*
X236874873Y-103652555D01*
X236796232Y-103498212D01*
X236694414Y-103358072D01*
X236571928Y-103235586D01*
X236431788Y-103133768D01*
X236431787Y-103133767D01*
X236431785Y-103133766D01*
X236277441Y-103055125D01*
X236277438Y-103055123D01*
X236112706Y-103001598D01*
X236112702Y-103001597D01*
X235941614Y-102974500D01*
X235941611Y-102974500D01*
X235768389Y-102974500D01*
X235768386Y-102974500D01*
X235597297Y-103001597D01*
X235597293Y-103001598D01*
X235432561Y-103055123D01*
X235432558Y-103055125D01*
X235278214Y-103133766D01*
X235138073Y-103235585D01*
X235015585Y-103358073D01*
X234913766Y-103498214D01*
X234835125Y-103652558D01*
X234835123Y-103652561D01*
X234781598Y-103817293D01*
X234781597Y-103817297D01*
X234754500Y-103988385D01*
X234415500Y-103988385D01*
X234388402Y-103817297D01*
X234388401Y-103817293D01*
X234334876Y-103652561D01*
X234334874Y-103652558D01*
X234334873Y-103652557D01*
X234334873Y-103652555D01*
X234256232Y-103498212D01*
X234154414Y-103358072D01*
X234031928Y-103235586D01*
X233891788Y-103133768D01*
X233891787Y-103133767D01*
X233891785Y-103133766D01*
X233737441Y-103055125D01*
X233737438Y-103055123D01*
X233572706Y-103001598D01*
X233572702Y-103001597D01*
X233401614Y-102974500D01*
X233401611Y-102974500D01*
X233228389Y-102974500D01*
X233228386Y-102974500D01*
X233057297Y-103001597D01*
X233057293Y-103001598D01*
X232892561Y-103055123D01*
X232892558Y-103055125D01*
X232738214Y-103133766D01*
X232598073Y-103235585D01*
X232475585Y-103358073D01*
X232373766Y-103498214D01*
X232295125Y-103652558D01*
X232295123Y-103652561D01*
X232241598Y-103817293D01*
X232241597Y-103817297D01*
X232214500Y-103988385D01*
X231875499Y-103988385D01*
X231875499Y-103230136D01*
X231872585Y-103205009D01*
X231827206Y-103102235D01*
X231747765Y-103022794D01*
X231644991Y-102977415D01*
X231644990Y-102977414D01*
X231644988Y-102977414D01*
X231619868Y-102974500D01*
X229930139Y-102974500D01*
X229930136Y-102974501D01*
X229905009Y-102977414D01*
X229802235Y-103022794D01*
X229722794Y-103102235D01*
X229677414Y-103205011D01*
X229674500Y-103230130D01*
X224605163Y-103230130D01*
X229099097Y-98736196D01*
X229153614Y-98708419D01*
X229169101Y-98707200D01*
X230827725Y-98707200D01*
X230827727Y-98707200D01*
X230929587Y-98679907D01*
X231020913Y-98627180D01*
X231095480Y-98552613D01*
X231148207Y-98461287D01*
X231164629Y-98399999D01*
X244842768Y-98399999D01*
X244842769Y-98400000D01*
X245736988Y-98400000D01*
X245704075Y-98457007D01*
X245670000Y-98584174D01*
X245670000Y-98715826D01*
X245704075Y-98842993D01*
X245736988Y-98900000D01*
X244842769Y-98900000D01*
X244853241Y-98966122D01*
X244918904Y-99168215D01*
X245015375Y-99357552D01*
X245140277Y-99529464D01*
X245290535Y-99679722D01*
X245462447Y-99804624D01*
X245651784Y-99901095D01*
X245853877Y-99966758D01*
X245919999Y-99977231D01*
X245920000Y-99977230D01*
X245920000Y-99083012D01*
X245977007Y-99115925D01*
X246104174Y-99150000D01*
X246235826Y-99150000D01*
X246362993Y-99115925D01*
X246420000Y-99083012D01*
X246420000Y-99977231D01*
X246486122Y-99966758D01*
X246688215Y-99901095D01*
X246877552Y-99804624D01*
X247049464Y-99679722D01*
X247199722Y-99529464D01*
X247324624Y-99357552D01*
X247421095Y-99168215D01*
X247486758Y-98966122D01*
X247497231Y-98900000D01*
X246603012Y-98900000D01*
X246635925Y-98842993D01*
X246670000Y-98715826D01*
X246670000Y-98584174D01*
X246635925Y-98457007D01*
X246603012Y-98400000D01*
X247497231Y-98400000D01*
X247497231Y-98399999D01*
X247486758Y-98333877D01*
X247421095Y-98131784D01*
X247324624Y-97942447D01*
X247199722Y-97770535D01*
X247049464Y-97620277D01*
X246877552Y-97495375D01*
X246688215Y-97398904D01*
X246597015Y-97369272D01*
X246547515Y-97333308D01*
X246528608Y-97275117D01*
X246547515Y-97216926D01*
X246597013Y-97180962D01*
X246597017Y-97180962D01*
X246597018Y-97180962D01*
X246611633Y-97176213D01*
X246611633Y-97176212D01*
X246611639Y-97176211D01*
X246772994Y-97093996D01*
X246919501Y-96987553D01*
X247047553Y-96859501D01*
X247153996Y-96712994D01*
X247236211Y-96551639D01*
X247292171Y-96379409D01*
X247318510Y-96213113D01*
X247320500Y-96200549D01*
X247320500Y-96019450D01*
X247298130Y-95878214D01*
X247292171Y-95840591D01*
X247236211Y-95668361D01*
X247153996Y-95507006D01*
X247047553Y-95360499D01*
X246919501Y-95232447D01*
X246772994Y-95126004D01*
X246772993Y-95126003D01*
X246772991Y-95126002D01*
X246611637Y-95043788D01*
X246439406Y-94987828D01*
X246260549Y-94959500D01*
X246260546Y-94959500D01*
X246079454Y-94959500D01*
X246079451Y-94959500D01*
X245900593Y-94987828D01*
X245728362Y-95043788D01*
X245567008Y-95126002D01*
X245507956Y-95168906D01*
X245420499Y-95232447D01*
X245292447Y-95360499D01*
X245277118Y-95381598D01*
X245186002Y-95507008D01*
X245103788Y-95668362D01*
X245047828Y-95840593D01*
X245019500Y-96019450D01*
X245019500Y-96200549D01*
X245047828Y-96379406D01*
X245103788Y-96551637D01*
X245173312Y-96688086D01*
X245186004Y-96712994D01*
X245292447Y-96859501D01*
X245420499Y-96987553D01*
X245567006Y-97093996D01*
X245728361Y-97176211D01*
X245736071Y-97178716D01*
X245742983Y-97180962D01*
X245792483Y-97216926D01*
X245811391Y-97275116D01*
X245792484Y-97333307D01*
X245742985Y-97369271D01*
X245742984Y-97369272D01*
X245651784Y-97398904D01*
X245462447Y-97495375D01*
X245290535Y-97620277D01*
X245140277Y-97770535D01*
X245015375Y-97942447D01*
X244918904Y-98131784D01*
X244853241Y-98333877D01*
X244842768Y-98399999D01*
X231164629Y-98399999D01*
X231175500Y-98359427D01*
X231175500Y-98346722D01*
X231194407Y-98288531D01*
X231229554Y-98258512D01*
X231351788Y-98196232D01*
X231491928Y-98094414D01*
X231614414Y-97971928D01*
X231716232Y-97831788D01*
X231794873Y-97677445D01*
X231794874Y-97677440D01*
X231794876Y-97677438D01*
X231848401Y-97512706D01*
X231848402Y-97512702D01*
X231875500Y-97341614D01*
X231875500Y-96368385D01*
X232214500Y-96368385D01*
X232214500Y-97341614D01*
X232241597Y-97512702D01*
X232241598Y-97512706D01*
X232295123Y-97677438D01*
X232295125Y-97677441D01*
X232354237Y-97793457D01*
X232373768Y-97831788D01*
X232475586Y-97971928D01*
X232598072Y-98094414D01*
X232738212Y-98196232D01*
X232892555Y-98274873D01*
X232892557Y-98274873D01*
X232892558Y-98274874D01*
X232892561Y-98274876D01*
X233057293Y-98328401D01*
X233057297Y-98328402D01*
X233228386Y-98355500D01*
X233228389Y-98355500D01*
X233401614Y-98355500D01*
X233572702Y-98328402D01*
X233572706Y-98328401D01*
X233737438Y-98274876D01*
X233737440Y-98274874D01*
X233737445Y-98274873D01*
X233891788Y-98196232D01*
X234031928Y-98094414D01*
X234154414Y-97971928D01*
X234256232Y-97831788D01*
X234334873Y-97677445D01*
X234334874Y-97677440D01*
X234334876Y-97677438D01*
X234388401Y-97512706D01*
X234388402Y-97512702D01*
X234415500Y-97341614D01*
X234415500Y-96368385D01*
X234754500Y-96368385D01*
X234754500Y-97341614D01*
X234781597Y-97512702D01*
X234781598Y-97512706D01*
X234835123Y-97677438D01*
X234835125Y-97677441D01*
X234894237Y-97793457D01*
X234913768Y-97831788D01*
X235015586Y-97971928D01*
X235138072Y-98094414D01*
X235278212Y-98196232D01*
X235432555Y-98274873D01*
X235432557Y-98274873D01*
X235432558Y-98274874D01*
X235432561Y-98274876D01*
X235597293Y-98328401D01*
X235597297Y-98328402D01*
X235768386Y-98355500D01*
X235768389Y-98355500D01*
X235941614Y-98355500D01*
X236112702Y-98328402D01*
X236112706Y-98328401D01*
X236277438Y-98274876D01*
X236277440Y-98274874D01*
X236277445Y-98274873D01*
X236431788Y-98196232D01*
X236571928Y-98094414D01*
X236694414Y-97971928D01*
X236796232Y-97831788D01*
X236874873Y-97677445D01*
X236874874Y-97677440D01*
X236874876Y-97677438D01*
X236928401Y-97512706D01*
X236928402Y-97512702D01*
X236955500Y-97341614D01*
X236955500Y-96368385D01*
X237294500Y-96368385D01*
X237294500Y-97341614D01*
X237321597Y-97512702D01*
X237321598Y-97512706D01*
X237375123Y-97677438D01*
X237375125Y-97677441D01*
X237434237Y-97793457D01*
X237453768Y-97831788D01*
X237555586Y-97971928D01*
X237678072Y-98094414D01*
X237818212Y-98196232D01*
X237972555Y-98274873D01*
X237972557Y-98274873D01*
X237972558Y-98274874D01*
X237972561Y-98274876D01*
X238137293Y-98328401D01*
X238137297Y-98328402D01*
X238308386Y-98355500D01*
X238308389Y-98355500D01*
X238481614Y-98355500D01*
X238631187Y-98331810D01*
X238652702Y-98328402D01*
X238652706Y-98328401D01*
X238817438Y-98274876D01*
X238817440Y-98274874D01*
X238817445Y-98274873D01*
X238971788Y-98196232D01*
X239111928Y-98094414D01*
X239234414Y-97971928D01*
X239336232Y-97831788D01*
X239414873Y-97677445D01*
X239414874Y-97677440D01*
X239414876Y-97677438D01*
X239468401Y-97512706D01*
X239468402Y-97512702D01*
X239495500Y-97341614D01*
X239495500Y-96368385D01*
X239468402Y-96197297D01*
X239468401Y-96197293D01*
X239414876Y-96032561D01*
X239414874Y-96032558D01*
X239414873Y-96032557D01*
X239414873Y-96032555D01*
X239336232Y-95878212D01*
X239234414Y-95738072D01*
X239111928Y-95615586D01*
X238971788Y-95513768D01*
X238971787Y-95513767D01*
X238971785Y-95513766D01*
X238817441Y-95435125D01*
X238817438Y-95435123D01*
X238652706Y-95381598D01*
X238652702Y-95381597D01*
X238481614Y-95354500D01*
X238481611Y-95354500D01*
X238308389Y-95354500D01*
X238308386Y-95354500D01*
X238137297Y-95381597D01*
X238137293Y-95381598D01*
X237972561Y-95435123D01*
X237972558Y-95435125D01*
X237818214Y-95513766D01*
X237678073Y-95615585D01*
X237555585Y-95738073D01*
X237453766Y-95878214D01*
X237375125Y-96032558D01*
X237375123Y-96032561D01*
X237321598Y-96197293D01*
X237321597Y-96197297D01*
X237294500Y-96368385D01*
X236955500Y-96368385D01*
X236928402Y-96197297D01*
X236928401Y-96197293D01*
X236874876Y-96032561D01*
X236874874Y-96032558D01*
X236874873Y-96032557D01*
X236874873Y-96032555D01*
X236796232Y-95878212D01*
X236694414Y-95738072D01*
X236571928Y-95615586D01*
X236431788Y-95513768D01*
X236431787Y-95513767D01*
X236431785Y-95513766D01*
X236277441Y-95435125D01*
X236277438Y-95435123D01*
X236112706Y-95381598D01*
X236112702Y-95381597D01*
X235941614Y-95354500D01*
X235941611Y-95354500D01*
X235768389Y-95354500D01*
X235768386Y-95354500D01*
X235597297Y-95381597D01*
X235597293Y-95381598D01*
X235432561Y-95435123D01*
X235432558Y-95435125D01*
X235278214Y-95513766D01*
X235138073Y-95615585D01*
X235015585Y-95738073D01*
X234913766Y-95878214D01*
X234835125Y-96032558D01*
X234835123Y-96032561D01*
X234781598Y-96197293D01*
X234781597Y-96197297D01*
X234754500Y-96368385D01*
X234415500Y-96368385D01*
X234388402Y-96197297D01*
X234388401Y-96197293D01*
X234334876Y-96032561D01*
X234334874Y-96032558D01*
X234334873Y-96032557D01*
X234334873Y-96032555D01*
X234256232Y-95878212D01*
X234154414Y-95738072D01*
X234031928Y-95615586D01*
X233891788Y-95513768D01*
X233891787Y-95513767D01*
X233891785Y-95513766D01*
X233737441Y-95435125D01*
X233737438Y-95435123D01*
X233572706Y-95381598D01*
X233572702Y-95381597D01*
X233401614Y-95354500D01*
X233401611Y-95354500D01*
X233228389Y-95354500D01*
X233228386Y-95354500D01*
X233057297Y-95381597D01*
X233057293Y-95381598D01*
X232892561Y-95435123D01*
X232892558Y-95435125D01*
X232738214Y-95513766D01*
X232598073Y-95615585D01*
X232475585Y-95738073D01*
X232373766Y-95878214D01*
X232295125Y-96032558D01*
X232295123Y-96032561D01*
X232241598Y-96197293D01*
X232241597Y-96197297D01*
X232214500Y-96368385D01*
X231875500Y-96368385D01*
X231848402Y-96197297D01*
X231848401Y-96197293D01*
X231794876Y-96032561D01*
X231794874Y-96032558D01*
X231794873Y-96032557D01*
X231794873Y-96032555D01*
X231716232Y-95878212D01*
X231614414Y-95738072D01*
X231491928Y-95615586D01*
X231407987Y-95554599D01*
X231351786Y-95513766D01*
X231253821Y-95463852D01*
X231229554Y-95451487D01*
X231186291Y-95408224D01*
X231175500Y-95363278D01*
X231175500Y-93447074D01*
X231175500Y-93447073D01*
X231148207Y-93345213D01*
X231148207Y-93345212D01*
X231098668Y-93259409D01*
X231095480Y-93253887D01*
X231086652Y-93245059D01*
X231082662Y-93239842D01*
X231074572Y-93216880D01*
X231063519Y-93195187D01*
X231064576Y-93188510D01*
X231062330Y-93182134D01*
X231069281Y-93158803D01*
X231073090Y-93134755D01*
X231078779Y-93126923D01*
X231079801Y-93123496D01*
X231083106Y-93120967D01*
X231091293Y-93109699D01*
X231525863Y-92675130D01*
X245019500Y-92675130D01*
X245019500Y-94464860D01*
X245019501Y-94464863D01*
X245022414Y-94489990D01*
X245036539Y-94521979D01*
X245067794Y-94592765D01*
X245147235Y-94672206D01*
X245250009Y-94717585D01*
X245275135Y-94720500D01*
X247064864Y-94720499D01*
X247089991Y-94717585D01*
X247192765Y-94672206D01*
X247272206Y-94592765D01*
X247317585Y-94489991D01*
X247320500Y-94464865D01*
X247320499Y-92675136D01*
X247317585Y-92650009D01*
X247272206Y-92547235D01*
X247192765Y-92467794D01*
X247089991Y-92422415D01*
X247089990Y-92422414D01*
X247089988Y-92422414D01*
X247064868Y-92419500D01*
X245275139Y-92419500D01*
X245275136Y-92419501D01*
X245250009Y-92422414D01*
X245147235Y-92467794D01*
X245067794Y-92547235D01*
X245022414Y-92650011D01*
X245019500Y-92675130D01*
X231525863Y-92675130D01*
X231950380Y-92250613D01*
X231950383Y-92250608D01*
X232003105Y-92159292D01*
X232003105Y-92159290D01*
X232003107Y-92159288D01*
X232030400Y-92057427D01*
X232030400Y-91951973D01*
X232030400Y-78235743D01*
X232049307Y-78177552D01*
X232059390Y-78165745D01*
X232110420Y-78114716D01*
X232126745Y-78086440D01*
X232355600Y-78086440D01*
X232355600Y-78086443D01*
X232355600Y-78244557D01*
X232396523Y-78397284D01*
X232475580Y-78534216D01*
X232587384Y-78646020D01*
X232724316Y-78725077D01*
X232877043Y-78766000D01*
X232877045Y-78766000D01*
X233035155Y-78766000D01*
X233035157Y-78766000D01*
X233187884Y-78725077D01*
X233324816Y-78646020D01*
X233436620Y-78534216D01*
X233515677Y-78397284D01*
X233556600Y-78244557D01*
X233556600Y-78086443D01*
X233515677Y-77933716D01*
X233436620Y-77796784D01*
X233324816Y-77684980D01*
X233187884Y-77605923D01*
X233035157Y-77565000D01*
X232877043Y-77565000D01*
X232762902Y-77595584D01*
X232724316Y-77605923D01*
X232587384Y-77684980D01*
X232475578Y-77796786D01*
X232413483Y-77904337D01*
X232413480Y-77904344D01*
X232396523Y-77933716D01*
X232358550Y-78075431D01*
X232358542Y-78075458D01*
X232355600Y-78086440D01*
X232126745Y-78086440D01*
X232189477Y-77977784D01*
X232230400Y-77825057D01*
X232230400Y-77666943D01*
X232189477Y-77514216D01*
X232110420Y-77377284D01*
X231998616Y-77265480D01*
X231861684Y-77186423D01*
X231708957Y-77145500D01*
X231550843Y-77145500D01*
X231398116Y-77186423D01*
X231261184Y-77265480D01*
X231149380Y-77377284D01*
X231070323Y-77514216D01*
X231029400Y-77666943D01*
X231029400Y-77825057D01*
X231070323Y-77977784D01*
X231149380Y-78114716D01*
X231200405Y-78165741D01*
X231228181Y-78220256D01*
X231229400Y-78235743D01*
X231229400Y-91797799D01*
X231210493Y-91855990D01*
X231200404Y-91867803D01*
X230518003Y-92550204D01*
X230463486Y-92577981D01*
X230447999Y-92579200D01*
X230375843Y-92579200D01*
X230223116Y-92620123D01*
X230086184Y-92699180D01*
X229974380Y-92810984D01*
X229895323Y-92947916D01*
X229854400Y-93100643D01*
X229854400Y-93258757D01*
X229895323Y-93411484D01*
X229974380Y-93548416D01*
X230086184Y-93660220D01*
X230223116Y-93739277D01*
X230301125Y-93760179D01*
X230352437Y-93793502D01*
X230374364Y-93850623D01*
X230374500Y-93855805D01*
X230374500Y-95363278D01*
X230355593Y-95421469D01*
X230320445Y-95451487D01*
X230301077Y-95461355D01*
X230198213Y-95513766D01*
X230058073Y-95615585D01*
X229935585Y-95738073D01*
X229833766Y-95878214D01*
X229755125Y-96032558D01*
X229755123Y-96032561D01*
X229701598Y-96197293D01*
X229701597Y-96197297D01*
X229674500Y-96368385D01*
X229674500Y-97341614D01*
X229701597Y-97512702D01*
X229701598Y-97512706D01*
X229755123Y-97677438D01*
X229755127Y-97677447D01*
X229798339Y-97762256D01*
X229807910Y-97822688D01*
X229780132Y-97877204D01*
X229725615Y-97904981D01*
X229710129Y-97906200D01*
X229014927Y-97906200D01*
X228909473Y-97906200D01*
X228847129Y-97922904D01*
X228807607Y-97933494D01*
X228716291Y-97986216D01*
X223584803Y-103117704D01*
X223530286Y-103145481D01*
X223514799Y-103146700D01*
X223442643Y-103146700D01*
X223289916Y-103187623D01*
X223152984Y-103266680D01*
X223041180Y-103378484D01*
X222962123Y-103515416D01*
X222921200Y-103668143D01*
X183863000Y-103668143D01*
X183863000Y-102035564D01*
X183881907Y-101977373D01*
X183906999Y-101953248D01*
X183972789Y-101909289D01*
X184071235Y-101810843D01*
X186708700Y-101810843D01*
X186708700Y-101968957D01*
X186749623Y-102121684D01*
X186828680Y-102258616D01*
X186940484Y-102370420D01*
X187077416Y-102449477D01*
X187230143Y-102490400D01*
X187230145Y-102490400D01*
X187388255Y-102490400D01*
X187388257Y-102490400D01*
X187540984Y-102449477D01*
X187677916Y-102370420D01*
X187703429Y-102344906D01*
X187728941Y-102319396D01*
X187783458Y-102291619D01*
X187798944Y-102290400D01*
X188448225Y-102290400D01*
X188448227Y-102290400D01*
X188550088Y-102263107D01*
X188550090Y-102263105D01*
X188550092Y-102263105D01*
X188641408Y-102210383D01*
X188641408Y-102210382D01*
X188641413Y-102210380D01*
X190170497Y-100681296D01*
X190225014Y-100653519D01*
X190240501Y-100652300D01*
X190312655Y-100652300D01*
X190312657Y-100652300D01*
X190465384Y-100611377D01*
X190466853Y-100610529D01*
X190468042Y-100610276D01*
X190471382Y-100608893D01*
X190471638Y-100609511D01*
X190526701Y-100597805D01*
X190582598Y-100622689D01*
X190586361Y-100626259D01*
X190727962Y-100767860D01*
X190906242Y-100897388D01*
X191102586Y-100997430D01*
X191312170Y-101065528D01*
X191529815Y-101100000D01*
X192489999Y-101100000D01*
X192490000Y-101099999D01*
X192490000Y-100100000D01*
X192990000Y-100100000D01*
X192990000Y-101099999D01*
X192990001Y-101100000D01*
X193950185Y-101100000D01*
X194167829Y-101065528D01*
X194377413Y-100997430D01*
X194573757Y-100897388D01*
X194752037Y-100767860D01*
X194907860Y-100612037D01*
X195037388Y-100433757D01*
X195137430Y-100237413D01*
X195205528Y-100027829D01*
X195217855Y-99950000D01*
X194155686Y-99950000D01*
X194160080Y-99945606D01*
X194212741Y-99854394D01*
X194240000Y-99752661D01*
X194240000Y-99647339D01*
X194212741Y-99545606D01*
X194160080Y-99454394D01*
X194155686Y-99450000D01*
X195217855Y-99450000D01*
X195217855Y-99449999D01*
X195205528Y-99372170D01*
X195137430Y-99162586D01*
X195037388Y-98966242D01*
X194907860Y-98787962D01*
X194752037Y-98632139D01*
X194573757Y-98502611D01*
X194377413Y-98402569D01*
X194167829Y-98334471D01*
X193950185Y-98300000D01*
X193918543Y-98300000D01*
X193860352Y-98281093D01*
X193824388Y-98231593D01*
X193824388Y-98170407D01*
X193848537Y-98130998D01*
X193896420Y-98083116D01*
X193975477Y-97946184D01*
X194011995Y-97809895D01*
X194045317Y-97758584D01*
X194102438Y-97736657D01*
X194161539Y-97752492D01*
X194177624Y-97765517D01*
X196239304Y-99827197D01*
X196267081Y-99881714D01*
X196268300Y-99897201D01*
X196268300Y-99969357D01*
X196309223Y-100122084D01*
X196388280Y-100259016D01*
X196500084Y-100370820D01*
X196637016Y-100449877D01*
X196789743Y-100490800D01*
X196789745Y-100490800D01*
X196947855Y-100490800D01*
X196947857Y-100490800D01*
X197100584Y-100449877D01*
X197237516Y-100370820D01*
X197349320Y-100259016D01*
X197428377Y-100122084D01*
X197469300Y-99969357D01*
X197469300Y-99811243D01*
X197452805Y-99749684D01*
X197448775Y-99734643D01*
X201055500Y-99734643D01*
X201055500Y-99892757D01*
X201096423Y-100045484D01*
X201175480Y-100182416D01*
X201287284Y-100294220D01*
X201424216Y-100373277D01*
X201576943Y-100414200D01*
X201576945Y-100414200D01*
X201735055Y-100414200D01*
X201735057Y-100414200D01*
X201887784Y-100373277D01*
X202024716Y-100294220D01*
X202136520Y-100182416D01*
X202215577Y-100045484D01*
X202256500Y-99892757D01*
X202256500Y-99820600D01*
X202275407Y-99762409D01*
X202285490Y-99750602D01*
X202639636Y-99396456D01*
X204029500Y-99396456D01*
X204029500Y-99593543D01*
X204034812Y-99620247D01*
X204066508Y-99779593D01*
X204067949Y-99786834D01*
X204067949Y-99786836D01*
X204143367Y-99968913D01*
X204163083Y-99998420D01*
X204252861Y-100132782D01*
X204392218Y-100272139D01*
X204556086Y-100381632D01*
X204738165Y-100457051D01*
X204931459Y-100495500D01*
X204931460Y-100495500D01*
X205128540Y-100495500D01*
X205128541Y-100495500D01*
X205321835Y-100457051D01*
X205503914Y-100381632D01*
X205667782Y-100272139D01*
X205807139Y-100132782D01*
X205916632Y-99968914D01*
X205992051Y-99786835D01*
X206030500Y-99593541D01*
X206030500Y-99396459D01*
X205999625Y-99241243D01*
X209174000Y-99241243D01*
X209174000Y-99399357D01*
X209214923Y-99552084D01*
X209293980Y-99689016D01*
X209405784Y-99800820D01*
X209542716Y-99879877D01*
X209695443Y-99920800D01*
X209695445Y-99920800D01*
X209853555Y-99920800D01*
X209853557Y-99920800D01*
X210006284Y-99879877D01*
X210143216Y-99800820D01*
X210255020Y-99689016D01*
X210334077Y-99552084D01*
X210375000Y-99399357D01*
X210375000Y-99241243D01*
X210334077Y-99088516D01*
X210255020Y-98951584D01*
X210233241Y-98929805D01*
X210203996Y-98900559D01*
X210176219Y-98846042D01*
X210175000Y-98830556D01*
X210175000Y-95555130D01*
X211419500Y-95555130D01*
X211419500Y-97344860D01*
X211419501Y-97344863D01*
X211422414Y-97369990D01*
X211435181Y-97398904D01*
X211467794Y-97472765D01*
X211547235Y-97552206D01*
X211650009Y-97597585D01*
X211675135Y-97600500D01*
X213464864Y-97600499D01*
X213489991Y-97597585D01*
X213592765Y-97552206D01*
X213672206Y-97472765D01*
X213717585Y-97369991D01*
X213720500Y-97344865D01*
X213720499Y-96359450D01*
X213959500Y-96359450D01*
X213959500Y-96540549D01*
X213987828Y-96719406D01*
X214043788Y-96891637D01*
X214125352Y-97051716D01*
X214126004Y-97052994D01*
X214232447Y-97199501D01*
X214360499Y-97327553D01*
X214507006Y-97433996D01*
X214668361Y-97516211D01*
X214840591Y-97572171D01*
X214912136Y-97583502D01*
X215019451Y-97600500D01*
X215019454Y-97600500D01*
X215200549Y-97600500D01*
X215289977Y-97586335D01*
X215379409Y-97572171D01*
X215551639Y-97516211D01*
X215712994Y-97433996D01*
X215859501Y-97327553D01*
X215987553Y-97199501D01*
X216093996Y-97052994D01*
X216176211Y-96891639D01*
X216232171Y-96719409D01*
X216258743Y-96551639D01*
X216260500Y-96540549D01*
X216260500Y-96359450D01*
X216499500Y-96359450D01*
X216499500Y-96540549D01*
X216527828Y-96719406D01*
X216583788Y-96891637D01*
X216665352Y-97051716D01*
X216666004Y-97052994D01*
X216772447Y-97199501D01*
X216900499Y-97327553D01*
X217047006Y-97433996D01*
X217208361Y-97516211D01*
X217380591Y-97572171D01*
X217452136Y-97583502D01*
X217559451Y-97600500D01*
X217559454Y-97600500D01*
X217740549Y-97600500D01*
X217829977Y-97586335D01*
X217919409Y-97572171D01*
X218091639Y-97516211D01*
X218252994Y-97433996D01*
X218399501Y-97327553D01*
X218527553Y-97199501D01*
X218633996Y-97052994D01*
X218716211Y-96891639D01*
X218772171Y-96719409D01*
X218798743Y-96551639D01*
X218800500Y-96540549D01*
X218800500Y-96359450D01*
X218775332Y-96200549D01*
X218772171Y-96180591D01*
X218716211Y-96008361D01*
X218633996Y-95847006D01*
X218527553Y-95700499D01*
X218399501Y-95572447D01*
X218252994Y-95466004D01*
X218252993Y-95466003D01*
X218252991Y-95466002D01*
X218091637Y-95383788D01*
X217919406Y-95327828D01*
X217740549Y-95299500D01*
X217740546Y-95299500D01*
X217559454Y-95299500D01*
X217559451Y-95299500D01*
X217380593Y-95327828D01*
X217208362Y-95383788D01*
X217047008Y-95466002D01*
X216981267Y-95513766D01*
X216900499Y-95572447D01*
X216772447Y-95700499D01*
X216745149Y-95738072D01*
X216666002Y-95847008D01*
X216583788Y-96008362D01*
X216527828Y-96180593D01*
X216499500Y-96359450D01*
X216260500Y-96359450D01*
X216235332Y-96200549D01*
X216232171Y-96180591D01*
X216176211Y-96008361D01*
X216093996Y-95847006D01*
X215987553Y-95700499D01*
X215859501Y-95572447D01*
X215712994Y-95466004D01*
X215712993Y-95466003D01*
X215712991Y-95466002D01*
X215551637Y-95383788D01*
X215379406Y-95327828D01*
X215200549Y-95299500D01*
X215200546Y-95299500D01*
X215019454Y-95299500D01*
X215019451Y-95299500D01*
X214840593Y-95327828D01*
X214668362Y-95383788D01*
X214507008Y-95466002D01*
X214441267Y-95513766D01*
X214360499Y-95572447D01*
X214232447Y-95700499D01*
X214205149Y-95738072D01*
X214126002Y-95847008D01*
X214043788Y-96008362D01*
X213987828Y-96180593D01*
X213959500Y-96359450D01*
X213720499Y-96359450D01*
X213720499Y-95555136D01*
X213717585Y-95530009D01*
X213672206Y-95427235D01*
X213592765Y-95347794D01*
X213489991Y-95302415D01*
X213489990Y-95302414D01*
X213489988Y-95302414D01*
X213464868Y-95299500D01*
X211675139Y-95299500D01*
X211675136Y-95299501D01*
X211650009Y-95302414D01*
X211547235Y-95347794D01*
X211467794Y-95427235D01*
X211422414Y-95530011D01*
X211419500Y-95555130D01*
X210175000Y-95555130D01*
X210175000Y-95279700D01*
X210193907Y-95221509D01*
X210203990Y-95209702D01*
X216985396Y-88428295D01*
X217039911Y-88400520D01*
X217100343Y-88410091D01*
X217104858Y-88412542D01*
X217235516Y-88487977D01*
X217388243Y-88528900D01*
X217388245Y-88528900D01*
X217546355Y-88528900D01*
X217546357Y-88528900D01*
X217699084Y-88487977D01*
X217836016Y-88408920D01*
X217947820Y-88297116D01*
X218026877Y-88160184D01*
X218067800Y-88007457D01*
X218067800Y-87849343D01*
X218026877Y-87696616D01*
X217947820Y-87559684D01*
X217836016Y-87447880D01*
X217699084Y-87368823D01*
X217546357Y-87327900D01*
X217418400Y-87327900D01*
X217360209Y-87308993D01*
X217324245Y-87259493D01*
X217319400Y-87228900D01*
X217319400Y-86427543D01*
X217338307Y-86369352D01*
X217348390Y-86357545D01*
X217399420Y-86306516D01*
X217478477Y-86169584D01*
X217519400Y-86016857D01*
X217519400Y-85858743D01*
X217478477Y-85706016D01*
X217399420Y-85569084D01*
X217287616Y-85457280D01*
X217287613Y-85457278D01*
X217287612Y-85457277D01*
X217287608Y-85457274D01*
X217285793Y-85456226D01*
X217284789Y-85455110D01*
X217282467Y-85453329D01*
X217282797Y-85452898D01*
X217244856Y-85410753D01*
X217236300Y-85370494D01*
X217236300Y-77437343D01*
X217255207Y-77379152D01*
X217265290Y-77367345D01*
X217316320Y-77316316D01*
X217395377Y-77179384D01*
X217436300Y-77026657D01*
X217436300Y-76868543D01*
X217395377Y-76715816D01*
X217316320Y-76578884D01*
X217204516Y-76467080D01*
X217067584Y-76388023D01*
X216914857Y-76347100D01*
X216756743Y-76347100D01*
X216604016Y-76388023D01*
X216467084Y-76467080D01*
X216355280Y-76578884D01*
X216276223Y-76715816D01*
X216235300Y-76868543D01*
X216235300Y-77026657D01*
X216276223Y-77179384D01*
X216355280Y-77316316D01*
X216406305Y-77367341D01*
X216434081Y-77421856D01*
X216435300Y-77437343D01*
X216435300Y-85547891D01*
X216422037Y-85597390D01*
X216359323Y-85706014D01*
X216333019Y-85804184D01*
X216318400Y-85858743D01*
X216318400Y-86016857D01*
X216359323Y-86169584D01*
X216438380Y-86306516D01*
X216489405Y-86357541D01*
X216517181Y-86412056D01*
X216518400Y-86427543D01*
X216518400Y-87721499D01*
X216499493Y-87779690D01*
X216489404Y-87791503D01*
X209454016Y-94826891D01*
X209401293Y-94918211D01*
X209401292Y-94918211D01*
X209401293Y-94918212D01*
X209374000Y-95020073D01*
X209374000Y-98830556D01*
X209355093Y-98888747D01*
X209345004Y-98900559D01*
X209293982Y-98951581D01*
X209293980Y-98951583D01*
X209293980Y-98951584D01*
X209214923Y-99088516D01*
X209174000Y-99241243D01*
X205999625Y-99241243D01*
X205992051Y-99203165D01*
X205916632Y-99021086D01*
X205807139Y-98857218D01*
X205667782Y-98717861D01*
X205535090Y-98629199D01*
X205503913Y-98608367D01*
X205321835Y-98532949D01*
X205128543Y-98494500D01*
X205128541Y-98494500D01*
X204931459Y-98494500D01*
X204931456Y-98494500D01*
X204738165Y-98532949D01*
X204738163Y-98532949D01*
X204556086Y-98608367D01*
X204392218Y-98717861D01*
X204392214Y-98717864D01*
X204252864Y-98857214D01*
X204252861Y-98857218D01*
X204143367Y-99021086D01*
X204067949Y-99203163D01*
X204067949Y-99203165D01*
X204029500Y-99396456D01*
X202639636Y-99396456D01*
X203996096Y-98039995D01*
X204050613Y-98012219D01*
X204066100Y-98011000D01*
X204221855Y-98011000D01*
X204221857Y-98011000D01*
X204374584Y-97970077D01*
X204511516Y-97891020D01*
X204623320Y-97779216D01*
X204702377Y-97642284D01*
X204743300Y-97489557D01*
X204743300Y-97331443D01*
X204702377Y-97178716D01*
X204623320Y-97041784D01*
X204511516Y-96929980D01*
X204374584Y-96850923D01*
X204221857Y-96810000D01*
X204063743Y-96810000D01*
X203926560Y-96846758D01*
X203911016Y-96850923D01*
X203774084Y-96929980D01*
X203662280Y-97041784D01*
X203583223Y-97178716D01*
X203542298Y-97331449D01*
X203542203Y-97332176D01*
X203541977Y-97332648D01*
X203540621Y-97337711D01*
X203539682Y-97337459D01*
X203515858Y-97387399D01*
X203514055Y-97389251D01*
X201719103Y-99184204D01*
X201664586Y-99211981D01*
X201649099Y-99213200D01*
X201576943Y-99213200D01*
X201424216Y-99254123D01*
X201287284Y-99333180D01*
X201175480Y-99444984D01*
X201096423Y-99581916D01*
X201055500Y-99734643D01*
X197448775Y-99734643D01*
X197436549Y-99689015D01*
X197428377Y-99658516D01*
X197349320Y-99521584D01*
X197237516Y-99409780D01*
X197100584Y-99330723D01*
X196947857Y-99289800D01*
X196947855Y-99289800D01*
X196875701Y-99289800D01*
X196817510Y-99270893D01*
X196805697Y-99260804D01*
X193250408Y-95705515D01*
X196339500Y-95705515D01*
X196339500Y-98094484D01*
X196369058Y-98281113D01*
X196427453Y-98460832D01*
X196512211Y-98627181D01*
X196513240Y-98629199D01*
X196624310Y-98782073D01*
X196757927Y-98915690D01*
X196910801Y-99026760D01*
X197079168Y-99112547D01*
X197258882Y-99170940D01*
X197258883Y-99170940D01*
X197258886Y-99170941D01*
X197445516Y-99200500D01*
X197445519Y-99200500D01*
X197634484Y-99200500D01*
X197821113Y-99170941D01*
X197821114Y-99170940D01*
X197821118Y-99170940D01*
X198000832Y-99112547D01*
X198169199Y-99026760D01*
X198322073Y-98915690D01*
X198455690Y-98782073D01*
X198566760Y-98629199D01*
X198652547Y-98460832D01*
X198710940Y-98281118D01*
X198712156Y-98273443D01*
X198740500Y-98094484D01*
X198740500Y-95705515D01*
X198710941Y-95518886D01*
X198709278Y-95513768D01*
X198652547Y-95339168D01*
X198566760Y-95170801D01*
X198455690Y-95017927D01*
X198322073Y-94884310D01*
X198169199Y-94773240D01*
X198169198Y-94773239D01*
X198169196Y-94773238D01*
X198000832Y-94687453D01*
X197821113Y-94629058D01*
X197634484Y-94599500D01*
X197634481Y-94599500D01*
X197445519Y-94599500D01*
X197445516Y-94599500D01*
X197258886Y-94629058D01*
X197079167Y-94687453D01*
X196910803Y-94773238D01*
X196757928Y-94884309D01*
X196624309Y-95017928D01*
X196513238Y-95170803D01*
X196427453Y-95339167D01*
X196369058Y-95518886D01*
X196339500Y-95705515D01*
X193250408Y-95705515D01*
X193169496Y-95624603D01*
X193141719Y-95570086D01*
X193140500Y-95554599D01*
X193140500Y-95199499D01*
X193159407Y-95141308D01*
X193208907Y-95105344D01*
X193239500Y-95100499D01*
X194984861Y-95100499D01*
X194984864Y-95100499D01*
X195009991Y-95097585D01*
X195112765Y-95052206D01*
X195192206Y-94972765D01*
X195237585Y-94869991D01*
X195240500Y-94844865D01*
X195240499Y-92955136D01*
X195237585Y-92930009D01*
X195192206Y-92827235D01*
X195112765Y-92747794D01*
X195009991Y-92702415D01*
X195009990Y-92702414D01*
X195009988Y-92702414D01*
X194984868Y-92699500D01*
X190495139Y-92699500D01*
X190495136Y-92699501D01*
X190470009Y-92702414D01*
X190367235Y-92747794D01*
X190287794Y-92827235D01*
X190242414Y-92930011D01*
X190239500Y-92955130D01*
X190239500Y-94844860D01*
X190239501Y-94844863D01*
X190242414Y-94869990D01*
X190263707Y-94918213D01*
X190287794Y-94972765D01*
X190367235Y-95052206D01*
X190470009Y-95097585D01*
X190495135Y-95100500D01*
X192240500Y-95100499D01*
X192298691Y-95119406D01*
X192334655Y-95168906D01*
X192339500Y-95199499D01*
X192339500Y-95708773D01*
X192339500Y-95814227D01*
X192356645Y-95878214D01*
X192366794Y-95916092D01*
X192419516Y-96007408D01*
X192419517Y-96007409D01*
X192419518Y-96007410D01*
X192419520Y-96007413D01*
X192941526Y-96529419D01*
X193364782Y-96952675D01*
X193392559Y-97007192D01*
X193382988Y-97067624D01*
X193339723Y-97110889D01*
X193320404Y-97118304D01*
X193184116Y-97154823D01*
X193047184Y-97233880D01*
X192935380Y-97345684D01*
X192856323Y-97482616D01*
X192815400Y-97635343D01*
X192815400Y-97793457D01*
X192856323Y-97946184D01*
X192935380Y-98083116D01*
X193001130Y-98148866D01*
X193028906Y-98203381D01*
X193019335Y-98263813D01*
X193001129Y-98288872D01*
X192990000Y-98300001D01*
X192990000Y-99300000D01*
X192490000Y-99300000D01*
X192490000Y-98300001D01*
X192489999Y-98300000D01*
X191529815Y-98300000D01*
X191312168Y-98334472D01*
X191310282Y-98334925D01*
X191309631Y-98334873D01*
X191308324Y-98335081D01*
X191308274Y-98334766D01*
X191249286Y-98330124D01*
X191202760Y-98290387D01*
X191191546Y-98264286D01*
X191153077Y-98120716D01*
X191074020Y-97983784D01*
X190962216Y-97871980D01*
X190825284Y-97792923D01*
X190672557Y-97752000D01*
X190672555Y-97752000D01*
X190600400Y-97752000D01*
X190542209Y-97733093D01*
X190530396Y-97723004D01*
X189549996Y-96742603D01*
X189522219Y-96688086D01*
X189521000Y-96672599D01*
X189521000Y-91487824D01*
X198659999Y-91487824D01*
X198666401Y-91547370D01*
X198666403Y-91547381D01*
X198716646Y-91682088D01*
X198716647Y-91682090D01*
X198802807Y-91797184D01*
X198802815Y-91797192D01*
X198917909Y-91883352D01*
X198917911Y-91883353D01*
X199052618Y-91933596D01*
X199052629Y-91933598D01*
X199112176Y-91940000D01*
X199759999Y-91940000D01*
X199760000Y-91939999D01*
X199760000Y-91023012D01*
X199817007Y-91055925D01*
X199944174Y-91090000D01*
X200075826Y-91090000D01*
X200202993Y-91055925D01*
X200260000Y-91023012D01*
X200260000Y-91939999D01*
X200260001Y-91940000D01*
X200817200Y-91940000D01*
X200875391Y-91958907D01*
X200911355Y-92008407D01*
X200916200Y-92039000D01*
X200916200Y-94232073D01*
X200916200Y-94337527D01*
X200926341Y-94375375D01*
X200943494Y-94439392D01*
X200996216Y-94530708D01*
X200996218Y-94530710D01*
X200996220Y-94530713D01*
X202451305Y-95985798D01*
X202479081Y-96040313D01*
X202480300Y-96055800D01*
X202480300Y-96127957D01*
X202521223Y-96280684D01*
X202600280Y-96417616D01*
X202712084Y-96529420D01*
X202849016Y-96608477D01*
X203001743Y-96649400D01*
X203001745Y-96649400D01*
X203159855Y-96649400D01*
X203159857Y-96649400D01*
X203312584Y-96608477D01*
X203449516Y-96529420D01*
X203561320Y-96417616D01*
X203640377Y-96280684D01*
X203681300Y-96127957D01*
X203681300Y-95969843D01*
X203640377Y-95817116D01*
X203561320Y-95680184D01*
X203449516Y-95568380D01*
X203312584Y-95489323D01*
X203159857Y-95448400D01*
X203159855Y-95448400D01*
X203087701Y-95448400D01*
X203029510Y-95429493D01*
X203017697Y-95419404D01*
X201746196Y-94147903D01*
X201718419Y-94093386D01*
X201717200Y-94077899D01*
X201717200Y-91601330D01*
X201736107Y-91543139D01*
X201785607Y-91507175D01*
X201846793Y-91507175D01*
X201874389Y-91521237D01*
X201904535Y-91543139D01*
X201946182Y-91573398D01*
X201947006Y-91573996D01*
X202108361Y-91656211D01*
X202280591Y-91712171D01*
X202349872Y-91723144D01*
X202459451Y-91740500D01*
X202459454Y-91740500D01*
X202640549Y-91740500D01*
X202810557Y-91713573D01*
X202870989Y-91723144D01*
X202914254Y-91766409D01*
X202923825Y-91826841D01*
X202896048Y-91881357D01*
X202720403Y-92057003D01*
X202665886Y-92084781D01*
X202650399Y-92086000D01*
X202578243Y-92086000D01*
X202425516Y-92126923D01*
X202288584Y-92205980D01*
X202176780Y-92317784D01*
X202097723Y-92454716D01*
X202056800Y-92607443D01*
X202056800Y-92765557D01*
X202097723Y-92918284D01*
X202176780Y-93055216D01*
X202288584Y-93167020D01*
X202425516Y-93246077D01*
X202578243Y-93287000D01*
X202578245Y-93287000D01*
X202736355Y-93287000D01*
X202736357Y-93287000D01*
X202889084Y-93246077D01*
X203026016Y-93167020D01*
X203137820Y-93055216D01*
X203216877Y-92918284D01*
X203257800Y-92765557D01*
X203257800Y-92693400D01*
X203276707Y-92635209D01*
X203286790Y-92623402D01*
X204140480Y-91769713D01*
X204142388Y-91766409D01*
X204193205Y-91678392D01*
X204193205Y-91678390D01*
X204193207Y-91678388D01*
X204220500Y-91576527D01*
X204220500Y-91574666D01*
X204220911Y-91573398D01*
X204221347Y-91570093D01*
X204221959Y-91570173D01*
X204239407Y-91516475D01*
X204288907Y-91480511D01*
X204350093Y-91480511D01*
X204377689Y-91494572D01*
X204416743Y-91522947D01*
X204486182Y-91573398D01*
X204487006Y-91573996D01*
X204648361Y-91656211D01*
X204820591Y-91712171D01*
X204889872Y-91723144D01*
X204999451Y-91740500D01*
X204999454Y-91740500D01*
X205180549Y-91740500D01*
X205269977Y-91726335D01*
X205359409Y-91712171D01*
X205531639Y-91656211D01*
X205692994Y-91573996D01*
X205839501Y-91467553D01*
X205967553Y-91339501D01*
X206073996Y-91192994D01*
X206156211Y-91031639D01*
X206160962Y-91017018D01*
X206196924Y-90967517D01*
X206255115Y-90948608D01*
X206313306Y-90967514D01*
X206349271Y-91017013D01*
X206349272Y-91017015D01*
X206378904Y-91108215D01*
X206475375Y-91297552D01*
X206600277Y-91469464D01*
X206750535Y-91619722D01*
X206922447Y-91744624D01*
X207111784Y-91841095D01*
X207313877Y-91906758D01*
X207379999Y-91917231D01*
X207380000Y-91917230D01*
X207380000Y-91023012D01*
X207437007Y-91055925D01*
X207564174Y-91090000D01*
X207695826Y-91090000D01*
X207822993Y-91055925D01*
X207880000Y-91023012D01*
X207880000Y-91917231D01*
X207946122Y-91906758D01*
X208148215Y-91841095D01*
X208337552Y-91744624D01*
X208509464Y-91619722D01*
X208659722Y-91469464D01*
X208784624Y-91297552D01*
X208881095Y-91108215D01*
X208946758Y-90906122D01*
X208957231Y-90840000D01*
X208063012Y-90840000D01*
X208095925Y-90782993D01*
X208130000Y-90655826D01*
X208130000Y-90524174D01*
X208095925Y-90397007D01*
X208063012Y-90340000D01*
X208957231Y-90340000D01*
X208957231Y-90339999D01*
X208946758Y-90273877D01*
X208881095Y-90071784D01*
X208784624Y-89882447D01*
X208659722Y-89710535D01*
X208509464Y-89560277D01*
X208337552Y-89435375D01*
X208148215Y-89338904D01*
X207946120Y-89273240D01*
X207880000Y-89262767D01*
X207880000Y-90156988D01*
X207822993Y-90124075D01*
X207695826Y-90090000D01*
X207564174Y-90090000D01*
X207437007Y-90124075D01*
X207380000Y-90156988D01*
X207380000Y-89262768D01*
X207379999Y-89262767D01*
X207313880Y-89273240D01*
X207313878Y-89273240D01*
X207111784Y-89338904D01*
X206922447Y-89435375D01*
X206750535Y-89560277D01*
X206600277Y-89710535D01*
X206475375Y-89882447D01*
X206378904Y-90071784D01*
X206349272Y-90162984D01*
X206313308Y-90212484D01*
X206255117Y-90231391D01*
X206196926Y-90212484D01*
X206160962Y-90162984D01*
X206160962Y-90162983D01*
X206156211Y-90148362D01*
X206156211Y-90148361D01*
X206073996Y-89987006D01*
X205967553Y-89840499D01*
X205839501Y-89712447D01*
X205692994Y-89606004D01*
X205692993Y-89606003D01*
X205692991Y-89606002D01*
X205531637Y-89523788D01*
X205359406Y-89467828D01*
X205180549Y-89439500D01*
X205180546Y-89439500D01*
X204999454Y-89439500D01*
X204999451Y-89439500D01*
X204820593Y-89467828D01*
X204648362Y-89523788D01*
X204487008Y-89606002D01*
X204445823Y-89635925D01*
X204377689Y-89685426D01*
X204319500Y-89704333D01*
X204261309Y-89685426D01*
X204225345Y-89635925D01*
X204220500Y-89605333D01*
X204220500Y-88335600D01*
X204239407Y-88277409D01*
X204249490Y-88265602D01*
X209145480Y-83369613D01*
X209154206Y-83354500D01*
X209198205Y-83278292D01*
X209198205Y-83278290D01*
X209198207Y-83278288D01*
X209225500Y-83176427D01*
X209225500Y-83070973D01*
X209225500Y-82888643D01*
X210359600Y-82888643D01*
X210359600Y-83046757D01*
X210400523Y-83199484D01*
X210479580Y-83336416D01*
X210591384Y-83448220D01*
X210728316Y-83527277D01*
X210881043Y-83568200D01*
X210881045Y-83568200D01*
X211039155Y-83568200D01*
X211039157Y-83568200D01*
X211191884Y-83527277D01*
X211328816Y-83448220D01*
X211440620Y-83336416D01*
X211519677Y-83199484D01*
X211560600Y-83046757D01*
X211560600Y-82888643D01*
X211519677Y-82735916D01*
X211440620Y-82598984D01*
X211328816Y-82487180D01*
X211191884Y-82408123D01*
X211039157Y-82367200D01*
X210881043Y-82367200D01*
X210728316Y-82408123D01*
X210591384Y-82487180D01*
X210479580Y-82598984D01*
X210400523Y-82735916D01*
X210359600Y-82888643D01*
X209225500Y-82888643D01*
X209225500Y-75924243D01*
X233071300Y-75924243D01*
X233071300Y-76082357D01*
X233112223Y-76235084D01*
X233191280Y-76372016D01*
X233303084Y-76483820D01*
X233440016Y-76562877D01*
X233592743Y-76603800D01*
X233592745Y-76603800D01*
X233750855Y-76603800D01*
X233750857Y-76603800D01*
X233903584Y-76562877D01*
X234040516Y-76483820D01*
X234152320Y-76372016D01*
X234231377Y-76235084D01*
X234272300Y-76082357D01*
X234272300Y-75924243D01*
X234231377Y-75771516D01*
X234152320Y-75634584D01*
X234040516Y-75522780D01*
X233903584Y-75443723D01*
X233750857Y-75402800D01*
X233592743Y-75402800D01*
X233440016Y-75443723D01*
X233303084Y-75522780D01*
X233191280Y-75634584D01*
X233112223Y-75771516D01*
X233071300Y-75924243D01*
X209225500Y-75924243D01*
X209225500Y-74841443D01*
X219684500Y-74841443D01*
X219684500Y-74999557D01*
X219725423Y-75152284D01*
X219804480Y-75289216D01*
X219916284Y-75401020D01*
X220053216Y-75480077D01*
X220205943Y-75521000D01*
X220205945Y-75521000D01*
X220364055Y-75521000D01*
X220364057Y-75521000D01*
X220516784Y-75480077D01*
X220653716Y-75401020D01*
X220765520Y-75289216D01*
X220844577Y-75152284D01*
X220885500Y-74999557D01*
X220885500Y-74851243D01*
X227937000Y-74851243D01*
X227937000Y-75009357D01*
X227977923Y-75162084D01*
X228056980Y-75299016D01*
X228168784Y-75410820D01*
X228305716Y-75489877D01*
X228458443Y-75530800D01*
X228458445Y-75530800D01*
X228616555Y-75530800D01*
X228616557Y-75530800D01*
X228769284Y-75489877D01*
X228906216Y-75410820D01*
X229018020Y-75299016D01*
X229097077Y-75162084D01*
X229138000Y-75009357D01*
X229138000Y-74862243D01*
X234742500Y-74862243D01*
X234742500Y-75020357D01*
X234783423Y-75173084D01*
X234862480Y-75310016D01*
X234974284Y-75421820D01*
X235111216Y-75500877D01*
X235263943Y-75541800D01*
X235263945Y-75541800D01*
X235422055Y-75541800D01*
X235422057Y-75541800D01*
X235574784Y-75500877D01*
X235711716Y-75421820D01*
X235823520Y-75310016D01*
X235902577Y-75173084D01*
X235943500Y-75020357D01*
X235943500Y-74925843D01*
X237181200Y-74925843D01*
X237181200Y-75083957D01*
X237222123Y-75236684D01*
X237301180Y-75373616D01*
X237352205Y-75424641D01*
X237379981Y-75479156D01*
X237381200Y-75494643D01*
X237381200Y-80545673D01*
X237381200Y-80651127D01*
X237404023Y-80736307D01*
X237408494Y-80752992D01*
X237461216Y-80844308D01*
X237461218Y-80844310D01*
X237461220Y-80844313D01*
X240121115Y-83504207D01*
X242726704Y-86109796D01*
X242754481Y-86164313D01*
X242755700Y-86179800D01*
X242755700Y-86251957D01*
X242796623Y-86404684D01*
X242875680Y-86541616D01*
X242987484Y-86653420D01*
X243124416Y-86732477D01*
X243277143Y-86773400D01*
X243277145Y-86773400D01*
X243435255Y-86773400D01*
X243435257Y-86773400D01*
X243587984Y-86732477D01*
X243724916Y-86653420D01*
X243836720Y-86541616D01*
X243915777Y-86404684D01*
X243956700Y-86251957D01*
X243956700Y-86093843D01*
X243915777Y-85941116D01*
X243836720Y-85804184D01*
X243724916Y-85692380D01*
X243587984Y-85613323D01*
X243435257Y-85572400D01*
X243435255Y-85572400D01*
X243363100Y-85572400D01*
X243304909Y-85553493D01*
X243293096Y-85543404D01*
X238211196Y-80461503D01*
X238183419Y-80406986D01*
X238182200Y-80391499D01*
X238182200Y-75494643D01*
X238201107Y-75436452D01*
X238211190Y-75424645D01*
X238262220Y-75373616D01*
X238341277Y-75236684D01*
X238382200Y-75083957D01*
X238382200Y-74925843D01*
X238341277Y-74773116D01*
X238262220Y-74636184D01*
X238150416Y-74524380D01*
X238013484Y-74445323D01*
X237860757Y-74404400D01*
X237702643Y-74404400D01*
X237549916Y-74445323D01*
X237412984Y-74524380D01*
X237301180Y-74636184D01*
X237222123Y-74773116D01*
X237181200Y-74925843D01*
X235943500Y-74925843D01*
X235943500Y-74862243D01*
X235902577Y-74709516D01*
X235823520Y-74572584D01*
X235711716Y-74460780D01*
X235574784Y-74381723D01*
X235422057Y-74340800D01*
X235263943Y-74340800D01*
X235111216Y-74381723D01*
X234974284Y-74460780D01*
X234862480Y-74572584D01*
X234783423Y-74709516D01*
X234742500Y-74862243D01*
X229138000Y-74862243D01*
X229138000Y-74851243D01*
X229097077Y-74698516D01*
X229018020Y-74561584D01*
X228906216Y-74449780D01*
X228769284Y-74370723D01*
X228616557Y-74329800D01*
X228458443Y-74329800D01*
X228305716Y-74370723D01*
X228168784Y-74449780D01*
X228056980Y-74561584D01*
X227977923Y-74698516D01*
X227937000Y-74851243D01*
X220885500Y-74851243D01*
X220885500Y-74841443D01*
X220844577Y-74688716D01*
X220765520Y-74551784D01*
X220653716Y-74439980D01*
X220516784Y-74360923D01*
X220364057Y-74320000D01*
X220205943Y-74320000D01*
X220053216Y-74360923D01*
X219916284Y-74439980D01*
X219804480Y-74551784D01*
X219725423Y-74688716D01*
X219684500Y-74841443D01*
X209225500Y-74841443D01*
X209225500Y-73688943D01*
X211881100Y-73688943D01*
X211881100Y-73847057D01*
X211922023Y-73999784D01*
X212001080Y-74136716D01*
X212112884Y-74248520D01*
X212249816Y-74327577D01*
X212402543Y-74368500D01*
X212402545Y-74368500D01*
X212560655Y-74368500D01*
X212560657Y-74368500D01*
X212713384Y-74327577D01*
X212850316Y-74248520D01*
X212962120Y-74136716D01*
X213041177Y-73999784D01*
X213082100Y-73847057D01*
X213082100Y-73831643D01*
X223786400Y-73831643D01*
X223786400Y-73989757D01*
X223827323Y-74142484D01*
X223906380Y-74279416D01*
X224018184Y-74391220D01*
X224155116Y-74470277D01*
X224307843Y-74511200D01*
X224307845Y-74511200D01*
X224465955Y-74511200D01*
X224465957Y-74511200D01*
X224618684Y-74470277D01*
X224755616Y-74391220D01*
X224867420Y-74279416D01*
X224946477Y-74142484D01*
X224987400Y-73989757D01*
X224987400Y-73831643D01*
X224946477Y-73678916D01*
X224867420Y-73541984D01*
X224755616Y-73430180D01*
X224618684Y-73351123D01*
X224465957Y-73310200D01*
X224307843Y-73310200D01*
X224155116Y-73351123D01*
X224018184Y-73430180D01*
X223906380Y-73541984D01*
X223827323Y-73678916D01*
X223786400Y-73831643D01*
X213082100Y-73831643D01*
X213082100Y-73688943D01*
X213041177Y-73536216D01*
X212962120Y-73399284D01*
X212850316Y-73287480D01*
X212713384Y-73208423D01*
X212560657Y-73167500D01*
X212402543Y-73167500D01*
X212249816Y-73208423D01*
X212112884Y-73287480D01*
X212001080Y-73399284D01*
X211922023Y-73536216D01*
X211881100Y-73688943D01*
X209225500Y-73688943D01*
X209225500Y-71810343D01*
X228236000Y-71810343D01*
X228236000Y-71968457D01*
X228276923Y-72121184D01*
X228355980Y-72258116D01*
X228467784Y-72369920D01*
X228604716Y-72448977D01*
X228757443Y-72489900D01*
X228757445Y-72489900D01*
X228915555Y-72489900D01*
X228915557Y-72489900D01*
X229068284Y-72448977D01*
X229205216Y-72369920D01*
X229317020Y-72258116D01*
X229396077Y-72121184D01*
X229437000Y-71968457D01*
X229437000Y-71810343D01*
X235173900Y-71810343D01*
X235173900Y-71968457D01*
X235214823Y-72121184D01*
X235293880Y-72258116D01*
X235405684Y-72369920D01*
X235542616Y-72448977D01*
X235695343Y-72489900D01*
X235695345Y-72489900D01*
X235853455Y-72489900D01*
X235853457Y-72489900D01*
X236006184Y-72448977D01*
X236143116Y-72369920D01*
X236254920Y-72258116D01*
X236333977Y-72121184D01*
X236374900Y-71968457D01*
X236374900Y-71810343D01*
X236333977Y-71657616D01*
X236254920Y-71520684D01*
X236143116Y-71408880D01*
X236006184Y-71329823D01*
X235853457Y-71288900D01*
X235695343Y-71288900D01*
X235542616Y-71329823D01*
X235405684Y-71408880D01*
X235293880Y-71520684D01*
X235214823Y-71657616D01*
X235173900Y-71810343D01*
X229437000Y-71810343D01*
X229396077Y-71657616D01*
X229317020Y-71520684D01*
X229205216Y-71408880D01*
X229068284Y-71329823D01*
X228915557Y-71288900D01*
X228757443Y-71288900D01*
X228604716Y-71329823D01*
X228467784Y-71408880D01*
X228355980Y-71520684D01*
X228276923Y-71657616D01*
X228236000Y-71810343D01*
X209225500Y-71810343D01*
X209225500Y-71014643D01*
X213452400Y-71014643D01*
X213452400Y-71172757D01*
X213493323Y-71325484D01*
X213572380Y-71462416D01*
X213684184Y-71574220D01*
X213821116Y-71653277D01*
X213973843Y-71694200D01*
X213973845Y-71694200D01*
X214131955Y-71694200D01*
X214131957Y-71694200D01*
X214284684Y-71653277D01*
X214421616Y-71574220D01*
X214533420Y-71462416D01*
X214612477Y-71325484D01*
X214653400Y-71172757D01*
X214653400Y-71014643D01*
X237643300Y-71014643D01*
X237643300Y-71172757D01*
X237684223Y-71325484D01*
X237763280Y-71462416D01*
X237875084Y-71574220D01*
X238012016Y-71653277D01*
X238164743Y-71694200D01*
X238164745Y-71694200D01*
X238322855Y-71694200D01*
X238322857Y-71694200D01*
X238475584Y-71653277D01*
X238612516Y-71574220D01*
X238724320Y-71462416D01*
X238803377Y-71325484D01*
X238844300Y-71172757D01*
X238844300Y-71014643D01*
X238803377Y-70861916D01*
X238724320Y-70724984D01*
X238612516Y-70613180D01*
X238475584Y-70534123D01*
X238322857Y-70493200D01*
X238164743Y-70493200D01*
X238012016Y-70534123D01*
X237875084Y-70613180D01*
X237763280Y-70724984D01*
X237684223Y-70861916D01*
X237643300Y-71014643D01*
X214653400Y-71014643D01*
X214612477Y-70861916D01*
X214533420Y-70724984D01*
X214421616Y-70613180D01*
X214284684Y-70534123D01*
X214131957Y-70493200D01*
X213973843Y-70493200D01*
X213821116Y-70534123D01*
X213684184Y-70613180D01*
X213572380Y-70724984D01*
X213493323Y-70861916D01*
X213452400Y-71014643D01*
X209225500Y-71014643D01*
X209225500Y-70256343D01*
X225750200Y-70256343D01*
X225750200Y-70414457D01*
X225791123Y-70567184D01*
X225870180Y-70704116D01*
X225981984Y-70815920D01*
X226118916Y-70894977D01*
X226271643Y-70935900D01*
X226271645Y-70935900D01*
X226429755Y-70935900D01*
X226429757Y-70935900D01*
X226582484Y-70894977D01*
X226719416Y-70815920D01*
X226831220Y-70704116D01*
X226910277Y-70567184D01*
X226951200Y-70414457D01*
X226951200Y-70256343D01*
X226910277Y-70103616D01*
X226831220Y-69966684D01*
X226719416Y-69854880D01*
X226582484Y-69775823D01*
X226429757Y-69734900D01*
X226271643Y-69734900D01*
X226118916Y-69775823D01*
X225981984Y-69854880D01*
X225870180Y-69966684D01*
X225791123Y-70103616D01*
X225750200Y-70256343D01*
X209225500Y-70256343D01*
X209225500Y-57512839D01*
X209244407Y-57454648D01*
X209279552Y-57424631D01*
X209427994Y-57348996D01*
X209574501Y-57242553D01*
X209702553Y-57114501D01*
X209808996Y-56967994D01*
X209891211Y-56806639D01*
X209947171Y-56634409D01*
X209975500Y-56455546D01*
X209975500Y-56274454D01*
X209975500Y-56274450D01*
X209947171Y-56095593D01*
X209947171Y-56095591D01*
X209891211Y-55923361D01*
X209808996Y-55762006D01*
X209702553Y-55615499D01*
X209574501Y-55487447D01*
X209427994Y-55381004D01*
X209427993Y-55381003D01*
X209427991Y-55381002D01*
X209266635Y-55298787D01*
X209266632Y-55298785D01*
X209219548Y-55283487D01*
X209202457Y-55271069D01*
X209183234Y-55262302D01*
X209178245Y-55253479D01*
X209170048Y-55247523D01*
X209163520Y-55227432D01*
X209153122Y-55209040D01*
X209154599Y-55199976D01*
X209151141Y-55189332D01*
X209160068Y-55148250D01*
X209162031Y-55143944D01*
X209198207Y-55081287D01*
X209209024Y-55040915D01*
X209212445Y-55033416D01*
X209227822Y-55016644D01*
X209240215Y-54997562D01*
X209248091Y-54994538D01*
X209253795Y-54988318D01*
X209276097Y-54983787D01*
X209297337Y-54975635D01*
X209302518Y-54975499D01*
X209719861Y-54975499D01*
X209719864Y-54975499D01*
X209744991Y-54972585D01*
X209847765Y-54927206D01*
X209927206Y-54847765D01*
X209972585Y-54744991D01*
X209975500Y-54719865D01*
X209975499Y-52930136D01*
X209972585Y-52905009D01*
X209927206Y-52802235D01*
X209847765Y-52722794D01*
X209744991Y-52677415D01*
X209744990Y-52677414D01*
X209744988Y-52677414D01*
X209719868Y-52674500D01*
X207930139Y-52674500D01*
X207930136Y-52674501D01*
X207905009Y-52677414D01*
X207802235Y-52722794D01*
X207722794Y-52802235D01*
X207677414Y-52905011D01*
X207674500Y-52930130D01*
X207674500Y-54719860D01*
X207674501Y-54719863D01*
X207677414Y-54744990D01*
X207681594Y-54754456D01*
X207722794Y-54847765D01*
X207802235Y-54927206D01*
X207890669Y-54966253D01*
X207936263Y-55007053D01*
X207949169Y-55066862D01*
X207924455Y-55122834D01*
X207920684Y-55126820D01*
X207402820Y-55644686D01*
X207382044Y-55680671D01*
X207336573Y-55721611D01*
X207275723Y-55728005D01*
X207222735Y-55697412D01*
X207216223Y-55689370D01*
X207162553Y-55615499D01*
X207034501Y-55487447D01*
X206887994Y-55381004D01*
X206887993Y-55381003D01*
X206887991Y-55381002D01*
X206726635Y-55298787D01*
X206726632Y-55298785D01*
X206679548Y-55283487D01*
X206630048Y-55247523D01*
X206611141Y-55189332D01*
X206624404Y-55139835D01*
X206658207Y-55081287D01*
X206685500Y-54979427D01*
X206685500Y-54972839D01*
X206704407Y-54914648D01*
X206739552Y-54884631D01*
X206887994Y-54808996D01*
X207034501Y-54702553D01*
X207162553Y-54574501D01*
X207268996Y-54427994D01*
X207351211Y-54266639D01*
X207407171Y-54094409D01*
X207435500Y-53915546D01*
X207435500Y-53734454D01*
X207435500Y-53734450D01*
X207407171Y-53555593D01*
X207407171Y-53555591D01*
X207351211Y-53383361D01*
X207268996Y-53222006D01*
X207162553Y-53075499D01*
X207034501Y-52947447D01*
X206887994Y-52841004D01*
X206887993Y-52841003D01*
X206887991Y-52841002D01*
X206726637Y-52758788D01*
X206554406Y-52702828D01*
X206375549Y-52674500D01*
X206375546Y-52674500D01*
X206194454Y-52674500D01*
X206194451Y-52674500D01*
X206015593Y-52702828D01*
X205843362Y-52758788D01*
X205682008Y-52841002D01*
X205657242Y-52858996D01*
X205535499Y-52947447D01*
X205407447Y-53075499D01*
X205376970Y-53117447D01*
X205301002Y-53222008D01*
X205218788Y-53383362D01*
X205162828Y-53555593D01*
X205134500Y-53734450D01*
X205134500Y-53915549D01*
X205162828Y-54094406D01*
X205218788Y-54266637D01*
X205257806Y-54343215D01*
X205301004Y-54427994D01*
X205407447Y-54574501D01*
X205535499Y-54702553D01*
X205597846Y-54747850D01*
X205633809Y-54797349D01*
X205633810Y-54858534D01*
X205609659Y-54897945D01*
X204817947Y-55689659D01*
X204763430Y-55717437D01*
X204702998Y-55707866D01*
X204667853Y-55677849D01*
X204622553Y-55615499D01*
X204494501Y-55487447D01*
X204347994Y-55381004D01*
X204347993Y-55381003D01*
X204347991Y-55381002D01*
X204186637Y-55298788D01*
X204014406Y-55242828D01*
X203835549Y-55214500D01*
X203835546Y-55214500D01*
X203654454Y-55214500D01*
X203654451Y-55214500D01*
X203475593Y-55242828D01*
X203303362Y-55298788D01*
X203142008Y-55381002D01*
X203068752Y-55434225D01*
X202995499Y-55487447D01*
X202867447Y-55615499D01*
X202834147Y-55661333D01*
X202761002Y-55762008D01*
X202678788Y-55923362D01*
X202622828Y-56095593D01*
X202594500Y-56274450D01*
X202594500Y-56455549D01*
X202622828Y-56634406D01*
X202678788Y-56806637D01*
X202750899Y-56948163D01*
X202761004Y-56967994D01*
X202867447Y-57114501D01*
X202995499Y-57242553D01*
X203142006Y-57348996D01*
X203303361Y-57431211D01*
X203475591Y-57487171D01*
X203547136Y-57498502D01*
X203654451Y-57515500D01*
X203654454Y-57515500D01*
X203835549Y-57515500D01*
X203924977Y-57501335D01*
X204014409Y-57487171D01*
X204186639Y-57431211D01*
X204347994Y-57348996D01*
X204494501Y-57242553D01*
X204570098Y-57166955D01*
X204624613Y-57139180D01*
X204685045Y-57148751D01*
X204728310Y-57192016D01*
X204739100Y-57236961D01*
X204739100Y-59832740D01*
X204720193Y-59890931D01*
X204670693Y-59926895D01*
X204609507Y-59926895D01*
X204560007Y-59890931D01*
X204551892Y-59877688D01*
X204548999Y-59872012D01*
X204548998Y-59872009D01*
X204548996Y-59872006D01*
X204442553Y-59725499D01*
X204314501Y-59597447D01*
X204167994Y-59491004D01*
X204167993Y-59491003D01*
X204167991Y-59491002D01*
X204006637Y-59408788D01*
X203834406Y-59352828D01*
X203655549Y-59324500D01*
X203655546Y-59324500D01*
X203474454Y-59324500D01*
X203474451Y-59324500D01*
X203295593Y-59352828D01*
X203123362Y-59408788D01*
X202962008Y-59491002D01*
X202888752Y-59544225D01*
X202815499Y-59597447D01*
X202687447Y-59725499D01*
X202634225Y-59798752D01*
X202581002Y-59872008D01*
X202498788Y-60033362D01*
X202442828Y-60205593D01*
X202414500Y-60384450D01*
X202414500Y-60565549D01*
X202442828Y-60744406D01*
X202498788Y-60916637D01*
X202581001Y-61077990D01*
X202581004Y-61077994D01*
X202687447Y-61224501D01*
X202815499Y-61352553D01*
X202962006Y-61458996D01*
X203123361Y-61541211D01*
X203295591Y-61597171D01*
X203367136Y-61608502D01*
X203474451Y-61625500D01*
X203474454Y-61625500D01*
X203655549Y-61625500D01*
X203744977Y-61611335D01*
X203834409Y-61597171D01*
X204006639Y-61541211D01*
X204167994Y-61458996D01*
X204314501Y-61352553D01*
X204442553Y-61224501D01*
X204548996Y-61077994D01*
X204551890Y-61072315D01*
X204595154Y-61029050D01*
X204655586Y-61019478D01*
X204710103Y-61047255D01*
X204737881Y-61101771D01*
X204739100Y-61117259D01*
X204739100Y-62121273D01*
X204739100Y-62226727D01*
X204757984Y-62297203D01*
X204766394Y-62328592D01*
X204819116Y-62419908D01*
X204819118Y-62419910D01*
X204819120Y-62419913D01*
X205278895Y-62879687D01*
X205661704Y-63262496D01*
X205689481Y-63317013D01*
X205690700Y-63332500D01*
X205690700Y-79624299D01*
X205671793Y-79682490D01*
X205661704Y-79694303D01*
X201931503Y-83424504D01*
X201924385Y-83428130D01*
X201919690Y-83434593D01*
X201897641Y-83441756D01*
X201876986Y-83452281D01*
X201861499Y-83453500D01*
X201816200Y-83453500D01*
X201758009Y-83434593D01*
X201722045Y-83385093D01*
X201717200Y-83354500D01*
X201717200Y-79643900D01*
X201736107Y-79585709D01*
X201746196Y-79573896D01*
X202923596Y-78396496D01*
X202978113Y-78368719D01*
X202993600Y-78367500D01*
X203065755Y-78367500D01*
X203065757Y-78367500D01*
X203218484Y-78326577D01*
X203355416Y-78247520D01*
X203467220Y-78135716D01*
X203546277Y-77998784D01*
X203587200Y-77846057D01*
X203587200Y-77687943D01*
X203546277Y-77535216D01*
X203467220Y-77398284D01*
X203355416Y-77286480D01*
X203218484Y-77207423D01*
X203065757Y-77166500D01*
X202907643Y-77166500D01*
X202754916Y-77207423D01*
X202617984Y-77286480D01*
X202506180Y-77398284D01*
X202427123Y-77535216D01*
X202410948Y-77595584D01*
X202386200Y-77687944D01*
X202386200Y-77760099D01*
X202367293Y-77818290D01*
X202357204Y-77830103D01*
X200996216Y-79191091D01*
X200943495Y-79282406D01*
X200943493Y-79282410D01*
X200943493Y-79282412D01*
X200935233Y-79313240D01*
X200926991Y-79344001D01*
X200916200Y-79384273D01*
X200916200Y-89141000D01*
X200897293Y-89199191D01*
X200847793Y-89235155D01*
X200817200Y-89240000D01*
X200260001Y-89240000D01*
X200260000Y-89240001D01*
X200260000Y-90156988D01*
X200202993Y-90124075D01*
X200075826Y-90090000D01*
X199944174Y-90090000D01*
X199817007Y-90124075D01*
X199760000Y-90156988D01*
X199760000Y-89240001D01*
X199759999Y-89240000D01*
X199112176Y-89240000D01*
X199052629Y-89246401D01*
X199052618Y-89246403D01*
X198917911Y-89296646D01*
X198917909Y-89296647D01*
X198802815Y-89382807D01*
X198802807Y-89382815D01*
X198716647Y-89497909D01*
X198716646Y-89497911D01*
X198666403Y-89632618D01*
X198666401Y-89632629D01*
X198660000Y-89692175D01*
X198660000Y-90339999D01*
X198660001Y-90340000D01*
X199576988Y-90340000D01*
X199544075Y-90397007D01*
X199510000Y-90524174D01*
X199510000Y-90655826D01*
X199544075Y-90782993D01*
X199576988Y-90840000D01*
X198660001Y-90840000D01*
X198660000Y-90840001D01*
X198660000Y-91487824D01*
X198659999Y-91487824D01*
X189521000Y-91487824D01*
X189521000Y-88540143D01*
X189539907Y-88481952D01*
X189549990Y-88470145D01*
X189600920Y-88419216D01*
X189679977Y-88282284D01*
X189720900Y-88129557D01*
X189720900Y-87971443D01*
X189679977Y-87818716D01*
X189600920Y-87681784D01*
X189489116Y-87569980D01*
X189352184Y-87490923D01*
X189199457Y-87450000D01*
X189041343Y-87450000D01*
X188888616Y-87490923D01*
X188751684Y-87569980D01*
X188639880Y-87681784D01*
X188560823Y-87818716D01*
X188519900Y-87971443D01*
X188519900Y-88129557D01*
X188560823Y-88282284D01*
X188639880Y-88419216D01*
X188691005Y-88470341D01*
X188718781Y-88524856D01*
X188720000Y-88540343D01*
X188720000Y-96826773D01*
X188720000Y-96932227D01*
X188734824Y-96987553D01*
X188747294Y-97034092D01*
X188800016Y-97125408D01*
X188800018Y-97125410D01*
X188800020Y-97125413D01*
X189397612Y-97723004D01*
X189957103Y-98282495D01*
X189984880Y-98337012D01*
X189975309Y-98397444D01*
X189957104Y-98422501D01*
X189913121Y-98466485D01*
X189913116Y-98466491D01*
X189860394Y-98557807D01*
X189860393Y-98557812D01*
X189841806Y-98627180D01*
X189841806Y-98627181D01*
X189841805Y-98627180D01*
X189833100Y-98659671D01*
X189833100Y-99562056D01*
X189814193Y-99620247D01*
X189804104Y-99632059D01*
X189753082Y-99683081D01*
X189753080Y-99683083D01*
X189753080Y-99683084D01*
X189674023Y-99820016D01*
X189634008Y-99969357D01*
X189633100Y-99972744D01*
X189633100Y-100044899D01*
X189614193Y-100103090D01*
X189604104Y-100114903D01*
X188258603Y-101460404D01*
X188204086Y-101488181D01*
X188188599Y-101489400D01*
X187798944Y-101489400D01*
X187740753Y-101470493D01*
X187728941Y-101460404D01*
X187677918Y-101409382D01*
X187677916Y-101409380D01*
X187540984Y-101330323D01*
X187388257Y-101289400D01*
X187230143Y-101289400D01*
X187077416Y-101330323D01*
X186940484Y-101409380D01*
X186828680Y-101521184D01*
X186749623Y-101658116D01*
X186708700Y-101810843D01*
X184071235Y-101810843D01*
X184084289Y-101797789D01*
X184142823Y-101710186D01*
X184171890Y-101666686D01*
X184171896Y-101666674D01*
X184175441Y-101658116D01*
X184232237Y-101520997D01*
X184263000Y-101366342D01*
X184263000Y-100108658D01*
X184232237Y-99954003D01*
X184193175Y-99859699D01*
X184171896Y-99808325D01*
X184171890Y-99808314D01*
X184132713Y-99749683D01*
X184084289Y-99677211D01*
X183972789Y-99565711D01*
X183952395Y-99552084D01*
X183896400Y-99514669D01*
X183841686Y-99478109D01*
X183841674Y-99478103D01*
X183746890Y-99438843D01*
X187230500Y-99438843D01*
X187230500Y-99596957D01*
X187271423Y-99749684D01*
X187350480Y-99886616D01*
X187462284Y-99998420D01*
X187599216Y-100077477D01*
X187751943Y-100118400D01*
X187751945Y-100118400D01*
X187910055Y-100118400D01*
X187910057Y-100118400D01*
X188062784Y-100077477D01*
X188199716Y-99998420D01*
X188311520Y-99886616D01*
X188390577Y-99749684D01*
X188431500Y-99596957D01*
X188431500Y-99438843D01*
X188431500Y-99438028D01*
X188431992Y-99428169D01*
X188432792Y-99420169D01*
X188438370Y-99399357D01*
X188451401Y-99350727D01*
X188451401Y-99245273D01*
X188451400Y-99245269D01*
X188451400Y-98516543D01*
X188470307Y-98458352D01*
X188480390Y-98446545D01*
X188531420Y-98395516D01*
X188610477Y-98258584D01*
X188651400Y-98105857D01*
X188651400Y-97947743D01*
X188610477Y-97795016D01*
X188531420Y-97658084D01*
X188419616Y-97546280D01*
X188282684Y-97467223D01*
X188129957Y-97426300D01*
X187971843Y-97426300D01*
X187819116Y-97467223D01*
X187682184Y-97546280D01*
X187570380Y-97658084D01*
X187491323Y-97795016D01*
X187450400Y-97947743D01*
X187450400Y-98105857D01*
X187491323Y-98258584D01*
X187570380Y-98395516D01*
X187621405Y-98446541D01*
X187649181Y-98501056D01*
X187650400Y-98516543D01*
X187650400Y-98871614D01*
X187631493Y-98929805D01*
X187600900Y-98957351D01*
X187599216Y-98958322D01*
X187599216Y-98958323D01*
X187462284Y-99037380D01*
X187350480Y-99149184D01*
X187271423Y-99286116D01*
X187230500Y-99438843D01*
X183746890Y-99438843D01*
X183695997Y-99417763D01*
X183541344Y-99387000D01*
X183541342Y-99387000D01*
X183383658Y-99387000D01*
X183383655Y-99387000D01*
X183229003Y-99417763D01*
X183229001Y-99417763D01*
X183083325Y-99478103D01*
X183083314Y-99478109D01*
X182952211Y-99565711D01*
X182952207Y-99565714D01*
X182840714Y-99677207D01*
X182840711Y-99677211D01*
X182753109Y-99808314D01*
X182753103Y-99808325D01*
X182692763Y-99954001D01*
X182692763Y-99954003D01*
X182662000Y-100108655D01*
X182662000Y-100844113D01*
X182643093Y-100902304D01*
X182593593Y-100938268D01*
X182532407Y-100938268D01*
X182492998Y-100914118D01*
X182385865Y-100806985D01*
X182385862Y-100806983D01*
X182385860Y-100806981D01*
X182254638Y-100731220D01*
X182254640Y-100731220D01*
X182197847Y-100716003D01*
X182108266Y-100692000D01*
X181956734Y-100692000D01*
X181867152Y-100716003D01*
X181810360Y-100731220D01*
X181679139Y-100806981D01*
X181571981Y-100914139D01*
X181496220Y-101045360D01*
X181496219Y-101045365D01*
X181457000Y-101191734D01*
X180853658Y-101191734D01*
X182429080Y-99616313D01*
X182429083Y-99616308D01*
X182481805Y-99524992D01*
X182481805Y-99524990D01*
X182481807Y-99524988D01*
X182509100Y-99423127D01*
X182509100Y-99317673D01*
X182509100Y-98329899D01*
X182528007Y-98271708D01*
X182577507Y-98235744D01*
X182638693Y-98235744D01*
X182688193Y-98271708D01*
X182693829Y-98280387D01*
X182740380Y-98361016D01*
X182852184Y-98472820D01*
X182989116Y-98551877D01*
X183141843Y-98592800D01*
X183141845Y-98592800D01*
X183299955Y-98592800D01*
X183299957Y-98592800D01*
X183452684Y-98551877D01*
X183589616Y-98472820D01*
X183701420Y-98361016D01*
X183780477Y-98224084D01*
X183821400Y-98071357D01*
X183821400Y-97999200D01*
X183840307Y-97941009D01*
X183850390Y-97929202D01*
X185566480Y-96213113D01*
X185575610Y-96197299D01*
X185619205Y-96121792D01*
X185619205Y-96121790D01*
X185619207Y-96121788D01*
X185646500Y-96019927D01*
X185646500Y-95914473D01*
X185646500Y-86694843D01*
X190211800Y-86694843D01*
X190211800Y-86852957D01*
X190252723Y-87005684D01*
X190331780Y-87142616D01*
X190443584Y-87254420D01*
X190580516Y-87333477D01*
X190733243Y-87374400D01*
X190733245Y-87374400D01*
X190891355Y-87374400D01*
X190891357Y-87374400D01*
X191044084Y-87333477D01*
X191181016Y-87254420D01*
X191292820Y-87142616D01*
X191371877Y-87005684D01*
X191412800Y-86852957D01*
X191412800Y-86694843D01*
X191371877Y-86542116D01*
X191292820Y-86405184D01*
X191181016Y-86293380D01*
X191144059Y-86272043D01*
X192437500Y-86272043D01*
X192437500Y-86430157D01*
X192478423Y-86582884D01*
X192557480Y-86719816D01*
X192669284Y-86831620D01*
X192806216Y-86910677D01*
X192958943Y-86951600D01*
X192958945Y-86951600D01*
X193117055Y-86951600D01*
X193117057Y-86951600D01*
X193269784Y-86910677D01*
X193406716Y-86831620D01*
X193518520Y-86719816D01*
X193597577Y-86582884D01*
X193638500Y-86430157D01*
X193638500Y-86272043D01*
X193597577Y-86119316D01*
X193518520Y-85982384D01*
X193406716Y-85870580D01*
X193269784Y-85791523D01*
X193117057Y-85750600D01*
X192958943Y-85750600D01*
X192806216Y-85791523D01*
X192669284Y-85870580D01*
X192557480Y-85982384D01*
X192478423Y-86119316D01*
X192437500Y-86272043D01*
X191144059Y-86272043D01*
X191044084Y-86214323D01*
X190891357Y-86173400D01*
X190733243Y-86173400D01*
X190580516Y-86214323D01*
X190443584Y-86293380D01*
X190331780Y-86405184D01*
X190252723Y-86542116D01*
X190211800Y-86694843D01*
X185646500Y-86694843D01*
X185646500Y-85749043D01*
X197416000Y-85749043D01*
X197416000Y-85907157D01*
X197456923Y-86059884D01*
X197535980Y-86196816D01*
X197647784Y-86308620D01*
X197784716Y-86387677D01*
X197937443Y-86428600D01*
X197937445Y-86428600D01*
X198095555Y-86428600D01*
X198095557Y-86428600D01*
X198248284Y-86387677D01*
X198385216Y-86308620D01*
X198497020Y-86196816D01*
X198576077Y-86059884D01*
X198617000Y-85907157D01*
X198617000Y-85749043D01*
X198576077Y-85596316D01*
X198497020Y-85459384D01*
X198385216Y-85347580D01*
X198248284Y-85268523D01*
X198095557Y-85227600D01*
X197937443Y-85227600D01*
X197784716Y-85268523D01*
X197647784Y-85347580D01*
X197535980Y-85459384D01*
X197456923Y-85596316D01*
X197416000Y-85749043D01*
X185646500Y-85749043D01*
X185646500Y-84509843D01*
X186732300Y-84509843D01*
X186732300Y-84667957D01*
X186773223Y-84820684D01*
X186852280Y-84957616D01*
X186964084Y-85069420D01*
X187101016Y-85148477D01*
X187253743Y-85189400D01*
X187253745Y-85189400D01*
X187411855Y-85189400D01*
X187411857Y-85189400D01*
X187564584Y-85148477D01*
X187701516Y-85069420D01*
X187813320Y-84957616D01*
X187822378Y-84941925D01*
X187847856Y-84912875D01*
X187852403Y-84909385D01*
X187852413Y-84909380D01*
X188605000Y-84156792D01*
X188659515Y-84129017D01*
X188719947Y-84138588D01*
X188763212Y-84181853D01*
X188770629Y-84201174D01*
X188793300Y-84285783D01*
X188807823Y-84339984D01*
X188886880Y-84476916D01*
X188998684Y-84588720D01*
X189135616Y-84667777D01*
X189288343Y-84708700D01*
X189355504Y-84708700D01*
X189413695Y-84727607D01*
X189449659Y-84777107D01*
X189451129Y-84782072D01*
X189485323Y-84909684D01*
X189564380Y-85046616D01*
X189676184Y-85158420D01*
X189813116Y-85237477D01*
X189965843Y-85278400D01*
X189965845Y-85278400D01*
X190123955Y-85278400D01*
X190123957Y-85278400D01*
X190276684Y-85237477D01*
X190413616Y-85158420D01*
X190525420Y-85046616D01*
X190604477Y-84909684D01*
X190645400Y-84756957D01*
X190645400Y-84598843D01*
X190604477Y-84446116D01*
X190525420Y-84309184D01*
X190413616Y-84197380D01*
X190276684Y-84118323D01*
X190123957Y-84077400D01*
X190123955Y-84077400D01*
X190056796Y-84077400D01*
X190054225Y-84076564D01*
X190051615Y-84077264D01*
X190025361Y-84067186D01*
X189998605Y-84058493D01*
X189997016Y-84056306D01*
X189994494Y-84055338D01*
X189979176Y-84031752D01*
X189962641Y-84008993D01*
X189961169Y-84004024D01*
X189958811Y-83995224D01*
X189962013Y-83934122D01*
X190000518Y-83886572D01*
X190054438Y-83870600D01*
X190691525Y-83870600D01*
X190691527Y-83870600D01*
X190793388Y-83843307D01*
X190793390Y-83843305D01*
X190793392Y-83843305D01*
X190884708Y-83790583D01*
X190884708Y-83790582D01*
X190884713Y-83790580D01*
X190945793Y-83729500D01*
X190969798Y-83705496D01*
X191024315Y-83677719D01*
X191039801Y-83676500D01*
X196656656Y-83676500D01*
X196714847Y-83695407D01*
X196726659Y-83705496D01*
X196777681Y-83756517D01*
X196777684Y-83756520D01*
X196914616Y-83835577D01*
X197067343Y-83876500D01*
X197067345Y-83876500D01*
X197225455Y-83876500D01*
X197225457Y-83876500D01*
X197378184Y-83835577D01*
X197515116Y-83756520D01*
X197542136Y-83729500D01*
X197566141Y-83705496D01*
X197620658Y-83677719D01*
X197636144Y-83676500D01*
X198013425Y-83676500D01*
X198013427Y-83676500D01*
X198115288Y-83649207D01*
X198115290Y-83649205D01*
X198115292Y-83649205D01*
X198206608Y-83596483D01*
X198206608Y-83596482D01*
X198206613Y-83596480D01*
X200638080Y-81165013D01*
X200669586Y-81110444D01*
X200690805Y-81073692D01*
X200690805Y-81073690D01*
X200690807Y-81073688D01*
X200718100Y-80971827D01*
X200718100Y-80866373D01*
X200718100Y-73646101D01*
X200737007Y-73587910D01*
X200747096Y-73576097D01*
X204682697Y-69640496D01*
X204737214Y-69612719D01*
X204752701Y-69611500D01*
X204824855Y-69611500D01*
X204824857Y-69611500D01*
X204977584Y-69570577D01*
X205114516Y-69491520D01*
X205226320Y-69379716D01*
X205305377Y-69242784D01*
X205346300Y-69090057D01*
X205346300Y-68931943D01*
X205305377Y-68779216D01*
X205226320Y-68642284D01*
X205114516Y-68530480D01*
X204977584Y-68451423D01*
X204824857Y-68410500D01*
X204666743Y-68410500D01*
X204514016Y-68451423D01*
X204377084Y-68530480D01*
X204265280Y-68642284D01*
X204186223Y-68779216D01*
X204145300Y-68931944D01*
X204145300Y-69004099D01*
X204126393Y-69062290D01*
X204116304Y-69074103D01*
X199997116Y-73193291D01*
X199944394Y-73284607D01*
X199941336Y-73296020D01*
X199918831Y-73380015D01*
X199918830Y-73380017D01*
X199917100Y-73386473D01*
X199917100Y-80712199D01*
X199914631Y-80719796D01*
X199915881Y-80727686D01*
X199905356Y-80748341D01*
X199898193Y-80770390D01*
X199888104Y-80782203D01*
X199849525Y-80820782D01*
X199795008Y-80848559D01*
X199734576Y-80838988D01*
X199709520Y-80820784D01*
X199597716Y-80708980D01*
X199460784Y-80629923D01*
X199308057Y-80589000D01*
X199149943Y-80589000D01*
X198997216Y-80629923D01*
X198860284Y-80708980D01*
X198748480Y-80820784D01*
X198669423Y-80957716D01*
X198628500Y-81110443D01*
X198628500Y-81268557D01*
X198669423Y-81421284D01*
X198748480Y-81558216D01*
X198860282Y-81670018D01*
X198888058Y-81724533D01*
X198878487Y-81784965D01*
X198860281Y-81810024D01*
X197823803Y-82846504D01*
X197816685Y-82850130D01*
X197811990Y-82856593D01*
X197789941Y-82863756D01*
X197769286Y-82874281D01*
X197753799Y-82875500D01*
X197636144Y-82875500D01*
X197577953Y-82856593D01*
X197566141Y-82846504D01*
X197515118Y-82795482D01*
X197515116Y-82795480D01*
X197378184Y-82716423D01*
X197225457Y-82675500D01*
X197067343Y-82675500D01*
X196965085Y-82702900D01*
X196914616Y-82716423D01*
X196777681Y-82795482D01*
X196726659Y-82846504D01*
X196672142Y-82874281D01*
X196656656Y-82875500D01*
X190885627Y-82875500D01*
X190780173Y-82875500D01*
X190731122Y-82888643D01*
X190678307Y-82902794D01*
X190586991Y-82955516D01*
X190586986Y-82955520D01*
X190501902Y-83040604D01*
X190447385Y-83068381D01*
X190431899Y-83069600D01*
X189215044Y-83069600D01*
X189156853Y-83050693D01*
X189145041Y-83040604D01*
X189094018Y-82989582D01*
X189094016Y-82989580D01*
X188957084Y-82910523D01*
X188804357Y-82869600D01*
X188646243Y-82869600D01*
X188493516Y-82910523D01*
X188356584Y-82989580D01*
X188244780Y-83101384D01*
X188165723Y-83238316D01*
X188126395Y-83385093D01*
X188124800Y-83391044D01*
X188124800Y-83463198D01*
X188105893Y-83521389D01*
X188095803Y-83533202D01*
X187632680Y-83996324D01*
X187578164Y-84024101D01*
X187537056Y-84021947D01*
X187411857Y-83988400D01*
X187253743Y-83988400D01*
X187101016Y-84029323D01*
X186964084Y-84108380D01*
X186852280Y-84220184D01*
X186773223Y-84357116D01*
X186732300Y-84509843D01*
X185646500Y-84509843D01*
X185646500Y-81171500D01*
X185665407Y-81113309D01*
X185714907Y-81077345D01*
X185745500Y-81072500D01*
X185876755Y-81072500D01*
X185876757Y-81072500D01*
X186029484Y-81031577D01*
X186166416Y-80952520D01*
X186278220Y-80840716D01*
X186357277Y-80703784D01*
X186398200Y-80551057D01*
X186398200Y-80392943D01*
X186357277Y-80240216D01*
X186278220Y-80103284D01*
X186166416Y-79991480D01*
X186029484Y-79912423D01*
X185876757Y-79871500D01*
X185745500Y-79871500D01*
X185687309Y-79852593D01*
X185651345Y-79803093D01*
X185646500Y-79772500D01*
X185646500Y-76330983D01*
X185649873Y-76305361D01*
X185650364Y-76303525D01*
X185660600Y-76265327D01*
X185660600Y-72707201D01*
X185663068Y-72699603D01*
X185661819Y-72691714D01*
X185672343Y-72671058D01*
X185679507Y-72649010D01*
X185689596Y-72637197D01*
X185703197Y-72623596D01*
X185757714Y-72595819D01*
X185773201Y-72594600D01*
X187444287Y-72594600D01*
X187502478Y-72613507D01*
X187538442Y-72663007D01*
X187539914Y-72719222D01*
X187535300Y-72736443D01*
X187535300Y-72894557D01*
X187576223Y-73047284D01*
X187655280Y-73184216D01*
X187767084Y-73296020D01*
X187904016Y-73375077D01*
X188056743Y-73416000D01*
X188056745Y-73416000D01*
X188214855Y-73416000D01*
X188214857Y-73416000D01*
X188367584Y-73375077D01*
X188504516Y-73296020D01*
X188616320Y-73184216D01*
X188695377Y-73047284D01*
X188736300Y-72894557D01*
X188736300Y-72736443D01*
X188731686Y-72719222D01*
X188734889Y-72658120D01*
X188773395Y-72610571D01*
X188827313Y-72594600D01*
X190206511Y-72594600D01*
X190264702Y-72613507D01*
X190300666Y-72663007D01*
X190300666Y-72724193D01*
X190292248Y-72743099D01*
X190271223Y-72779514D01*
X190243941Y-72881334D01*
X190230300Y-72932243D01*
X190230300Y-73090357D01*
X190271223Y-73243084D01*
X190350280Y-73380016D01*
X190462084Y-73491820D01*
X190599016Y-73570877D01*
X190751743Y-73611800D01*
X190751745Y-73611800D01*
X190909855Y-73611800D01*
X190909857Y-73611800D01*
X191062584Y-73570877D01*
X191199516Y-73491820D01*
X191229636Y-73461700D01*
X191250541Y-73440796D01*
X191305058Y-73413019D01*
X191320544Y-73411800D01*
X192003525Y-73411800D01*
X192003527Y-73411800D01*
X192105388Y-73384507D01*
X192105390Y-73384505D01*
X192105392Y-73384505D01*
X192196708Y-73331783D01*
X192196708Y-73331782D01*
X192196713Y-73331780D01*
X193257880Y-72270613D01*
X193267249Y-72254386D01*
X193310605Y-72179292D01*
X193310605Y-72179290D01*
X193310607Y-72179288D01*
X193337900Y-72077427D01*
X193337900Y-71971973D01*
X193337900Y-69746073D01*
X193310607Y-69644213D01*
X193310607Y-69644212D01*
X193310607Y-69644211D01*
X193257883Y-69552891D01*
X193257882Y-69552890D01*
X193257881Y-69552889D01*
X193257880Y-69552887D01*
X190924496Y-67219503D01*
X190896719Y-67164986D01*
X190895500Y-67149499D01*
X190895500Y-65759666D01*
X190914407Y-65701475D01*
X190963907Y-65665511D01*
X191025093Y-65665511D01*
X191052689Y-65679572D01*
X191111991Y-65722658D01*
X191159682Y-65757308D01*
X191162006Y-65758996D01*
X191323361Y-65841211D01*
X191495591Y-65897171D01*
X191567136Y-65908502D01*
X191674451Y-65925500D01*
X191674454Y-65925500D01*
X191855549Y-65925500D01*
X191944977Y-65911335D01*
X192034409Y-65897171D01*
X192206639Y-65841211D01*
X192367994Y-65758996D01*
X192514501Y-65652553D01*
X192642553Y-65524501D01*
X192748996Y-65377994D01*
X192831211Y-65216639D01*
X192887171Y-65044409D01*
X192915500Y-64865546D01*
X192915500Y-64684454D01*
X192915500Y-64684450D01*
X193154500Y-64684450D01*
X193154500Y-64865549D01*
X193182828Y-65044406D01*
X193238788Y-65216637D01*
X193320432Y-65376873D01*
X193321004Y-65377994D01*
X193427447Y-65524501D01*
X193555499Y-65652553D01*
X193702006Y-65758996D01*
X193850446Y-65834630D01*
X193893710Y-65877894D01*
X193904500Y-65922839D01*
X193904500Y-65929427D01*
X193928570Y-66019259D01*
X193931794Y-66031292D01*
X193984516Y-66122608D01*
X193984518Y-66122610D01*
X193984520Y-66122613D01*
X197073605Y-69211698D01*
X197101381Y-69266213D01*
X197102600Y-69281700D01*
X197102600Y-78932599D01*
X197083693Y-78990790D01*
X197073604Y-79002602D01*
X196926720Y-79149486D01*
X196926716Y-79149491D01*
X196873993Y-79240811D01*
X196873992Y-79240815D01*
X196854585Y-79313240D01*
X196821261Y-79364554D01*
X196764140Y-79386480D01*
X196705039Y-79370644D01*
X196688960Y-79357624D01*
X196614616Y-79283280D01*
X196477684Y-79204223D01*
X196324957Y-79163300D01*
X196166843Y-79163300D01*
X196014116Y-79204223D01*
X195877184Y-79283280D01*
X195765380Y-79395084D01*
X195686323Y-79532016D01*
X195645400Y-79684743D01*
X195645400Y-79842857D01*
X195686323Y-79995584D01*
X195765380Y-80132516D01*
X195877184Y-80244320D01*
X196014116Y-80323377D01*
X196166843Y-80364300D01*
X196166845Y-80364300D01*
X196324955Y-80364300D01*
X196324957Y-80364300D01*
X196477684Y-80323377D01*
X196614616Y-80244320D01*
X196677698Y-80181237D01*
X196732213Y-80153462D01*
X196792645Y-80163033D01*
X196835910Y-80206298D01*
X196846700Y-80251243D01*
X196846700Y-80828673D01*
X196846700Y-80934127D01*
X196873993Y-81035988D01*
X196889336Y-81062563D01*
X196902600Y-81112063D01*
X196902600Y-81216357D01*
X196943523Y-81369084D01*
X197022580Y-81506016D01*
X197134384Y-81617820D01*
X197271316Y-81696877D01*
X197424043Y-81737800D01*
X197424045Y-81737800D01*
X197582155Y-81737800D01*
X197582157Y-81737800D01*
X197734884Y-81696877D01*
X197871816Y-81617820D01*
X197983620Y-81506016D01*
X198062677Y-81369084D01*
X198103600Y-81216357D01*
X198103600Y-81058243D01*
X198062677Y-80905516D01*
X197983620Y-80768584D01*
X197871816Y-80656780D01*
X197734884Y-80577723D01*
X197734883Y-80577722D01*
X197734882Y-80577722D01*
X197721073Y-80574022D01*
X197669760Y-80540695D01*
X197647835Y-80483573D01*
X197647700Y-80478396D01*
X197647700Y-79602300D01*
X197666607Y-79544109D01*
X197676690Y-79532302D01*
X197823580Y-79385413D01*
X197835623Y-79364554D01*
X197876305Y-79294092D01*
X197876305Y-79294090D01*
X197876307Y-79294088D01*
X197903600Y-79192227D01*
X197903600Y-79086773D01*
X197903600Y-69022073D01*
X197876307Y-68920213D01*
X197870685Y-68910476D01*
X197823580Y-68828887D01*
X197749013Y-68754319D01*
X197749013Y-68754320D01*
X194900585Y-65905892D01*
X194872808Y-65851375D01*
X194882379Y-65790943D01*
X194912395Y-65755798D01*
X195054501Y-65652553D01*
X195182553Y-65524501D01*
X195288996Y-65377994D01*
X195371211Y-65216639D01*
X195427171Y-65044409D01*
X195455500Y-64865546D01*
X195455500Y-64684454D01*
X195455500Y-64684450D01*
X195427171Y-64505593D01*
X195427171Y-64505591D01*
X195371211Y-64333361D01*
X195288996Y-64172006D01*
X195182553Y-64025499D01*
X195054501Y-63897447D01*
X194907994Y-63791004D01*
X194907993Y-63791003D01*
X194907991Y-63791002D01*
X194746637Y-63708788D01*
X194574406Y-63652828D01*
X194395549Y-63624500D01*
X194395546Y-63624500D01*
X194214454Y-63624500D01*
X194214451Y-63624500D01*
X194035593Y-63652828D01*
X193863362Y-63708788D01*
X193702008Y-63791002D01*
X193676467Y-63809559D01*
X193555499Y-63897447D01*
X193427447Y-64025499D01*
X193374225Y-64098752D01*
X193321002Y-64172008D01*
X193238788Y-64333362D01*
X193182828Y-64505593D01*
X193154500Y-64684450D01*
X192915500Y-64684450D01*
X192887171Y-64505593D01*
X192887171Y-64505591D01*
X192831211Y-64333361D01*
X192748996Y-64172006D01*
X192642553Y-64025499D01*
X192514501Y-63897447D01*
X192367994Y-63791004D01*
X192367993Y-63791003D01*
X192367991Y-63791002D01*
X192206637Y-63708788D01*
X192034406Y-63652828D01*
X191855549Y-63624500D01*
X191855546Y-63624500D01*
X191674454Y-63624500D01*
X191674451Y-63624500D01*
X191495593Y-63652828D01*
X191323362Y-63708788D01*
X191162008Y-63791002D01*
X191136467Y-63809559D01*
X191052689Y-63870426D01*
X190994500Y-63889333D01*
X190936309Y-63870426D01*
X190900345Y-63820925D01*
X190895500Y-63790333D01*
X190895500Y-63219666D01*
X190914407Y-63161475D01*
X190963907Y-63125511D01*
X191025093Y-63125511D01*
X191052689Y-63139572D01*
X191061900Y-63146265D01*
X191159682Y-63217308D01*
X191162006Y-63218996D01*
X191323361Y-63301211D01*
X191495591Y-63357171D01*
X191567136Y-63368502D01*
X191674451Y-63385500D01*
X191674454Y-63385500D01*
X191855549Y-63385500D01*
X191944977Y-63371335D01*
X192034409Y-63357171D01*
X192206639Y-63301211D01*
X192367994Y-63218996D01*
X192514501Y-63112553D01*
X192642553Y-62984501D01*
X192748996Y-62837994D01*
X192824630Y-62689553D01*
X192867894Y-62646290D01*
X192912839Y-62635500D01*
X192919425Y-62635500D01*
X192919427Y-62635500D01*
X193021287Y-62608207D01*
X193079834Y-62574404D01*
X193139680Y-62561683D01*
X193195576Y-62586569D01*
X193223487Y-62629548D01*
X193238785Y-62676632D01*
X193238787Y-62676635D01*
X193304253Y-62805120D01*
X193321004Y-62837994D01*
X193427447Y-62984501D01*
X193555499Y-63112553D01*
X193702006Y-63218996D01*
X193863361Y-63301211D01*
X194035591Y-63357171D01*
X194107136Y-63368502D01*
X194214451Y-63385500D01*
X194214454Y-63385500D01*
X194395549Y-63385500D01*
X194484977Y-63371335D01*
X194574409Y-63357171D01*
X194746639Y-63301211D01*
X194907994Y-63218996D01*
X195054501Y-63112553D01*
X195182553Y-62984501D01*
X195288996Y-62837994D01*
X195371211Y-62676639D01*
X195427171Y-62504409D01*
X195427170Y-62504409D01*
X195428373Y-62500710D01*
X195430070Y-62501261D01*
X195458505Y-62454845D01*
X195515029Y-62431421D01*
X195574526Y-62445694D01*
X195592817Y-62460110D01*
X198699204Y-65566497D01*
X198726981Y-65621014D01*
X198728200Y-65636501D01*
X198728200Y-77406094D01*
X198709293Y-77464285D01*
X198694969Y-77478988D01*
X198695173Y-77479192D01*
X198690586Y-77483778D01*
X198690584Y-77483780D01*
X198578780Y-77595584D01*
X198499723Y-77732516D01*
X198458800Y-77885243D01*
X198458800Y-78043357D01*
X198499723Y-78196084D01*
X198578780Y-78333016D01*
X198690584Y-78444820D01*
X198827516Y-78523877D01*
X198980243Y-78564800D01*
X198980245Y-78564800D01*
X199138355Y-78564800D01*
X199138357Y-78564800D01*
X199291084Y-78523877D01*
X199428016Y-78444820D01*
X199539820Y-78333016D01*
X199618877Y-78196084D01*
X199659800Y-78043357D01*
X199659800Y-77885243D01*
X199618877Y-77732516D01*
X199542462Y-77600160D01*
X199529200Y-77550663D01*
X199529200Y-65376874D01*
X199529200Y-65376873D01*
X199515190Y-65324587D01*
X199501907Y-65275012D01*
X199501904Y-65275006D01*
X199449183Y-65183691D01*
X199449181Y-65183689D01*
X199449180Y-65183687D01*
X195072513Y-60807020D01*
X195072510Y-60807018D01*
X195072508Y-60807016D01*
X194981191Y-60754294D01*
X194981193Y-60754294D01*
X194941670Y-60743704D01*
X194879327Y-60727000D01*
X194879325Y-60727000D01*
X193804706Y-60727000D01*
X193804690Y-60726999D01*
X193798627Y-60726999D01*
X193693173Y-60726999D01*
X193693170Y-60726999D01*
X193591313Y-60754292D01*
X193591309Y-60754294D01*
X193499987Y-60807019D01*
X193425419Y-60881586D01*
X193425420Y-60881587D01*
X193425418Y-60881589D01*
X193425417Y-60881589D01*
X192799820Y-61507184D01*
X192745304Y-61534961D01*
X192684872Y-61525390D01*
X192649725Y-61495371D01*
X192642553Y-61485499D01*
X192514501Y-61357447D01*
X192367994Y-61251004D01*
X192367993Y-61251003D01*
X192367991Y-61251002D01*
X192206637Y-61168788D01*
X192034406Y-61112828D01*
X191855549Y-61084500D01*
X191855546Y-61084500D01*
X191674454Y-61084500D01*
X191674451Y-61084500D01*
X191495593Y-61112828D01*
X191323362Y-61168788D01*
X191162008Y-61251002D01*
X191120823Y-61280925D01*
X191052689Y-61330426D01*
X190994500Y-61349333D01*
X190936309Y-61330426D01*
X190900345Y-61280925D01*
X190895500Y-61250333D01*
X190895500Y-56319714D01*
X190895501Y-56319701D01*
X190895501Y-56206272D01*
X190895500Y-56206270D01*
X190868207Y-56104413D01*
X190863115Y-56095593D01*
X190834013Y-56045188D01*
X190815480Y-56013087D01*
X190740913Y-55938520D01*
X190740910Y-55938518D01*
X189929244Y-55126852D01*
X189901467Y-55072335D01*
X189911038Y-55011903D01*
X189954303Y-54968638D01*
X189959225Y-54966300D01*
X190047765Y-54927206D01*
X190127206Y-54847765D01*
X190172585Y-54744991D01*
X190175500Y-54719865D01*
X190175499Y-52930136D01*
X190172585Y-52905009D01*
X190127206Y-52802235D01*
X190047765Y-52722794D01*
X189944991Y-52677415D01*
X189944990Y-52677414D01*
X189944988Y-52677414D01*
X189919868Y-52674500D01*
X188130139Y-52674500D01*
X188130136Y-52674501D01*
X188105009Y-52677414D01*
X188002235Y-52722794D01*
X187922794Y-52802235D01*
X187877414Y-52905011D01*
X187874500Y-52930130D01*
X187874500Y-54719860D01*
X187874501Y-54719863D01*
X187877414Y-54744990D01*
X187881594Y-54754456D01*
X187922794Y-54847765D01*
X188002235Y-54927206D01*
X188105009Y-54972585D01*
X188130135Y-54975500D01*
X188547482Y-54975499D01*
X188605673Y-54994406D01*
X188637555Y-55033416D01*
X188640975Y-55040915D01*
X188651793Y-55081287D01*
X188687963Y-55143936D01*
X188689931Y-55148250D01*
X188692891Y-55174162D01*
X188698316Y-55199682D01*
X188696319Y-55204164D01*
X188696877Y-55209040D01*
X188684038Y-55231747D01*
X188673429Y-55255577D01*
X188668905Y-55258514D01*
X188666764Y-55262303D01*
X188654361Y-55267959D01*
X188630452Y-55283487D01*
X188583364Y-55298787D01*
X188422008Y-55381002D01*
X188348752Y-55434225D01*
X188275499Y-55487447D01*
X188147447Y-55615499D01*
X188114147Y-55661333D01*
X188041002Y-55762008D01*
X187958788Y-55923362D01*
X187902828Y-56095593D01*
X187874500Y-56274450D01*
X187874500Y-56455549D01*
X187902828Y-56634406D01*
X187958788Y-56806637D01*
X188030899Y-56948163D01*
X188041004Y-56967994D01*
X188147447Y-57114501D01*
X188275499Y-57242553D01*
X188422006Y-57348996D01*
X188583361Y-57431211D01*
X188755591Y-57487171D01*
X188827136Y-57498502D01*
X188934451Y-57515500D01*
X188934454Y-57515500D01*
X189115549Y-57515500D01*
X189204977Y-57501335D01*
X189294409Y-57487171D01*
X189466639Y-57431211D01*
X189627994Y-57348996D01*
X189774501Y-57242553D01*
X189902553Y-57114501D01*
X189915408Y-57096807D01*
X189964907Y-57060844D01*
X190026092Y-57060843D01*
X190075592Y-57096807D01*
X190094500Y-57154998D01*
X190094500Y-61250333D01*
X190075593Y-61308524D01*
X190026093Y-61344488D01*
X189964907Y-61344488D01*
X189937310Y-61330427D01*
X189827994Y-61251004D01*
X189827993Y-61251003D01*
X189827991Y-61251002D01*
X189666637Y-61168788D01*
X189494406Y-61112828D01*
X189315549Y-61084500D01*
X189315546Y-61084500D01*
X189134454Y-61084500D01*
X189134451Y-61084500D01*
X188955593Y-61112828D01*
X188783362Y-61168788D01*
X188622008Y-61251002D01*
X188580823Y-61280925D01*
X188475499Y-61357447D01*
X188347447Y-61485499D01*
X188334594Y-61503190D01*
X188241002Y-61632008D01*
X188158788Y-61793362D01*
X188102828Y-61965593D01*
X188074500Y-62144450D01*
X188074500Y-62325549D01*
X188102828Y-62504406D01*
X188158788Y-62676637D01*
X188224253Y-62805120D01*
X188241004Y-62837994D01*
X188347447Y-62984501D01*
X188475499Y-63112553D01*
X188622006Y-63218996D01*
X188783361Y-63301211D01*
X188955591Y-63357171D01*
X189027136Y-63368502D01*
X189134451Y-63385500D01*
X189134454Y-63385500D01*
X189315549Y-63385500D01*
X189404977Y-63371335D01*
X189494409Y-63357171D01*
X189666639Y-63301211D01*
X189827994Y-63218996D01*
X189937310Y-63139573D01*
X189995500Y-63120666D01*
X190053690Y-63139573D01*
X190089654Y-63189073D01*
X190094500Y-63219666D01*
X190094500Y-63790333D01*
X190075593Y-63848524D01*
X190026093Y-63884488D01*
X189964907Y-63884488D01*
X189937310Y-63870427D01*
X189827994Y-63791004D01*
X189827993Y-63791003D01*
X189827991Y-63791002D01*
X189666637Y-63708788D01*
X189494406Y-63652828D01*
X189315549Y-63624500D01*
X189315546Y-63624500D01*
X189134454Y-63624500D01*
X189134451Y-63624500D01*
X188955593Y-63652828D01*
X188783362Y-63708788D01*
X188622008Y-63791002D01*
X188596467Y-63809559D01*
X188475499Y-63897447D01*
X188347447Y-64025499D01*
X188294225Y-64098752D01*
X188241002Y-64172008D01*
X188158788Y-64333362D01*
X188102828Y-64505593D01*
X188074500Y-64684450D01*
X188074500Y-64865549D01*
X188102828Y-65044406D01*
X188158788Y-65216637D01*
X188240432Y-65376873D01*
X188241004Y-65377994D01*
X188347447Y-65524501D01*
X188475499Y-65652553D01*
X188622006Y-65758996D01*
X188783361Y-65841211D01*
X188955591Y-65897171D01*
X189027136Y-65908502D01*
X189134451Y-65925500D01*
X189134454Y-65925500D01*
X189315549Y-65925500D01*
X189404977Y-65911335D01*
X189494409Y-65897171D01*
X189666639Y-65841211D01*
X189827994Y-65758996D01*
X189937310Y-65679573D01*
X189995500Y-65660666D01*
X190053690Y-65679573D01*
X190089654Y-65729073D01*
X190094500Y-65759666D01*
X190094500Y-67303673D01*
X190094500Y-67409127D01*
X190118570Y-67498959D01*
X190121794Y-67510992D01*
X190174516Y-67602308D01*
X190174518Y-67602310D01*
X190174520Y-67602313D01*
X192507905Y-69935698D01*
X192535681Y-69990213D01*
X192536900Y-70005700D01*
X192536900Y-70214600D01*
X192517993Y-70272791D01*
X192468493Y-70308755D01*
X192437900Y-70313600D01*
X192306043Y-70313600D01*
X192153316Y-70354523D01*
X192016384Y-70433580D01*
X191904580Y-70545384D01*
X191825523Y-70682316D01*
X191784600Y-70835043D01*
X191784600Y-70993157D01*
X191825523Y-71145884D01*
X191904580Y-71282816D01*
X192016384Y-71394620D01*
X192123849Y-71456664D01*
X192164789Y-71502133D01*
X192166634Y-71519688D01*
X192177329Y-71514926D01*
X192191473Y-71503474D01*
X192204597Y-71502786D01*
X192216603Y-71497441D01*
X192252573Y-71500272D01*
X192306043Y-71514600D01*
X192306044Y-71514600D01*
X192437900Y-71514600D01*
X192496091Y-71533507D01*
X192532055Y-71583007D01*
X192536900Y-71613600D01*
X192536900Y-71756657D01*
X192517993Y-71814848D01*
X192468493Y-71850812D01*
X192407307Y-71850812D01*
X192367898Y-71826662D01*
X192284916Y-71743680D01*
X192177450Y-71681635D01*
X192165273Y-71668111D01*
X192150013Y-71658201D01*
X192145303Y-71645932D01*
X192136510Y-71636166D01*
X192134664Y-71618610D01*
X192084697Y-71640858D01*
X192048726Y-71638027D01*
X191995257Y-71623700D01*
X191837143Y-71623700D01*
X191684416Y-71664623D01*
X191547484Y-71743680D01*
X191526558Y-71764605D01*
X191472044Y-71792381D01*
X191456557Y-71793600D01*
X186065800Y-71793600D01*
X186007609Y-71774693D01*
X185971645Y-71725193D01*
X185966800Y-71694600D01*
X185966800Y-65861849D01*
X185985707Y-65803658D01*
X186035207Y-65767694D01*
X186096393Y-65767694D01*
X186110745Y-65773640D01*
X186243353Y-65841208D01*
X186243359Y-65841210D01*
X186243361Y-65841211D01*
X186415591Y-65897171D01*
X186487136Y-65908502D01*
X186594451Y-65925500D01*
X186594454Y-65925500D01*
X186775549Y-65925500D01*
X186864977Y-65911335D01*
X186954409Y-65897171D01*
X187126639Y-65841211D01*
X187287994Y-65758996D01*
X187434501Y-65652553D01*
X187562553Y-65524501D01*
X187668996Y-65377994D01*
X187751211Y-65216639D01*
X187807171Y-65044409D01*
X187835500Y-64865546D01*
X187835500Y-64684454D01*
X187835500Y-64684450D01*
X187807171Y-64505593D01*
X187807171Y-64505591D01*
X187751211Y-64333361D01*
X187668996Y-64172006D01*
X187562553Y-64025499D01*
X187434501Y-63897447D01*
X187287994Y-63791004D01*
X187287993Y-63791003D01*
X187287991Y-63791002D01*
X187126637Y-63708788D01*
X186954406Y-63652828D01*
X186775549Y-63624500D01*
X186775546Y-63624500D01*
X186594454Y-63624500D01*
X186594451Y-63624500D01*
X186415593Y-63652828D01*
X186243362Y-63708788D01*
X186110745Y-63776360D01*
X186050313Y-63785931D01*
X185995796Y-63758153D01*
X185968019Y-63703637D01*
X185966800Y-63688150D01*
X185966800Y-63321849D01*
X185985707Y-63263658D01*
X186035207Y-63227694D01*
X186096393Y-63227694D01*
X186110745Y-63233640D01*
X186243353Y-63301208D01*
X186243359Y-63301210D01*
X186243361Y-63301211D01*
X186415591Y-63357171D01*
X186487136Y-63368502D01*
X186594451Y-63385500D01*
X186594454Y-63385500D01*
X186775549Y-63385500D01*
X186864977Y-63371335D01*
X186954409Y-63357171D01*
X187126639Y-63301211D01*
X187287994Y-63218996D01*
X187434501Y-63112553D01*
X187562553Y-62984501D01*
X187668996Y-62837994D01*
X187751211Y-62676639D01*
X187807171Y-62504409D01*
X187835018Y-62328592D01*
X187835500Y-62325549D01*
X187835500Y-62144450D01*
X187807171Y-61965593D01*
X187807171Y-61965591D01*
X187751211Y-61793361D01*
X187668996Y-61632006D01*
X187562553Y-61485499D01*
X187434501Y-61357447D01*
X187287994Y-61251004D01*
X187287993Y-61251003D01*
X187287991Y-61251002D01*
X187126637Y-61168788D01*
X186954406Y-61112828D01*
X186775549Y-61084500D01*
X186775546Y-61084500D01*
X186594454Y-61084500D01*
X186594451Y-61084500D01*
X186415593Y-61112828D01*
X186243362Y-61168788D01*
X186110745Y-61236360D01*
X186050313Y-61245931D01*
X185995796Y-61218153D01*
X185968019Y-61163637D01*
X185966800Y-61148150D01*
X185966800Y-58594300D01*
X185985707Y-58536109D01*
X185995790Y-58524302D01*
X186805480Y-57714613D01*
X186806638Y-57712608D01*
X186858205Y-57623292D01*
X186858205Y-57623290D01*
X186858207Y-57623288D01*
X186885500Y-57521427D01*
X186885500Y-57512839D01*
X186904407Y-57454648D01*
X186939552Y-57424631D01*
X187087994Y-57348996D01*
X187234501Y-57242553D01*
X187362553Y-57114501D01*
X187468996Y-56967994D01*
X187551211Y-56806639D01*
X187607171Y-56634409D01*
X187635500Y-56455546D01*
X187635500Y-56274454D01*
X187635500Y-56274450D01*
X187607171Y-56095593D01*
X187607171Y-56095591D01*
X187551211Y-55923361D01*
X187468996Y-55762006D01*
X187362553Y-55615499D01*
X187234501Y-55487447D01*
X187087994Y-55381004D01*
X187087993Y-55381003D01*
X187087991Y-55381002D01*
X186926639Y-55298789D01*
X186801524Y-55258137D01*
X186752024Y-55222173D01*
X186733117Y-55163982D01*
X186752024Y-55105791D01*
X186762110Y-55093982D01*
X186805480Y-55050613D01*
X186858207Y-54959288D01*
X186858208Y-54959281D01*
X186860691Y-54953290D01*
X186862319Y-54953964D01*
X186891060Y-54909690D01*
X186922788Y-54892461D01*
X186926639Y-54891211D01*
X187087994Y-54808996D01*
X187234501Y-54702553D01*
X187362553Y-54574501D01*
X187468996Y-54427994D01*
X187551211Y-54266639D01*
X187607171Y-54094409D01*
X187635500Y-53915546D01*
X187635500Y-53734454D01*
X187635500Y-53734450D01*
X187607171Y-53555593D01*
X187607171Y-53555591D01*
X187551211Y-53383361D01*
X187468996Y-53222006D01*
X187362553Y-53075499D01*
X187234501Y-52947447D01*
X187087994Y-52841004D01*
X187087993Y-52841003D01*
X187087991Y-52841002D01*
X186926637Y-52758788D01*
X186754406Y-52702828D01*
X186575549Y-52674500D01*
X186575546Y-52674500D01*
X186394454Y-52674500D01*
X186394451Y-52674500D01*
X186215593Y-52702828D01*
X186043362Y-52758788D01*
X185882008Y-52841002D01*
X185857242Y-52858996D01*
X185735499Y-52947447D01*
X185607447Y-53075499D01*
X185576970Y-53117447D01*
X185501002Y-53222008D01*
X185418788Y-53383362D01*
X185362828Y-53555593D01*
X185334500Y-53734450D01*
X185334500Y-53915549D01*
X185362828Y-54094406D01*
X185418788Y-54266637D01*
X185457806Y-54343215D01*
X185501004Y-54427994D01*
X185607447Y-54574501D01*
X185735499Y-54702553D01*
X185806940Y-54754457D01*
X185842903Y-54803956D01*
X185842903Y-54865142D01*
X185818752Y-54904553D01*
X185024553Y-55698752D01*
X184970036Y-55726529D01*
X184909604Y-55716958D01*
X184874458Y-55686941D01*
X184822553Y-55615499D01*
X184694501Y-55487447D01*
X184547994Y-55381004D01*
X184547993Y-55381003D01*
X184547991Y-55381002D01*
X184386637Y-55298788D01*
X184214406Y-55242828D01*
X184035549Y-55214500D01*
X184035546Y-55214500D01*
X183854454Y-55214500D01*
X183854451Y-55214500D01*
X183675593Y-55242828D01*
X183503362Y-55298788D01*
X183342008Y-55381002D01*
X183268752Y-55434225D01*
X183195499Y-55487447D01*
X183067447Y-55615499D01*
X183034147Y-55661333D01*
X182961002Y-55762008D01*
X182878788Y-55923362D01*
X182822828Y-56095593D01*
X182794500Y-56274450D01*
X182794500Y-56455549D01*
X182822828Y-56634406D01*
X182878788Y-56806637D01*
X182950899Y-56948163D01*
X182961004Y-56967994D01*
X183067447Y-57114501D01*
X183195499Y-57242553D01*
X183342006Y-57348996D01*
X183503361Y-57431211D01*
X183675591Y-57487171D01*
X183747136Y-57498502D01*
X183854451Y-57515500D01*
X183854454Y-57515500D01*
X184035549Y-57515500D01*
X184124977Y-57501335D01*
X184214409Y-57487171D01*
X184386639Y-57431211D01*
X184547994Y-57348996D01*
X184657310Y-57269573D01*
X184715500Y-57250666D01*
X184773690Y-57269573D01*
X184809654Y-57319073D01*
X184814500Y-57349666D01*
X184814500Y-58034499D01*
X184795593Y-58092690D01*
X184785504Y-58104503D01*
X182720916Y-60169091D01*
X182668193Y-60260411D01*
X182668192Y-60260411D01*
X182668193Y-60260412D01*
X182640900Y-60362273D01*
X182640900Y-61404839D01*
X182621993Y-61463030D01*
X182572493Y-61498994D01*
X182511307Y-61498994D01*
X182471898Y-61474844D01*
X182354501Y-61357447D01*
X182207994Y-61251004D01*
X182207993Y-61251003D01*
X182207991Y-61251002D01*
X182046637Y-61168788D01*
X181874406Y-61112828D01*
X181695549Y-61084500D01*
X181695546Y-61084500D01*
X181514454Y-61084500D01*
X181514451Y-61084500D01*
X181335593Y-61112828D01*
X181163362Y-61168788D01*
X181002008Y-61251002D01*
X180960823Y-61280925D01*
X180855499Y-61357447D01*
X180727447Y-61485499D01*
X180717643Y-61498994D01*
X180714592Y-61503193D01*
X180665091Y-61539156D01*
X180603906Y-61539155D01*
X180554406Y-61503190D01*
X180535500Y-61445001D01*
X180535500Y-57349666D01*
X180554407Y-57291475D01*
X180603907Y-57255511D01*
X180665093Y-57255511D01*
X180692689Y-57269572D01*
X180722835Y-57291475D01*
X180789933Y-57340225D01*
X180802006Y-57348996D01*
X180963361Y-57431211D01*
X181135591Y-57487171D01*
X181207136Y-57498502D01*
X181314451Y-57515500D01*
X181314454Y-57515500D01*
X181495549Y-57515500D01*
X181584977Y-57501335D01*
X181674409Y-57487171D01*
X181846639Y-57431211D01*
X182007994Y-57348996D01*
X182154501Y-57242553D01*
X182282553Y-57114501D01*
X182388996Y-56967994D01*
X182471211Y-56806639D01*
X182527171Y-56634409D01*
X182555500Y-56455546D01*
X182555500Y-56274454D01*
X182555500Y-56274450D01*
X182527171Y-56095593D01*
X182527171Y-56095591D01*
X182471211Y-55923361D01*
X182388996Y-55762006D01*
X182282553Y-55615499D01*
X182154501Y-55487447D01*
X182007994Y-55381004D01*
X182007993Y-55381003D01*
X182007991Y-55381002D01*
X181846637Y-55298788D01*
X181674406Y-55242828D01*
X181495549Y-55214500D01*
X181495546Y-55214500D01*
X181314454Y-55214500D01*
X181314451Y-55214500D01*
X181135593Y-55242828D01*
X180963362Y-55298788D01*
X180802008Y-55381002D01*
X180728752Y-55434225D01*
X180655499Y-55487447D01*
X180655497Y-55487449D01*
X180527441Y-55615505D01*
X180520270Y-55625375D01*
X180470768Y-55661336D01*
X180409583Y-55661333D01*
X180370177Y-55637184D01*
X179592815Y-54859822D01*
X179565038Y-54805305D01*
X179574609Y-54744873D01*
X179604632Y-54709723D01*
X179614501Y-54702553D01*
X179742553Y-54574501D01*
X179848996Y-54427994D01*
X179931211Y-54266639D01*
X179987171Y-54094409D01*
X180015500Y-53915546D01*
X180015500Y-53734454D01*
X180015500Y-53734450D01*
X180254500Y-53734450D01*
X180254500Y-53915549D01*
X180282828Y-54094406D01*
X180338788Y-54266637D01*
X180377806Y-54343215D01*
X180421004Y-54427994D01*
X180527447Y-54574501D01*
X180655499Y-54702553D01*
X180802006Y-54808996D01*
X180963361Y-54891211D01*
X181135591Y-54947171D01*
X181207136Y-54958502D01*
X181314451Y-54975500D01*
X181314454Y-54975500D01*
X181495549Y-54975500D01*
X181597905Y-54959288D01*
X181674409Y-54947171D01*
X181846639Y-54891211D01*
X182007994Y-54808996D01*
X182154501Y-54702553D01*
X182282553Y-54574501D01*
X182388996Y-54427994D01*
X182471211Y-54266639D01*
X182527171Y-54094409D01*
X182555500Y-53915546D01*
X182555500Y-53734454D01*
X182555500Y-53734450D01*
X182794500Y-53734450D01*
X182794500Y-53915549D01*
X182822828Y-54094406D01*
X182878788Y-54266637D01*
X182917806Y-54343215D01*
X182961004Y-54427994D01*
X183067447Y-54574501D01*
X183195499Y-54702553D01*
X183342006Y-54808996D01*
X183503361Y-54891211D01*
X183675591Y-54947171D01*
X183747136Y-54958502D01*
X183854451Y-54975500D01*
X183854454Y-54975500D01*
X184035549Y-54975500D01*
X184137905Y-54959288D01*
X184214409Y-54947171D01*
X184386639Y-54891211D01*
X184547994Y-54808996D01*
X184694501Y-54702553D01*
X184822553Y-54574501D01*
X184928996Y-54427994D01*
X185011211Y-54266639D01*
X185067171Y-54094409D01*
X185095500Y-53915546D01*
X185095500Y-53734454D01*
X185095500Y-53734450D01*
X185067171Y-53555593D01*
X185067171Y-53555591D01*
X185011211Y-53383361D01*
X184928996Y-53222006D01*
X184822553Y-53075499D01*
X184694501Y-52947447D01*
X184547994Y-52841004D01*
X184547993Y-52841003D01*
X184547991Y-52841002D01*
X184386637Y-52758788D01*
X184214406Y-52702828D01*
X184035549Y-52674500D01*
X184035546Y-52674500D01*
X183854454Y-52674500D01*
X183854451Y-52674500D01*
X183675593Y-52702828D01*
X183503362Y-52758788D01*
X183342008Y-52841002D01*
X183317242Y-52858996D01*
X183195499Y-52947447D01*
X183067447Y-53075499D01*
X183036970Y-53117447D01*
X182961002Y-53222008D01*
X182878788Y-53383362D01*
X182822828Y-53555593D01*
X182794500Y-53734450D01*
X182555500Y-53734450D01*
X182527171Y-53555593D01*
X182527171Y-53555591D01*
X182471211Y-53383361D01*
X182388996Y-53222006D01*
X182282553Y-53075499D01*
X182154501Y-52947447D01*
X182007994Y-52841004D01*
X182007993Y-52841003D01*
X182007991Y-52841002D01*
X181846637Y-52758788D01*
X181674406Y-52702828D01*
X181495549Y-52674500D01*
X181495546Y-52674500D01*
X181314454Y-52674500D01*
X181314451Y-52674500D01*
X181135593Y-52702828D01*
X180963362Y-52758788D01*
X180802008Y-52841002D01*
X180777242Y-52858996D01*
X180655499Y-52947447D01*
X180527447Y-53075499D01*
X180496970Y-53117447D01*
X180421002Y-53222008D01*
X180338788Y-53383362D01*
X180282828Y-53555593D01*
X180254500Y-53734450D01*
X180015500Y-53734450D01*
X179987171Y-53555593D01*
X179987171Y-53555591D01*
X179931211Y-53383361D01*
X179848996Y-53222006D01*
X179742553Y-53075499D01*
X179614501Y-52947447D01*
X179467994Y-52841004D01*
X179467993Y-52841003D01*
X179467991Y-52841002D01*
X179306637Y-52758788D01*
X179134406Y-52702828D01*
X178955549Y-52674500D01*
X178955546Y-52674500D01*
X178774454Y-52674500D01*
X178774451Y-52674500D01*
X178595593Y-52702828D01*
X178423362Y-52758788D01*
X178262008Y-52841002D01*
X178237242Y-52858996D01*
X178115499Y-52947447D01*
X177987447Y-53075499D01*
X177956970Y-53117447D01*
X177881002Y-53222008D01*
X177798788Y-53383362D01*
X177742828Y-53555593D01*
X177714500Y-53734450D01*
X177714500Y-53915549D01*
X177742828Y-54094406D01*
X177798788Y-54266637D01*
X177837806Y-54343215D01*
X177881004Y-54427994D01*
X177987447Y-54574501D01*
X178115499Y-54702553D01*
X178262006Y-54808996D01*
X178410446Y-54884630D01*
X178453710Y-54927894D01*
X178464500Y-54972839D01*
X178464500Y-54979427D01*
X178491793Y-55081287D01*
X178525595Y-55139834D01*
X178538316Y-55199682D01*
X178513429Y-55255577D01*
X178470452Y-55283487D01*
X178423364Y-55298787D01*
X178262008Y-55381002D01*
X178188752Y-55434225D01*
X178115499Y-55487447D01*
X177987447Y-55615499D01*
X177954147Y-55661333D01*
X177881002Y-55762008D01*
X177798787Y-55923364D01*
X177798786Y-55923366D01*
X177794035Y-55937988D01*
X177758069Y-55987486D01*
X177699878Y-56006391D01*
X177641688Y-55987481D01*
X177605727Y-55937983D01*
X177576096Y-55846786D01*
X177479624Y-55657447D01*
X177354722Y-55485535D01*
X177204464Y-55335277D01*
X177032552Y-55210375D01*
X176843215Y-55113904D01*
X176752015Y-55084272D01*
X176702515Y-55048308D01*
X176683608Y-54990117D01*
X176702515Y-54931926D01*
X176752013Y-54895962D01*
X176752017Y-54895962D01*
X176752018Y-54895962D01*
X176766633Y-54891213D01*
X176766633Y-54891212D01*
X176766639Y-54891211D01*
X176927994Y-54808996D01*
X177074501Y-54702553D01*
X177202553Y-54574501D01*
X177308996Y-54427994D01*
X177391211Y-54266639D01*
X177447171Y-54094409D01*
X177475500Y-53915546D01*
X177475500Y-53734454D01*
X177475500Y-53734450D01*
X177447171Y-53555593D01*
X177447171Y-53555591D01*
X177391211Y-53383361D01*
X177308996Y-53222006D01*
X177202553Y-53075499D01*
X177074501Y-52947447D01*
X176927994Y-52841004D01*
X176927993Y-52841003D01*
X176927991Y-52841002D01*
X176766637Y-52758788D01*
X176594406Y-52702828D01*
X176415549Y-52674500D01*
X176415546Y-52674500D01*
X176234454Y-52674500D01*
X176234451Y-52674500D01*
X176055593Y-52702828D01*
X175883362Y-52758788D01*
X175722008Y-52841002D01*
X175697242Y-52858996D01*
X175575499Y-52947447D01*
X175447447Y-53075499D01*
X175416970Y-53117447D01*
X175341002Y-53222008D01*
X175258788Y-53383362D01*
X175202828Y-53555593D01*
X175174500Y-53734450D01*
X175174500Y-53915549D01*
X175202828Y-54094406D01*
X175258788Y-54266637D01*
X175297806Y-54343215D01*
X175341004Y-54427994D01*
X175447447Y-54574501D01*
X175575499Y-54702553D01*
X175722006Y-54808996D01*
X175883361Y-54891211D01*
X175894483Y-54894824D01*
X175897983Y-54895962D01*
X175947483Y-54931926D01*
X175966391Y-54990116D01*
X175947484Y-55048307D01*
X175897985Y-55084271D01*
X175897984Y-55084272D01*
X175806784Y-55113904D01*
X175617447Y-55210375D01*
X175445535Y-55335277D01*
X175295277Y-55485535D01*
X175170375Y-55657448D01*
X175073908Y-55846776D01*
X175073904Y-55846785D01*
X175056980Y-55898871D01*
X175021015Y-55948371D01*
X174962824Y-55967277D01*
X174953697Y-55966855D01*
X174945321Y-55966079D01*
X174939427Y-55964500D01*
X174928267Y-55964500D01*
X174923710Y-55964078D01*
X174899608Y-55953702D01*
X174874648Y-55945593D01*
X174871089Y-55941426D01*
X174867511Y-55939886D01*
X174862343Y-55931186D01*
X174844631Y-55910447D01*
X174768996Y-55762006D01*
X174662553Y-55615499D01*
X174534501Y-55487447D01*
X174387994Y-55381004D01*
X174387993Y-55381003D01*
X174387991Y-55381002D01*
X174226635Y-55298787D01*
X174226632Y-55298785D01*
X174179548Y-55283487D01*
X174130048Y-55247523D01*
X174111141Y-55189332D01*
X174124404Y-55139835D01*
X174158207Y-55081287D01*
X174185500Y-54979427D01*
X174185500Y-54972839D01*
X174204407Y-54914648D01*
X174239552Y-54884631D01*
X174387994Y-54808996D01*
X174534501Y-54702553D01*
X174662553Y-54574501D01*
X174768996Y-54427994D01*
X174851211Y-54266639D01*
X174907171Y-54094409D01*
X174935500Y-53915546D01*
X174935500Y-53734454D01*
X174935500Y-53734450D01*
X174907171Y-53555593D01*
X174907171Y-53555591D01*
X174851211Y-53383361D01*
X174768996Y-53222006D01*
X174662553Y-53075499D01*
X174534501Y-52947447D01*
X174387994Y-52841004D01*
X174387993Y-52841003D01*
X174387991Y-52841002D01*
X174226637Y-52758788D01*
X174054406Y-52702828D01*
X173875549Y-52674500D01*
X173875546Y-52674500D01*
X173694454Y-52674500D01*
X173694451Y-52674500D01*
X173515593Y-52702828D01*
X173343362Y-52758788D01*
X173182008Y-52841002D01*
X173157242Y-52858996D01*
X173035499Y-52947447D01*
X172907447Y-53075499D01*
X172876970Y-53117447D01*
X172801002Y-53222008D01*
X172718788Y-53383362D01*
X172662828Y-53555593D01*
X172634500Y-53734450D01*
X172634500Y-53915549D01*
X172662828Y-54094406D01*
X172718788Y-54266637D01*
X172757806Y-54343215D01*
X172801004Y-54427994D01*
X172907447Y-54574501D01*
X173035499Y-54702553D01*
X173097846Y-54747850D01*
X173133809Y-54797349D01*
X173133810Y-54858534D01*
X173109659Y-54897945D01*
X172358720Y-55648886D01*
X172358716Y-55648891D01*
X172305994Y-55740208D01*
X172305992Y-55740212D01*
X172295381Y-55779811D01*
X172295382Y-55779812D01*
X172295382Y-55779813D01*
X172278700Y-55842073D01*
X172278700Y-57234773D01*
X172278700Y-57340227D01*
X172301245Y-57424369D01*
X172305994Y-57442092D01*
X172358716Y-57533408D01*
X172358718Y-57533410D01*
X172358720Y-57533413D01*
X174198102Y-59372794D01*
X175929415Y-61104107D01*
X175957192Y-61158624D01*
X175947621Y-61219056D01*
X175917602Y-61254203D01*
X175775499Y-61357447D01*
X175647447Y-61485499D01*
X175634594Y-61503190D01*
X175541002Y-61632008D01*
X175458788Y-61793362D01*
X175402828Y-61965593D01*
X175374500Y-62144450D01*
X175374500Y-62227199D01*
X175355593Y-62285390D01*
X175345504Y-62297203D01*
X171851416Y-65791291D01*
X171798694Y-65882608D01*
X171798692Y-65882612D01*
X171786148Y-65929425D01*
X171786149Y-65929426D01*
X171771400Y-65984472D01*
X171771400Y-73635627D01*
X171758137Y-73685126D01*
X171708723Y-73770714D01*
X171681441Y-73872534D01*
X171667800Y-73923443D01*
X169360503Y-73923443D01*
X169335577Y-73830416D01*
X169256520Y-73693484D01*
X169144716Y-73581680D01*
X169007784Y-73502623D01*
X168855057Y-73461700D01*
X168696943Y-73461700D01*
X168544216Y-73502623D01*
X168407284Y-73581680D01*
X168295480Y-73693484D01*
X168216423Y-73830416D01*
X168175500Y-73983143D01*
X161900500Y-73983143D01*
X161900500Y-55002585D01*
X161900636Y-54997404D01*
X161901937Y-54972585D01*
X161915704Y-54709880D01*
X161916185Y-54704032D01*
X161923694Y-54637387D01*
X161924276Y-54633095D01*
X161964013Y-54382210D01*
X161965266Y-54375718D01*
X161978842Y-54316238D01*
X161979710Y-54312738D01*
X162047238Y-54060718D01*
X162049404Y-54053696D01*
X162065631Y-54007324D01*
X162066556Y-54004803D01*
X162164611Y-53749362D01*
X162167816Y-53741939D01*
X162179179Y-53718342D01*
X162180070Y-53716545D01*
X162313409Y-53454850D01*
X162318573Y-53445907D01*
X162489634Y-53182498D01*
X162495704Y-53174143D01*
X162693361Y-52930057D01*
X162700276Y-52922376D01*
X162922376Y-52700276D01*
X162930057Y-52693361D01*
X163174143Y-52495704D01*
X163182498Y-52489634D01*
X163445907Y-52318573D01*
X163454850Y-52313409D01*
X163716545Y-52180070D01*
X163718342Y-52179179D01*
X163741939Y-52167816D01*
X163749362Y-52164611D01*
X164004803Y-52066556D01*
X164007324Y-52065631D01*
X164053696Y-52049404D01*
X164060718Y-52047238D01*
X164312738Y-51979710D01*
X164316238Y-51978842D01*
X164375718Y-51965266D01*
X164382210Y-51964013D01*
X164633095Y-51924276D01*
X164637387Y-51923694D01*
X164704032Y-51916185D01*
X164709880Y-51915704D01*
X164997405Y-51900636D01*
X165002586Y-51900500D01*
X193356957Y-51900500D01*
X193415148Y-51919407D01*
G37*
%TD.AperFunction*%
%TA.AperFunction,Conductor*%
G36*
X196375000Y-55931988D02*
G01*
X196317993Y-55899075D01*
X196190826Y-55865000D01*
X196059174Y-55865000D01*
X195932007Y-55899075D01*
X195875000Y-55931988D01*
X195875000Y-54258012D01*
X195932007Y-54290925D01*
X196059174Y-54325000D01*
X196190826Y-54325000D01*
X196317993Y-54290925D01*
X196375000Y-54258012D01*
X196375000Y-55931988D01*
G37*
%TD.AperFunction*%
%TD*%
M02*
