%TF.GenerationSoftware,KiCad,Pcbnew,9.0.2+dfsg-1*%
%TF.CreationDate,2026-07-05T03:24:00-07:00*%
%TF.ProjectId,teacup-t41,74656163-7570-42d7-9434-312e6b696361,[C]3.3*%
%TF.SameCoordinates,Original*%
%TF.FileFunction,AssemblyDrawing,Bot*%
%FSLAX46Y46*%
G04 Gerber Fmt 4.6, Leading zero omitted, Abs format (unit mm)*
G04 Created by KiCad (PCBNEW 9.0.2+dfsg-1) date 2026-07-05 03:24:00*
%MOMM*%
%LPD*%
G01*
G04 APERTURE LIST*
%ADD10C,0.150000*%
%ADD11C,0.080000*%
%ADD12C,0.120000*%
%ADD13C,0.040000*%
%ADD14C,0.060000*%
%ADD15C,0.254000*%
%ADD16C,0.100000*%
G04 APERTURE END LIST*
D10*
X185642856Y-102230057D02*
X185595237Y-102182438D01*
X185595237Y-102182438D02*
X185499999Y-102134819D01*
X185499999Y-102134819D02*
X185261904Y-102134819D01*
X185261904Y-102134819D02*
X185166666Y-102182438D01*
X185166666Y-102182438D02*
X185119047Y-102230057D01*
X185119047Y-102230057D02*
X185071428Y-102325295D01*
X185071428Y-102325295D02*
X185071428Y-102420533D01*
X185071428Y-102420533D02*
X185119047Y-102563390D01*
X185119047Y-102563390D02*
X185690475Y-103134819D01*
X185690475Y-103134819D02*
X185071428Y-103134819D01*
X184690475Y-102230057D02*
X184642856Y-102182438D01*
X184642856Y-102182438D02*
X184547618Y-102134819D01*
X184547618Y-102134819D02*
X184309523Y-102134819D01*
X184309523Y-102134819D02*
X184214285Y-102182438D01*
X184214285Y-102182438D02*
X184166666Y-102230057D01*
X184166666Y-102230057D02*
X184119047Y-102325295D01*
X184119047Y-102325295D02*
X184119047Y-102420533D01*
X184119047Y-102420533D02*
X184166666Y-102563390D01*
X184166666Y-102563390D02*
X184738094Y-103134819D01*
X184738094Y-103134819D02*
X184119047Y-103134819D01*
X183261904Y-102468152D02*
X183261904Y-103134819D01*
X183690475Y-102468152D02*
X183690475Y-102991961D01*
X183690475Y-102991961D02*
X183642856Y-103087200D01*
X183642856Y-103087200D02*
X183547618Y-103134819D01*
X183547618Y-103134819D02*
X183404761Y-103134819D01*
X183404761Y-103134819D02*
X183309523Y-103087200D01*
X183309523Y-103087200D02*
X183261904Y-103039580D01*
X182452380Y-102611009D02*
X182785713Y-102611009D01*
X182785713Y-103134819D02*
X182785713Y-102134819D01*
X182785713Y-102134819D02*
X182309523Y-102134819D01*
D11*
X184321428Y-101179530D02*
X184345237Y-101203340D01*
X184345237Y-101203340D02*
X184416666Y-101227149D01*
X184416666Y-101227149D02*
X184464285Y-101227149D01*
X184464285Y-101227149D02*
X184535713Y-101203340D01*
X184535713Y-101203340D02*
X184583332Y-101155720D01*
X184583332Y-101155720D02*
X184607142Y-101108101D01*
X184607142Y-101108101D02*
X184630951Y-101012863D01*
X184630951Y-101012863D02*
X184630951Y-100941435D01*
X184630951Y-100941435D02*
X184607142Y-100846197D01*
X184607142Y-100846197D02*
X184583332Y-100798578D01*
X184583332Y-100798578D02*
X184535713Y-100750959D01*
X184535713Y-100750959D02*
X184464285Y-100727149D01*
X184464285Y-100727149D02*
X184416666Y-100727149D01*
X184416666Y-100727149D02*
X184345237Y-100750959D01*
X184345237Y-100750959D02*
X184321428Y-100774768D01*
X183892856Y-100893816D02*
X183892856Y-101227149D01*
X184011904Y-100703340D02*
X184130951Y-101060482D01*
X184130951Y-101060482D02*
X183821428Y-101060482D01*
X183607142Y-101227149D02*
X183511904Y-101227149D01*
X183511904Y-101227149D02*
X183464285Y-101203340D01*
X183464285Y-101203340D02*
X183440476Y-101179530D01*
X183440476Y-101179530D02*
X183392857Y-101108101D01*
X183392857Y-101108101D02*
X183369047Y-101012863D01*
X183369047Y-101012863D02*
X183369047Y-100822387D01*
X183369047Y-100822387D02*
X183392857Y-100774768D01*
X183392857Y-100774768D02*
X183416666Y-100750959D01*
X183416666Y-100750959D02*
X183464285Y-100727149D01*
X183464285Y-100727149D02*
X183559523Y-100727149D01*
X183559523Y-100727149D02*
X183607142Y-100750959D01*
X183607142Y-100750959D02*
X183630952Y-100774768D01*
X183630952Y-100774768D02*
X183654761Y-100822387D01*
X183654761Y-100822387D02*
X183654761Y-100941435D01*
X183654761Y-100941435D02*
X183630952Y-100989054D01*
X183630952Y-100989054D02*
X183607142Y-101012863D01*
X183607142Y-101012863D02*
X183559523Y-101036673D01*
X183559523Y-101036673D02*
X183464285Y-101036673D01*
X183464285Y-101036673D02*
X183416666Y-101012863D01*
X183416666Y-101012863D02*
X183392857Y-100989054D01*
X183392857Y-100989054D02*
X183369047Y-100941435D01*
D10*
X205976189Y-99830057D02*
X205928570Y-99782438D01*
X205928570Y-99782438D02*
X205833332Y-99734819D01*
X205833332Y-99734819D02*
X205595237Y-99734819D01*
X205595237Y-99734819D02*
X205499999Y-99782438D01*
X205499999Y-99782438D02*
X205452380Y-99830057D01*
X205452380Y-99830057D02*
X205404761Y-99925295D01*
X205404761Y-99925295D02*
X205404761Y-100020533D01*
X205404761Y-100020533D02*
X205452380Y-100163390D01*
X205452380Y-100163390D02*
X206023808Y-100734819D01*
X206023808Y-100734819D02*
X205404761Y-100734819D01*
X204976189Y-100639580D02*
X204928570Y-100687200D01*
X204928570Y-100687200D02*
X204976189Y-100734819D01*
X204976189Y-100734819D02*
X205023808Y-100687200D01*
X205023808Y-100687200D02*
X204976189Y-100639580D01*
X204976189Y-100639580D02*
X204976189Y-100734819D01*
X204547618Y-99830057D02*
X204499999Y-99782438D01*
X204499999Y-99782438D02*
X204404761Y-99734819D01*
X204404761Y-99734819D02*
X204166666Y-99734819D01*
X204166666Y-99734819D02*
X204071428Y-99782438D01*
X204071428Y-99782438D02*
X204023809Y-99830057D01*
X204023809Y-99830057D02*
X203976190Y-99925295D01*
X203976190Y-99925295D02*
X203976190Y-100020533D01*
X203976190Y-100020533D02*
X204023809Y-100163390D01*
X204023809Y-100163390D02*
X204595237Y-100734819D01*
X204595237Y-100734819D02*
X203976190Y-100734819D01*
X203119047Y-100068152D02*
X203119047Y-100734819D01*
X203547618Y-100068152D02*
X203547618Y-100591961D01*
X203547618Y-100591961D02*
X203499999Y-100687200D01*
X203499999Y-100687200D02*
X203404761Y-100734819D01*
X203404761Y-100734819D02*
X203261904Y-100734819D01*
X203261904Y-100734819D02*
X203166666Y-100687200D01*
X203166666Y-100687200D02*
X203119047Y-100639580D01*
X202642856Y-100734819D02*
X202642856Y-99734819D01*
X202642856Y-100211009D02*
X202071428Y-100211009D01*
X202071428Y-100734819D02*
X202071428Y-99734819D01*
D12*
X204133333Y-98363855D02*
X204514285Y-98363855D01*
X204514285Y-98363855D02*
X204514285Y-97563855D01*
X203904762Y-97640045D02*
X203866666Y-97601950D01*
X203866666Y-97601950D02*
X203790476Y-97563855D01*
X203790476Y-97563855D02*
X203600000Y-97563855D01*
X203600000Y-97563855D02*
X203523809Y-97601950D01*
X203523809Y-97601950D02*
X203485714Y-97640045D01*
X203485714Y-97640045D02*
X203447619Y-97716236D01*
X203447619Y-97716236D02*
X203447619Y-97792426D01*
X203447619Y-97792426D02*
X203485714Y-97906712D01*
X203485714Y-97906712D02*
X203942857Y-98363855D01*
X203942857Y-98363855D02*
X203447619Y-98363855D01*
D10*
X181071428Y-102624819D02*
X181642856Y-102624819D01*
X181357142Y-102624819D02*
X181357142Y-101624819D01*
X181357142Y-101624819D02*
X181452380Y-101767676D01*
X181452380Y-101767676D02*
X181547618Y-101862914D01*
X181547618Y-101862914D02*
X181642856Y-101910533D01*
X180452380Y-101624819D02*
X180357142Y-101624819D01*
X180357142Y-101624819D02*
X180261904Y-101672438D01*
X180261904Y-101672438D02*
X180214285Y-101720057D01*
X180214285Y-101720057D02*
X180166666Y-101815295D01*
X180166666Y-101815295D02*
X180119047Y-102005771D01*
X180119047Y-102005771D02*
X180119047Y-102243866D01*
X180119047Y-102243866D02*
X180166666Y-102434342D01*
X180166666Y-102434342D02*
X180214285Y-102529580D01*
X180214285Y-102529580D02*
X180261904Y-102577200D01*
X180261904Y-102577200D02*
X180357142Y-102624819D01*
X180357142Y-102624819D02*
X180452380Y-102624819D01*
X180452380Y-102624819D02*
X180547618Y-102577200D01*
X180547618Y-102577200D02*
X180595237Y-102529580D01*
X180595237Y-102529580D02*
X180642856Y-102434342D01*
X180642856Y-102434342D02*
X180690475Y-102243866D01*
X180690475Y-102243866D02*
X180690475Y-102005771D01*
X180690475Y-102005771D02*
X180642856Y-101815295D01*
X180642856Y-101815295D02*
X180595237Y-101720057D01*
X180595237Y-101720057D02*
X180547618Y-101672438D01*
X180547618Y-101672438D02*
X180452380Y-101624819D01*
X179499999Y-101624819D02*
X179404761Y-101624819D01*
X179404761Y-101624819D02*
X179309523Y-101672438D01*
X179309523Y-101672438D02*
X179261904Y-101720057D01*
X179261904Y-101720057D02*
X179214285Y-101815295D01*
X179214285Y-101815295D02*
X179166666Y-102005771D01*
X179166666Y-102005771D02*
X179166666Y-102243866D01*
X179166666Y-102243866D02*
X179214285Y-102434342D01*
X179214285Y-102434342D02*
X179261904Y-102529580D01*
X179261904Y-102529580D02*
X179309523Y-102577200D01*
X179309523Y-102577200D02*
X179404761Y-102624819D01*
X179404761Y-102624819D02*
X179499999Y-102624819D01*
X179499999Y-102624819D02*
X179595237Y-102577200D01*
X179595237Y-102577200D02*
X179642856Y-102529580D01*
X179642856Y-102529580D02*
X179690475Y-102434342D01*
X179690475Y-102434342D02*
X179738094Y-102243866D01*
X179738094Y-102243866D02*
X179738094Y-102005771D01*
X179738094Y-102005771D02*
X179690475Y-101815295D01*
X179690475Y-101815295D02*
X179642856Y-101720057D01*
X179642856Y-101720057D02*
X179595237Y-101672438D01*
X179595237Y-101672438D02*
X179499999Y-101624819D01*
X178738094Y-102624819D02*
X178738094Y-101624819D01*
X178642856Y-102243866D02*
X178357142Y-102624819D01*
X178357142Y-101958152D02*
X178738094Y-102339104D01*
D13*
X180167142Y-101118200D02*
X180253809Y-100994391D01*
X180315714Y-101118200D02*
X180315714Y-100858200D01*
X180315714Y-100858200D02*
X180216666Y-100858200D01*
X180216666Y-100858200D02*
X180191904Y-100870581D01*
X180191904Y-100870581D02*
X180179523Y-100882962D01*
X180179523Y-100882962D02*
X180167142Y-100907724D01*
X180167142Y-100907724D02*
X180167142Y-100944867D01*
X180167142Y-100944867D02*
X180179523Y-100969629D01*
X180179523Y-100969629D02*
X180191904Y-100982010D01*
X180191904Y-100982010D02*
X180216666Y-100994391D01*
X180216666Y-100994391D02*
X180315714Y-100994391D01*
X180068095Y-100882962D02*
X180055714Y-100870581D01*
X180055714Y-100870581D02*
X180030952Y-100858200D01*
X180030952Y-100858200D02*
X179969047Y-100858200D01*
X179969047Y-100858200D02*
X179944285Y-100870581D01*
X179944285Y-100870581D02*
X179931904Y-100882962D01*
X179931904Y-100882962D02*
X179919523Y-100907724D01*
X179919523Y-100907724D02*
X179919523Y-100932486D01*
X179919523Y-100932486D02*
X179931904Y-100969629D01*
X179931904Y-100969629D02*
X180080476Y-101118200D01*
X180080476Y-101118200D02*
X179919523Y-101118200D01*
X179795714Y-101118200D02*
X179746190Y-101118200D01*
X179746190Y-101118200D02*
X179721428Y-101105820D01*
X179721428Y-101105820D02*
X179709047Y-101093439D01*
X179709047Y-101093439D02*
X179684285Y-101056296D01*
X179684285Y-101056296D02*
X179671904Y-101006772D01*
X179671904Y-101006772D02*
X179671904Y-100907724D01*
X179671904Y-100907724D02*
X179684285Y-100882962D01*
X179684285Y-100882962D02*
X179696666Y-100870581D01*
X179696666Y-100870581D02*
X179721428Y-100858200D01*
X179721428Y-100858200D02*
X179770952Y-100858200D01*
X179770952Y-100858200D02*
X179795714Y-100870581D01*
X179795714Y-100870581D02*
X179808095Y-100882962D01*
X179808095Y-100882962D02*
X179820476Y-100907724D01*
X179820476Y-100907724D02*
X179820476Y-100969629D01*
X179820476Y-100969629D02*
X179808095Y-100994391D01*
X179808095Y-100994391D02*
X179795714Y-101006772D01*
X179795714Y-101006772D02*
X179770952Y-101019153D01*
X179770952Y-101019153D02*
X179721428Y-101019153D01*
X179721428Y-101019153D02*
X179696666Y-101006772D01*
X179696666Y-101006772D02*
X179684285Y-100994391D01*
X179684285Y-100994391D02*
X179671904Y-100969629D01*
D10*
X210214285Y-99884819D02*
X210785713Y-99884819D01*
X210499999Y-99884819D02*
X210499999Y-98884819D01*
X210499999Y-98884819D02*
X210595237Y-99027676D01*
X210595237Y-99027676D02*
X210690475Y-99122914D01*
X210690475Y-99122914D02*
X210785713Y-99170533D01*
X209785713Y-99884819D02*
X209785713Y-98884819D01*
X209214285Y-99884819D02*
X209642856Y-99313390D01*
X209214285Y-98884819D02*
X209785713Y-99456247D01*
D14*
X210257142Y-98181927D02*
X210390475Y-97991451D01*
X210485713Y-98181927D02*
X210485713Y-97781927D01*
X210485713Y-97781927D02*
X210333332Y-97781927D01*
X210333332Y-97781927D02*
X210295237Y-97800975D01*
X210295237Y-97800975D02*
X210276190Y-97820022D01*
X210276190Y-97820022D02*
X210257142Y-97858118D01*
X210257142Y-97858118D02*
X210257142Y-97915260D01*
X210257142Y-97915260D02*
X210276190Y-97953356D01*
X210276190Y-97953356D02*
X210295237Y-97972403D01*
X210295237Y-97972403D02*
X210333332Y-97991451D01*
X210333332Y-97991451D02*
X210485713Y-97991451D01*
X210104761Y-97820022D02*
X210085713Y-97800975D01*
X210085713Y-97800975D02*
X210047618Y-97781927D01*
X210047618Y-97781927D02*
X209952380Y-97781927D01*
X209952380Y-97781927D02*
X209914285Y-97800975D01*
X209914285Y-97800975D02*
X209895237Y-97820022D01*
X209895237Y-97820022D02*
X209876190Y-97858118D01*
X209876190Y-97858118D02*
X209876190Y-97896213D01*
X209876190Y-97896213D02*
X209895237Y-97953356D01*
X209895237Y-97953356D02*
X210123809Y-98181927D01*
X210123809Y-98181927D02*
X209876190Y-98181927D01*
X209647619Y-97953356D02*
X209685714Y-97934308D01*
X209685714Y-97934308D02*
X209704761Y-97915260D01*
X209704761Y-97915260D02*
X209723809Y-97877165D01*
X209723809Y-97877165D02*
X209723809Y-97858118D01*
X209723809Y-97858118D02*
X209704761Y-97820022D01*
X209704761Y-97820022D02*
X209685714Y-97800975D01*
X209685714Y-97800975D02*
X209647619Y-97781927D01*
X209647619Y-97781927D02*
X209571428Y-97781927D01*
X209571428Y-97781927D02*
X209533333Y-97800975D01*
X209533333Y-97800975D02*
X209514285Y-97820022D01*
X209514285Y-97820022D02*
X209495238Y-97858118D01*
X209495238Y-97858118D02*
X209495238Y-97877165D01*
X209495238Y-97877165D02*
X209514285Y-97915260D01*
X209514285Y-97915260D02*
X209533333Y-97934308D01*
X209533333Y-97934308D02*
X209571428Y-97953356D01*
X209571428Y-97953356D02*
X209647619Y-97953356D01*
X209647619Y-97953356D02*
X209685714Y-97972403D01*
X209685714Y-97972403D02*
X209704761Y-97991451D01*
X209704761Y-97991451D02*
X209723809Y-98029546D01*
X209723809Y-98029546D02*
X209723809Y-98105737D01*
X209723809Y-98105737D02*
X209704761Y-98143832D01*
X209704761Y-98143832D02*
X209685714Y-98162880D01*
X209685714Y-98162880D02*
X209647619Y-98181927D01*
X209647619Y-98181927D02*
X209571428Y-98181927D01*
X209571428Y-98181927D02*
X209533333Y-98162880D01*
X209533333Y-98162880D02*
X209514285Y-98143832D01*
X209514285Y-98143832D02*
X209495238Y-98105737D01*
X209495238Y-98105737D02*
X209495238Y-98029546D01*
X209495238Y-98029546D02*
X209514285Y-97991451D01*
X209514285Y-97991451D02*
X209533333Y-97972403D01*
X209533333Y-97972403D02*
X209571428Y-97953356D01*
D10*
X215547619Y-99614819D02*
X216119047Y-99614819D01*
X215833333Y-99614819D02*
X215833333Y-98614819D01*
X215833333Y-98614819D02*
X215928571Y-98757676D01*
X215928571Y-98757676D02*
X216023809Y-98852914D01*
X216023809Y-98852914D02*
X216119047Y-98900533D01*
X214928571Y-98614819D02*
X214833333Y-98614819D01*
X214833333Y-98614819D02*
X214738095Y-98662438D01*
X214738095Y-98662438D02*
X214690476Y-98710057D01*
X214690476Y-98710057D02*
X214642857Y-98805295D01*
X214642857Y-98805295D02*
X214595238Y-98995771D01*
X214595238Y-98995771D02*
X214595238Y-99233866D01*
X214595238Y-99233866D02*
X214642857Y-99424342D01*
X214642857Y-99424342D02*
X214690476Y-99519580D01*
X214690476Y-99519580D02*
X214738095Y-99567200D01*
X214738095Y-99567200D02*
X214833333Y-99614819D01*
X214833333Y-99614819D02*
X214928571Y-99614819D01*
X214928571Y-99614819D02*
X215023809Y-99567200D01*
X215023809Y-99567200D02*
X215071428Y-99519580D01*
X215071428Y-99519580D02*
X215119047Y-99424342D01*
X215119047Y-99424342D02*
X215166666Y-99233866D01*
X215166666Y-99233866D02*
X215166666Y-98995771D01*
X215166666Y-98995771D02*
X215119047Y-98805295D01*
X215119047Y-98805295D02*
X215071428Y-98710057D01*
X215071428Y-98710057D02*
X215023809Y-98662438D01*
X215023809Y-98662438D02*
X214928571Y-98614819D01*
X213976190Y-98614819D02*
X213880952Y-98614819D01*
X213880952Y-98614819D02*
X213785714Y-98662438D01*
X213785714Y-98662438D02*
X213738095Y-98710057D01*
X213738095Y-98710057D02*
X213690476Y-98805295D01*
X213690476Y-98805295D02*
X213642857Y-98995771D01*
X213642857Y-98995771D02*
X213642857Y-99233866D01*
X213642857Y-99233866D02*
X213690476Y-99424342D01*
X213690476Y-99424342D02*
X213738095Y-99519580D01*
X213738095Y-99519580D02*
X213785714Y-99567200D01*
X213785714Y-99567200D02*
X213880952Y-99614819D01*
X213880952Y-99614819D02*
X213976190Y-99614819D01*
X213976190Y-99614819D02*
X214071428Y-99567200D01*
X214071428Y-99567200D02*
X214119047Y-99519580D01*
X214119047Y-99519580D02*
X214166666Y-99424342D01*
X214166666Y-99424342D02*
X214214285Y-99233866D01*
X214214285Y-99233866D02*
X214214285Y-98995771D01*
X214214285Y-98995771D02*
X214166666Y-98805295D01*
X214166666Y-98805295D02*
X214119047Y-98710057D01*
X214119047Y-98710057D02*
X214071428Y-98662438D01*
X214071428Y-98662438D02*
X213976190Y-98614819D01*
X213214285Y-98948152D02*
X213214285Y-99614819D01*
X213214285Y-99043390D02*
X213166666Y-98995771D01*
X213166666Y-98995771D02*
X213071428Y-98948152D01*
X213071428Y-98948152D02*
X212928571Y-98948152D01*
X212928571Y-98948152D02*
X212833333Y-98995771D01*
X212833333Y-98995771D02*
X212785714Y-99091009D01*
X212785714Y-99091009D02*
X212785714Y-99614819D01*
X211976190Y-99091009D02*
X212309523Y-99091009D01*
X212309523Y-99614819D02*
X212309523Y-98614819D01*
X212309523Y-98614819D02*
X211833333Y-98614819D01*
D13*
X214160714Y-98089765D02*
X214172618Y-98101670D01*
X214172618Y-98101670D02*
X214208333Y-98113574D01*
X214208333Y-98113574D02*
X214232142Y-98113574D01*
X214232142Y-98113574D02*
X214267856Y-98101670D01*
X214267856Y-98101670D02*
X214291666Y-98077860D01*
X214291666Y-98077860D02*
X214303571Y-98054050D01*
X214303571Y-98054050D02*
X214315475Y-98006431D01*
X214315475Y-98006431D02*
X214315475Y-97970717D01*
X214315475Y-97970717D02*
X214303571Y-97923098D01*
X214303571Y-97923098D02*
X214291666Y-97899289D01*
X214291666Y-97899289D02*
X214267856Y-97875479D01*
X214267856Y-97875479D02*
X214232142Y-97863574D01*
X214232142Y-97863574D02*
X214208333Y-97863574D01*
X214208333Y-97863574D02*
X214172618Y-97875479D01*
X214172618Y-97875479D02*
X214160714Y-97887384D01*
X213946428Y-97946908D02*
X213946428Y-98113574D01*
X214005952Y-97851670D02*
X214065475Y-98030241D01*
X214065475Y-98030241D02*
X213910714Y-98030241D01*
X213839285Y-97863574D02*
X213672619Y-97863574D01*
X213672619Y-97863574D02*
X213779761Y-98113574D01*
D10*
X181071428Y-100134819D02*
X181642856Y-100134819D01*
X181357142Y-100134819D02*
X181357142Y-99134819D01*
X181357142Y-99134819D02*
X181452380Y-99277676D01*
X181452380Y-99277676D02*
X181547618Y-99372914D01*
X181547618Y-99372914D02*
X181642856Y-99420533D01*
X180452380Y-99134819D02*
X180357142Y-99134819D01*
X180357142Y-99134819D02*
X180261904Y-99182438D01*
X180261904Y-99182438D02*
X180214285Y-99230057D01*
X180214285Y-99230057D02*
X180166666Y-99325295D01*
X180166666Y-99325295D02*
X180119047Y-99515771D01*
X180119047Y-99515771D02*
X180119047Y-99753866D01*
X180119047Y-99753866D02*
X180166666Y-99944342D01*
X180166666Y-99944342D02*
X180214285Y-100039580D01*
X180214285Y-100039580D02*
X180261904Y-100087200D01*
X180261904Y-100087200D02*
X180357142Y-100134819D01*
X180357142Y-100134819D02*
X180452380Y-100134819D01*
X180452380Y-100134819D02*
X180547618Y-100087200D01*
X180547618Y-100087200D02*
X180595237Y-100039580D01*
X180595237Y-100039580D02*
X180642856Y-99944342D01*
X180642856Y-99944342D02*
X180690475Y-99753866D01*
X180690475Y-99753866D02*
X180690475Y-99515771D01*
X180690475Y-99515771D02*
X180642856Y-99325295D01*
X180642856Y-99325295D02*
X180595237Y-99230057D01*
X180595237Y-99230057D02*
X180547618Y-99182438D01*
X180547618Y-99182438D02*
X180452380Y-99134819D01*
X179261904Y-99468152D02*
X179261904Y-100134819D01*
X179690475Y-99468152D02*
X179690475Y-99991961D01*
X179690475Y-99991961D02*
X179642856Y-100087200D01*
X179642856Y-100087200D02*
X179547618Y-100134819D01*
X179547618Y-100134819D02*
X179404761Y-100134819D01*
X179404761Y-100134819D02*
X179309523Y-100087200D01*
X179309523Y-100087200D02*
X179261904Y-100039580D01*
X178452380Y-99611009D02*
X178785713Y-99611009D01*
X178785713Y-100134819D02*
X178785713Y-99134819D01*
X178785713Y-99134819D02*
X178309523Y-99134819D01*
D11*
X180321428Y-98179530D02*
X180345237Y-98203340D01*
X180345237Y-98203340D02*
X180416666Y-98227149D01*
X180416666Y-98227149D02*
X180464285Y-98227149D01*
X180464285Y-98227149D02*
X180535713Y-98203340D01*
X180535713Y-98203340D02*
X180583332Y-98155720D01*
X180583332Y-98155720D02*
X180607142Y-98108101D01*
X180607142Y-98108101D02*
X180630951Y-98012863D01*
X180630951Y-98012863D02*
X180630951Y-97941435D01*
X180630951Y-97941435D02*
X180607142Y-97846197D01*
X180607142Y-97846197D02*
X180583332Y-97798578D01*
X180583332Y-97798578D02*
X180535713Y-97750959D01*
X180535713Y-97750959D02*
X180464285Y-97727149D01*
X180464285Y-97727149D02*
X180416666Y-97727149D01*
X180416666Y-97727149D02*
X180345237Y-97750959D01*
X180345237Y-97750959D02*
X180321428Y-97774768D01*
X179892856Y-97893816D02*
X179892856Y-98227149D01*
X180011904Y-97703340D02*
X180130951Y-98060482D01*
X180130951Y-98060482D02*
X179821428Y-98060482D01*
X179559523Y-97941435D02*
X179607142Y-97917625D01*
X179607142Y-97917625D02*
X179630952Y-97893816D01*
X179630952Y-97893816D02*
X179654761Y-97846197D01*
X179654761Y-97846197D02*
X179654761Y-97822387D01*
X179654761Y-97822387D02*
X179630952Y-97774768D01*
X179630952Y-97774768D02*
X179607142Y-97750959D01*
X179607142Y-97750959D02*
X179559523Y-97727149D01*
X179559523Y-97727149D02*
X179464285Y-97727149D01*
X179464285Y-97727149D02*
X179416666Y-97750959D01*
X179416666Y-97750959D02*
X179392857Y-97774768D01*
X179392857Y-97774768D02*
X179369047Y-97822387D01*
X179369047Y-97822387D02*
X179369047Y-97846197D01*
X179369047Y-97846197D02*
X179392857Y-97893816D01*
X179392857Y-97893816D02*
X179416666Y-97917625D01*
X179416666Y-97917625D02*
X179464285Y-97941435D01*
X179464285Y-97941435D02*
X179559523Y-97941435D01*
X179559523Y-97941435D02*
X179607142Y-97965244D01*
X179607142Y-97965244D02*
X179630952Y-97989054D01*
X179630952Y-97989054D02*
X179654761Y-98036673D01*
X179654761Y-98036673D02*
X179654761Y-98131911D01*
X179654761Y-98131911D02*
X179630952Y-98179530D01*
X179630952Y-98179530D02*
X179607142Y-98203340D01*
X179607142Y-98203340D02*
X179559523Y-98227149D01*
X179559523Y-98227149D02*
X179464285Y-98227149D01*
X179464285Y-98227149D02*
X179416666Y-98203340D01*
X179416666Y-98203340D02*
X179392857Y-98179530D01*
X179392857Y-98179530D02*
X179369047Y-98131911D01*
X179369047Y-98131911D02*
X179369047Y-98036673D01*
X179369047Y-98036673D02*
X179392857Y-97989054D01*
X179392857Y-97989054D02*
X179416666Y-97965244D01*
X179416666Y-97965244D02*
X179464285Y-97941435D01*
D15*
X167594318Y-69211905D02*
X168501461Y-69211905D01*
X168501461Y-69211905D02*
X168682889Y-69151428D01*
X168682889Y-69151428D02*
X168803842Y-69030476D01*
X168803842Y-69030476D02*
X168864318Y-68849047D01*
X168864318Y-68849047D02*
X168864318Y-68728095D01*
X168864318Y-70481905D02*
X168864318Y-69756190D01*
X168864318Y-70119047D02*
X167594318Y-70119047D01*
X167594318Y-70119047D02*
X167775746Y-69998095D01*
X167775746Y-69998095D02*
X167896699Y-69877143D01*
X167896699Y-69877143D02*
X167957175Y-69756190D01*
X167594318Y-70905238D02*
X167594318Y-71691429D01*
X167594318Y-71691429D02*
X168078127Y-71268095D01*
X168078127Y-71268095D02*
X168078127Y-71449524D01*
X168078127Y-71449524D02*
X168138603Y-71570476D01*
X168138603Y-71570476D02*
X168199080Y-71630952D01*
X168199080Y-71630952D02*
X168320032Y-71691429D01*
X168320032Y-71691429D02*
X168622413Y-71691429D01*
X168622413Y-71691429D02*
X168743365Y-71630952D01*
X168743365Y-71630952D02*
X168803842Y-71570476D01*
X168803842Y-71570476D02*
X168864318Y-71449524D01*
X168864318Y-71449524D02*
X168864318Y-71086667D01*
X168864318Y-71086667D02*
X168803842Y-70965714D01*
X168803842Y-70965714D02*
X168743365Y-70905238D01*
D10*
X204880952Y-100807200D02*
X204738095Y-100854819D01*
X204738095Y-100854819D02*
X204500000Y-100854819D01*
X204500000Y-100854819D02*
X204404762Y-100807200D01*
X204404762Y-100807200D02*
X204357143Y-100759580D01*
X204357143Y-100759580D02*
X204309524Y-100664342D01*
X204309524Y-100664342D02*
X204309524Y-100569104D01*
X204309524Y-100569104D02*
X204357143Y-100473866D01*
X204357143Y-100473866D02*
X204404762Y-100426247D01*
X204404762Y-100426247D02*
X204500000Y-100378628D01*
X204500000Y-100378628D02*
X204690476Y-100331009D01*
X204690476Y-100331009D02*
X204785714Y-100283390D01*
X204785714Y-100283390D02*
X204833333Y-100235771D01*
X204833333Y-100235771D02*
X204880952Y-100140533D01*
X204880952Y-100140533D02*
X204880952Y-100045295D01*
X204880952Y-100045295D02*
X204833333Y-99950057D01*
X204833333Y-99950057D02*
X204785714Y-99902438D01*
X204785714Y-99902438D02*
X204690476Y-99854819D01*
X204690476Y-99854819D02*
X204452381Y-99854819D01*
X204452381Y-99854819D02*
X204309524Y-99902438D01*
X203690476Y-100378628D02*
X203690476Y-100854819D01*
X204023809Y-99854819D02*
X203690476Y-100378628D01*
X203690476Y-100378628D02*
X203357143Y-99854819D01*
X202880952Y-100283390D02*
X202976190Y-100235771D01*
X202976190Y-100235771D02*
X203023809Y-100188152D01*
X203023809Y-100188152D02*
X203071428Y-100092914D01*
X203071428Y-100092914D02*
X203071428Y-100045295D01*
X203071428Y-100045295D02*
X203023809Y-99950057D01*
X203023809Y-99950057D02*
X202976190Y-99902438D01*
X202976190Y-99902438D02*
X202880952Y-99854819D01*
X202880952Y-99854819D02*
X202690476Y-99854819D01*
X202690476Y-99854819D02*
X202595238Y-99902438D01*
X202595238Y-99902438D02*
X202547619Y-99950057D01*
X202547619Y-99950057D02*
X202500000Y-100045295D01*
X202500000Y-100045295D02*
X202500000Y-100092914D01*
X202500000Y-100092914D02*
X202547619Y-100188152D01*
X202547619Y-100188152D02*
X202595238Y-100235771D01*
X202595238Y-100235771D02*
X202690476Y-100283390D01*
X202690476Y-100283390D02*
X202880952Y-100283390D01*
X202880952Y-100283390D02*
X202976190Y-100331009D01*
X202976190Y-100331009D02*
X203023809Y-100378628D01*
X203023809Y-100378628D02*
X203071428Y-100473866D01*
X203071428Y-100473866D02*
X203071428Y-100664342D01*
X203071428Y-100664342D02*
X203023809Y-100759580D01*
X203023809Y-100759580D02*
X202976190Y-100807200D01*
X202976190Y-100807200D02*
X202880952Y-100854819D01*
X202880952Y-100854819D02*
X202690476Y-100854819D01*
X202690476Y-100854819D02*
X202595238Y-100807200D01*
X202595238Y-100807200D02*
X202547619Y-100759580D01*
X202547619Y-100759580D02*
X202500000Y-100664342D01*
X202500000Y-100664342D02*
X202500000Y-100473866D01*
X202500000Y-100473866D02*
X202547619Y-100378628D01*
X202547619Y-100378628D02*
X202595238Y-100331009D01*
X202595238Y-100331009D02*
X202690476Y-100283390D01*
X201880952Y-99854819D02*
X201785714Y-99854819D01*
X201785714Y-99854819D02*
X201690476Y-99902438D01*
X201690476Y-99902438D02*
X201642857Y-99950057D01*
X201642857Y-99950057D02*
X201595238Y-100045295D01*
X201595238Y-100045295D02*
X201547619Y-100235771D01*
X201547619Y-100235771D02*
X201547619Y-100473866D01*
X201547619Y-100473866D02*
X201595238Y-100664342D01*
X201595238Y-100664342D02*
X201642857Y-100759580D01*
X201642857Y-100759580D02*
X201690476Y-100807200D01*
X201690476Y-100807200D02*
X201785714Y-100854819D01*
X201785714Y-100854819D02*
X201880952Y-100854819D01*
X201880952Y-100854819D02*
X201976190Y-100807200D01*
X201976190Y-100807200D02*
X202023809Y-100759580D01*
X202023809Y-100759580D02*
X202071428Y-100664342D01*
X202071428Y-100664342D02*
X202119047Y-100473866D01*
X202119047Y-100473866D02*
X202119047Y-100235771D01*
X202119047Y-100235771D02*
X202071428Y-100045295D01*
X202071428Y-100045295D02*
X202023809Y-99950057D01*
X202023809Y-99950057D02*
X201976190Y-99902438D01*
X201976190Y-99902438D02*
X201880952Y-99854819D01*
X200976190Y-100283390D02*
X201071428Y-100235771D01*
X201071428Y-100235771D02*
X201119047Y-100188152D01*
X201119047Y-100188152D02*
X201166666Y-100092914D01*
X201166666Y-100092914D02*
X201166666Y-100045295D01*
X201166666Y-100045295D02*
X201119047Y-99950057D01*
X201119047Y-99950057D02*
X201071428Y-99902438D01*
X201071428Y-99902438D02*
X200976190Y-99854819D01*
X200976190Y-99854819D02*
X200785714Y-99854819D01*
X200785714Y-99854819D02*
X200690476Y-99902438D01*
X200690476Y-99902438D02*
X200642857Y-99950057D01*
X200642857Y-99950057D02*
X200595238Y-100045295D01*
X200595238Y-100045295D02*
X200595238Y-100092914D01*
X200595238Y-100092914D02*
X200642857Y-100188152D01*
X200642857Y-100188152D02*
X200690476Y-100235771D01*
X200690476Y-100235771D02*
X200785714Y-100283390D01*
X200785714Y-100283390D02*
X200976190Y-100283390D01*
X200976190Y-100283390D02*
X201071428Y-100331009D01*
X201071428Y-100331009D02*
X201119047Y-100378628D01*
X201119047Y-100378628D02*
X201166666Y-100473866D01*
X201166666Y-100473866D02*
X201166666Y-100664342D01*
X201166666Y-100664342D02*
X201119047Y-100759580D01*
X201119047Y-100759580D02*
X201071428Y-100807200D01*
X201071428Y-100807200D02*
X200976190Y-100854819D01*
X200976190Y-100854819D02*
X200785714Y-100854819D01*
X200785714Y-100854819D02*
X200690476Y-100807200D01*
X200690476Y-100807200D02*
X200642857Y-100759580D01*
X200642857Y-100759580D02*
X200595238Y-100664342D01*
X200595238Y-100664342D02*
X200595238Y-100473866D01*
X200595238Y-100473866D02*
X200642857Y-100378628D01*
X200642857Y-100378628D02*
X200690476Y-100331009D01*
X200690476Y-100331009D02*
X200785714Y-100283390D01*
X200119047Y-100854819D02*
X199928571Y-100854819D01*
X199928571Y-100854819D02*
X199833333Y-100807200D01*
X199833333Y-100807200D02*
X199785714Y-100759580D01*
X199785714Y-100759580D02*
X199690476Y-100616723D01*
X199690476Y-100616723D02*
X199642857Y-100426247D01*
X199642857Y-100426247D02*
X199642857Y-100045295D01*
X199642857Y-100045295D02*
X199690476Y-99950057D01*
X199690476Y-99950057D02*
X199738095Y-99902438D01*
X199738095Y-99902438D02*
X199833333Y-99854819D01*
X199833333Y-99854819D02*
X200023809Y-99854819D01*
X200023809Y-99854819D02*
X200119047Y-99902438D01*
X200119047Y-99902438D02*
X200166666Y-99950057D01*
X200166666Y-99950057D02*
X200214285Y-100045295D01*
X200214285Y-100045295D02*
X200214285Y-100283390D01*
X200214285Y-100283390D02*
X200166666Y-100378628D01*
X200166666Y-100378628D02*
X200119047Y-100426247D01*
X200119047Y-100426247D02*
X200023809Y-100473866D01*
X200023809Y-100473866D02*
X199833333Y-100473866D01*
X199833333Y-100473866D02*
X199738095Y-100426247D01*
X199738095Y-100426247D02*
X199690476Y-100378628D01*
X199690476Y-100378628D02*
X199642857Y-100283390D01*
X199261904Y-100569104D02*
X198785714Y-100569104D01*
X199357142Y-100854819D02*
X199023809Y-99854819D01*
X199023809Y-99854819D02*
X198690476Y-100854819D01*
X197833333Y-100854819D02*
X198404761Y-100854819D01*
X198119047Y-100854819D02*
X198119047Y-99854819D01*
X198119047Y-99854819D02*
X198214285Y-99997676D01*
X198214285Y-99997676D02*
X198309523Y-100092914D01*
X198309523Y-100092914D02*
X198404761Y-100140533D01*
X197452380Y-100569104D02*
X196976190Y-100569104D01*
X197547618Y-100854819D02*
X197214285Y-99854819D01*
X197214285Y-99854819D02*
X196880952Y-100854819D01*
X196595237Y-100569104D02*
X196119047Y-100569104D01*
X196690475Y-100854819D02*
X196357142Y-99854819D01*
X196357142Y-99854819D02*
X196023809Y-100854819D01*
X195119047Y-100759580D02*
X195166666Y-100807200D01*
X195166666Y-100807200D02*
X195309523Y-100854819D01*
X195309523Y-100854819D02*
X195404761Y-100854819D01*
X195404761Y-100854819D02*
X195547618Y-100807200D01*
X195547618Y-100807200D02*
X195642856Y-100711961D01*
X195642856Y-100711961D02*
X195690475Y-100616723D01*
X195690475Y-100616723D02*
X195738094Y-100426247D01*
X195738094Y-100426247D02*
X195738094Y-100283390D01*
X195738094Y-100283390D02*
X195690475Y-100092914D01*
X195690475Y-100092914D02*
X195642856Y-99997676D01*
X195642856Y-99997676D02*
X195547618Y-99902438D01*
X195547618Y-99902438D02*
X195404761Y-99854819D01*
X195404761Y-99854819D02*
X195309523Y-99854819D01*
X195309523Y-99854819D02*
X195166666Y-99902438D01*
X195166666Y-99902438D02*
X195119047Y-99950057D01*
D14*
X200304761Y-97781927D02*
X200304761Y-98105737D01*
X200304761Y-98105737D02*
X200285714Y-98143832D01*
X200285714Y-98143832D02*
X200266666Y-98162880D01*
X200266666Y-98162880D02*
X200228571Y-98181927D01*
X200228571Y-98181927D02*
X200152380Y-98181927D01*
X200152380Y-98181927D02*
X200114285Y-98162880D01*
X200114285Y-98162880D02*
X200095238Y-98143832D01*
X200095238Y-98143832D02*
X200076190Y-98105737D01*
X200076190Y-98105737D02*
X200076190Y-97781927D01*
X199923809Y-97781927D02*
X199657142Y-97781927D01*
X199657142Y-97781927D02*
X199828571Y-98181927D01*
D10*
X205547619Y-102614819D02*
X206119047Y-102614819D01*
X205833333Y-102614819D02*
X205833333Y-101614819D01*
X205833333Y-101614819D02*
X205928571Y-101757676D01*
X205928571Y-101757676D02*
X206023809Y-101852914D01*
X206023809Y-101852914D02*
X206119047Y-101900533D01*
X204928571Y-101614819D02*
X204833333Y-101614819D01*
X204833333Y-101614819D02*
X204738095Y-101662438D01*
X204738095Y-101662438D02*
X204690476Y-101710057D01*
X204690476Y-101710057D02*
X204642857Y-101805295D01*
X204642857Y-101805295D02*
X204595238Y-101995771D01*
X204595238Y-101995771D02*
X204595238Y-102233866D01*
X204595238Y-102233866D02*
X204642857Y-102424342D01*
X204642857Y-102424342D02*
X204690476Y-102519580D01*
X204690476Y-102519580D02*
X204738095Y-102567200D01*
X204738095Y-102567200D02*
X204833333Y-102614819D01*
X204833333Y-102614819D02*
X204928571Y-102614819D01*
X204928571Y-102614819D02*
X205023809Y-102567200D01*
X205023809Y-102567200D02*
X205071428Y-102519580D01*
X205071428Y-102519580D02*
X205119047Y-102424342D01*
X205119047Y-102424342D02*
X205166666Y-102233866D01*
X205166666Y-102233866D02*
X205166666Y-101995771D01*
X205166666Y-101995771D02*
X205119047Y-101805295D01*
X205119047Y-101805295D02*
X205071428Y-101710057D01*
X205071428Y-101710057D02*
X205023809Y-101662438D01*
X205023809Y-101662438D02*
X204928571Y-101614819D01*
X203976190Y-101614819D02*
X203880952Y-101614819D01*
X203880952Y-101614819D02*
X203785714Y-101662438D01*
X203785714Y-101662438D02*
X203738095Y-101710057D01*
X203738095Y-101710057D02*
X203690476Y-101805295D01*
X203690476Y-101805295D02*
X203642857Y-101995771D01*
X203642857Y-101995771D02*
X203642857Y-102233866D01*
X203642857Y-102233866D02*
X203690476Y-102424342D01*
X203690476Y-102424342D02*
X203738095Y-102519580D01*
X203738095Y-102519580D02*
X203785714Y-102567200D01*
X203785714Y-102567200D02*
X203880952Y-102614819D01*
X203880952Y-102614819D02*
X203976190Y-102614819D01*
X203976190Y-102614819D02*
X204071428Y-102567200D01*
X204071428Y-102567200D02*
X204119047Y-102519580D01*
X204119047Y-102519580D02*
X204166666Y-102424342D01*
X204166666Y-102424342D02*
X204214285Y-102233866D01*
X204214285Y-102233866D02*
X204214285Y-101995771D01*
X204214285Y-101995771D02*
X204166666Y-101805295D01*
X204166666Y-101805295D02*
X204119047Y-101710057D01*
X204119047Y-101710057D02*
X204071428Y-101662438D01*
X204071428Y-101662438D02*
X203976190Y-101614819D01*
X203214285Y-101948152D02*
X203214285Y-102614819D01*
X203214285Y-102043390D02*
X203166666Y-101995771D01*
X203166666Y-101995771D02*
X203071428Y-101948152D01*
X203071428Y-101948152D02*
X202928571Y-101948152D01*
X202928571Y-101948152D02*
X202833333Y-101995771D01*
X202833333Y-101995771D02*
X202785714Y-102091009D01*
X202785714Y-102091009D02*
X202785714Y-102614819D01*
X201976190Y-102091009D02*
X202309523Y-102091009D01*
X202309523Y-102614819D02*
X202309523Y-101614819D01*
X202309523Y-101614819D02*
X201833333Y-101614819D01*
D13*
X204160714Y-101089765D02*
X204172618Y-101101670D01*
X204172618Y-101101670D02*
X204208333Y-101113574D01*
X204208333Y-101113574D02*
X204232142Y-101113574D01*
X204232142Y-101113574D02*
X204267856Y-101101670D01*
X204267856Y-101101670D02*
X204291666Y-101077860D01*
X204291666Y-101077860D02*
X204303571Y-101054050D01*
X204303571Y-101054050D02*
X204315475Y-101006431D01*
X204315475Y-101006431D02*
X204315475Y-100970717D01*
X204315475Y-100970717D02*
X204303571Y-100923098D01*
X204303571Y-100923098D02*
X204291666Y-100899289D01*
X204291666Y-100899289D02*
X204267856Y-100875479D01*
X204267856Y-100875479D02*
X204232142Y-100863574D01*
X204232142Y-100863574D02*
X204208333Y-100863574D01*
X204208333Y-100863574D02*
X204172618Y-100875479D01*
X204172618Y-100875479D02*
X204160714Y-100887384D01*
X203934523Y-100863574D02*
X204053571Y-100863574D01*
X204053571Y-100863574D02*
X204065475Y-100982622D01*
X204065475Y-100982622D02*
X204053571Y-100970717D01*
X204053571Y-100970717D02*
X204029761Y-100958812D01*
X204029761Y-100958812D02*
X203970237Y-100958812D01*
X203970237Y-100958812D02*
X203946428Y-100970717D01*
X203946428Y-100970717D02*
X203934523Y-100982622D01*
X203934523Y-100982622D02*
X203922618Y-101006431D01*
X203922618Y-101006431D02*
X203922618Y-101065955D01*
X203922618Y-101065955D02*
X203934523Y-101089765D01*
X203934523Y-101089765D02*
X203946428Y-101101670D01*
X203946428Y-101101670D02*
X203970237Y-101113574D01*
X203970237Y-101113574D02*
X204029761Y-101113574D01*
X204029761Y-101113574D02*
X204053571Y-101101670D01*
X204053571Y-101101670D02*
X204065475Y-101089765D01*
X203708333Y-100946908D02*
X203708333Y-101113574D01*
X203767857Y-100851670D02*
X203827380Y-101030241D01*
X203827380Y-101030241D02*
X203672619Y-101030241D01*
D10*
X201642856Y-102230057D02*
X201595237Y-102182438D01*
X201595237Y-102182438D02*
X201499999Y-102134819D01*
X201499999Y-102134819D02*
X201261904Y-102134819D01*
X201261904Y-102134819D02*
X201166666Y-102182438D01*
X201166666Y-102182438D02*
X201119047Y-102230057D01*
X201119047Y-102230057D02*
X201071428Y-102325295D01*
X201071428Y-102325295D02*
X201071428Y-102420533D01*
X201071428Y-102420533D02*
X201119047Y-102563390D01*
X201119047Y-102563390D02*
X201690475Y-103134819D01*
X201690475Y-103134819D02*
X201071428Y-103134819D01*
X200690475Y-102230057D02*
X200642856Y-102182438D01*
X200642856Y-102182438D02*
X200547618Y-102134819D01*
X200547618Y-102134819D02*
X200309523Y-102134819D01*
X200309523Y-102134819D02*
X200214285Y-102182438D01*
X200214285Y-102182438D02*
X200166666Y-102230057D01*
X200166666Y-102230057D02*
X200119047Y-102325295D01*
X200119047Y-102325295D02*
X200119047Y-102420533D01*
X200119047Y-102420533D02*
X200166666Y-102563390D01*
X200166666Y-102563390D02*
X200738094Y-103134819D01*
X200738094Y-103134819D02*
X200119047Y-103134819D01*
X199261904Y-102468152D02*
X199261904Y-103134819D01*
X199690475Y-102468152D02*
X199690475Y-102991961D01*
X199690475Y-102991961D02*
X199642856Y-103087200D01*
X199642856Y-103087200D02*
X199547618Y-103134819D01*
X199547618Y-103134819D02*
X199404761Y-103134819D01*
X199404761Y-103134819D02*
X199309523Y-103087200D01*
X199309523Y-103087200D02*
X199261904Y-103039580D01*
X198452380Y-102611009D02*
X198785713Y-102611009D01*
X198785713Y-103134819D02*
X198785713Y-102134819D01*
X198785713Y-102134819D02*
X198309523Y-102134819D01*
D11*
X200321428Y-101179530D02*
X200345237Y-101203340D01*
X200345237Y-101203340D02*
X200416666Y-101227149D01*
X200416666Y-101227149D02*
X200464285Y-101227149D01*
X200464285Y-101227149D02*
X200535713Y-101203340D01*
X200535713Y-101203340D02*
X200583332Y-101155720D01*
X200583332Y-101155720D02*
X200607142Y-101108101D01*
X200607142Y-101108101D02*
X200630951Y-101012863D01*
X200630951Y-101012863D02*
X200630951Y-100941435D01*
X200630951Y-100941435D02*
X200607142Y-100846197D01*
X200607142Y-100846197D02*
X200583332Y-100798578D01*
X200583332Y-100798578D02*
X200535713Y-100750959D01*
X200535713Y-100750959D02*
X200464285Y-100727149D01*
X200464285Y-100727149D02*
X200416666Y-100727149D01*
X200416666Y-100727149D02*
X200345237Y-100750959D01*
X200345237Y-100750959D02*
X200321428Y-100774768D01*
X199869047Y-100727149D02*
X200107142Y-100727149D01*
X200107142Y-100727149D02*
X200130951Y-100965244D01*
X200130951Y-100965244D02*
X200107142Y-100941435D01*
X200107142Y-100941435D02*
X200059523Y-100917625D01*
X200059523Y-100917625D02*
X199940475Y-100917625D01*
X199940475Y-100917625D02*
X199892856Y-100941435D01*
X199892856Y-100941435D02*
X199869047Y-100965244D01*
X199869047Y-100965244D02*
X199845237Y-101012863D01*
X199845237Y-101012863D02*
X199845237Y-101131911D01*
X199845237Y-101131911D02*
X199869047Y-101179530D01*
X199869047Y-101179530D02*
X199892856Y-101203340D01*
X199892856Y-101203340D02*
X199940475Y-101227149D01*
X199940475Y-101227149D02*
X200059523Y-101227149D01*
X200059523Y-101227149D02*
X200107142Y-101203340D01*
X200107142Y-101203340D02*
X200130951Y-101179530D01*
X199678571Y-100727149D02*
X199369047Y-100727149D01*
X199369047Y-100727149D02*
X199535714Y-100917625D01*
X199535714Y-100917625D02*
X199464285Y-100917625D01*
X199464285Y-100917625D02*
X199416666Y-100941435D01*
X199416666Y-100941435D02*
X199392857Y-100965244D01*
X199392857Y-100965244D02*
X199369047Y-101012863D01*
X199369047Y-101012863D02*
X199369047Y-101131911D01*
X199369047Y-101131911D02*
X199392857Y-101179530D01*
X199392857Y-101179530D02*
X199416666Y-101203340D01*
X199416666Y-101203340D02*
X199464285Y-101227149D01*
X199464285Y-101227149D02*
X199607142Y-101227149D01*
X199607142Y-101227149D02*
X199654761Y-101203340D01*
X199654761Y-101203340D02*
X199678571Y-101179530D01*
D10*
X211738094Y-101980057D02*
X211690475Y-101932438D01*
X211690475Y-101932438D02*
X211595237Y-101884819D01*
X211595237Y-101884819D02*
X211357142Y-101884819D01*
X211357142Y-101884819D02*
X211261904Y-101932438D01*
X211261904Y-101932438D02*
X211214285Y-101980057D01*
X211214285Y-101980057D02*
X211166666Y-102075295D01*
X211166666Y-102075295D02*
X211166666Y-102170533D01*
X211166666Y-102170533D02*
X211214285Y-102313390D01*
X211214285Y-102313390D02*
X211785713Y-102884819D01*
X211785713Y-102884819D02*
X211166666Y-102884819D01*
X210309523Y-102218152D02*
X210309523Y-102884819D01*
X210547618Y-101837200D02*
X210785713Y-102551485D01*
X210785713Y-102551485D02*
X210166666Y-102551485D01*
X209595237Y-101884819D02*
X209499999Y-101884819D01*
X209499999Y-101884819D02*
X209404761Y-101932438D01*
X209404761Y-101932438D02*
X209357142Y-101980057D01*
X209357142Y-101980057D02*
X209309523Y-102075295D01*
X209309523Y-102075295D02*
X209261904Y-102265771D01*
X209261904Y-102265771D02*
X209261904Y-102503866D01*
X209261904Y-102503866D02*
X209309523Y-102694342D01*
X209309523Y-102694342D02*
X209357142Y-102789580D01*
X209357142Y-102789580D02*
X209404761Y-102837200D01*
X209404761Y-102837200D02*
X209499999Y-102884819D01*
X209499999Y-102884819D02*
X209595237Y-102884819D01*
X209595237Y-102884819D02*
X209690475Y-102837200D01*
X209690475Y-102837200D02*
X209738094Y-102789580D01*
X209738094Y-102789580D02*
X209785713Y-102694342D01*
X209785713Y-102694342D02*
X209833332Y-102503866D01*
X209833332Y-102503866D02*
X209833332Y-102265771D01*
X209833332Y-102265771D02*
X209785713Y-102075295D01*
X209785713Y-102075295D02*
X209738094Y-101980057D01*
X209738094Y-101980057D02*
X209690475Y-101932438D01*
X209690475Y-101932438D02*
X209595237Y-101884819D01*
X208261904Y-102884819D02*
X208595237Y-102408628D01*
X208833332Y-102884819D02*
X208833332Y-101884819D01*
X208833332Y-101884819D02*
X208452380Y-101884819D01*
X208452380Y-101884819D02*
X208357142Y-101932438D01*
X208357142Y-101932438D02*
X208309523Y-101980057D01*
X208309523Y-101980057D02*
X208261904Y-102075295D01*
X208261904Y-102075295D02*
X208261904Y-102218152D01*
X208261904Y-102218152D02*
X208309523Y-102313390D01*
X208309523Y-102313390D02*
X208357142Y-102361009D01*
X208357142Y-102361009D02*
X208452380Y-102408628D01*
X208452380Y-102408628D02*
X208833332Y-102408628D01*
D14*
X210257142Y-101181927D02*
X210390475Y-100991451D01*
X210485713Y-101181927D02*
X210485713Y-100781927D01*
X210485713Y-100781927D02*
X210333332Y-100781927D01*
X210333332Y-100781927D02*
X210295237Y-100800975D01*
X210295237Y-100800975D02*
X210276190Y-100820022D01*
X210276190Y-100820022D02*
X210257142Y-100858118D01*
X210257142Y-100858118D02*
X210257142Y-100915260D01*
X210257142Y-100915260D02*
X210276190Y-100953356D01*
X210276190Y-100953356D02*
X210295237Y-100972403D01*
X210295237Y-100972403D02*
X210333332Y-100991451D01*
X210333332Y-100991451D02*
X210485713Y-100991451D01*
X210104761Y-100820022D02*
X210085713Y-100800975D01*
X210085713Y-100800975D02*
X210047618Y-100781927D01*
X210047618Y-100781927D02*
X209952380Y-100781927D01*
X209952380Y-100781927D02*
X209914285Y-100800975D01*
X209914285Y-100800975D02*
X209895237Y-100820022D01*
X209895237Y-100820022D02*
X209876190Y-100858118D01*
X209876190Y-100858118D02*
X209876190Y-100896213D01*
X209876190Y-100896213D02*
X209895237Y-100953356D01*
X209895237Y-100953356D02*
X210123809Y-101181927D01*
X210123809Y-101181927D02*
X209876190Y-101181927D01*
X209533333Y-100781927D02*
X209609523Y-100781927D01*
X209609523Y-100781927D02*
X209647619Y-100800975D01*
X209647619Y-100800975D02*
X209666666Y-100820022D01*
X209666666Y-100820022D02*
X209704761Y-100877165D01*
X209704761Y-100877165D02*
X209723809Y-100953356D01*
X209723809Y-100953356D02*
X209723809Y-101105737D01*
X209723809Y-101105737D02*
X209704761Y-101143832D01*
X209704761Y-101143832D02*
X209685714Y-101162880D01*
X209685714Y-101162880D02*
X209647619Y-101181927D01*
X209647619Y-101181927D02*
X209571428Y-101181927D01*
X209571428Y-101181927D02*
X209533333Y-101162880D01*
X209533333Y-101162880D02*
X209514285Y-101143832D01*
X209514285Y-101143832D02*
X209495238Y-101105737D01*
X209495238Y-101105737D02*
X209495238Y-101010499D01*
X209495238Y-101010499D02*
X209514285Y-100972403D01*
X209514285Y-100972403D02*
X209533333Y-100953356D01*
X209533333Y-100953356D02*
X209571428Y-100934308D01*
X209571428Y-100934308D02*
X209647619Y-100934308D01*
X209647619Y-100934308D02*
X209685714Y-100953356D01*
X209685714Y-100953356D02*
X209704761Y-100972403D01*
X209704761Y-100972403D02*
X209723809Y-101010499D01*
D10*
X193071428Y-102624819D02*
X193642856Y-102624819D01*
X193357142Y-102624819D02*
X193357142Y-101624819D01*
X193357142Y-101624819D02*
X193452380Y-101767676D01*
X193452380Y-101767676D02*
X193547618Y-101862914D01*
X193547618Y-101862914D02*
X193642856Y-101910533D01*
X192690475Y-101720057D02*
X192642856Y-101672438D01*
X192642856Y-101672438D02*
X192547618Y-101624819D01*
X192547618Y-101624819D02*
X192309523Y-101624819D01*
X192309523Y-101624819D02*
X192214285Y-101672438D01*
X192214285Y-101672438D02*
X192166666Y-101720057D01*
X192166666Y-101720057D02*
X192119047Y-101815295D01*
X192119047Y-101815295D02*
X192119047Y-101910533D01*
X192119047Y-101910533D02*
X192166666Y-102053390D01*
X192166666Y-102053390D02*
X192738094Y-102624819D01*
X192738094Y-102624819D02*
X192119047Y-102624819D01*
X191499999Y-101624819D02*
X191404761Y-101624819D01*
X191404761Y-101624819D02*
X191309523Y-101672438D01*
X191309523Y-101672438D02*
X191261904Y-101720057D01*
X191261904Y-101720057D02*
X191214285Y-101815295D01*
X191214285Y-101815295D02*
X191166666Y-102005771D01*
X191166666Y-102005771D02*
X191166666Y-102243866D01*
X191166666Y-102243866D02*
X191214285Y-102434342D01*
X191214285Y-102434342D02*
X191261904Y-102529580D01*
X191261904Y-102529580D02*
X191309523Y-102577200D01*
X191309523Y-102577200D02*
X191404761Y-102624819D01*
X191404761Y-102624819D02*
X191499999Y-102624819D01*
X191499999Y-102624819D02*
X191595237Y-102577200D01*
X191595237Y-102577200D02*
X191642856Y-102529580D01*
X191642856Y-102529580D02*
X191690475Y-102434342D01*
X191690475Y-102434342D02*
X191738094Y-102243866D01*
X191738094Y-102243866D02*
X191738094Y-102005771D01*
X191738094Y-102005771D02*
X191690475Y-101815295D01*
X191690475Y-101815295D02*
X191642856Y-101720057D01*
X191642856Y-101720057D02*
X191595237Y-101672438D01*
X191595237Y-101672438D02*
X191499999Y-101624819D01*
X190738094Y-102624819D02*
X190738094Y-101624819D01*
X190642856Y-102243866D02*
X190357142Y-102624819D01*
X190357142Y-101958152D02*
X190738094Y-102339104D01*
D13*
X192167142Y-101118200D02*
X192253809Y-100994391D01*
X192315714Y-101118200D02*
X192315714Y-100858200D01*
X192315714Y-100858200D02*
X192216666Y-100858200D01*
X192216666Y-100858200D02*
X192191904Y-100870581D01*
X192191904Y-100870581D02*
X192179523Y-100882962D01*
X192179523Y-100882962D02*
X192167142Y-100907724D01*
X192167142Y-100907724D02*
X192167142Y-100944867D01*
X192167142Y-100944867D02*
X192179523Y-100969629D01*
X192179523Y-100969629D02*
X192191904Y-100982010D01*
X192191904Y-100982010D02*
X192216666Y-100994391D01*
X192216666Y-100994391D02*
X192315714Y-100994391D01*
X192080476Y-100858200D02*
X191919523Y-100858200D01*
X191919523Y-100858200D02*
X192006190Y-100957248D01*
X192006190Y-100957248D02*
X191969047Y-100957248D01*
X191969047Y-100957248D02*
X191944285Y-100969629D01*
X191944285Y-100969629D02*
X191931904Y-100982010D01*
X191931904Y-100982010D02*
X191919523Y-101006772D01*
X191919523Y-101006772D02*
X191919523Y-101068677D01*
X191919523Y-101068677D02*
X191931904Y-101093439D01*
X191931904Y-101093439D02*
X191944285Y-101105820D01*
X191944285Y-101105820D02*
X191969047Y-101118200D01*
X191969047Y-101118200D02*
X192043333Y-101118200D01*
X192043333Y-101118200D02*
X192068095Y-101105820D01*
X192068095Y-101105820D02*
X192080476Y-101093439D01*
X191820476Y-100882962D02*
X191808095Y-100870581D01*
X191808095Y-100870581D02*
X191783333Y-100858200D01*
X191783333Y-100858200D02*
X191721428Y-100858200D01*
X191721428Y-100858200D02*
X191696666Y-100870581D01*
X191696666Y-100870581D02*
X191684285Y-100882962D01*
X191684285Y-100882962D02*
X191671904Y-100907724D01*
X191671904Y-100907724D02*
X191671904Y-100932486D01*
X191671904Y-100932486D02*
X191684285Y-100969629D01*
X191684285Y-100969629D02*
X191832857Y-101118200D01*
X191832857Y-101118200D02*
X191671904Y-101118200D01*
D10*
X209642856Y-98710057D02*
X209595237Y-98662438D01*
X209595237Y-98662438D02*
X209499999Y-98614819D01*
X209499999Y-98614819D02*
X209261904Y-98614819D01*
X209261904Y-98614819D02*
X209166666Y-98662438D01*
X209166666Y-98662438D02*
X209119047Y-98710057D01*
X209119047Y-98710057D02*
X209071428Y-98805295D01*
X209071428Y-98805295D02*
X209071428Y-98900533D01*
X209071428Y-98900533D02*
X209119047Y-99043390D01*
X209119047Y-99043390D02*
X209690475Y-99614819D01*
X209690475Y-99614819D02*
X209071428Y-99614819D01*
X208690475Y-98710057D02*
X208642856Y-98662438D01*
X208642856Y-98662438D02*
X208547618Y-98614819D01*
X208547618Y-98614819D02*
X208309523Y-98614819D01*
X208309523Y-98614819D02*
X208214285Y-98662438D01*
X208214285Y-98662438D02*
X208166666Y-98710057D01*
X208166666Y-98710057D02*
X208119047Y-98805295D01*
X208119047Y-98805295D02*
X208119047Y-98900533D01*
X208119047Y-98900533D02*
X208166666Y-99043390D01*
X208166666Y-99043390D02*
X208738094Y-99614819D01*
X208738094Y-99614819D02*
X208119047Y-99614819D01*
X207690475Y-98948152D02*
X207690475Y-99948152D01*
X207690475Y-98995771D02*
X207595237Y-98948152D01*
X207595237Y-98948152D02*
X207404761Y-98948152D01*
X207404761Y-98948152D02*
X207309523Y-98995771D01*
X207309523Y-98995771D02*
X207261904Y-99043390D01*
X207261904Y-99043390D02*
X207214285Y-99138628D01*
X207214285Y-99138628D02*
X207214285Y-99424342D01*
X207214285Y-99424342D02*
X207261904Y-99519580D01*
X207261904Y-99519580D02*
X207309523Y-99567200D01*
X207309523Y-99567200D02*
X207404761Y-99614819D01*
X207404761Y-99614819D02*
X207595237Y-99614819D01*
X207595237Y-99614819D02*
X207690475Y-99567200D01*
X206452380Y-99091009D02*
X206785713Y-99091009D01*
X206785713Y-99614819D02*
X206785713Y-98614819D01*
X206785713Y-98614819D02*
X206309523Y-98614819D01*
D13*
X208160714Y-98089765D02*
X208172618Y-98101670D01*
X208172618Y-98101670D02*
X208208333Y-98113574D01*
X208208333Y-98113574D02*
X208232142Y-98113574D01*
X208232142Y-98113574D02*
X208267856Y-98101670D01*
X208267856Y-98101670D02*
X208291666Y-98077860D01*
X208291666Y-98077860D02*
X208303571Y-98054050D01*
X208303571Y-98054050D02*
X208315475Y-98006431D01*
X208315475Y-98006431D02*
X208315475Y-97970717D01*
X208315475Y-97970717D02*
X208303571Y-97923098D01*
X208303571Y-97923098D02*
X208291666Y-97899289D01*
X208291666Y-97899289D02*
X208267856Y-97875479D01*
X208267856Y-97875479D02*
X208232142Y-97863574D01*
X208232142Y-97863574D02*
X208208333Y-97863574D01*
X208208333Y-97863574D02*
X208172618Y-97875479D01*
X208172618Y-97875479D02*
X208160714Y-97887384D01*
X207934523Y-97863574D02*
X208053571Y-97863574D01*
X208053571Y-97863574D02*
X208065475Y-97982622D01*
X208065475Y-97982622D02*
X208053571Y-97970717D01*
X208053571Y-97970717D02*
X208029761Y-97958812D01*
X208029761Y-97958812D02*
X207970237Y-97958812D01*
X207970237Y-97958812D02*
X207946428Y-97970717D01*
X207946428Y-97970717D02*
X207934523Y-97982622D01*
X207934523Y-97982622D02*
X207922618Y-98006431D01*
X207922618Y-98006431D02*
X207922618Y-98065955D01*
X207922618Y-98065955D02*
X207934523Y-98089765D01*
X207934523Y-98089765D02*
X207946428Y-98101670D01*
X207946428Y-98101670D02*
X207970237Y-98113574D01*
X207970237Y-98113574D02*
X208029761Y-98113574D01*
X208029761Y-98113574D02*
X208053571Y-98101670D01*
X208053571Y-98101670D02*
X208065475Y-98089765D01*
X207696428Y-97863574D02*
X207815476Y-97863574D01*
X207815476Y-97863574D02*
X207827380Y-97982622D01*
X207827380Y-97982622D02*
X207815476Y-97970717D01*
X207815476Y-97970717D02*
X207791666Y-97958812D01*
X207791666Y-97958812D02*
X207732142Y-97958812D01*
X207732142Y-97958812D02*
X207708333Y-97970717D01*
X207708333Y-97970717D02*
X207696428Y-97982622D01*
X207696428Y-97982622D02*
X207684523Y-98006431D01*
X207684523Y-98006431D02*
X207684523Y-98065955D01*
X207684523Y-98065955D02*
X207696428Y-98089765D01*
X207696428Y-98089765D02*
X207708333Y-98101670D01*
X207708333Y-98101670D02*
X207732142Y-98113574D01*
X207732142Y-98113574D02*
X207791666Y-98113574D01*
X207791666Y-98113574D02*
X207815476Y-98101670D01*
X207815476Y-98101670D02*
X207827380Y-98089765D01*
D10*
X193642856Y-98710057D02*
X193595237Y-98662438D01*
X193595237Y-98662438D02*
X193499999Y-98614819D01*
X193499999Y-98614819D02*
X193261904Y-98614819D01*
X193261904Y-98614819D02*
X193166666Y-98662438D01*
X193166666Y-98662438D02*
X193119047Y-98710057D01*
X193119047Y-98710057D02*
X193071428Y-98805295D01*
X193071428Y-98805295D02*
X193071428Y-98900533D01*
X193071428Y-98900533D02*
X193119047Y-99043390D01*
X193119047Y-99043390D02*
X193690475Y-99614819D01*
X193690475Y-99614819D02*
X193071428Y-99614819D01*
X192690475Y-98710057D02*
X192642856Y-98662438D01*
X192642856Y-98662438D02*
X192547618Y-98614819D01*
X192547618Y-98614819D02*
X192309523Y-98614819D01*
X192309523Y-98614819D02*
X192214285Y-98662438D01*
X192214285Y-98662438D02*
X192166666Y-98710057D01*
X192166666Y-98710057D02*
X192119047Y-98805295D01*
X192119047Y-98805295D02*
X192119047Y-98900533D01*
X192119047Y-98900533D02*
X192166666Y-99043390D01*
X192166666Y-99043390D02*
X192738094Y-99614819D01*
X192738094Y-99614819D02*
X192119047Y-99614819D01*
X191690475Y-98948152D02*
X191690475Y-99948152D01*
X191690475Y-98995771D02*
X191595237Y-98948152D01*
X191595237Y-98948152D02*
X191404761Y-98948152D01*
X191404761Y-98948152D02*
X191309523Y-98995771D01*
X191309523Y-98995771D02*
X191261904Y-99043390D01*
X191261904Y-99043390D02*
X191214285Y-99138628D01*
X191214285Y-99138628D02*
X191214285Y-99424342D01*
X191214285Y-99424342D02*
X191261904Y-99519580D01*
X191261904Y-99519580D02*
X191309523Y-99567200D01*
X191309523Y-99567200D02*
X191404761Y-99614819D01*
X191404761Y-99614819D02*
X191595237Y-99614819D01*
X191595237Y-99614819D02*
X191690475Y-99567200D01*
X190452380Y-99091009D02*
X190785713Y-99091009D01*
X190785713Y-99614819D02*
X190785713Y-98614819D01*
X190785713Y-98614819D02*
X190309523Y-98614819D01*
D13*
X192160714Y-98089765D02*
X192172618Y-98101670D01*
X192172618Y-98101670D02*
X192208333Y-98113574D01*
X192208333Y-98113574D02*
X192232142Y-98113574D01*
X192232142Y-98113574D02*
X192267856Y-98101670D01*
X192267856Y-98101670D02*
X192291666Y-98077860D01*
X192291666Y-98077860D02*
X192303571Y-98054050D01*
X192303571Y-98054050D02*
X192315475Y-98006431D01*
X192315475Y-98006431D02*
X192315475Y-97970717D01*
X192315475Y-97970717D02*
X192303571Y-97923098D01*
X192303571Y-97923098D02*
X192291666Y-97899289D01*
X192291666Y-97899289D02*
X192267856Y-97875479D01*
X192267856Y-97875479D02*
X192232142Y-97863574D01*
X192232142Y-97863574D02*
X192208333Y-97863574D01*
X192208333Y-97863574D02*
X192172618Y-97875479D01*
X192172618Y-97875479D02*
X192160714Y-97887384D01*
X191934523Y-97863574D02*
X192053571Y-97863574D01*
X192053571Y-97863574D02*
X192065475Y-97982622D01*
X192065475Y-97982622D02*
X192053571Y-97970717D01*
X192053571Y-97970717D02*
X192029761Y-97958812D01*
X192029761Y-97958812D02*
X191970237Y-97958812D01*
X191970237Y-97958812D02*
X191946428Y-97970717D01*
X191946428Y-97970717D02*
X191934523Y-97982622D01*
X191934523Y-97982622D02*
X191922618Y-98006431D01*
X191922618Y-98006431D02*
X191922618Y-98065955D01*
X191922618Y-98065955D02*
X191934523Y-98089765D01*
X191934523Y-98089765D02*
X191946428Y-98101670D01*
X191946428Y-98101670D02*
X191970237Y-98113574D01*
X191970237Y-98113574D02*
X192029761Y-98113574D01*
X192029761Y-98113574D02*
X192053571Y-98101670D01*
X192053571Y-98101670D02*
X192065475Y-98089765D01*
X191684523Y-98113574D02*
X191827380Y-98113574D01*
X191755952Y-98113574D02*
X191755952Y-97863574D01*
X191755952Y-97863574D02*
X191779761Y-97899289D01*
X191779761Y-97899289D02*
X191803571Y-97923098D01*
X191803571Y-97923098D02*
X191827380Y-97935003D01*
D10*
X215738094Y-101980057D02*
X215690475Y-101932438D01*
X215690475Y-101932438D02*
X215595237Y-101884819D01*
X215595237Y-101884819D02*
X215357142Y-101884819D01*
X215357142Y-101884819D02*
X215261904Y-101932438D01*
X215261904Y-101932438D02*
X215214285Y-101980057D01*
X215214285Y-101980057D02*
X215166666Y-102075295D01*
X215166666Y-102075295D02*
X215166666Y-102170533D01*
X215166666Y-102170533D02*
X215214285Y-102313390D01*
X215214285Y-102313390D02*
X215785713Y-102884819D01*
X215785713Y-102884819D02*
X215166666Y-102884819D01*
X214309523Y-102218152D02*
X214309523Y-102884819D01*
X214547618Y-101837200D02*
X214785713Y-102551485D01*
X214785713Y-102551485D02*
X214166666Y-102551485D01*
X213595237Y-101884819D02*
X213499999Y-101884819D01*
X213499999Y-101884819D02*
X213404761Y-101932438D01*
X213404761Y-101932438D02*
X213357142Y-101980057D01*
X213357142Y-101980057D02*
X213309523Y-102075295D01*
X213309523Y-102075295D02*
X213261904Y-102265771D01*
X213261904Y-102265771D02*
X213261904Y-102503866D01*
X213261904Y-102503866D02*
X213309523Y-102694342D01*
X213309523Y-102694342D02*
X213357142Y-102789580D01*
X213357142Y-102789580D02*
X213404761Y-102837200D01*
X213404761Y-102837200D02*
X213499999Y-102884819D01*
X213499999Y-102884819D02*
X213595237Y-102884819D01*
X213595237Y-102884819D02*
X213690475Y-102837200D01*
X213690475Y-102837200D02*
X213738094Y-102789580D01*
X213738094Y-102789580D02*
X213785713Y-102694342D01*
X213785713Y-102694342D02*
X213833332Y-102503866D01*
X213833332Y-102503866D02*
X213833332Y-102265771D01*
X213833332Y-102265771D02*
X213785713Y-102075295D01*
X213785713Y-102075295D02*
X213738094Y-101980057D01*
X213738094Y-101980057D02*
X213690475Y-101932438D01*
X213690475Y-101932438D02*
X213595237Y-101884819D01*
X212261904Y-102884819D02*
X212595237Y-102408628D01*
X212833332Y-102884819D02*
X212833332Y-101884819D01*
X212833332Y-101884819D02*
X212452380Y-101884819D01*
X212452380Y-101884819D02*
X212357142Y-101932438D01*
X212357142Y-101932438D02*
X212309523Y-101980057D01*
X212309523Y-101980057D02*
X212261904Y-102075295D01*
X212261904Y-102075295D02*
X212261904Y-102218152D01*
X212261904Y-102218152D02*
X212309523Y-102313390D01*
X212309523Y-102313390D02*
X212357142Y-102361009D01*
X212357142Y-102361009D02*
X212452380Y-102408628D01*
X212452380Y-102408628D02*
X212833332Y-102408628D01*
D14*
X214257142Y-101181927D02*
X214390475Y-100991451D01*
X214485713Y-101181927D02*
X214485713Y-100781927D01*
X214485713Y-100781927D02*
X214333332Y-100781927D01*
X214333332Y-100781927D02*
X214295237Y-100800975D01*
X214295237Y-100800975D02*
X214276190Y-100820022D01*
X214276190Y-100820022D02*
X214257142Y-100858118D01*
X214257142Y-100858118D02*
X214257142Y-100915260D01*
X214257142Y-100915260D02*
X214276190Y-100953356D01*
X214276190Y-100953356D02*
X214295237Y-100972403D01*
X214295237Y-100972403D02*
X214333332Y-100991451D01*
X214333332Y-100991451D02*
X214485713Y-100991451D01*
X214104761Y-100820022D02*
X214085713Y-100800975D01*
X214085713Y-100800975D02*
X214047618Y-100781927D01*
X214047618Y-100781927D02*
X213952380Y-100781927D01*
X213952380Y-100781927D02*
X213914285Y-100800975D01*
X213914285Y-100800975D02*
X213895237Y-100820022D01*
X213895237Y-100820022D02*
X213876190Y-100858118D01*
X213876190Y-100858118D02*
X213876190Y-100896213D01*
X213876190Y-100896213D02*
X213895237Y-100953356D01*
X213895237Y-100953356D02*
X214123809Y-101181927D01*
X214123809Y-101181927D02*
X213876190Y-101181927D01*
X213742857Y-100781927D02*
X213476190Y-100781927D01*
X213476190Y-100781927D02*
X213647619Y-101181927D01*
D10*
X235143665Y-84249167D02*
X234572237Y-84249167D01*
X234857951Y-85249167D02*
X234857951Y-84249167D01*
X233857951Y-85201548D02*
X233953189Y-85249167D01*
X233953189Y-85249167D02*
X234143665Y-85249167D01*
X234143665Y-85249167D02*
X234238903Y-85201548D01*
X234238903Y-85201548D02*
X234286522Y-85106309D01*
X234286522Y-85106309D02*
X234286522Y-84725357D01*
X234286522Y-84725357D02*
X234238903Y-84630119D01*
X234238903Y-84630119D02*
X234143665Y-84582500D01*
X234143665Y-84582500D02*
X233953189Y-84582500D01*
X233953189Y-84582500D02*
X233857951Y-84630119D01*
X233857951Y-84630119D02*
X233810332Y-84725357D01*
X233810332Y-84725357D02*
X233810332Y-84820595D01*
X233810332Y-84820595D02*
X234286522Y-84915833D01*
X232953189Y-85249167D02*
X232953189Y-84725357D01*
X232953189Y-84725357D02*
X233000808Y-84630119D01*
X233000808Y-84630119D02*
X233096046Y-84582500D01*
X233096046Y-84582500D02*
X233286522Y-84582500D01*
X233286522Y-84582500D02*
X233381760Y-84630119D01*
X232953189Y-85201548D02*
X233048427Y-85249167D01*
X233048427Y-85249167D02*
X233286522Y-85249167D01*
X233286522Y-85249167D02*
X233381760Y-85201548D01*
X233381760Y-85201548D02*
X233429379Y-85106309D01*
X233429379Y-85106309D02*
X233429379Y-85011071D01*
X233429379Y-85011071D02*
X233381760Y-84915833D01*
X233381760Y-84915833D02*
X233286522Y-84868214D01*
X233286522Y-84868214D02*
X233048427Y-84868214D01*
X233048427Y-84868214D02*
X232953189Y-84820595D01*
X232048427Y-85201548D02*
X232143665Y-85249167D01*
X232143665Y-85249167D02*
X232334141Y-85249167D01*
X232334141Y-85249167D02*
X232429379Y-85201548D01*
X232429379Y-85201548D02*
X232476998Y-85153928D01*
X232476998Y-85153928D02*
X232524617Y-85058690D01*
X232524617Y-85058690D02*
X232524617Y-84772976D01*
X232524617Y-84772976D02*
X232476998Y-84677738D01*
X232476998Y-84677738D02*
X232429379Y-84630119D01*
X232429379Y-84630119D02*
X232334141Y-84582500D01*
X232334141Y-84582500D02*
X232143665Y-84582500D01*
X232143665Y-84582500D02*
X232048427Y-84630119D01*
X231191284Y-84582500D02*
X231191284Y-85249167D01*
X231619855Y-84582500D02*
X231619855Y-85106309D01*
X231619855Y-85106309D02*
X231572236Y-85201548D01*
X231572236Y-85201548D02*
X231476998Y-85249167D01*
X231476998Y-85249167D02*
X231334141Y-85249167D01*
X231334141Y-85249167D02*
X231238903Y-85201548D01*
X231238903Y-85201548D02*
X231191284Y-85153928D01*
X230715093Y-84582500D02*
X230715093Y-85582500D01*
X230715093Y-84630119D02*
X230619855Y-84582500D01*
X230619855Y-84582500D02*
X230429379Y-84582500D01*
X230429379Y-84582500D02*
X230334141Y-84630119D01*
X230334141Y-84630119D02*
X230286522Y-84677738D01*
X230286522Y-84677738D02*
X230238903Y-84772976D01*
X230238903Y-84772976D02*
X230238903Y-85058690D01*
X230238903Y-85058690D02*
X230286522Y-85153928D01*
X230286522Y-85153928D02*
X230334141Y-85201548D01*
X230334141Y-85201548D02*
X230429379Y-85249167D01*
X230429379Y-85249167D02*
X230619855Y-85249167D01*
X230619855Y-85249167D02*
X230715093Y-85201548D01*
X228572236Y-85249167D02*
X229048426Y-85249167D01*
X229048426Y-85249167D02*
X229048426Y-84249167D01*
X228096045Y-85249167D02*
X228191283Y-85201548D01*
X228191283Y-85201548D02*
X228238902Y-85153928D01*
X228238902Y-85153928D02*
X228286521Y-85058690D01*
X228286521Y-85058690D02*
X228286521Y-84772976D01*
X228286521Y-84772976D02*
X228238902Y-84677738D01*
X228238902Y-84677738D02*
X228191283Y-84630119D01*
X228191283Y-84630119D02*
X228096045Y-84582500D01*
X228096045Y-84582500D02*
X227953188Y-84582500D01*
X227953188Y-84582500D02*
X227857950Y-84630119D01*
X227857950Y-84630119D02*
X227810331Y-84677738D01*
X227810331Y-84677738D02*
X227762712Y-84772976D01*
X227762712Y-84772976D02*
X227762712Y-85058690D01*
X227762712Y-85058690D02*
X227810331Y-85153928D01*
X227810331Y-85153928D02*
X227857950Y-85201548D01*
X227857950Y-85201548D02*
X227953188Y-85249167D01*
X227953188Y-85249167D02*
X228096045Y-85249167D01*
X226905569Y-84582500D02*
X226905569Y-85392024D01*
X226905569Y-85392024D02*
X226953188Y-85487262D01*
X226953188Y-85487262D02*
X227000807Y-85534881D01*
X227000807Y-85534881D02*
X227096045Y-85582500D01*
X227096045Y-85582500D02*
X227238902Y-85582500D01*
X227238902Y-85582500D02*
X227334140Y-85534881D01*
X226905569Y-85201548D02*
X227000807Y-85249167D01*
X227000807Y-85249167D02*
X227191283Y-85249167D01*
X227191283Y-85249167D02*
X227286521Y-85201548D01*
X227286521Y-85201548D02*
X227334140Y-85153928D01*
X227334140Y-85153928D02*
X227381759Y-85058690D01*
X227381759Y-85058690D02*
X227381759Y-84772976D01*
X227381759Y-84772976D02*
X227334140Y-84677738D01*
X227334140Y-84677738D02*
X227286521Y-84630119D01*
X227286521Y-84630119D02*
X227191283Y-84582500D01*
X227191283Y-84582500D02*
X227000807Y-84582500D01*
X227000807Y-84582500D02*
X226905569Y-84630119D01*
X226286521Y-85249167D02*
X226381759Y-85201548D01*
X226381759Y-85201548D02*
X226429378Y-85153928D01*
X226429378Y-85153928D02*
X226476997Y-85058690D01*
X226476997Y-85058690D02*
X226476997Y-84772976D01*
X226476997Y-84772976D02*
X226429378Y-84677738D01*
X226429378Y-84677738D02*
X226381759Y-84630119D01*
X226381759Y-84630119D02*
X226286521Y-84582500D01*
X226286521Y-84582500D02*
X226143664Y-84582500D01*
X226143664Y-84582500D02*
X226048426Y-84630119D01*
X226048426Y-84630119D02*
X226000807Y-84677738D01*
X226000807Y-84677738D02*
X225953188Y-84772976D01*
X225953188Y-84772976D02*
X225953188Y-85058690D01*
X225953188Y-85058690D02*
X226000807Y-85153928D01*
X226000807Y-85153928D02*
X226048426Y-85201548D01*
X226048426Y-85201548D02*
X226143664Y-85249167D01*
X226143664Y-85249167D02*
X226286521Y-85249167D01*
X232215093Y-86749167D02*
X232691283Y-86749167D01*
X232691283Y-86749167D02*
X232691283Y-85749167D01*
X231691283Y-85749167D02*
X231500807Y-85749167D01*
X231500807Y-85749167D02*
X231405569Y-85796786D01*
X231405569Y-85796786D02*
X231310331Y-85892024D01*
X231310331Y-85892024D02*
X231262712Y-86082500D01*
X231262712Y-86082500D02*
X231262712Y-86415833D01*
X231262712Y-86415833D02*
X231310331Y-86606309D01*
X231310331Y-86606309D02*
X231405569Y-86701548D01*
X231405569Y-86701548D02*
X231500807Y-86749167D01*
X231500807Y-86749167D02*
X231691283Y-86749167D01*
X231691283Y-86749167D02*
X231786521Y-86701548D01*
X231786521Y-86701548D02*
X231881759Y-86606309D01*
X231881759Y-86606309D02*
X231929378Y-86415833D01*
X231929378Y-86415833D02*
X231929378Y-86082500D01*
X231929378Y-86082500D02*
X231881759Y-85892024D01*
X231881759Y-85892024D02*
X231786521Y-85796786D01*
X231786521Y-85796786D02*
X231691283Y-85749167D01*
X230310331Y-85796786D02*
X230405569Y-85749167D01*
X230405569Y-85749167D02*
X230548426Y-85749167D01*
X230548426Y-85749167D02*
X230691283Y-85796786D01*
X230691283Y-85796786D02*
X230786521Y-85892024D01*
X230786521Y-85892024D02*
X230834140Y-85987262D01*
X230834140Y-85987262D02*
X230881759Y-86177738D01*
X230881759Y-86177738D02*
X230881759Y-86320595D01*
X230881759Y-86320595D02*
X230834140Y-86511071D01*
X230834140Y-86511071D02*
X230786521Y-86606309D01*
X230786521Y-86606309D02*
X230691283Y-86701548D01*
X230691283Y-86701548D02*
X230548426Y-86749167D01*
X230548426Y-86749167D02*
X230453188Y-86749167D01*
X230453188Y-86749167D02*
X230310331Y-86701548D01*
X230310331Y-86701548D02*
X230262712Y-86653928D01*
X230262712Y-86653928D02*
X230262712Y-86320595D01*
X230262712Y-86320595D02*
X230453188Y-86320595D01*
X229643664Y-85749167D02*
X229453188Y-85749167D01*
X229453188Y-85749167D02*
X229357950Y-85796786D01*
X229357950Y-85796786D02*
X229262712Y-85892024D01*
X229262712Y-85892024D02*
X229215093Y-86082500D01*
X229215093Y-86082500D02*
X229215093Y-86415833D01*
X229215093Y-86415833D02*
X229262712Y-86606309D01*
X229262712Y-86606309D02*
X229357950Y-86701548D01*
X229357950Y-86701548D02*
X229453188Y-86749167D01*
X229453188Y-86749167D02*
X229643664Y-86749167D01*
X229643664Y-86749167D02*
X229738902Y-86701548D01*
X229738902Y-86701548D02*
X229834140Y-86606309D01*
X229834140Y-86606309D02*
X229881759Y-86415833D01*
X229881759Y-86415833D02*
X229881759Y-86082500D01*
X229881759Y-86082500D02*
X229834140Y-85892024D01*
X229834140Y-85892024D02*
X229738902Y-85796786D01*
X229738902Y-85796786D02*
X229643664Y-85749167D01*
X228881759Y-85749167D02*
X228262712Y-85749167D01*
X228262712Y-85749167D02*
X228596045Y-86130119D01*
X228596045Y-86130119D02*
X228453188Y-86130119D01*
X228453188Y-86130119D02*
X228357950Y-86177738D01*
X228357950Y-86177738D02*
X228310331Y-86225357D01*
X228310331Y-86225357D02*
X228262712Y-86320595D01*
X228262712Y-86320595D02*
X228262712Y-86558690D01*
X228262712Y-86558690D02*
X228310331Y-86653928D01*
X228310331Y-86653928D02*
X228357950Y-86701548D01*
X228357950Y-86701548D02*
X228453188Y-86749167D01*
X228453188Y-86749167D02*
X228738902Y-86749167D01*
X228738902Y-86749167D02*
X228834140Y-86701548D01*
X228834140Y-86701548D02*
X228881759Y-86653928D01*
X197071428Y-100134819D02*
X197642856Y-100134819D01*
X197357142Y-100134819D02*
X197357142Y-99134819D01*
X197357142Y-99134819D02*
X197452380Y-99277676D01*
X197452380Y-99277676D02*
X197547618Y-99372914D01*
X197547618Y-99372914D02*
X197642856Y-99420533D01*
X196452380Y-99134819D02*
X196357142Y-99134819D01*
X196357142Y-99134819D02*
X196261904Y-99182438D01*
X196261904Y-99182438D02*
X196214285Y-99230057D01*
X196214285Y-99230057D02*
X196166666Y-99325295D01*
X196166666Y-99325295D02*
X196119047Y-99515771D01*
X196119047Y-99515771D02*
X196119047Y-99753866D01*
X196119047Y-99753866D02*
X196166666Y-99944342D01*
X196166666Y-99944342D02*
X196214285Y-100039580D01*
X196214285Y-100039580D02*
X196261904Y-100087200D01*
X196261904Y-100087200D02*
X196357142Y-100134819D01*
X196357142Y-100134819D02*
X196452380Y-100134819D01*
X196452380Y-100134819D02*
X196547618Y-100087200D01*
X196547618Y-100087200D02*
X196595237Y-100039580D01*
X196595237Y-100039580D02*
X196642856Y-99944342D01*
X196642856Y-99944342D02*
X196690475Y-99753866D01*
X196690475Y-99753866D02*
X196690475Y-99515771D01*
X196690475Y-99515771D02*
X196642856Y-99325295D01*
X196642856Y-99325295D02*
X196595237Y-99230057D01*
X196595237Y-99230057D02*
X196547618Y-99182438D01*
X196547618Y-99182438D02*
X196452380Y-99134819D01*
X195261904Y-99468152D02*
X195261904Y-100134819D01*
X195690475Y-99468152D02*
X195690475Y-99991961D01*
X195690475Y-99991961D02*
X195642856Y-100087200D01*
X195642856Y-100087200D02*
X195547618Y-100134819D01*
X195547618Y-100134819D02*
X195404761Y-100134819D01*
X195404761Y-100134819D02*
X195309523Y-100087200D01*
X195309523Y-100087200D02*
X195261904Y-100039580D01*
X194452380Y-99611009D02*
X194785713Y-99611009D01*
X194785713Y-100134819D02*
X194785713Y-99134819D01*
X194785713Y-99134819D02*
X194309523Y-99134819D01*
D11*
X196321428Y-98179530D02*
X196345237Y-98203340D01*
X196345237Y-98203340D02*
X196416666Y-98227149D01*
X196416666Y-98227149D02*
X196464285Y-98227149D01*
X196464285Y-98227149D02*
X196535713Y-98203340D01*
X196535713Y-98203340D02*
X196583332Y-98155720D01*
X196583332Y-98155720D02*
X196607142Y-98108101D01*
X196607142Y-98108101D02*
X196630951Y-98012863D01*
X196630951Y-98012863D02*
X196630951Y-97941435D01*
X196630951Y-97941435D02*
X196607142Y-97846197D01*
X196607142Y-97846197D02*
X196583332Y-97798578D01*
X196583332Y-97798578D02*
X196535713Y-97750959D01*
X196535713Y-97750959D02*
X196464285Y-97727149D01*
X196464285Y-97727149D02*
X196416666Y-97727149D01*
X196416666Y-97727149D02*
X196345237Y-97750959D01*
X196345237Y-97750959D02*
X196321428Y-97774768D01*
X195869047Y-97727149D02*
X196107142Y-97727149D01*
X196107142Y-97727149D02*
X196130951Y-97965244D01*
X196130951Y-97965244D02*
X196107142Y-97941435D01*
X196107142Y-97941435D02*
X196059523Y-97917625D01*
X196059523Y-97917625D02*
X195940475Y-97917625D01*
X195940475Y-97917625D02*
X195892856Y-97941435D01*
X195892856Y-97941435D02*
X195869047Y-97965244D01*
X195869047Y-97965244D02*
X195845237Y-98012863D01*
X195845237Y-98012863D02*
X195845237Y-98131911D01*
X195845237Y-98131911D02*
X195869047Y-98179530D01*
X195869047Y-98179530D02*
X195892856Y-98203340D01*
X195892856Y-98203340D02*
X195940475Y-98227149D01*
X195940475Y-98227149D02*
X196059523Y-98227149D01*
X196059523Y-98227149D02*
X196107142Y-98203340D01*
X196107142Y-98203340D02*
X196130951Y-98179530D01*
X195654761Y-97774768D02*
X195630952Y-97750959D01*
X195630952Y-97750959D02*
X195583333Y-97727149D01*
X195583333Y-97727149D02*
X195464285Y-97727149D01*
X195464285Y-97727149D02*
X195416666Y-97750959D01*
X195416666Y-97750959D02*
X195392857Y-97774768D01*
X195392857Y-97774768D02*
X195369047Y-97822387D01*
X195369047Y-97822387D02*
X195369047Y-97870006D01*
X195369047Y-97870006D02*
X195392857Y-97941435D01*
X195392857Y-97941435D02*
X195678571Y-98227149D01*
X195678571Y-98227149D02*
X195369047Y-98227149D01*
D10*
X188880952Y-100807200D02*
X188738095Y-100854819D01*
X188738095Y-100854819D02*
X188500000Y-100854819D01*
X188500000Y-100854819D02*
X188404762Y-100807200D01*
X188404762Y-100807200D02*
X188357143Y-100759580D01*
X188357143Y-100759580D02*
X188309524Y-100664342D01*
X188309524Y-100664342D02*
X188309524Y-100569104D01*
X188309524Y-100569104D02*
X188357143Y-100473866D01*
X188357143Y-100473866D02*
X188404762Y-100426247D01*
X188404762Y-100426247D02*
X188500000Y-100378628D01*
X188500000Y-100378628D02*
X188690476Y-100331009D01*
X188690476Y-100331009D02*
X188785714Y-100283390D01*
X188785714Y-100283390D02*
X188833333Y-100235771D01*
X188833333Y-100235771D02*
X188880952Y-100140533D01*
X188880952Y-100140533D02*
X188880952Y-100045295D01*
X188880952Y-100045295D02*
X188833333Y-99950057D01*
X188833333Y-99950057D02*
X188785714Y-99902438D01*
X188785714Y-99902438D02*
X188690476Y-99854819D01*
X188690476Y-99854819D02*
X188452381Y-99854819D01*
X188452381Y-99854819D02*
X188309524Y-99902438D01*
X187690476Y-100378628D02*
X187690476Y-100854819D01*
X188023809Y-99854819D02*
X187690476Y-100378628D01*
X187690476Y-100378628D02*
X187357143Y-99854819D01*
X186880952Y-100283390D02*
X186976190Y-100235771D01*
X186976190Y-100235771D02*
X187023809Y-100188152D01*
X187023809Y-100188152D02*
X187071428Y-100092914D01*
X187071428Y-100092914D02*
X187071428Y-100045295D01*
X187071428Y-100045295D02*
X187023809Y-99950057D01*
X187023809Y-99950057D02*
X186976190Y-99902438D01*
X186976190Y-99902438D02*
X186880952Y-99854819D01*
X186880952Y-99854819D02*
X186690476Y-99854819D01*
X186690476Y-99854819D02*
X186595238Y-99902438D01*
X186595238Y-99902438D02*
X186547619Y-99950057D01*
X186547619Y-99950057D02*
X186500000Y-100045295D01*
X186500000Y-100045295D02*
X186500000Y-100092914D01*
X186500000Y-100092914D02*
X186547619Y-100188152D01*
X186547619Y-100188152D02*
X186595238Y-100235771D01*
X186595238Y-100235771D02*
X186690476Y-100283390D01*
X186690476Y-100283390D02*
X186880952Y-100283390D01*
X186880952Y-100283390D02*
X186976190Y-100331009D01*
X186976190Y-100331009D02*
X187023809Y-100378628D01*
X187023809Y-100378628D02*
X187071428Y-100473866D01*
X187071428Y-100473866D02*
X187071428Y-100664342D01*
X187071428Y-100664342D02*
X187023809Y-100759580D01*
X187023809Y-100759580D02*
X186976190Y-100807200D01*
X186976190Y-100807200D02*
X186880952Y-100854819D01*
X186880952Y-100854819D02*
X186690476Y-100854819D01*
X186690476Y-100854819D02*
X186595238Y-100807200D01*
X186595238Y-100807200D02*
X186547619Y-100759580D01*
X186547619Y-100759580D02*
X186500000Y-100664342D01*
X186500000Y-100664342D02*
X186500000Y-100473866D01*
X186500000Y-100473866D02*
X186547619Y-100378628D01*
X186547619Y-100378628D02*
X186595238Y-100331009D01*
X186595238Y-100331009D02*
X186690476Y-100283390D01*
X185880952Y-99854819D02*
X185785714Y-99854819D01*
X185785714Y-99854819D02*
X185690476Y-99902438D01*
X185690476Y-99902438D02*
X185642857Y-99950057D01*
X185642857Y-99950057D02*
X185595238Y-100045295D01*
X185595238Y-100045295D02*
X185547619Y-100235771D01*
X185547619Y-100235771D02*
X185547619Y-100473866D01*
X185547619Y-100473866D02*
X185595238Y-100664342D01*
X185595238Y-100664342D02*
X185642857Y-100759580D01*
X185642857Y-100759580D02*
X185690476Y-100807200D01*
X185690476Y-100807200D02*
X185785714Y-100854819D01*
X185785714Y-100854819D02*
X185880952Y-100854819D01*
X185880952Y-100854819D02*
X185976190Y-100807200D01*
X185976190Y-100807200D02*
X186023809Y-100759580D01*
X186023809Y-100759580D02*
X186071428Y-100664342D01*
X186071428Y-100664342D02*
X186119047Y-100473866D01*
X186119047Y-100473866D02*
X186119047Y-100235771D01*
X186119047Y-100235771D02*
X186071428Y-100045295D01*
X186071428Y-100045295D02*
X186023809Y-99950057D01*
X186023809Y-99950057D02*
X185976190Y-99902438D01*
X185976190Y-99902438D02*
X185880952Y-99854819D01*
X184976190Y-100283390D02*
X185071428Y-100235771D01*
X185071428Y-100235771D02*
X185119047Y-100188152D01*
X185119047Y-100188152D02*
X185166666Y-100092914D01*
X185166666Y-100092914D02*
X185166666Y-100045295D01*
X185166666Y-100045295D02*
X185119047Y-99950057D01*
X185119047Y-99950057D02*
X185071428Y-99902438D01*
X185071428Y-99902438D02*
X184976190Y-99854819D01*
X184976190Y-99854819D02*
X184785714Y-99854819D01*
X184785714Y-99854819D02*
X184690476Y-99902438D01*
X184690476Y-99902438D02*
X184642857Y-99950057D01*
X184642857Y-99950057D02*
X184595238Y-100045295D01*
X184595238Y-100045295D02*
X184595238Y-100092914D01*
X184595238Y-100092914D02*
X184642857Y-100188152D01*
X184642857Y-100188152D02*
X184690476Y-100235771D01*
X184690476Y-100235771D02*
X184785714Y-100283390D01*
X184785714Y-100283390D02*
X184976190Y-100283390D01*
X184976190Y-100283390D02*
X185071428Y-100331009D01*
X185071428Y-100331009D02*
X185119047Y-100378628D01*
X185119047Y-100378628D02*
X185166666Y-100473866D01*
X185166666Y-100473866D02*
X185166666Y-100664342D01*
X185166666Y-100664342D02*
X185119047Y-100759580D01*
X185119047Y-100759580D02*
X185071428Y-100807200D01*
X185071428Y-100807200D02*
X184976190Y-100854819D01*
X184976190Y-100854819D02*
X184785714Y-100854819D01*
X184785714Y-100854819D02*
X184690476Y-100807200D01*
X184690476Y-100807200D02*
X184642857Y-100759580D01*
X184642857Y-100759580D02*
X184595238Y-100664342D01*
X184595238Y-100664342D02*
X184595238Y-100473866D01*
X184595238Y-100473866D02*
X184642857Y-100378628D01*
X184642857Y-100378628D02*
X184690476Y-100331009D01*
X184690476Y-100331009D02*
X184785714Y-100283390D01*
X184119047Y-100854819D02*
X183928571Y-100854819D01*
X183928571Y-100854819D02*
X183833333Y-100807200D01*
X183833333Y-100807200D02*
X183785714Y-100759580D01*
X183785714Y-100759580D02*
X183690476Y-100616723D01*
X183690476Y-100616723D02*
X183642857Y-100426247D01*
X183642857Y-100426247D02*
X183642857Y-100045295D01*
X183642857Y-100045295D02*
X183690476Y-99950057D01*
X183690476Y-99950057D02*
X183738095Y-99902438D01*
X183738095Y-99902438D02*
X183833333Y-99854819D01*
X183833333Y-99854819D02*
X184023809Y-99854819D01*
X184023809Y-99854819D02*
X184119047Y-99902438D01*
X184119047Y-99902438D02*
X184166666Y-99950057D01*
X184166666Y-99950057D02*
X184214285Y-100045295D01*
X184214285Y-100045295D02*
X184214285Y-100283390D01*
X184214285Y-100283390D02*
X184166666Y-100378628D01*
X184166666Y-100378628D02*
X184119047Y-100426247D01*
X184119047Y-100426247D02*
X184023809Y-100473866D01*
X184023809Y-100473866D02*
X183833333Y-100473866D01*
X183833333Y-100473866D02*
X183738095Y-100426247D01*
X183738095Y-100426247D02*
X183690476Y-100378628D01*
X183690476Y-100378628D02*
X183642857Y-100283390D01*
X183261904Y-100569104D02*
X182785714Y-100569104D01*
X183357142Y-100854819D02*
X183023809Y-99854819D01*
X183023809Y-99854819D02*
X182690476Y-100854819D01*
X181833333Y-100854819D02*
X182404761Y-100854819D01*
X182119047Y-100854819D02*
X182119047Y-99854819D01*
X182119047Y-99854819D02*
X182214285Y-99997676D01*
X182214285Y-99997676D02*
X182309523Y-100092914D01*
X182309523Y-100092914D02*
X182404761Y-100140533D01*
X181452380Y-100569104D02*
X180976190Y-100569104D01*
X181547618Y-100854819D02*
X181214285Y-99854819D01*
X181214285Y-99854819D02*
X180880952Y-100854819D01*
X180595237Y-100569104D02*
X180119047Y-100569104D01*
X180690475Y-100854819D02*
X180357142Y-99854819D01*
X180357142Y-99854819D02*
X180023809Y-100854819D01*
X179119047Y-100759580D02*
X179166666Y-100807200D01*
X179166666Y-100807200D02*
X179309523Y-100854819D01*
X179309523Y-100854819D02*
X179404761Y-100854819D01*
X179404761Y-100854819D02*
X179547618Y-100807200D01*
X179547618Y-100807200D02*
X179642856Y-100711961D01*
X179642856Y-100711961D02*
X179690475Y-100616723D01*
X179690475Y-100616723D02*
X179738094Y-100426247D01*
X179738094Y-100426247D02*
X179738094Y-100283390D01*
X179738094Y-100283390D02*
X179690475Y-100092914D01*
X179690475Y-100092914D02*
X179642856Y-99997676D01*
X179642856Y-99997676D02*
X179547618Y-99902438D01*
X179547618Y-99902438D02*
X179404761Y-99854819D01*
X179404761Y-99854819D02*
X179309523Y-99854819D01*
X179309523Y-99854819D02*
X179166666Y-99902438D01*
X179166666Y-99902438D02*
X179119047Y-99950057D01*
D14*
X184304761Y-97781927D02*
X184304761Y-98105737D01*
X184304761Y-98105737D02*
X184285714Y-98143832D01*
X184285714Y-98143832D02*
X184266666Y-98162880D01*
X184266666Y-98162880D02*
X184228571Y-98181927D01*
X184228571Y-98181927D02*
X184152380Y-98181927D01*
X184152380Y-98181927D02*
X184114285Y-98162880D01*
X184114285Y-98162880D02*
X184095238Y-98143832D01*
X184095238Y-98143832D02*
X184076190Y-98105737D01*
X184076190Y-98105737D02*
X184076190Y-97781927D01*
X183714285Y-97781927D02*
X183790475Y-97781927D01*
X183790475Y-97781927D02*
X183828571Y-97800975D01*
X183828571Y-97800975D02*
X183847618Y-97820022D01*
X183847618Y-97820022D02*
X183885713Y-97877165D01*
X183885713Y-97877165D02*
X183904761Y-97953356D01*
X183904761Y-97953356D02*
X183904761Y-98105737D01*
X183904761Y-98105737D02*
X183885713Y-98143832D01*
X183885713Y-98143832D02*
X183866666Y-98162880D01*
X183866666Y-98162880D02*
X183828571Y-98181927D01*
X183828571Y-98181927D02*
X183752380Y-98181927D01*
X183752380Y-98181927D02*
X183714285Y-98162880D01*
X183714285Y-98162880D02*
X183695237Y-98143832D01*
X183695237Y-98143832D02*
X183676190Y-98105737D01*
X183676190Y-98105737D02*
X183676190Y-98010499D01*
X183676190Y-98010499D02*
X183695237Y-97972403D01*
X183695237Y-97972403D02*
X183714285Y-97953356D01*
X183714285Y-97953356D02*
X183752380Y-97934308D01*
X183752380Y-97934308D02*
X183828571Y-97934308D01*
X183828571Y-97934308D02*
X183866666Y-97953356D01*
X183866666Y-97953356D02*
X183885713Y-97972403D01*
X183885713Y-97972403D02*
X183904761Y-98010499D01*
D10*
X177690475Y-101624819D02*
X177071428Y-101624819D01*
X177071428Y-101624819D02*
X177404761Y-102005771D01*
X177404761Y-102005771D02*
X177261904Y-102005771D01*
X177261904Y-102005771D02*
X177166666Y-102053390D01*
X177166666Y-102053390D02*
X177119047Y-102101009D01*
X177119047Y-102101009D02*
X177071428Y-102196247D01*
X177071428Y-102196247D02*
X177071428Y-102434342D01*
X177071428Y-102434342D02*
X177119047Y-102529580D01*
X177119047Y-102529580D02*
X177166666Y-102577200D01*
X177166666Y-102577200D02*
X177261904Y-102624819D01*
X177261904Y-102624819D02*
X177547618Y-102624819D01*
X177547618Y-102624819D02*
X177642856Y-102577200D01*
X177642856Y-102577200D02*
X177690475Y-102529580D01*
X176452380Y-101624819D02*
X176357142Y-101624819D01*
X176357142Y-101624819D02*
X176261904Y-101672438D01*
X176261904Y-101672438D02*
X176214285Y-101720057D01*
X176214285Y-101720057D02*
X176166666Y-101815295D01*
X176166666Y-101815295D02*
X176119047Y-102005771D01*
X176119047Y-102005771D02*
X176119047Y-102243866D01*
X176119047Y-102243866D02*
X176166666Y-102434342D01*
X176166666Y-102434342D02*
X176214285Y-102529580D01*
X176214285Y-102529580D02*
X176261904Y-102577200D01*
X176261904Y-102577200D02*
X176357142Y-102624819D01*
X176357142Y-102624819D02*
X176452380Y-102624819D01*
X176452380Y-102624819D02*
X176547618Y-102577200D01*
X176547618Y-102577200D02*
X176595237Y-102529580D01*
X176595237Y-102529580D02*
X176642856Y-102434342D01*
X176642856Y-102434342D02*
X176690475Y-102243866D01*
X176690475Y-102243866D02*
X176690475Y-102005771D01*
X176690475Y-102005771D02*
X176642856Y-101815295D01*
X176642856Y-101815295D02*
X176595237Y-101720057D01*
X176595237Y-101720057D02*
X176547618Y-101672438D01*
X176547618Y-101672438D02*
X176452380Y-101624819D01*
X175499999Y-101624819D02*
X175404761Y-101624819D01*
X175404761Y-101624819D02*
X175309523Y-101672438D01*
X175309523Y-101672438D02*
X175261904Y-101720057D01*
X175261904Y-101720057D02*
X175214285Y-101815295D01*
X175214285Y-101815295D02*
X175166666Y-102005771D01*
X175166666Y-102005771D02*
X175166666Y-102243866D01*
X175166666Y-102243866D02*
X175214285Y-102434342D01*
X175214285Y-102434342D02*
X175261904Y-102529580D01*
X175261904Y-102529580D02*
X175309523Y-102577200D01*
X175309523Y-102577200D02*
X175404761Y-102624819D01*
X175404761Y-102624819D02*
X175499999Y-102624819D01*
X175499999Y-102624819D02*
X175595237Y-102577200D01*
X175595237Y-102577200D02*
X175642856Y-102529580D01*
X175642856Y-102529580D02*
X175690475Y-102434342D01*
X175690475Y-102434342D02*
X175738094Y-102243866D01*
X175738094Y-102243866D02*
X175738094Y-102005771D01*
X175738094Y-102005771D02*
X175690475Y-101815295D01*
X175690475Y-101815295D02*
X175642856Y-101720057D01*
X175642856Y-101720057D02*
X175595237Y-101672438D01*
X175595237Y-101672438D02*
X175499999Y-101624819D01*
X174738094Y-102624819D02*
X174738094Y-101624819D01*
X174642856Y-102243866D02*
X174357142Y-102624819D01*
X174357142Y-101958152D02*
X174738094Y-102339104D01*
D13*
X176167142Y-101118200D02*
X176253809Y-100994391D01*
X176315714Y-101118200D02*
X176315714Y-100858200D01*
X176315714Y-100858200D02*
X176216666Y-100858200D01*
X176216666Y-100858200D02*
X176191904Y-100870581D01*
X176191904Y-100870581D02*
X176179523Y-100882962D01*
X176179523Y-100882962D02*
X176167142Y-100907724D01*
X176167142Y-100907724D02*
X176167142Y-100944867D01*
X176167142Y-100944867D02*
X176179523Y-100969629D01*
X176179523Y-100969629D02*
X176191904Y-100982010D01*
X176191904Y-100982010D02*
X176216666Y-100994391D01*
X176216666Y-100994391D02*
X176315714Y-100994391D01*
X176080476Y-100858200D02*
X175919523Y-100858200D01*
X175919523Y-100858200D02*
X176006190Y-100957248D01*
X176006190Y-100957248D02*
X175969047Y-100957248D01*
X175969047Y-100957248D02*
X175944285Y-100969629D01*
X175944285Y-100969629D02*
X175931904Y-100982010D01*
X175931904Y-100982010D02*
X175919523Y-101006772D01*
X175919523Y-101006772D02*
X175919523Y-101068677D01*
X175919523Y-101068677D02*
X175931904Y-101093439D01*
X175931904Y-101093439D02*
X175944285Y-101105820D01*
X175944285Y-101105820D02*
X175969047Y-101118200D01*
X175969047Y-101118200D02*
X176043333Y-101118200D01*
X176043333Y-101118200D02*
X176068095Y-101105820D01*
X176068095Y-101105820D02*
X176080476Y-101093439D01*
X175758571Y-100858200D02*
X175733809Y-100858200D01*
X175733809Y-100858200D02*
X175709047Y-100870581D01*
X175709047Y-100870581D02*
X175696666Y-100882962D01*
X175696666Y-100882962D02*
X175684285Y-100907724D01*
X175684285Y-100907724D02*
X175671904Y-100957248D01*
X175671904Y-100957248D02*
X175671904Y-101019153D01*
X175671904Y-101019153D02*
X175684285Y-101068677D01*
X175684285Y-101068677D02*
X175696666Y-101093439D01*
X175696666Y-101093439D02*
X175709047Y-101105820D01*
X175709047Y-101105820D02*
X175733809Y-101118200D01*
X175733809Y-101118200D02*
X175758571Y-101118200D01*
X175758571Y-101118200D02*
X175783333Y-101105820D01*
X175783333Y-101105820D02*
X175795714Y-101093439D01*
X175795714Y-101093439D02*
X175808095Y-101068677D01*
X175808095Y-101068677D02*
X175820476Y-101019153D01*
X175820476Y-101019153D02*
X175820476Y-100957248D01*
X175820476Y-100957248D02*
X175808095Y-100907724D01*
X175808095Y-100907724D02*
X175795714Y-100882962D01*
X175795714Y-100882962D02*
X175783333Y-100870581D01*
X175783333Y-100870581D02*
X175758571Y-100858200D01*
D10*
X189547619Y-102614819D02*
X190119047Y-102614819D01*
X189833333Y-102614819D02*
X189833333Y-101614819D01*
X189833333Y-101614819D02*
X189928571Y-101757676D01*
X189928571Y-101757676D02*
X190023809Y-101852914D01*
X190023809Y-101852914D02*
X190119047Y-101900533D01*
X188928571Y-101614819D02*
X188833333Y-101614819D01*
X188833333Y-101614819D02*
X188738095Y-101662438D01*
X188738095Y-101662438D02*
X188690476Y-101710057D01*
X188690476Y-101710057D02*
X188642857Y-101805295D01*
X188642857Y-101805295D02*
X188595238Y-101995771D01*
X188595238Y-101995771D02*
X188595238Y-102233866D01*
X188595238Y-102233866D02*
X188642857Y-102424342D01*
X188642857Y-102424342D02*
X188690476Y-102519580D01*
X188690476Y-102519580D02*
X188738095Y-102567200D01*
X188738095Y-102567200D02*
X188833333Y-102614819D01*
X188833333Y-102614819D02*
X188928571Y-102614819D01*
X188928571Y-102614819D02*
X189023809Y-102567200D01*
X189023809Y-102567200D02*
X189071428Y-102519580D01*
X189071428Y-102519580D02*
X189119047Y-102424342D01*
X189119047Y-102424342D02*
X189166666Y-102233866D01*
X189166666Y-102233866D02*
X189166666Y-101995771D01*
X189166666Y-101995771D02*
X189119047Y-101805295D01*
X189119047Y-101805295D02*
X189071428Y-101710057D01*
X189071428Y-101710057D02*
X189023809Y-101662438D01*
X189023809Y-101662438D02*
X188928571Y-101614819D01*
X187976190Y-101614819D02*
X187880952Y-101614819D01*
X187880952Y-101614819D02*
X187785714Y-101662438D01*
X187785714Y-101662438D02*
X187738095Y-101710057D01*
X187738095Y-101710057D02*
X187690476Y-101805295D01*
X187690476Y-101805295D02*
X187642857Y-101995771D01*
X187642857Y-101995771D02*
X187642857Y-102233866D01*
X187642857Y-102233866D02*
X187690476Y-102424342D01*
X187690476Y-102424342D02*
X187738095Y-102519580D01*
X187738095Y-102519580D02*
X187785714Y-102567200D01*
X187785714Y-102567200D02*
X187880952Y-102614819D01*
X187880952Y-102614819D02*
X187976190Y-102614819D01*
X187976190Y-102614819D02*
X188071428Y-102567200D01*
X188071428Y-102567200D02*
X188119047Y-102519580D01*
X188119047Y-102519580D02*
X188166666Y-102424342D01*
X188166666Y-102424342D02*
X188214285Y-102233866D01*
X188214285Y-102233866D02*
X188214285Y-101995771D01*
X188214285Y-101995771D02*
X188166666Y-101805295D01*
X188166666Y-101805295D02*
X188119047Y-101710057D01*
X188119047Y-101710057D02*
X188071428Y-101662438D01*
X188071428Y-101662438D02*
X187976190Y-101614819D01*
X187214285Y-101948152D02*
X187214285Y-102614819D01*
X187214285Y-102043390D02*
X187166666Y-101995771D01*
X187166666Y-101995771D02*
X187071428Y-101948152D01*
X187071428Y-101948152D02*
X186928571Y-101948152D01*
X186928571Y-101948152D02*
X186833333Y-101995771D01*
X186833333Y-101995771D02*
X186785714Y-102091009D01*
X186785714Y-102091009D02*
X186785714Y-102614819D01*
X185976190Y-102091009D02*
X186309523Y-102091009D01*
X186309523Y-102614819D02*
X186309523Y-101614819D01*
X186309523Y-101614819D02*
X185833333Y-101614819D01*
D13*
X188160714Y-101089765D02*
X188172618Y-101101670D01*
X188172618Y-101101670D02*
X188208333Y-101113574D01*
X188208333Y-101113574D02*
X188232142Y-101113574D01*
X188232142Y-101113574D02*
X188267856Y-101101670D01*
X188267856Y-101101670D02*
X188291666Y-101077860D01*
X188291666Y-101077860D02*
X188303571Y-101054050D01*
X188303571Y-101054050D02*
X188315475Y-101006431D01*
X188315475Y-101006431D02*
X188315475Y-100970717D01*
X188315475Y-100970717D02*
X188303571Y-100923098D01*
X188303571Y-100923098D02*
X188291666Y-100899289D01*
X188291666Y-100899289D02*
X188267856Y-100875479D01*
X188267856Y-100875479D02*
X188232142Y-100863574D01*
X188232142Y-100863574D02*
X188208333Y-100863574D01*
X188208333Y-100863574D02*
X188172618Y-100875479D01*
X188172618Y-100875479D02*
X188160714Y-100887384D01*
X187934523Y-100863574D02*
X188053571Y-100863574D01*
X188053571Y-100863574D02*
X188065475Y-100982622D01*
X188065475Y-100982622D02*
X188053571Y-100970717D01*
X188053571Y-100970717D02*
X188029761Y-100958812D01*
X188029761Y-100958812D02*
X187970237Y-100958812D01*
X187970237Y-100958812D02*
X187946428Y-100970717D01*
X187946428Y-100970717D02*
X187934523Y-100982622D01*
X187934523Y-100982622D02*
X187922618Y-101006431D01*
X187922618Y-101006431D02*
X187922618Y-101065955D01*
X187922618Y-101065955D02*
X187934523Y-101089765D01*
X187934523Y-101089765D02*
X187946428Y-101101670D01*
X187946428Y-101101670D02*
X187970237Y-101113574D01*
X187970237Y-101113574D02*
X188029761Y-101113574D01*
X188029761Y-101113574D02*
X188053571Y-101101670D01*
X188053571Y-101101670D02*
X188065475Y-101089765D01*
X187767857Y-100863574D02*
X187744047Y-100863574D01*
X187744047Y-100863574D02*
X187720238Y-100875479D01*
X187720238Y-100875479D02*
X187708333Y-100887384D01*
X187708333Y-100887384D02*
X187696428Y-100911193D01*
X187696428Y-100911193D02*
X187684523Y-100958812D01*
X187684523Y-100958812D02*
X187684523Y-101018336D01*
X187684523Y-101018336D02*
X187696428Y-101065955D01*
X187696428Y-101065955D02*
X187708333Y-101089765D01*
X187708333Y-101089765D02*
X187720238Y-101101670D01*
X187720238Y-101101670D02*
X187744047Y-101113574D01*
X187744047Y-101113574D02*
X187767857Y-101113574D01*
X187767857Y-101113574D02*
X187791666Y-101101670D01*
X187791666Y-101101670D02*
X187803571Y-101089765D01*
X187803571Y-101089765D02*
X187815476Y-101065955D01*
X187815476Y-101065955D02*
X187827380Y-101018336D01*
X187827380Y-101018336D02*
X187827380Y-100958812D01*
X187827380Y-100958812D02*
X187815476Y-100911193D01*
X187815476Y-100911193D02*
X187803571Y-100887384D01*
X187803571Y-100887384D02*
X187791666Y-100875479D01*
X187791666Y-100875479D02*
X187767857Y-100863574D01*
D10*
X189976189Y-99830057D02*
X189928570Y-99782438D01*
X189928570Y-99782438D02*
X189833332Y-99734819D01*
X189833332Y-99734819D02*
X189595237Y-99734819D01*
X189595237Y-99734819D02*
X189499999Y-99782438D01*
X189499999Y-99782438D02*
X189452380Y-99830057D01*
X189452380Y-99830057D02*
X189404761Y-99925295D01*
X189404761Y-99925295D02*
X189404761Y-100020533D01*
X189404761Y-100020533D02*
X189452380Y-100163390D01*
X189452380Y-100163390D02*
X190023808Y-100734819D01*
X190023808Y-100734819D02*
X189404761Y-100734819D01*
X188976189Y-100639580D02*
X188928570Y-100687200D01*
X188928570Y-100687200D02*
X188976189Y-100734819D01*
X188976189Y-100734819D02*
X189023808Y-100687200D01*
X189023808Y-100687200D02*
X188976189Y-100639580D01*
X188976189Y-100639580D02*
X188976189Y-100734819D01*
X188547618Y-99830057D02*
X188499999Y-99782438D01*
X188499999Y-99782438D02*
X188404761Y-99734819D01*
X188404761Y-99734819D02*
X188166666Y-99734819D01*
X188166666Y-99734819D02*
X188071428Y-99782438D01*
X188071428Y-99782438D02*
X188023809Y-99830057D01*
X188023809Y-99830057D02*
X187976190Y-99925295D01*
X187976190Y-99925295D02*
X187976190Y-100020533D01*
X187976190Y-100020533D02*
X188023809Y-100163390D01*
X188023809Y-100163390D02*
X188595237Y-100734819D01*
X188595237Y-100734819D02*
X187976190Y-100734819D01*
X187119047Y-100068152D02*
X187119047Y-100734819D01*
X187547618Y-100068152D02*
X187547618Y-100591961D01*
X187547618Y-100591961D02*
X187499999Y-100687200D01*
X187499999Y-100687200D02*
X187404761Y-100734819D01*
X187404761Y-100734819D02*
X187261904Y-100734819D01*
X187261904Y-100734819D02*
X187166666Y-100687200D01*
X187166666Y-100687200D02*
X187119047Y-100639580D01*
X186642856Y-100734819D02*
X186642856Y-99734819D01*
X186642856Y-100211009D02*
X186071428Y-100211009D01*
X186071428Y-100734819D02*
X186071428Y-99734819D01*
D12*
X188133333Y-98363855D02*
X188514285Y-98363855D01*
X188514285Y-98363855D02*
X188514285Y-97563855D01*
X187447619Y-98363855D02*
X187904762Y-98363855D01*
X187676190Y-98363855D02*
X187676190Y-97563855D01*
X187676190Y-97563855D02*
X187752381Y-97678140D01*
X187752381Y-97678140D02*
X187828571Y-97754331D01*
X187828571Y-97754331D02*
X187904762Y-97792426D01*
D10*
X195934793Y-92915896D02*
X195744317Y-92915896D01*
X195744317Y-92915896D02*
X195649079Y-92963515D01*
X195649079Y-92963515D02*
X195553841Y-93058753D01*
X195553841Y-93058753D02*
X195506222Y-93249229D01*
X195506222Y-93249229D02*
X195506222Y-93582562D01*
X195506222Y-93582562D02*
X195553841Y-93773038D01*
X195553841Y-93773038D02*
X195649079Y-93868277D01*
X195649079Y-93868277D02*
X195744317Y-93915896D01*
X195744317Y-93915896D02*
X195934793Y-93915896D01*
X195934793Y-93915896D02*
X196030031Y-93868277D01*
X196030031Y-93868277D02*
X196125269Y-93773038D01*
X196125269Y-93773038D02*
X196172888Y-93582562D01*
X196172888Y-93582562D02*
X196172888Y-93249229D01*
X196172888Y-93249229D02*
X196125269Y-93058753D01*
X196125269Y-93058753D02*
X196030031Y-92963515D01*
X196030031Y-92963515D02*
X195934793Y-92915896D01*
X195125269Y-93868277D02*
X194982412Y-93915896D01*
X194982412Y-93915896D02*
X194744317Y-93915896D01*
X194744317Y-93915896D02*
X194649079Y-93868277D01*
X194649079Y-93868277D02*
X194601460Y-93820657D01*
X194601460Y-93820657D02*
X194553841Y-93725419D01*
X194553841Y-93725419D02*
X194553841Y-93630181D01*
X194553841Y-93630181D02*
X194601460Y-93534943D01*
X194601460Y-93534943D02*
X194649079Y-93487324D01*
X194649079Y-93487324D02*
X194744317Y-93439705D01*
X194744317Y-93439705D02*
X194934793Y-93392086D01*
X194934793Y-93392086D02*
X195030031Y-93344467D01*
X195030031Y-93344467D02*
X195077650Y-93296848D01*
X195077650Y-93296848D02*
X195125269Y-93201610D01*
X195125269Y-93201610D02*
X195125269Y-93106372D01*
X195125269Y-93106372D02*
X195077650Y-93011134D01*
X195077650Y-93011134D02*
X195030031Y-92963515D01*
X195030031Y-92963515D02*
X194934793Y-92915896D01*
X194934793Y-92915896D02*
X194696698Y-92915896D01*
X194696698Y-92915896D02*
X194553841Y-92963515D01*
X194125269Y-93915896D02*
X194125269Y-92915896D01*
X194125269Y-93392086D02*
X193553841Y-93392086D01*
X193553841Y-93915896D02*
X193553841Y-92915896D01*
X193172888Y-92915896D02*
X192934793Y-93915896D01*
X192934793Y-93915896D02*
X192744317Y-93201610D01*
X192744317Y-93201610D02*
X192553841Y-93915896D01*
X192553841Y-93915896D02*
X192315746Y-92915896D01*
X190982412Y-92915896D02*
X190791936Y-92915896D01*
X190791936Y-92915896D02*
X190696698Y-92963515D01*
X190696698Y-92963515D02*
X190601460Y-93058753D01*
X190601460Y-93058753D02*
X190553841Y-93249229D01*
X190553841Y-93249229D02*
X190553841Y-93582562D01*
X190553841Y-93582562D02*
X190601460Y-93773038D01*
X190601460Y-93773038D02*
X190696698Y-93868277D01*
X190696698Y-93868277D02*
X190791936Y-93915896D01*
X190791936Y-93915896D02*
X190982412Y-93915896D01*
X190982412Y-93915896D02*
X191077650Y-93868277D01*
X191077650Y-93868277D02*
X191172888Y-93773038D01*
X191172888Y-93773038D02*
X191220507Y-93582562D01*
X191220507Y-93582562D02*
X191220507Y-93249229D01*
X191220507Y-93249229D02*
X191172888Y-93058753D01*
X191172888Y-93058753D02*
X191077650Y-92963515D01*
X191077650Y-92963515D02*
X190982412Y-92915896D01*
X190125269Y-92915896D02*
X190125269Y-93725419D01*
X190125269Y-93725419D02*
X190077650Y-93820657D01*
X190077650Y-93820657D02*
X190030031Y-93868277D01*
X190030031Y-93868277D02*
X189934793Y-93915896D01*
X189934793Y-93915896D02*
X189744317Y-93915896D01*
X189744317Y-93915896D02*
X189649079Y-93868277D01*
X189649079Y-93868277D02*
X189601460Y-93820657D01*
X189601460Y-93820657D02*
X189553841Y-93725419D01*
X189553841Y-93725419D02*
X189553841Y-92915896D01*
X189220507Y-92915896D02*
X188649079Y-92915896D01*
X188934793Y-93915896D02*
X188934793Y-92915896D01*
X187839555Y-93915896D02*
X188315745Y-93915896D01*
X188315745Y-93915896D02*
X188315745Y-92915896D01*
X187506221Y-93915896D02*
X187506221Y-92915896D01*
X187030031Y-93915896D02*
X187030031Y-92915896D01*
X187030031Y-92915896D02*
X186458603Y-93915896D01*
X186458603Y-93915896D02*
X186458603Y-92915896D01*
X185982412Y-93392086D02*
X185649079Y-93392086D01*
X185506222Y-93915896D02*
X185982412Y-93915896D01*
X185982412Y-93915896D02*
X185982412Y-92915896D01*
X185982412Y-92915896D02*
X185506222Y-92915896D01*
X192553841Y-95415896D02*
X193030031Y-95415896D01*
X193030031Y-95415896D02*
X193030031Y-94415896D01*
X192030031Y-94415896D02*
X191839555Y-94415896D01*
X191839555Y-94415896D02*
X191744317Y-94463515D01*
X191744317Y-94463515D02*
X191649079Y-94558753D01*
X191649079Y-94558753D02*
X191601460Y-94749229D01*
X191601460Y-94749229D02*
X191601460Y-95082562D01*
X191601460Y-95082562D02*
X191649079Y-95273038D01*
X191649079Y-95273038D02*
X191744317Y-95368277D01*
X191744317Y-95368277D02*
X191839555Y-95415896D01*
X191839555Y-95415896D02*
X192030031Y-95415896D01*
X192030031Y-95415896D02*
X192125269Y-95368277D01*
X192125269Y-95368277D02*
X192220507Y-95273038D01*
X192220507Y-95273038D02*
X192268126Y-95082562D01*
X192268126Y-95082562D02*
X192268126Y-94749229D01*
X192268126Y-94749229D02*
X192220507Y-94558753D01*
X192220507Y-94558753D02*
X192125269Y-94463515D01*
X192125269Y-94463515D02*
X192030031Y-94415896D01*
X190649079Y-94463515D02*
X190744317Y-94415896D01*
X190744317Y-94415896D02*
X190887174Y-94415896D01*
X190887174Y-94415896D02*
X191030031Y-94463515D01*
X191030031Y-94463515D02*
X191125269Y-94558753D01*
X191125269Y-94558753D02*
X191172888Y-94653991D01*
X191172888Y-94653991D02*
X191220507Y-94844467D01*
X191220507Y-94844467D02*
X191220507Y-94987324D01*
X191220507Y-94987324D02*
X191172888Y-95177800D01*
X191172888Y-95177800D02*
X191125269Y-95273038D01*
X191125269Y-95273038D02*
X191030031Y-95368277D01*
X191030031Y-95368277D02*
X190887174Y-95415896D01*
X190887174Y-95415896D02*
X190791936Y-95415896D01*
X190791936Y-95415896D02*
X190649079Y-95368277D01*
X190649079Y-95368277D02*
X190601460Y-95320657D01*
X190601460Y-95320657D02*
X190601460Y-94987324D01*
X190601460Y-94987324D02*
X190791936Y-94987324D01*
X189982412Y-94415896D02*
X189791936Y-94415896D01*
X189791936Y-94415896D02*
X189696698Y-94463515D01*
X189696698Y-94463515D02*
X189601460Y-94558753D01*
X189601460Y-94558753D02*
X189553841Y-94749229D01*
X189553841Y-94749229D02*
X189553841Y-95082562D01*
X189553841Y-95082562D02*
X189601460Y-95273038D01*
X189601460Y-95273038D02*
X189696698Y-95368277D01*
X189696698Y-95368277D02*
X189791936Y-95415896D01*
X189791936Y-95415896D02*
X189982412Y-95415896D01*
X189982412Y-95415896D02*
X190077650Y-95368277D01*
X190077650Y-95368277D02*
X190172888Y-95273038D01*
X190172888Y-95273038D02*
X190220507Y-95082562D01*
X190220507Y-95082562D02*
X190220507Y-94749229D01*
X190220507Y-94749229D02*
X190172888Y-94558753D01*
X190172888Y-94558753D02*
X190077650Y-94463515D01*
X190077650Y-94463515D02*
X189982412Y-94415896D01*
X189172888Y-94511134D02*
X189125269Y-94463515D01*
X189125269Y-94463515D02*
X189030031Y-94415896D01*
X189030031Y-94415896D02*
X188791936Y-94415896D01*
X188791936Y-94415896D02*
X188696698Y-94463515D01*
X188696698Y-94463515D02*
X188649079Y-94511134D01*
X188649079Y-94511134D02*
X188601460Y-94606372D01*
X188601460Y-94606372D02*
X188601460Y-94701610D01*
X188601460Y-94701610D02*
X188649079Y-94844467D01*
X188649079Y-94844467D02*
X189220507Y-95415896D01*
X189220507Y-95415896D02*
X188601460Y-95415896D01*
X197071428Y-102624819D02*
X197642856Y-102624819D01*
X197357142Y-102624819D02*
X197357142Y-101624819D01*
X197357142Y-101624819D02*
X197452380Y-101767676D01*
X197452380Y-101767676D02*
X197547618Y-101862914D01*
X197547618Y-101862914D02*
X197642856Y-101910533D01*
X196166666Y-101624819D02*
X196642856Y-101624819D01*
X196642856Y-101624819D02*
X196690475Y-102101009D01*
X196690475Y-102101009D02*
X196642856Y-102053390D01*
X196642856Y-102053390D02*
X196547618Y-102005771D01*
X196547618Y-102005771D02*
X196309523Y-102005771D01*
X196309523Y-102005771D02*
X196214285Y-102053390D01*
X196214285Y-102053390D02*
X196166666Y-102101009D01*
X196166666Y-102101009D02*
X196119047Y-102196247D01*
X196119047Y-102196247D02*
X196119047Y-102434342D01*
X196119047Y-102434342D02*
X196166666Y-102529580D01*
X196166666Y-102529580D02*
X196214285Y-102577200D01*
X196214285Y-102577200D02*
X196309523Y-102624819D01*
X196309523Y-102624819D02*
X196547618Y-102624819D01*
X196547618Y-102624819D02*
X196642856Y-102577200D01*
X196642856Y-102577200D02*
X196690475Y-102529580D01*
X195499999Y-101624819D02*
X195404761Y-101624819D01*
X195404761Y-101624819D02*
X195309523Y-101672438D01*
X195309523Y-101672438D02*
X195261904Y-101720057D01*
X195261904Y-101720057D02*
X195214285Y-101815295D01*
X195214285Y-101815295D02*
X195166666Y-102005771D01*
X195166666Y-102005771D02*
X195166666Y-102243866D01*
X195166666Y-102243866D02*
X195214285Y-102434342D01*
X195214285Y-102434342D02*
X195261904Y-102529580D01*
X195261904Y-102529580D02*
X195309523Y-102577200D01*
X195309523Y-102577200D02*
X195404761Y-102624819D01*
X195404761Y-102624819D02*
X195499999Y-102624819D01*
X195499999Y-102624819D02*
X195595237Y-102577200D01*
X195595237Y-102577200D02*
X195642856Y-102529580D01*
X195642856Y-102529580D02*
X195690475Y-102434342D01*
X195690475Y-102434342D02*
X195738094Y-102243866D01*
X195738094Y-102243866D02*
X195738094Y-102005771D01*
X195738094Y-102005771D02*
X195690475Y-101815295D01*
X195690475Y-101815295D02*
X195642856Y-101720057D01*
X195642856Y-101720057D02*
X195595237Y-101672438D01*
X195595237Y-101672438D02*
X195499999Y-101624819D01*
X194738094Y-102624819D02*
X194738094Y-101624819D01*
X194642856Y-102243866D02*
X194357142Y-102624819D01*
X194357142Y-101958152D02*
X194738094Y-102339104D01*
D13*
X196167142Y-101118200D02*
X196253809Y-100994391D01*
X196315714Y-101118200D02*
X196315714Y-100858200D01*
X196315714Y-100858200D02*
X196216666Y-100858200D01*
X196216666Y-100858200D02*
X196191904Y-100870581D01*
X196191904Y-100870581D02*
X196179523Y-100882962D01*
X196179523Y-100882962D02*
X196167142Y-100907724D01*
X196167142Y-100907724D02*
X196167142Y-100944867D01*
X196167142Y-100944867D02*
X196179523Y-100969629D01*
X196179523Y-100969629D02*
X196191904Y-100982010D01*
X196191904Y-100982010D02*
X196216666Y-100994391D01*
X196216666Y-100994391D02*
X196315714Y-100994391D01*
X196080476Y-100858200D02*
X195919523Y-100858200D01*
X195919523Y-100858200D02*
X196006190Y-100957248D01*
X196006190Y-100957248D02*
X195969047Y-100957248D01*
X195969047Y-100957248D02*
X195944285Y-100969629D01*
X195944285Y-100969629D02*
X195931904Y-100982010D01*
X195931904Y-100982010D02*
X195919523Y-101006772D01*
X195919523Y-101006772D02*
X195919523Y-101068677D01*
X195919523Y-101068677D02*
X195931904Y-101093439D01*
X195931904Y-101093439D02*
X195944285Y-101105820D01*
X195944285Y-101105820D02*
X195969047Y-101118200D01*
X195969047Y-101118200D02*
X196043333Y-101118200D01*
X196043333Y-101118200D02*
X196068095Y-101105820D01*
X196068095Y-101105820D02*
X196080476Y-101093439D01*
X195671904Y-101118200D02*
X195820476Y-101118200D01*
X195746190Y-101118200D02*
X195746190Y-100858200D01*
X195746190Y-100858200D02*
X195770952Y-100895343D01*
X195770952Y-100895343D02*
X195795714Y-100920105D01*
X195795714Y-100920105D02*
X195820476Y-100932486D01*
D16*
%TO.C,C49*%
X183000000Y-100375000D02*
X183000000Y-101625000D01*
X183000000Y-101625000D02*
X185000000Y-101625000D01*
X185000000Y-100375000D02*
X183000000Y-100375000D01*
X185000000Y-101625000D02*
X185000000Y-100375000D01*
%TO.C,L2*%
X202400000Y-96750000D02*
X202400000Y-99250000D01*
X202400000Y-99250000D02*
X205600000Y-99250000D01*
X205600000Y-96750000D02*
X202400000Y-96750000D01*
X205600000Y-99250000D02*
X205600000Y-96750000D01*
%TO.C,R29*%
X179475000Y-100730000D02*
X179475000Y-101270000D01*
X179475000Y-101270000D02*
X180525000Y-101270000D01*
X180525000Y-100730000D02*
X179475000Y-100730000D01*
X180525000Y-101270000D02*
X180525000Y-100730000D01*
%TO.C,R28*%
X209200000Y-97587500D02*
X209200000Y-98412500D01*
X209200000Y-98412500D02*
X210800000Y-98412500D01*
X210800000Y-97587500D02*
X209200000Y-97587500D01*
X210800000Y-98412500D02*
X210800000Y-97587500D01*
%TO.C,C47*%
X213500000Y-97750000D02*
X213500000Y-98250000D01*
X213500000Y-98250000D02*
X214500000Y-98250000D01*
X214500000Y-97750000D02*
X213500000Y-97750000D01*
X214500000Y-98250000D02*
X214500000Y-97750000D01*
%TO.C,C48*%
X179000000Y-97375000D02*
X179000000Y-98625000D01*
X179000000Y-98625000D02*
X181000000Y-98625000D01*
X181000000Y-97375000D02*
X179000000Y-97375000D01*
X181000000Y-98625000D02*
X181000000Y-97375000D01*
%TO.C,J13*%
X164790000Y-59840000D02*
X165990000Y-59840000D01*
X164790000Y-60440000D02*
X164790000Y-59840000D01*
X164790000Y-60440000D02*
X164790000Y-80040000D01*
X164790000Y-80040000D02*
X164790000Y-80640000D01*
X164790000Y-80040000D02*
X170290000Y-80040000D01*
X164790000Y-80640000D02*
X165990000Y-80640000D01*
X165990000Y-59840000D02*
X165990000Y-60440000D01*
X165990000Y-80640000D02*
X165990000Y-80040000D01*
X170290000Y-60440000D02*
X164790000Y-60440000D01*
X170290000Y-80040000D02*
X170290000Y-60440000D01*
%TO.C,U7*%
X199200000Y-96550000D02*
X199200000Y-99450000D01*
X199200000Y-99450000D02*
X200800000Y-99450000D01*
X200400000Y-96550000D02*
X199200000Y-96550000D01*
X200800000Y-96950000D02*
X200400000Y-96550000D01*
X200800000Y-99450000D02*
X200800000Y-96950000D01*
%TO.C,C54*%
X203500000Y-100750000D02*
X203500000Y-101250000D01*
X203500000Y-101250000D02*
X204500000Y-101250000D01*
X204500000Y-100750000D02*
X203500000Y-100750000D01*
X204500000Y-101250000D02*
X204500000Y-100750000D01*
%TO.C,C53*%
X199000000Y-100375000D02*
X199000000Y-101625000D01*
X199000000Y-101625000D02*
X201000000Y-101625000D01*
X201000000Y-100375000D02*
X199000000Y-100375000D01*
X201000000Y-101625000D02*
X201000000Y-100375000D01*
%TO.C,R26*%
X209200000Y-100587500D02*
X209200000Y-101412500D01*
X209200000Y-101412500D02*
X210800000Y-101412500D01*
X210800000Y-100587500D02*
X209200000Y-100587500D01*
X210800000Y-101412500D02*
X210800000Y-100587500D01*
%TO.C,R32*%
X191475000Y-100730000D02*
X191475000Y-101270000D01*
X191475000Y-101270000D02*
X192525000Y-101270000D01*
X192525000Y-100730000D02*
X191475000Y-100730000D01*
X192525000Y-101270000D02*
X192525000Y-100730000D01*
%TO.C,C55*%
X207500000Y-97750000D02*
X207500000Y-98250000D01*
X207500000Y-98250000D02*
X208500000Y-98250000D01*
X208500000Y-97750000D02*
X207500000Y-97750000D01*
X208500000Y-98250000D02*
X208500000Y-97750000D01*
%TO.C,C51*%
X191500000Y-97750000D02*
X191500000Y-98250000D01*
X191500000Y-98250000D02*
X192500000Y-98250000D01*
X192500000Y-97750000D02*
X191500000Y-97750000D01*
X192500000Y-98250000D02*
X192500000Y-97750000D01*
%TO.C,R27*%
X213200000Y-100587500D02*
X213200000Y-101412500D01*
X213200000Y-101412500D02*
X214800000Y-101412500D01*
X214800000Y-100587500D02*
X213200000Y-100587500D01*
X214800000Y-101412500D02*
X214800000Y-100587500D01*
%TO.C,C52*%
X195000000Y-97375000D02*
X195000000Y-98625000D01*
X195000000Y-98625000D02*
X197000000Y-98625000D01*
X197000000Y-97375000D02*
X195000000Y-97375000D01*
X197000000Y-98625000D02*
X197000000Y-97375000D01*
%TO.C,U6*%
X183200000Y-96550000D02*
X183200000Y-99450000D01*
X183200000Y-99450000D02*
X184800000Y-99450000D01*
X184400000Y-96550000D02*
X183200000Y-96550000D01*
X184800000Y-96950000D02*
X184400000Y-96550000D01*
X184800000Y-99450000D02*
X184800000Y-96950000D01*
%TO.C,R30*%
X175475000Y-100730000D02*
X175475000Y-101270000D01*
X175475000Y-101270000D02*
X176525000Y-101270000D01*
X176525000Y-100730000D02*
X175475000Y-100730000D01*
X176525000Y-101270000D02*
X176525000Y-100730000D01*
%TO.C,C50*%
X187500000Y-100750000D02*
X187500000Y-101250000D01*
X187500000Y-101250000D02*
X188500000Y-101250000D01*
X188500000Y-100750000D02*
X187500000Y-100750000D01*
X188500000Y-101250000D02*
X188500000Y-100750000D01*
%TO.C,L1*%
X186400000Y-96750000D02*
X186400000Y-99250000D01*
X186400000Y-99250000D02*
X189600000Y-99250000D01*
X189600000Y-96750000D02*
X186400000Y-96750000D01*
X189600000Y-99250000D02*
X189600000Y-96750000D01*
%TO.C,R31*%
X195475000Y-100730000D02*
X195475000Y-101270000D01*
X195475000Y-101270000D02*
X196525000Y-101270000D01*
X196525000Y-100730000D02*
X195475000Y-100730000D01*
X196525000Y-101270000D02*
X196525000Y-100730000D01*
%TD*%
M02*
